<svg xmlns="http://www.w3.org/2000/svg" width="22" height="22" viewBox="0 0 22 22"><defs><style>.a{fill:none;}.b{fill:#242424;}</style></defs><path class="b" d="M11,21.816,8.643,19.8l-3.051.569L4.56,17.441,1.633,16.408,2.2,13.357.184,11,2.2,8.643,1.633,5.592,4.56,4.56,5.592,1.633,8.643,2.2,11,.184,13.357,2.2l3.051-.569L17.441,4.56l2.926,1.032L19.8,8.643,21.816,11,19.8,13.357l.569,3.051-2.926,1.033-1.033,2.926L13.357,19.8ZM9.217,17.657,11,19.184l1.783-1.527,2.309.431.781-2.215,2.215-.781-.431-2.309L19.184,11,17.657,9.217l.431-2.309-2.215-.781-.781-2.214-2.309.43L11,2.816,9.217,4.343l-2.309-.43L6.127,6.127l-2.214.781.43,2.309L2.816,11l1.527,1.783-.43,2.309,2.214.781.781,2.215ZM15.77,9.051,14.355,7.637l-4.6,4.6-2.105-2.1L6.23,11.551,9.75,15.07Z"/></svg>