<svg xmlns="http://www.w3.org/2000/svg" width="22" height="22" viewBox="0 0 22 22"><defs><style>.a{fill:none;}.b{fill:#8e8e8e;}</style></defs><path class="b" d="M21.607,10.566c-.192-.274-4.75-6.693-10.607-6.693S.584,10.292.393,10.566L0,11.128l.393.562c.191.273,4.749,6.692,10.607,6.692s10.415-6.419,10.607-6.692L22,11.128ZM11,16.422c-3.926,0-7.386-3.827-8.568-5.294C3.614,9.661,7.074,5.834,11,5.834s7.387,3.828,8.569,5.295C18.39,12.6,14.938,16.422,11,16.422Zm3.86-7.767a4.615,4.615,0,0,0-.608-.754L14.26,7.9a4.687,4.687,0,0,0-.776-.619l-.011-.008h0A4.55,4.55,0,0,0,11,6.534a4.594,4.594,0,0,0,0,9.189,4.54,4.54,0,0,0,2.47-.739l0,0c.008-.005.013-.012.021-.017a4.672,4.672,0,0,0,.777-.624l-.008-.005a4.683,4.683,0,0,0,.6-.74l-.328-.328h0l-2.147-2.146,1.683-1.682ZM8.366,11.128A2.637,2.637,0,0,1,11,8.495a2.564,2.564,0,0,1,1.025.222L11,9.743h0L9.613,11.129,11,12.515h0l1.025,1.025A2.541,2.541,0,0,1,11,13.762,2.637,2.637,0,0,1,8.366,11.128Z"/></svg>