<svg xmlns="http://www.w3.org/2000/svg" width="22" height="22" viewBox="0 0 22 22"><defs><style>.a{fill:none;}.b{fill:#8e8e8e;}</style></defs><path class="b" d="M21.607,10.566a20.876,20.876,0,0,0-4.314-4.345L18.7,4.812A17.352,17.352,0,0,0,17.04,3.7L15.6,5.146A9.688,9.688,0,0,0,11,3.873C5.142,3.873.584,10.292.393,10.566L0,11.128l.393.562a20.818,20.818,0,0,0,4.314,4.345L3.3,17.446a17.167,17.167,0,0,0,1.663,1.11L6.4,17.11A9.691,9.691,0,0,0,11,18.382c5.857,0,10.415-6.419,10.607-6.692L22,11.128Zm-19.175.562C3.614,9.661,7.074,5.834,11,5.834a7.4,7.4,0,0,1,3.14.768l-.667.667h0A4.55,4.55,0,0,0,11,6.534,4.58,4.58,0,0,0,7.14,13.6L6.111,14.63A19.029,19.029,0,0,1,2.432,11.128ZM11,12.514l1.025,1.025A2.541,2.541,0,0,1,11,13.762a2.628,2.628,0,0,1-1.035-.213Zm0-2.771h0l-.068.067L8.579,12.163A2.631,2.631,0,0,1,11,8.495a2.564,2.564,0,0,1,1.025.222Zm0,6.679a7.4,7.4,0,0,1-3.14-.768l.666-.666a4.514,4.514,0,0,0,4.944,0l0,0c.008-.005.013-.012.021-.017a4.672,4.672,0,0,0,.777-.624l-.008-.005a4.683,4.683,0,0,0,.6-.74l-.328-.328h0l-2.147-2.146,1.763-1.763.711-.71h0l1.029-1.03a19.039,19.039,0,0,1,3.68,3.5C18.39,12.6,14.938,16.422,11,16.422Z"/></svg>