<svg xmlns="http://www.w3.org/2000/svg" width="22" height="22" viewBox="0 0 22 22"><defs><style>.a{fill:#242424;}.b{fill:none;}</style></defs><path class="a" d="M17.1,1.1A5.637,5.637,0,0,0,11,3.9,5.637,5.637,0,0,0,4.9,1.1,6.128,6.128,0,0,0,1.7,3C-3.7,9.6,9.1,19.6,11,21c1.9-1.5,14.7-11.4,9.3-18A6.128,6.128,0,0,0,17.1,1.1ZM11,18.5c-3.7-3-8.6-8-8.6-11.8A3.63,3.63,0,0,1,6.1,3a2.769,2.769,0,0,1,.9.1A4.147,4.147,0,0,1,9.4,5h0a5.783,5.783,0,0,1,.5,1.4l.1.8h2l.2-.8A7.838,7.838,0,0,1,12.7,5h0a4.147,4.147,0,0,1,2.4-1.9,3.55,3.55,0,0,1,4.4,2.7,2.769,2.769,0,0,1,.1.9C19.6,10.5,14.7,15.5,11,18.5Z"/></svg>