<svg xmlns="http://www.w3.org/2000/svg" width="22" height="20.9" viewBox="0 0 22 20.9"><defs><style>.a{fill:#242424;}</style></defs><path class="a" d="M5.3,4.4H0v-2H5.3A3.33,3.33,0,0,1,8.5,0a3.465,3.465,0,0,1,3.2,2.3H22v2H11.7A3.33,3.33,0,0,1,8.5,6.7,3.366,3.366,0,0,1,5.3,4.4Zm4.6-1A1.43,1.43,0,0,0,8.5,2,1.367,1.367,0,0,0,7.1,3.4,1.347,1.347,0,0,0,8.5,4.7,1.344,1.344,0,0,0,9.9,3.4ZM22,9.4H16.5a3.333,3.333,0,0,0-6.4,0H0v2H10.1a3.333,3.333,0,0,0,6.4,0H22Zm-7.3,1a1.43,1.43,0,0,1-1.4,1.4A1.344,1.344,0,0,1,12,10.4,1.415,1.415,0,0,1,13.3,9,1.43,1.43,0,0,1,14.7,10.4ZM22,16.5H11.7a3.333,3.333,0,0,0-6.4,0H0v2H5.3a3.333,3.333,0,0,0,6.4,0H22Zm-12.2,1a1.4,1.4,0,0,1-2.8,0,1.4,1.4,0,0,1,2.8,0Z"/></svg>