<svg xmlns="http://www.w3.org/2000/svg" width="15.1" height="15.1" viewBox="0 0 15.1 15.1"><defs><style>.a{fill:#ee8d10;}</style></defs><path class="a" d="M7.55,0A7.559,7.559,0,0,0,0,7.55V12.8a2.3,2.3,0,0,0,2.3,2.3h.75a2.3,2.3,0,0,0,2.3-2.3V10.55a2.3,2.3,0,0,0-2.3-2.3H1.6v-.7a5.95,5.95,0,1,1,11.9,0v.7H12.05a2.3,2.3,0,0,0-2.3,2.3V12.8a2.3,2.3,0,0,0,2.3,2.3h.75a2.3,2.3,0,0,0,2.3-2.3V7.55A7.559,7.559,0,0,0,7.55,0ZM3.05,9.85a.7.7,0,0,1,.7.7V12.8a.7.7,0,0,1-.7.7H2.3a.7.7,0,0,1-.7-.7V9.85ZM13.5,12.8a.7.7,0,0,1-.7.7h-.75a.7.7,0,0,1-.7-.7V10.55a.7.7,0,0,1,.7-.7H13.5V12.8Z"/></svg>