<svg xmlns="http://www.w3.org/2000/svg" width="16" height="15.763" viewBox="0 0 16 15.763"><defs><style>.a{fill:#8e8e8e;}</style></defs><path class="a" d="M8.411,13.981H9.952V12.441H8.411ZM9.241,1.3a9.464,9.464,0,0,0-3.081.593A9.491,9.491,0,0,0,3.67,3.67,7.52,7.52,0,0,0,1.3,9.241a7.52,7.52,0,0,0,2.37,5.57A7.533,7.533,0,0,0,6.278,16.47a8.9,8.9,0,0,0,3.081.593,7.52,7.52,0,0,0,5.57-2.37,7.714,7.714,0,0,0,2.37-5.57,9.463,9.463,0,0,0-.593-3.081,8.821,8.821,0,0,0-1.659-2.607,7.533,7.533,0,0,0-2.607-1.659A16.088,16.088,0,0,0,9.241,1.3Zm0,14.222a6.281,6.281,0,1,1,6.281-6.281A6.323,6.323,0,0,1,9.241,15.522Zm0-11.022a3.238,3.238,0,0,0-3.2,3.2H7.581a1.155,1.155,0,0,1,.474-1.067,1.646,1.646,0,0,1,1.185-.593,1.155,1.155,0,0,1,1.067.474A1.522,1.522,0,0,1,10.781,7.7c0,1.541-2.37,1.422-2.37,3.911H9.952c0-1.778,2.37-2.015,2.37-3.911a3.238,3.238,0,0,0-.948-2.252A2.775,2.775,0,0,0,9.241,4.5Z" transform="translate(-1.3 -1.3)"/></svg>