<svg xmlns="http://www.w3.org/2000/svg" width="21" height="22" viewBox="0 0 21 22"><defs><style>.a{fill:#8e8e8e;fill-rule:evenodd;}</style></defs><path class="a" d="M11.01,1.6a1,1,0,0,1,.915-.6,3.99,3.99,0,0,1,3.98,4v3h4.1a2.986,2.986,0,0,1,2.866,2.069.992.992,0,0,1,.051.146v.005a1.452,1.452,0,0,1,.04.206c.014.1.021.217.025.312.008.19.008.407.008.552v.009a1,1,0,0,1-.011.15l-1.37,8.992v0a2.988,2.988,0,0,1-2.98,2.548H7.952L4.991,23H4.986A2.993,2.993,0,0,1,2,20v-7a2.993,2.993,0,0,1,2.984-3h0L7.3,10l3.71-8.4ZM6.953,12l-1.961.01H4.987a.98.98,0,0,0-.7.29A1,1,0,0,0,4,13.006V20a1,1,0,0,0,.291.709.98.98,0,0,0,.694.29h0l1.966-.01V12Zm2,8.988h9.7a.979.979,0,0,0,.648-.235,1,1,0,0,0,.338-.613h0L21,11.218q0-.241-.01-.482l-.007-.022a1,1,0,0,0-.545-.632.976.976,0,0,0-.413-.087H14.9a1,1,0,0,1-1-1V5a2.012,2.012,0,0,0-.581-1.415,1.976,1.976,0,0,0-.79-.486L8.953,11.2v9.781ZM20.986,10.684Z" transform="translate(-2 -1)"/></svg>