<svg xmlns="http://www.w3.org/2000/svg" width="22" height="22" viewBox="0 0 22 22"><defs><style>.a{fill:#242424;}.b{fill:none;}</style></defs><path class="a" d="M14.3,10.8a5.76,5.76,0,0,0,2.1-4.3A5.463,5.463,0,0,0,11,1a5.485,5.485,0,0,0-3.3,9.8,8.646,8.646,0,0,0-5.2,8V20a.9.9,0,0,0,.9.9H18.5a.9.9,0,0,0,.9-.9V18.8A8.659,8.659,0,0,0,14.3,10.8ZM7.4,6.5A3.738,3.738,0,0,1,11,2.8a3.671,3.671,0,0,1,3.6,3.7A3.738,3.738,0,0,1,11,10.2,3.738,3.738,0,0,1,7.4,6.5ZM17.7,19.2H4.3v-.3A6.722,6.722,0,0,1,11,12.1a6.852,6.852,0,0,1,6.7,6.8Z"/></svg>