<svg xmlns="http://www.w3.org/2000/svg" width="39.903" height="40" viewBox="0 0 39.903 40"><defs><style>.a{fill:#ffa22a;}.b{fill:#fff;}.c{fill:#1b1b1b;}</style></defs><path class="a" d="M49.246-9.786a11.851,11.851,0,0,0-3.266.459C39.46-7.458,35.563-.184,38.094,5.994a59.594,59.594,0,0,0,7.131,12.188c1.263,1.751,2.619,3.433,4.058,5.31,1.23-1.581,2.355-2.953,3.4-4.383C55.7,14.976,58.608,10.777,60.5,5.973A10.908,10.908,0,0,0,61.031-.4,12.037,12.037,0,0,0,49.246-9.786Zm.026,14.028-.071,0A1.981,1.981,0,0,1,47.326,2.2,1.986,1.986,0,0,1,49.272.219l.093,0a1.989,1.989,0,0,1,1.879,2.037,1.986,1.986,0,0,1-1.972,1.984Z" transform="translate(-29.3 9.786)"/><path class="b" d="M63.616,12.141H59.728a87.6,87.6,0,0,1-5.43,8.147c-.733,1-1.491,1.964-2.3,2.981-.37.469-.75.949-1.141,1.452l-1.59,2.043-1.576-2.055c-.455-.594-.9-1.168-1.34-1.731-.962-1.236-1.871-2.4-2.752-3.626a79.448,79.448,0,0,1-4.713-7.211h-4L29.3,30.214H69.2Z" transform="translate(-29.3 9.786)"/><path class="c" d="M49.247-7.786h0A9.973,9.973,0,0,1,59.072.006a8.916,8.916,0,0,1-.428,5.233c-1.833,4.645-4.748,8.816-7.577,12.69-.559.767-1.151,1.526-1.772,2.314-.859-1.1-1.674-2.157-2.448-3.231a58.119,58.119,0,0,1-6.9-11.776,8.894,8.894,0,0,1,.339-7.329A10.067,10.067,0,0,1,46.531-7.4a9.823,9.823,0,0,1,2.716-.382m.025,14.028a3.967,3.967,0,0,0,3.972-3.949,3.974,3.974,0,0,0-3.781-4.069c-.064,0-.128,0-.191,0a4,4,0,0,0-3.946,3.956,4,4,0,0,0,3.806,4.064l.14,0M49.246-9.786a11.851,11.851,0,0,0-3.266.459C39.46-7.458,35.563-.184,38.094,5.994a59.594,59.594,0,0,0,7.131,12.188c1.263,1.751,2.619,3.433,4.058,5.31,1.23-1.581,2.355-2.953,3.4-4.383C55.7,14.976,58.608,10.777,60.5,5.973A10.908,10.908,0,0,0,61.031-.4,12.037,12.037,0,0,0,49.246-9.786Zm.026,14.028-.071,0A1.981,1.981,0,0,1,47.326,2.2,1.986,1.986,0,0,1,49.272.219l.093,0a1.989,1.989,0,0,1,1.879,2.037,1.986,1.986,0,0,1-1.972,1.984Z" transform="translate(-29.3 9.786)"/><path class="c" d="M63.616,12.141H59.728c-.387.679-.791,1.343-1.2,2h3.615l4.35,14.073H32.012l4.35-14.073h3.721c-.4-.651-.8-1.315-1.193-2h-4L29.3,30.214H69.2Z" transform="translate(-29.3 9.786)"/></svg>