<svg xmlns="http://www.w3.org/2000/svg" width="22.12" height="22" viewBox="0 0 22.12 22"><defs><style>.a{fill:#242424;}.b{fill:none;}</style></defs><path class="a" d="M249.2,227.8h12.9v2.4H249.2v-2.4Zm-1.5-10-1.5-1v-5h1.5v-1.5h-3v7.3l3.5,2.2A6.529,6.529,0,0,1,247.7,217.8Zm16-7.5v1.5h1.5v4.9l-1.5,1a15.529,15.529,0,0,1-.4,2.1l3.5-2.2v-7.3Zm-14.5-1.5h12.9v4.5H249.2v-4.5Zm2,12.8a8.31,8.31,0,0,1,2.3,4.9h4.4a8.043,8.043,0,0,1,2.3-4.9,6.966,6.966,0,0,0,2-4.9v-2.3H249.3v2.3A6.333,6.333,0,0,0,251.2,221.6Z" transform="translate(-244.68 -208.5)"/></svg>