<svg xmlns="http://www.w3.org/2000/svg" width="23.926" height="12.8" viewBox="0 0 23.926 12.8"><defs><style>.a{fill:#242424;}</style></defs><path class="a" d="M4.2,0H.8A1.232,1.232,0,0,0,.1.2C-.1.4.1.7.1.7S2.7,6.9,5.6,10a8.089,8.089,0,0,0,6.1,2.8h1.1c.6,0,.9-.1.9-.4,0-.9,0-1.8.7-2.1.9-.3,2.1,1.3,3.3,2a3.088,3.088,0,0,0,1.6.5h3.5s1.7-.2.9-1.4A19.537,19.537,0,0,0,21.3,9c-2-1.8-1.7-1.5.7-4.6C23.5,2.5,24.1.8,23.9.3c0-.3-.6-.3-1.2-.3H19.1a.749.749,0,0,0-.5.1.747.747,0,0,0-.3.3,16.91,16.91,0,0,1-1.4,3.3c-1.6,2.6-2.5,2.4-2.8,2.2-.6-.4-.5-1.5-.5-2.3,0-2.5.3-3.2-.9-3.5-.3,0-.6-.1-1.6-.1A7.939,7.939,0,0,0,8.5.3c-.4.2-.7.5-.5.5a1.737,1.737,0,0,1,1.1.6A2.8,2.8,0,0,1,9.4,3s.2,2.5-.5,2.9c-.4.2-1.1.2-2.5-2.2A12.452,12.452,0,0,1,5.1.6,1.866,1.866,0,0,1,4.8.2Z" transform="translate(-0.011)"/></svg>