<svg xmlns="http://www.w3.org/2000/svg" width="18" height="16.273" viewBox="0 0 18 16.273"><defs><style>.a{fill:#ff3821;}</style></defs><g transform="translate(0 -5.949)"><path class="a" d="M1.425,22.222H16.581a1.418,1.418,0,0,0,1.263-2.061L10.266,6.733a1.421,1.421,0,0,0-2.54,0L.148,20.16A1.43,1.43,0,0,0,1.425,22.222ZM10.194,19.1a1.234,1.234,0,0,1-2.468,0v-.029a1.234,1.234,0,0,1,2.468,0Zm-1.9-9.073H9.714a.614.614,0,0,1,.581.755l-.624,5.458a.668.668,0,0,1-1.336,0l-.624-5.458A.614.614,0,0,1,8.292,10.028Z" transform="translate(0 0)"/></g></svg>