<svg xmlns="http://www.w3.org/2000/svg" width="24" height="17" viewBox="0 0 24 17"><defs><style>.a{fill:#242424;}.b{fill:#fff;}</style></defs><g transform="translate(0)"><path class="a" d="M267.507,253.393a3.026,3.026,0,0,0-2.116-2.14c-1.878-.52-9.39-.52-9.39-.52s-7.512,0-9.39.5a3.087,3.087,0,0,0-2.116,2.16,34.766,34.766,0,0,0,0,11.68,3.028,3.028,0,0,0,2.116,2.141c1.9.52,9.39.52,9.39.52s7.512,0,9.39-.5a3.023,3.023,0,0,0,2.116-2.14,32.427,32.427,0,0,0,.494-5.839A30.781,30.781,0,0,0,267.507,253.393Z" transform="translate(-244.001 -250.734)"/><path fill="#fff" class="b" d="M253.609,262.874l6.247-3.64-6.247-3.64Z" transform="translate(-244.001 -250.734)"/></g></svg>