<svg xmlns="http://www.w3.org/2000/svg" width="369.218" height="150" viewBox="0 0 369.218 150"><defs><style>.a{fill:#aaa;}.b{fill:#ee8d10;}</style></defs><g transform="translate(-316.466 -425.161)"><path class="a" d="M576.072,488.314,559.92,486.42a60.079,60.079,0,0,0-7.561-18.2l10.077-12.755-16.709-16.709-12.768,10.087a60.047,60.047,0,0,0-18.212-7.539l-1.892-16.135h-23.63l-1.894,16.152a60.045,60.045,0,0,0-18.2,7.561L456.374,438.8l-16.71,16.709,10.088,12.768a60.074,60.074,0,0,0-7.54,18.212l-16.135,1.892v23.63l16.153,1.894a60.046,60.046,0,0,0,7.561,18.2l-10.077,12.754,16.709,16.709,12.768-10.087a60.062,60.062,0,0,0,18.212,7.54l1.892,16.134h23.63L514.82,559a60.309,60.309,0,0,0,6.581-1.932c-2.007-2.006-4-4.008-5.958-5.978q-2.86-2.877-5.727-5.75l-2.165-2.162a43.462,43.462,0,1,1,36.15-34.31q3.527,3.523,7.051,7.048,3.252,3.252,6.506,6.5a60.017,60.017,0,0,0,2.675-8.585l16.139-1.893Z"/><path class="b" d="M473.434,501.987a24.209,24.209,0,0,1,1.2-8.721c.471-1.536,1.4-1.772,2.53-.632,3.268,3.295,6.507,6.617,9.771,9.914,2.135,2.157,4.265,4.319,6.448,6.426a5.716,5.716,0,0,0,7.9.163c2.574-2.4,5.079-4.893,7.474-7.475,2.189-2.359,1.962-5.65-.422-8.051q-7.794-7.851-15.64-15.651c-.158-.158-.324-.308-.476-.471-1.04-1.111-.821-1.989.653-2.447A27.785,27.785,0,0,1,528.5,506.633a1.944,1.944,0,0,0,.706,1.969Q543.061,522.43,556.9,536.28a14.436,14.436,0,0,1,4.565,11.462c-.378,6.257-3.523,10.773-9.317,13.077-5.907,2.349-11.4,1.176-15.956-3.264-6.53-6.362-12.916-12.873-19.364-19.321-2.907-2.908-5.827-5.8-8.711-8.735a1.814,1.814,0,0,0-1.863-.6,27.729,27.729,0,0,1-32.472-22.649C473.535,504.855,473.543,503.411,473.434,501.987Zm195.252-76.826H638.6l-62.532,98.795v18.749h62.842v32.451h29.772V542.705h17v-24h-17Zm-31.73,43.989,1.958-3.4V518.7H605.742ZM409.079,425.161H379l-62.532,98.795,1.339,18.749h61.5v32.451h29.772V542.705h17v-24h-17ZM377.35,469.15l1.957-3.4V518.7H346.135Z"/><path d="M501.158,475.761a26.383,26.383,0,0,1,7.392,1.083,25.833,25.833,0,0,1,17.983,29.413,3.909,3.909,0,0,0,1.258,3.76q7.273,7.259,14.537,14.527,6.576,6.578,13.157,13.151a12.383,12.383,0,0,1,3.981,9.926c-.334,5.53-3.045,9.345-8.059,11.34A13.778,13.778,0,0,1,546.326,560a12.357,12.357,0,0,1-8.74-3.882c-4.57-4.452-9.15-9.058-13.579-13.513q-2.88-2.9-5.766-5.789l-2.2-2.193c-2.14-2.135-4.352-4.343-6.5-6.53a3.762,3.762,0,0,0-2.784-1.244,4.784,4.784,0,0,0-.865.084,26.626,26.626,0,0,1-4.781.437,25.78,25.78,0,0,1-25.361-21.463,22.091,22.091,0,0,1-.238-2.666c-.024-.471-.048-.942-.082-1.388a21.183,21.183,0,0,1,.89-7.233q2.316,2.34,4.622,4.691,2.283,2.322,4.572,4.64l.548.555c1.927,1.947,3.92,3.961,5.933,5.9a7.846,7.846,0,0,0,5.468,2.227,7.562,7.562,0,0,0,5.18-2.042c2.718-2.538,5.267-5.086,7.576-7.575,2.875-3.1,2.678-7.651-.47-10.822-3.706-3.733-7.49-7.511-11.149-11.164l-4.328-4.323a25.761,25.761,0,0,1,6.886-.953m0-2a27.839,27.839,0,0,0-8.291,1.281c-1.474.458-1.693,1.336-.653,2.447.152.163.318.313.476.471q7.824,7.822,15.64,15.651c2.384,2.4,2.611,5.692.423,8.051-2.4,2.582-4.9,5.071-7.475,7.475a5.554,5.554,0,0,1-3.815,1.5,5.882,5.882,0,0,1-4.08-1.666c-2.183-2.107-4.313-4.269-6.448-6.426-3.264-3.3-6.5-6.619-9.771-9.914a1.971,1.971,0,0,0-1.3-.714c-.532,0-.96.454-1.234,1.346a24.209,24.209,0,0,0-1.2,8.721c.109,1.424.1,2.868.346,4.268a27.714,27.714,0,0,0,27.331,23.119,28.516,28.516,0,0,0,5.141-.47,2.876,2.876,0,0,1,.5-.051,1.784,1.784,0,0,1,1.358.646c2.884,2.932,5.8,5.827,8.711,8.735,6.448,6.448,12.834,12.959,19.364,19.321A14.328,14.328,0,0,0,546.326,562a15.716,15.716,0,0,0,5.82-1.185c5.794-2.3,8.939-6.82,9.317-13.077A14.436,14.436,0,0,0,556.9,536.28Q543.044,522.449,529.2,508.6a1.944,1.944,0,0,1-.706-1.969,27.733,27.733,0,0,0-19.388-31.709,28.282,28.282,0,0,0-7.952-1.163Zm9.918-46.594,1.685,14.367.164,1.4,1.371.317a57.974,57.974,0,0,1,17.606,7.289l1.194.743,1.1-.871,11.372-8.985,14.193,14.193-8.975,11.359-.872,1.1.745,1.2a57.965,57.965,0,0,1,7.31,17.6l.318,1.37,1.4.163,14.385,1.687v20.072L559.7,511.851l-1.4.163-.318,1.372c-.423,1.827-.934,3.636-1.528,5.407l-.577-.577-3.712-3.71-4.852-4.85-1.451-1.45A45.5,45.5,0,1,0,506.84,545.3l1.462,1.46q2.637,2.639,5.266,5.286l.457.46q1.813,1.824,3.659,3.676c-1.094.324-2.2.616-3.318.876l-1.369.319-.164,1.4-1.687,14.39H491.074l-1.685-14.367-.164-1.4-1.372-.317a57.979,57.979,0,0,1-17.605-7.289l-1.194-.743-1.1.871L456.579,558.9l-14.193-14.193,8.974-11.359.873-1.1-.745-1.194a57.957,57.957,0,0,1-7.31-17.6l-.319-1.369-1.4-.164-14.386-1.687V490.163l14.368-1.685,1.4-.164.317-1.371a57.948,57.948,0,0,1,7.289-17.606l.743-1.194-.872-1.1-8.984-11.372,14.193-14.193,11.358,8.975,1.105.872,1.194-.745a57.982,57.982,0,0,1,17.6-7.31l1.369-.319.164-1.4L491,427.167h20.072m1.779-2h-23.63l-1.894,16.152a60.071,60.071,0,0,0-18.2,7.561L456.374,438.8l-16.71,16.709,10.088,12.768a60.074,60.074,0,0,0-7.54,18.212l-16.135,1.892v23.63l16.153,1.894a60.046,60.046,0,0,0,7.561,18.2l-10.077,12.754,16.709,16.709,12.768-10.087a60.062,60.062,0,0,0,18.212,7.54l1.892,16.134h23.63L514.82,559a60.309,60.309,0,0,0,6.581-1.932c-2.007-2.006-4-4.008-5.958-5.978q-2.86-2.877-5.727-5.75l-2.165-2.162a43.462,43.462,0,1,1,36.15-34.31q3.527,3.523,7.051,7.048,3.252,3.252,6.506,6.5a60.017,60.017,0,0,0,2.675-8.585l16.139-1.893v-23.63L559.92,486.42a60.079,60.079,0,0,0-7.561-18.2l10.077-12.755-16.709-16.709-12.768,10.087a60.047,60.047,0,0,0-18.212-7.539l-1.892-16.135Zm153.831,1.994V520.7h17v20h-17v32.451H640.914V540.705H578.072V524.536l61.634-97.375h26.98m-31.443,40.957-31.194,49.518-1.931,3.066h38.8V458.269l-3.734,6.484-1.937,3.365m33.443-42.957H638.6l-62.532,98.795v18.749h62.842v32.451h29.772V542.705h17v-24h-17V425.161ZM605.742,518.7l31.214-49.552,1.958-3.4V518.7ZM407.079,427.161V520.7h17v20h-17v32.451H381.307V540.705H318.466V524.536L380.1,427.161h26.98m-31.442,40.957-31.194,49.518-1.931,3.066h38.8V458.269l-3.733,6.484-1.937,3.365m33.442-42.957H379l-62.532,98.795v18.749h62.841v32.451h29.772V542.705h17v-24h-17V425.161ZM346.135,518.7,377.35,469.15l1.957-3.4V518.7Z"/></g></svg>