<svg xmlns="http://www.w3.org/2000/svg" width="50" height="50" viewBox="0 0 50 50"><defs><style>.a{fill:none;}.b{fill:#ee8d10;}.c{fill:#1b1b1b;}</style></defs><g transform="translate(0 0)"><rect class="a" width="50" height="50" transform="translate(0 0)"/><path class="b" d="M25.5,11.7a5.911,5.911,0,0,1,5.9,5.9,5.9,5.9,0,0,1-11.8,0A5.911,5.911,0,0,1,25.5,11.7Zm9.3,22.1c0,3-4.2,5.5-9.3,5.5s-9.3-2.5-9.3-5.5v-.5a7.4,7.4,0,0,1,6-7.3l3.3,5.2L28.8,26a7.4,7.4,0,0,1,6,7.3v.5Z" transform="translate(-0.708 -0.549)"/><path class="c" d="M25.5,24.2a6.7,6.7,0,1,1,6.7-6.7A6.7,6.7,0,0,1,25.5,24.2Zm0-11.7a5.1,5.1,0,1,0,5.1,5.1A5.121,5.121,0,0,0,25.5,12.5Zm0,27.6c-5.7,0-10.1-2.8-10.1-6.3v-.5a8.328,8.328,0,0,1,6.7-8.1l.5-.1,2.9,4.6,2.9-4.6.5.1a8.168,8.168,0,0,1,6.7,8.1v.5C35.6,37.4,31.2,40.1,25.5,40.1ZM21.9,26.9A6.632,6.632,0,0,0,17,33.3v.5c0,2.6,3.9,4.7,8.5,4.7S34,36.3,34,33.8v-.5a6.632,6.632,0,0,0-4.9-6.4l-3.6,5.7Zm3.6,23.3a25.541,25.541,0,0,1-6.1-.8l-.6-.2v-5a12.2,12.2,0,0,1-1.7-.7L13.6,47l-.5-.3a26.178,26.178,0,0,1-8.7-8.5l-.3-.5,3.5-3.5a14.167,14.167,0,0,1-.8-1.8h-5l-.2-.6a24.029,24.029,0,0,1-.2-12.2l.1-.6H6.4a18.028,18.028,0,0,1,.8-2.1L3.7,13.4l.4-.4a26.178,26.178,0,0,1,8.5-8.7l.5-.3,3.5,3.5a15.956,15.956,0,0,1,2.3-1v-5l.6-.2a24.776,24.776,0,0,1,12.1,0l.6.2v5a22.877,22.877,0,0,1,2.3,1L37.9,4l.5.3A25.555,25.555,0,0,1,47,13l.3.5L43.8,17a18.029,18.029,0,0,1,.8,2.1h4.9l.1.6a23.625,23.625,0,0,1-.2,12.1l-.2.6h-5a14.167,14.167,0,0,1-.8,1.8l3.5,3.5-.3.5a25.28,25.28,0,0,1-8.7,8.5l-.5.3-3.5-3.5a8.651,8.651,0,0,1-1.7.7v5l-.6.2A24.894,24.894,0,0,1,25.5,50.2ZM20.4,48a21.975,21.975,0,0,0,10.2,0V43.1l.6-.2a18.611,18.611,0,0,0,2.5-1l.5-.3,3.5,3.5A23.544,23.544,0,0,0,45,38l-3.4-3.4.3-.5c.5-.9.8-1.8,1.2-2.7l.2-.5h4.9a22.963,22.963,0,0,0,.2-10.1H43.5l-.2-.6a14.762,14.762,0,0,0-1.2-2.9l-.3-.5,3.5-3.5A24.71,24.71,0,0,0,38.2,6L34.8,9.4l-.5-.3a16.924,16.924,0,0,0-3.1-1.3l-.6-.2V2.8a21.974,21.974,0,0,0-10.2,0V7.7l-.6.2a16.924,16.924,0,0,0-3.1,1.3l-.5.3L12.8,6a23.544,23.544,0,0,0-7.1,7.3l3.5,3.5-.2.5a14.763,14.763,0,0,0-1.2,2.9l-.2.6H2.8A22.963,22.963,0,0,0,3,30.9H7.9l.2.5a15.95,15.95,0,0,0,1.2,2.7l.3.5L6.2,38a23.544,23.544,0,0,0,7.3,7.1L17,41.6l.5.3a13.043,13.043,0,0,0,2.5,1l.6.2V48Z" transform="translate(-0.708 -0.549)"/></g></svg>