<svg xmlns="http://www.w3.org/2000/svg" xmlns:xlink="http://www.w3.org/1999/xlink" width="135" height="30" viewBox="0 0 135 30"><defs><style>.a{fill:#fff;}.b,.c,.d{fill-rule:evenodd;}.b{fill:url(#a);}.c{fill:url(#b);}.d{fill:#231f20;}</style><linearGradient id="a" x1="0.429" y1="0.541" x2="0.732" y2="0.685" gradientUnits="objectBoundingBox"><stop offset="0" stop-color="#ffbb4f"/><stop offset="0.3" stop-color="#ffc05d"/><stop offset="0.47" stop-color="#fa8e45"/><stop offset="0.61" stop-color="#fb974a"/><stop offset="0.76" stop-color="#ffb13d"/><stop offset="1" stop-color="#ffd678"/></linearGradient><linearGradient id="b" x1="0.031" y1="0.431" x2="1.153" y2="0.784" gradientUnits="objectBoundingBox"><stop offset="0" stop-color="#fc9c3a"/><stop offset="1" stop-color="#ffc053"/></linearGradient></defs><rect class="a" width="135" height="30"/><path class="b" d="M16.445,16.475l9.51,4.14-.825,1.41L14.39,20.06Zm-2.5,4.35-2.31,3.96h12l.87-1.86-10.6-2.1ZM24.185,3.05l6,10.425-1.005,1.74-7.23-8.16ZM19.4,11.375l8.43,6.15.81-1.38-7.125-8.37ZM16.88,15.7l9.615,4.08.825-1.5-8.355-6.21Z" transform="translate(5.815 1.525)"/><path class="c" d="M20.33,20.97l6.06-10.44L32.4,20.955h-3.24L26.4,16.17l-2.775,4.8Z" transform="translate(10.165 5.265)"/><path class="d" d="M48.7,12.265h1.95v5l4.38-5h1.725V20.11h-1.95V15.07l-4.5,5.055h-1.65v-7.86Zm-11.31,7.86,4.5-7.875h1.575l4.5,7.845h-2.4l-3-5.13-3,5.13Zm21.42-7.86h1.9v3H64.78v-3h2.025v7.86h-1.95v-3h-4.14v3h-1.9Zm9.975,0h1.95v5l4.38-5h1.74V20.11h-1.95V15.07l-4.5,5.055h-1.65v-7.86Zm10.125,0h1.95v4.98l4.35-4.98h1.71v7.86H85.03v-5.07l-4.5,5.07H78.91Z" transform="translate(18.695 6.125)"/><path class="d" d="M89.945,4.26H91.9v7.86h-1.95Zm4.005,0h8.82l-1.02,1.725h-7.8Zm0,3h7.1L100,9.045H94V7.275Zm-63.21,3,4.5-7.8h1.5l4.5,7.8h1.14v4.05h-1.8V12.12H31.415v2.265H29.57v-4.05Zm5.22-5.04-2.91,5.1h5.82L35.96,5.28Zm7.755-.96h8.85L51.53,6H43.715Zm11.01,0-4.5,7.83H52.52l3-5.115,3,5.115h2.415l-4.5-7.86h-1.59ZM43.715,7.275H50.78L49.715,9.06h-6Zm0,3h5.31L48.05,12.12H43.715V10.335ZM64.07,4.2a6.165,6.165,0,0,1,4.41.57,4.155,4.155,0,0,1,.645,6.12,5.34,5.34,0,0,1-4.14,1.38,4.5,4.5,0,0,1-3.165-1.5,4.335,4.335,0,0,1-.6-4.41,4.02,4.02,0,0,1,2.85-2.22Zm.345,1.815a2.34,2.34,0,0,0-.66,3.93,3.285,3.285,0,0,0,3.135.21,2.415,2.415,0,0,0,.57-3.72,3.36,3.36,0,0,0-3-.42Zm7.5-1.755h5.37a2.235,2.235,0,0,1,1.71.63,1.8,1.8,0,0,1-.42,2.6,2.46,2.46,0,0,1,.78,3.915,3.15,3.15,0,0,1-2.265.72H71.855V4.26Zm1.8,1.7v1.32h3c.66,0,.69-1.275,0-1.275h-3Zm0,2.85V10.44h3.48c.855,0,.93-1.5.12-1.5h-3.6Zm7.95-4.5h1.95V7.05a34.921,34.921,0,0,1,3.96.105,2.25,2.25,0,0,1,1.5,2.6,2.37,2.37,0,0,1-2.325,2.355H81.74V4.26Zm1.9,4.5v1.62h2.9c.96,0,.825-1.62,0-1.65s-1.92,0-2.865,0ZM93.9,10.44h5.31l-.96,1.68H93.95Z" transform="translate(14.785 1.23)"/></svg>