<svg xmlns="http://www.w3.org/2000/svg" width="135" height="30" viewBox="0 0 135 30"><defs><style>.a{fill:#fecc00;}.a,.b{fill-rule:evenodd;}.b{fill:#d21f34;}</style></defs><path class="a" d="M135,0V30H0V0Z"/><path class="b" d="M17.245,3.615,13,9.525H36.43c1.2,0,1.17.45.6,1.245s-1.575,2.2-2.175,3c-.315.42-.855,1.17.96,1.17H45.43s1.5-2.13,2.85-3.9c1.77-2.415.15-7.5-6.165-7.5Z" transform="translate(6.5 1.77)"/><path class="b" d="M11.79,20.36,20.445,8.51H31.2c1.185,0,1.17.45.6,1.245s-1.6,2.19-2.2,3c-.3.42-.855,1.17.975,1.17h14.4a15,15,0,0,1-12,6.435Z" transform="translate(5.895 4.255)"/><path class="b" d="M50.57,12.12l-4.71,6.435H33.47l4.695-6.435Z" transform="translate(16.735 6.06)"/><path class="b" d="M67.625,14.93H37.31L45.6,3.59h12.39l-4.755,6.5h5.535l4.755-6.5H75.92L67.625,14.93Z" transform="translate(18.655 1.795)"/><path class="b" d="M62.505,12.12,57.81,18.555H45.42l4.7-6.435Z" transform="translate(22.71 6.06)"/><path class="b" d="M0,13.81H18.255l-.99,1.365H0Z" transform="translate(0 6.905)"/><path class="b" d="M0,12.12H20.115l-1,1.365H0Z" transform="translate(0 6.06)"/><path class="b" d="M0,15.5H16.41l-1,1.365H0Z" transform="translate(0 7.75)"/><path class="b" d="M96.06,15.175H77.88l.99-1.365H96.06Z" transform="translate(38.94 6.905)"/><path class="b" d="M96.68,16.865H76.64l1-1.365H96.68Z" transform="translate(38.32 7.75)"/><path class="b" d="M80.115,12.12h15.33v1.365H79.11l1-1.365Z" transform="translate(39.555 6.06)"/><path class="b" d="M81.615,3.59l-8.28,11.34H60.21L68.5,3.59Z" transform="translate(30.105 1.795)"/><path class="b" d="M60.144,12.12l-1.35,1.845c-1.5,2.115-.18,4.59,4.905,4.59h19.89l4.695-6.435Z" transform="translate(29.106 6.06)"/></svg>