<svg xmlns="http://www.w3.org/2000/svg" width="45.695" height="50" viewBox="0 0 45.695 50"><defs><style>.a{fill:#e6e6e6;}.b{fill:#999;}.c{fill:#242424;}.d{fill:#fff;}</style></defs><g transform="translate(-22.04)"><path class="a" d="M86.546,0,97,10.452V50H59.24V0Z" transform="translate(-33.567)"/><path class="b" d="M349.293,10.452H338.84V0Z" transform="translate(-285.863)"/><path class="c" d="M59.685,305.692H22.04V293.008h45.7Z" transform="translate(0 -264.394)"/><path class="b" d="M25.673,426.527V422.9H22.04Z" transform="translate(0 -381.598)"/><g transform="translate(28.468 31.264)"><path class="d" d="M87.864,328.091V320.8h3.584a2.812,2.812,0,0,1,2.138.669,3.461,3.461,0,0,1,.613,2.339,7.808,7.808,0,0,1-.491,3.506c-.327.517-1.067.777-2.216.777Zm1.384-1.164h1.97c.662,0,1.091-.153,1.284-.456a4.413,4.413,0,0,0,.292-2.017,4.884,4.884,0,0,0-.262-2.05c-.173-.292-.583-.436-1.228-.436H89.248Z" transform="translate(-87.864 -320.736)"/><path class="d" d="M162.887,320.144a3.477,3.477,0,0,1,2.559.661,5,5,0,0,1,.57,2.95q0,2.505-.573,3.158t-2.78.652a3.579,3.579,0,0,1-2.569-.644,4.579,4.579,0,0,1-.583-2.831q0-2.606.572-3.275T162.887,320.144Zm-.108,1.188q-1.395,0-1.628.358a6.843,6.843,0,0,0-.234,2.478,3.716,3.716,0,0,0,.275,1.891q.274.321,1.62.32,1.289,0,1.544-.359a5.176,5.176,0,0,0,.256-2.186,5.259,5.259,0,0,0-.242-2.167C164.207,321.441,163.678,321.332,162.779,321.332Z" transform="translate(-152.515 -320.144)"/><path class="d" d="M237.69,324.9h1.389v.25a2.522,2.522,0,0,1-.555,1.969,4.4,4.4,0,0,1-2.456.445q-2.154,0-2.652-.7t-.5-3.77a3.1,3.1,0,0,1,.673-2.375,4.728,4.728,0,0,1,2.816-.569,3.279,3.279,0,0,1,2.081.469,2.462,2.462,0,0,1,.525,1.856l0,.166h-1.389v-.187q0-.717-.269-.916a2.378,2.378,0,0,0-1.23-.2c-.859,0-1.373.1-1.545.314a3.811,3.811,0,0,0-.259,1.869,7.139,7.139,0,0,0,.231,2.478c.156.256.655.384,1.5.384a2.682,2.682,0,0,0,1.336-.214c.2-.142.308-.456.308-.941Z" transform="translate(-218.754 -320.144)"/><path class="d" d="M304.84,320.8l-2.189,3.531,2.334,3.759h-1.623l-1.047-1.752c-.162-.27-.314-.545-.461-.822l-.15-.289-.155-.284h-.022l-.155.291q-.279.523-.631,1.1l-1.052,1.752h-1.666l2.392-3.759-2.222-3.531h1.65l.973,1.623c.153.256.3.509.431.759l.133.256.134.256h.022c.061-.114.1-.2.134-.256l.133-.252c.114-.222.256-.473.427-.758l.972-1.63Z" transform="translate(-277.5 -320.736)"/></g></g></svg>