<svg xmlns="http://www.w3.org/2000/svg" width="115.989" height="108.147" viewBox="0 0 115.989 108.147"><defs><style>.a{fill:#fff;}.b{fill:#8e8e8e;}.c{fill:#ee8d10;}</style></defs><g transform="translate(127.095 33)"><path class="a" d="M-90.325,13.629l7.989,29.815a16.391,16.391,0,0,1,9.9,11.026c.088.326.144.653.21.979l40.418-10.83a8.608,8.608,0,0,1-.319-.95A8.722,8.722,0,0,1-25.966,33a8.68,8.68,0,0,1,6.723.948L-29.084-2.78ZM-74,22.8a2.2,2.2,0,0,1-2.689-1.553,2.2,2.2,0,0,1,1.553-2.689,2.2,2.2,0,0,1,2.688,1.553A2.2,2.2,0,0,1-74,22.8Zm35.321-9.465a2.2,2.2,0,0,1-2.689-1.552A2.2,2.2,0,0,1-39.818,9.09a2.2,2.2,0,0,1,2.688,1.553A2.2,2.2,0,0,1-38.682,13.331Z"/><path class="b" d="M-75.425,9.751l-2-7.453L-88.629-2.335-70.548-7.7l8.577,4.754,4.815-8.625,19.13-4.47-7.678,9.3,1.85,8.333ZM-74,22.8a2.2,2.2,0,0,0,1.552-2.689,2.2,2.2,0,0,0-2.688-1.553,2.2,2.2,0,0,0-1.553,2.689A2.2,2.2,0,0,0-74,22.8ZM-37.13,10.643A2.2,2.2,0,0,0-39.819,9.09a2.2,2.2,0,0,0-1.552,2.689,2.2,2.2,0,0,0,2.689,1.552A2.2,2.2,0,0,0-37.13,10.643Z"/><path class="c" d="M-61.552-1.471l-15.159-8.751L-70-12.02-74.87-30.189-64.377-33l4.868,18.169,6.709-1.8Zm-31,44.327a16.443,16.443,0,0,0-11.614,20.116A16.443,16.443,0,0,0-84.049,74.585,16.442,16.442,0,0,0-72.436,54.47,16.442,16.442,0,0,0-92.551,42.856Zm6.145,22.933a7.326,7.326,0,0,1-8.963-5.174,7.327,7.327,0,0,1,5.175-8.963,7.326,7.326,0,0,1,8.962,5.175A7.325,7.325,0,0,1-86.406,65.789ZM-25.966,33a8.722,8.722,0,0,0-6.161,10.671,8.721,8.721,0,0,0,10.671,6.16A8.721,8.721,0,0,0-15.3,39.16,8.723,8.723,0,0,0-25.966,33Zm3.331,12.433a4.164,4.164,0,0,1-5.094-2.94A4.165,4.165,0,0,1-24.788,37.4a4.163,4.163,0,0,1,5.093,2.941A4.162,4.162,0,0,1-22.635,45.431Z"/><path d="M-74.155,24.836C-70,34.877-61.55,39.251-51.371,36.524s15.314-10.745,13.887-21.519a4.194,4.194,0,0,0,2.286-4.88,4.2,4.2,0,0,0-5.138-2.967A4.2,4.2,0,0,0-43.3,12.3a4.186,4.186,0,0,0,3.852,3.084c1.257,9.762-3.228,16.743-12.438,19.211s-16.593-1.339-20.383-10.431a4.186,4.186,0,0,0,1.753-4.572,4.2,4.2,0,0,0-5.138-2.967,4.2,4.2,0,0,0-2.967,5.139A4.192,4.192,0,0,0-74.155,24.836Zm32.784-13.057A2.2,2.2,0,0,1-39.818,9.09a2.2,2.2,0,0,1,2.688,1.553,2.2,2.2,0,0,1-1.552,2.688A2.2,2.2,0,0,1-41.371,11.779Zm-33.768,6.775a2.2,2.2,0,0,1,2.688,1.553A2.2,2.2,0,0,1-74,22.8a2.2,2.2,0,0,1-2.689-1.553A2.2,2.2,0,0,1-75.139,18.554Zm-15.055,33.1a7.327,7.327,0,0,0-5.175,8.963,7.326,7.326,0,0,0,8.963,5.174,7.325,7.325,0,0,0,5.174-8.962A7.326,7.326,0,0,0-90.194,51.652Zm3.27,12.2a5.324,5.324,0,0,1-6.513-3.76,5.324,5.324,0,0,1,3.76-6.513,5.324,5.324,0,0,1,6.513,3.761A5.324,5.324,0,0,1-86.924,63.857ZM-15.615,38.21a8.682,8.682,0,0,0-3.628-4.264h0L-29.084-2.78l-3.573-1.089L-36.336-17.6-55.15-12.558l2.35-4.071-6.709,1.8L-64.377-33-74.87-30.189-70-12.02l-6.709,1.8,4.071,2.35L-91.453-2.831l.1.371h-.024l.027.012L-87.775,10.9l-2.55,2.73,7.989,29.815a16.3,16.3,0,0,0-9.236-.8L-105.51-9.37l-21.057-5.774-.528,1.929,19.95,5.471L-93.5,43.164a16.43,16.43,0,0,0-10.661,19.808A16.443,16.443,0,0,0-84.049,74.585,16.43,16.43,0,0,0-72.226,55.449l40.418-10.83h0a8.72,8.72,0,0,0,10.352,5.21A8.721,8.721,0,0,0-15.1,40.141h0l3.991-1.07-.517-1.932ZM-44.706-5.45l.405.123,9.957,3.035L-43.222.087ZM-20.33,33.4c-.035-.015-.071-.028-.106-.042C-20.4,33.369-20.365,33.382-20.33,33.4ZM-37.75-15.15l2.838,10.594L-43.718-7.24l5.965-7.909Zm-29.8,4.545-4.869-18.169,6.63-1.777,4.868,18.169,3.977-1.065L-62.284-4.2-71.529-9.54ZM-70.19-6.458l8.638,4.987,4.987-8.637,15.894-4.259L-45.347-8.4-46.958-6.14h0L-45.154.6-74.718,8.526l-1.806-6.739h0l0,0L-79.051.63l-6.971-2.845Zm-15.336,17.88,7.107-7.607.286-.306,1.483,5.535ZM-89-1.416l.044-.012,9.079,3.878-6.284,6.727Zm58.276.226,9.154,34.165A8.65,8.65,0,0,0-25.966,33a8.722,8.722,0,0,0-6.36,9.69L-72.743,53.517a16.363,16.363,0,0,0-7.216-8.928l-8.147-30.405ZM-80.989,44.041c-.054-.027-.107-.057-.162-.083C-81.1,43.984-81.044,44.014-80.989,44.041Zm-3.578,28.612a14.44,14.44,0,0,1-17.666-10.2,14.44,14.44,0,0,1,10.2-17.666,14.441,14.441,0,0,1,17.667,10.2A14.44,14.44,0,0,1-84.567,72.653ZM-21.974,47.9a6.72,6.72,0,0,1-8.221-4.746,6.721,6.721,0,0,1,4.747-8.222,6.719,6.719,0,0,1,8.22,4.747A6.72,6.72,0,0,1-21.974,47.9Zm-2.814-10.5a4.164,4.164,0,0,0-2.94,5.094,4.163,4.163,0,0,0,5.093,2.94,4.162,4.162,0,0,0,2.94-5.093A4.163,4.163,0,0,0-24.788,37.4Zm1.636,6.1A2.162,2.162,0,0,1-25.8,41.973a2.161,2.161,0,0,1,1.527-2.644,2.161,2.161,0,0,1,2.644,1.527A2.16,2.16,0,0,1-23.152,43.5Z"/></g></svg>