<svg xmlns="http://www.w3.org/2000/svg" width="135" height="30" viewBox="0 0 135 30"><defs><style>.a{fill:#fff;}.b{fill:#0037a4;}.b,.c{fill-rule:evenodd;}.c{fill:#f67f00;}</style></defs><rect class="a" width="135" height="30"/><path class="b" d="M53.715,2.5l-1.5,6.345H47.25l-.36,1.5h4.5l-1.605,6.66h-4.5l-.45,1.9H49.71l-1.35,6H37.32l.66-2.715h9.15l.3-1.245H38.34L39,18.235h4.14l.3-1.245H39.255l.675-2.715h8.685l.315-1.245h-8.7l.66-2.7h4.17l.315-1.08H41.2l.66-2.715h9.15l.3-1.245H42.18l.66-2.79Zm12.525,0-1.2,2.715h6.3L71.055,6.46H64.47l-1.2,2.79h7.08L69.99,10.5H62.715l-.18.255L62.07,2.5H55.575l-.66,2.715H60.6V6.46h-6l-.66,2.79h6.795l.15,1.245h-7.26l-.66,2.7h3.69L56.37,14.44H52.665l-.675,2.715h3.72l-.3,1.245H51.69l-.66,2.715h3.705L54.42,22.36H50.715l-.66,2.715H55.6L58.44,13.12h5.91l-.585,1.245h-5.43l-.15,2.715H62.46l-.525,1.245h-3.81l-.15,2.715h2.67l-.51,1.245H57.84L57.69,25h3l4.5-10.14L64.6,17.08H68.34l-.33,1.245H64.32L63.6,21.04h3.8l-.33,1.245h-3.8L62.55,25h5.655l5.61-22.5Zm2.85,11.865H65.475L66,13.12h3.345ZM85.215,2.5l2.31,3.75-.765,3H81.1l.21-.9H80.01l-.615,2.34H82.56l2.76,4.17L83.7,21.7,80.1,25H72.915L71.07,22.285h9.36l1.59-1.245H71.025l.66-2.715h5.79L77.22,19.57h1.3l.255-1.23h3.93l.27-1.245H75.3l-2.46-2.73h10.5l-.855-1.245h-9.54l.675-2.7h3.96L77.9,9.25h-3.96l.675-2.715H85.59l-.75-1.32H75.36L78.615,2.5Z" transform="translate(18.66 1.25)"/><path class="c" d="M30.31,13.12h16.2l.66-2.7H27.505ZM42.76,25h.855l.66-2.715H39.9L42.715,25ZM26.155,9.25H47.47l.66-2.715H23.4Zm-4.14-4.035h26.43L49.09,2.5H19.21ZM34.45,17.08h11.1l.645-2.715H31.645ZM38.6,21.04h6l.645-2.715H35.8Z" transform="translate(9.605 1.25)"/></svg>