<svg xmlns="http://www.w3.org/2000/svg" width="140" height="33.819" viewBox="0 0 140 33.819"><defs><style>.a{fill:#282a2d;fill-rule:evenodd;}</style></defs><path class="a" d="M307.445,420.875c.167,0,.333,0,.5,0q0,.652,0,1.3a2.144,2.144,0,0,0,.536-.023c.426-.409.826-.848,1.253-1.258a3.574,3.574,0,0,1,.689-.024c-.5.528-1.016,1.044-1.529,1.561.492.526,1.013,1.024,1.51,1.545a3.833,3.833,0,0,1-.691-.02c-.431-.415-.839-.855-1.267-1.273l-.5,0c0,.434,0,.868,0,1.3l-.5,0c0-1.038,0-2.076,0-3.114Zm-3.509.009h.5c0,.433,0,.865,0,1.3.6,0,1.209,0,1.812,0,0-.433,0-.864,0-1.3h.509c0,1.029,0,2.059,0,3.088-.172,0-.343,0-.512,0,0-.428,0-.857,0-1.285H304.44c0,.428,0,.856,0,1.284-.17,0-.339,0-.507,0,0-1.029,0-2.058,0-3.087Zm-2.011.642c-.186.432-.381.861-.571,1.291.385,0,.768,0,1.155,0-.195-.431-.382-.865-.584-1.29Zm-.274-.644.564,0c.454,1.036.916,2.069,1.37,3.106h-.554c-.1-.226-.2-.451-.308-.674-.532,0-1.064,0-1.6,0-.1.223-.2.45-.3.674h-.551q.679-1.559,1.376-3.11Zm-3.76,1.808c0,.265,0,.531,0,.8.357,0,.717,0,1.076,0,.18,0,.4.025.529-.131a.4.4,0,0,0-.228-.656c-.459-.025-.919,0-1.376-.01Zm-.5-1.805c.8,0,1.606,0,2.411,0,0,.168,0,.337,0,.506-.637,0-1.273,0-1.91,0q0,.395,0,.79c.439,0,.878,0,1.317,0a.912.912,0,0,1,.851.636.9.9,0,0,1-.407,1.045,1.036,1.036,0,0,1-.558.126q-.853,0-1.706,0c0-1.036,0-2.072,0-3.108Zm-4.019-.008c.17,0,.341,0,.513,0,.41.5.832.991,1.243,1.492.426-.487.833-.991,1.246-1.49.168-.007.338-.007.508,0,0,1.038,0,2.076,0,3.115-.17,0-.336,0-.5,0q0-1.121,0-2.241c-.419.481-.83.97-1.243,1.456-.428-.48-.822-.992-1.258-1.466,0,.75,0,1.5,0,2.25h-.506c0-1.038,0-2.077,0-3.115Zm-6.83,0c.166,0,.334,0,.5,0,0,.435,0,.87,0,1.305a2.812,2.812,0,0,0,.528-.017c.435-.421.847-.866,1.28-1.29.222,0,.445,0,.669,0-.5.532-1.024,1.042-1.523,1.574q.758.76,1.507,1.531c-.225,0-.447,0-.669,0-.393-.391-.778-.787-1.165-1.183-.149-.2-.42-.085-.627-.111q0,.649,0,1.3c-.169,0-.337,0-.5,0,0-1.038,0-2.078,0-3.116Zm-2.748,2.6c.43.007.859,0,1.29,0a.4.4,0,1,0,.055-.79c-.446-.017-.892,0-1.339-.008-.008.265,0,.529-.006.794Zm.007-2.083c0,.261,0,.522.007.784.425,0,.851,0,1.276,0a.395.395,0,1,0,.061-.787c-.449-.007-.9-.01-1.344,0Zm-.5-.516c.594,0,1.188,0,1.781,0a.917.917,0,0,1,.842.515.934.934,0,0,1-.183,1.04.915.915,0,0,1,.06,1.227.925.925,0,0,1-.718.324q-.893,0-1.785,0c0-1.036,0-2.072,0-3.108Zm7.53.494a1.127,1.127,0,0,0-.753.923,1.115,1.115,0,0,0,.417,1.017,1.139,1.139,0,0,0,1.182.134,1.121,1.121,0,0,0,.217-1.893,1.137,1.137,0,0,0-1.063-.182Zm.061-.6a1.684,1.684,0,1,0,1.958,1.322,1.691,1.691,0,0,0-1.958-1.322Zm-10.032.575a1.134,1.134,0,0,0-.824.932,1.121,1.121,0,0,0,.5,1.091,1.138,1.138,0,0,0,1.258-.021,1.121,1.121,0,0,0-.938-2Zm.015-.578a1.679,1.679,0,1,1-.744.315,1.7,1.7,0,0,1,.744-.315Zm-4.46,1.364a1.7,1.7,0,0,1,2.813-.94c-.132.131-.266.262-.4.392a1.214,1.214,0,0,0-.606-.267,1.119,1.119,0,0,0-.836,1.991,1.161,1.161,0,0,0,1.424-.011c.13.135.262.268.392.4a1.731,1.731,0,0,1-1.647.334,1.694,1.694,0,0,1-1.141-1.9ZM265.1,405.394c.005,1.395,0,2.789.005,4.183,2.877-.007,5.754.008,8.632-.008a2.107,2.107,0,0,0,1.938-2.236,2.039,2.039,0,0,0-.666-1.253,2.4,2.4,0,0,0-1.667-.688c-2.747,0-5.495,0-8.242,0Zm0-8.559q0,2.092,0,4.184h6.923a2.306,2.306,0,0,0,1.471-.5,2.075,2.075,0,0,0,.752-1.941,2.268,2.268,0,0,0-1.859-1.731c-.579-.03-1.157,0-1.736-.013-1.85.006-3.7,0-5.551,0Zm-6.527-6.315c4.425-.009,8.851.006,13.276,0,.557.006,1.114-.02,1.669.035a8.026,8.026,0,0,1,5.352,2.781,7.365,7.365,0,0,1,1.438,2.6,7.78,7.78,0,0,1-.924,6.477,9.081,9.081,0,0,1,1.769,1.864,7.253,7.253,0,0,1,.621,6.767,7.752,7.752,0,0,1-3.793,4.086,7.976,7.976,0,0,1-3.456.755q-7.974.007-15.95.011,0-12.691,0-25.382Zm-88.021,0h6.627V393.2a10.392,10.392,0,0,0,.057,1.488,6.231,6.231,0,0,0,12.407-.652c.013-1.174,0-2.347.006-3.52h6.623q0,1.373,0,2.746a12.859,12.859,0,0,1-1.773,6.462,13.014,13.014,0,0,1-2.994,3.485,12.975,12.975,0,0,1,3.685,4.836,12.836,12.836,0,0,1,1.063,4.467c.04,1.13.011,2.26.018,3.39q-3.311,0-6.622,0c0-.751,0-1.5,0-2.254a11.14,11.14,0,0,0-.137-2.387,6.233,6.233,0,0,0-12.331,1.257q0,1.691,0,3.382h-6.627a29.139,29.139,0,0,1,.209-4.994,12.927,12.927,0,0,1,4.56-7.7,12.88,12.88,0,0,1-4.756-9.467c-.028-1.075-.007-2.15-.013-3.225Zm126.3,6.49a6.246,6.246,0,1,0,5.352,1.895,6.218,6.218,0,0,0-5.352-1.895Zm-1.293-6.522a12.874,12.874,0,0,1,14.912,11.364,17.514,17.514,0,0,1,.071,1.962q0,6.047,0,12.092-3.262,0-6.524,0c0-.221,0-.44,0-.661a9.708,9.708,0,0,0,3.466-3.656l-.022-.015a12.87,12.87,0,1,1-11.9-21.085Zm-55.968.05a8.324,8.324,0,0,1,4.6.217,10.571,10.571,0,0,1,4.457,3.109,18.887,18.887,0,0,1,3.331,5.661,33.928,33.928,0,0,1,1.967,7.866,64.632,64.632,0,0,1,.416,8.514q-3.311,0-6.621,0a54.09,54.09,0,0,0-.625-9.4,22.641,22.641,0,0,0-1.8-5.725,10.892,10.892,0,0,0-1.593-2.471,3.929,3.929,0,0,0-1.58-1.145,1.959,1.959,0,0,0-1.438.07,5.221,5.221,0,0,0-2.018,1.867,17.68,17.68,0,0,0-2.292,5.267,44.075,44.075,0,0,0-1.106,11.538q-3.313,0-6.626,0a65.239,65.239,0,0,1,.423-8.4,33.908,33.908,0,0,1,2.055-8.215,18.237,18.237,0,0,1,3.6-5.815,9.963,9.963,0,0,1,4.852-2.936ZM210.9,397a6.2,6.2,0,0,0-2.878,1.161A6.209,6.209,0,1,0,210.9,397Zm-.752-6.6a12.883,12.883,0,0,1,14.42,12.7q0,6.4,0,12.8h-6.521c0-.227-.006-.453.006-.68a9.347,9.347,0,0,0,3.477-3.706A12.869,12.869,0,1,1,210.149,390.4Z" transform="translate(-170.547 -390.309)"/></svg>