<svg xmlns="http://www.w3.org/2000/svg" width="45.695" height="50" viewBox="0 0 45.695 50"><defs><style>.a{fill:#e6e6e6;}.b{fill:#999;}.c{fill:#242424;}.d{fill:#fff;}</style></defs><g transform="translate(-22.04)"><path class="a" d="M86.546,0,97,10.452V50H59.24V0Z" transform="translate(-33.567)"/><path class="b" d="M349.293,10.452H338.84V0Z" transform="translate(-285.862)"/><path class="c" d="M59.685,305.692H22.04V293.008h45.7Z" transform="translate(0 -264.394)"/><path class="b" d="M25.673,426.527V422.9H22.04Z" transform="translate(0 -381.598)"/><g transform="translate(33.282 31.262)"><path class="d" d="M141.935,320.8v5.033a2.688,2.688,0,0,1-.464,1.863,2.777,2.777,0,0,1-1.891.459,3,3,0,0,1-1.969-.442,2.867,2.867,0,0,1-.452-1.939l.017-.539H138.5c.022.27.033.473.033.608s.006.284.017.466c.022.441.372.663,1.052.663q.609,0,.783-.238a2.093,2.093,0,0,0,.173-1.07V320.8Z" transform="translate(-137.16 -320.734)"/><path class="d" d="M199.176,328.091V320.8h3.3a2.028,2.028,0,0,1,2.509,2.5,2.777,2.777,0,0,1-.491,1.944,2.93,2.93,0,0,1-1.986.481l-.32,0H200.56v2.356Zm1.384-3.519h1.575a2.094,2.094,0,0,0,1.194-.217,1.4,1.4,0,0,0,.255-1.022,1.9,1.9,0,0,0-.213-1.145c-.141-.148-.5-.222-1.1-.222H200.56v2.606Z" transform="translate(-193.12 -320.734)"/><path class="d" d="M268.045,323.606h3.211l.022,1.448q0,1.58-.6,2.038a4.988,4.988,0,0,1-2.658.456,3.67,3.67,0,0,1-2.5-.609,3.588,3.588,0,0,1-.616-2.483,11.035,11.035,0,0,1,.245-3.025,1.75,1.75,0,0,1,.925-1.034,5.827,5.827,0,0,1,2.1-.269,4.853,4.853,0,0,1,2.508.416c.378.277.567.886.567,1.834h-1.4c-.025-.478-.128-.773-.311-.889a3.271,3.271,0,0,0-1.381-.172,2.5,2.5,0,0,0-1.525.3,2.031,2.031,0,0,0-.323,1.4l0,.733.011.934a2,2,0,0,0,.32,1.381,2.422,2.422,0,0,0,1.484.3,2.611,2.611,0,0,0,1.439-.252c.2-.166.3-.561.3-1.184l.006-.3h-1.831v-1.022Z" transform="translate(-252.429 -320.128)"/></g></g></svg>