<svg xmlns="http://www.w3.org/2000/svg" width="100" height="100" viewBox="0 0 100 100"><defs><style>.a{fill:#ee8d10;}.b{fill:#fff;}.c{fill:#8e8e8e;}.d{fill:#1b1b1b;}.e{fill:none;}</style></defs><g transform="translate(0 0)"><path class="a" d="M82.838,15.5l-14.3-7.9-32.2,32.2v9.3A7.71,7.71,0,0,1,43.031,53H11.138c-.092,0-.18.011-.271.014L12.238,47.7h-8.8a1.473,1.473,0,0,0-1.5,1.5v3.2a1.473,1.473,0,0,0,1.5,1.5H7.2a9.343,9.343,0,0,0-5.357,8.4V80.7a3.9,3.9,0,0,0,3.9,3.9h38.3v5.7a6.466,6.466,0,0,0,6.4,6.5h41.1a6.487,6.487,0,0,0,6.5-6.5V41.4A29.527,29.527,0,0,0,82.838,15.5Z"/><path class="b" d="M41.138,35h-21.1a5.46,5.46,0,0,0-5.2,3.9L10.638,53h32.4l-4.2-3.5-2.5-.4V39.8Zm-24,32.5h-8.8a1.473,1.473,0,0,1-1.5-1.5V61.5a1.473,1.473,0,0,1,1.5-1.5h11.9Zm44.2-26h0a23.217,23.217,0,0,1,23.2,23.2h0V79.5a3.9,3.9,0,0,1-3.9,3.9h-19.3a3.9,3.9,0,0,1-3.9-3.9h0V45.3a3.952,3.952,0,0,1,3.9-3.8Z"/><path class="c" d="M65.938,10.3,45.138,31l-6.3-11.3L41.4,17.136,38.238,11.4l8.1-8.1,5.637,3.263L54.538,4Zm-59,84.8a1.473,1.473,0,0,0,1.5,1.5h6.8a1.538,1.538,0,0,0,1.5-1.5V84.5h-9.8Z"/><path class="d" d="M83.321,14.625,68.363,6.361,65.7,9.025,54.363,2.761,51.811,5.313,46.174,2.049,37,11.225l3.165,5.736L37.6,19.527l6.3,11.3L40.724,34H20.038a6.428,6.428,0,0,0-6.159,4.614L11.471,46.7H3.438a2.473,2.473,0,0,0-2.5,2.5v3.2a2.473,2.473,0,0,0,2.5,2.5H3.99A10.262,10.262,0,0,0,.838,62.3V80.7a4.906,4.906,0,0,0,4.9,4.9h.2v9.5a2.473,2.473,0,0,0,2.5,2.5h6.8a2.534,2.534,0,0,0,2.5-2.5V85.6h25.3v4.7a7.459,7.459,0,0,0,7.4,7.5h41.1a7.508,7.508,0,0,0,7.5-7.5V41.4A30.572,30.572,0,0,0,83.321,14.625Zm-43.844-3.05L46.5,4.55l3.845,2.227-8.711,8.711Zm.6,8.3,1.09-1.09.036.065L53.666,6.387,53.6,6.35l1.111-1.111L64.227,10.5l-18.86,18.86ZM15.794,39.191A4.435,4.435,0,0,1,20.038,36H38.724l-3.386,3.386V50.1h1A6.67,6.67,0,0,1,41,52H11.979ZM3.438,52.9a.476.476,0,0,1-.5-.5V49.2a.476.476,0,0,1,.5-.5h7.437L9.867,52.087a10.193,10.193,0,0,0-2.92.813Zm12.3,42.2a.542.542,0,0,1-.5.5h-6.8a.476.476,0,0,1-.5-.5V85.6h7.8Zm-10-11.5a2.9,2.9,0,0,1-2.9-2.9V62.3a8.31,8.31,0,0,1,8.3-8.3H42.417a6.645,6.645,0,0,1,.621,2.8v2.1H25.662l-6.1,15.2H43.038v9.5Zm37.3-22.7V72.1H22.517l4.5-11.2Zm54,29.4a5.507,5.507,0,0,1-5.5,5.5h-41.1a5.457,5.457,0,0,1-5.4-5.5V56.8a8.713,8.713,0,0,0-7.7-8.643V40.214L45.749,31.8,67.588,10.069l-.067-.037,1.192-1.193,13.641,7.536A28.574,28.574,0,0,1,97.038,41.4Zm-35.7-49.8a4.949,4.949,0,0,0-4.9,4.8V79.5a4.906,4.906,0,0,0,4.9,4.9h19.3a4.905,4.905,0,0,0,4.9-4.9V64.7A24.227,24.227,0,0,0,61.338,40.5Zm22.2,39a2.9,2.9,0,0,1-2.9,2.9h-19.3a2.9,2.9,0,0,1-2.9-2.9V45.347a2.94,2.94,0,0,1,2.9-2.847,22.225,22.225,0,0,1,22.2,22.2Zm7.8,3.8a1.851,1.851,0,0,0-.1-3.7,1.817,1.817,0,0,0-1.8,1.9A1.88,1.88,0,0,0,91.338,83.3Zm-.3-2c0-.1.1-.1.2-.1a.3.3,0,1,1-.3.3A.349.349,0,0,1,91.038,81.3Zm.3-5.5a1.851,1.851,0,1,0-1.9-1.8A1.88,1.88,0,0,0,91.338,75.8Zm-.3-2c.1-.1.1-.1.2-.1a.3.3,0,1,1-.3.3A.349.349,0,0,1,91.038,73.8Zm.3-21.2a1.851,1.851,0,1,0-1.9-1.8A1.88,1.88,0,0,0,91.338,52.6Zm-.3-2c0-.1.1-.1.2-.1a.3.3,0,1,1-.3.3A.349.349,0,0,1,91.038,50.6Zm.3-5.4a1.851,1.851,0,1,0-.1-3.7,1.817,1.817,0,0,0-1.8,1.9A1.88,1.88,0,0,0,91.338,45.2Zm-.3-2.1c.1-.1.1-.1.2-.1a.319.319,0,0,1,.3.3.3.3,0,1,1-.6,0A.349.349,0,0,1,91.038,43.1ZM8.338,59a2.473,2.473,0,0,0-2.5,2.5V66a2.473,2.473,0,0,0,2.5,2.5h9.469L21.733,59Zm8.131,7.5H8.338a.476.476,0,0,1-.5-.5V61.5a.476.476,0,0,1,.5-.5h10.4ZM6.838,72.1h8.3v2h-8.3Z"/><rect class="e" width="100" height="100" transform="translate(0 0)"/></g></svg>