<svg xmlns="http://www.w3.org/2000/svg" width="100" height="100" viewBox="0 0 100 100"><defs><style>.a{fill:#ee8d10;}.b{fill:#8e8e8e;}.c{fill:#fff;}.d{fill:#1b1b1b;}.e{fill:none;}</style></defs><path class="a" d="M40.458,50.005,64.994,25.468l7.849,7.849L48.307,57.854ZM5.9,92.4h0a8.088,8.088,0,0,1,0-11.5h0L26,60.8l9.8-6.1,7.8,7.8-6.1,9.8L17.4,92.4a8.273,8.273,0,0,1-11.5,0Z"/><path class="b" d="M62.9,15.6c-5.2-5.2-13.6-5.3-13.6-5.3a17.443,17.443,0,0,1,24.8,0L86.8,23l-1.2,1.2,3.968,3.968,1.218-1.218,6.788,6.788L85.409,45.9,78.62,39.115l1.257-1.257L75.91,33.89,74.7,35.1,63.2,23.6c0-.1.1-.2.2-.3A5.413,5.413,0,0,0,62.9,15.6ZM33.6,26.8A15.925,15.925,0,0,0,23.7,6.5a15.471,15.471,0,0,0-10.4,0L25.1,18.3,14.8,28.6,3.1,16.9A15.96,15.96,0,0,0,23.6,36.7L36.8,49.9l1.757-1.746,1.9,1.851L48.6,41.8ZM56.4,49.7l-8.093,8.154,1.776,1.825L48.3,61.4,78.9,92a7,7,0,0,0,9.9-9.9Z"/><rect class="c" width="6.6" height="16.3" transform="translate(33.89 52.821) rotate(-45)"/><path class="d" d="M57.844,49.73,72.88,34.694l1.82,1.82,1.2-1.2,2.554,2.553-1.248,1.248,8.2,8.2L98.984,33.741l-8.2-8.2-1.215,1.215L87.014,24.2l1.2-1.2L74.807,9.593A18.472,18.472,0,0,0,61.664,4.125H61.6A18.229,18.229,0,0,0,48.587,9.6l-1.644,1.67,2.344.032c.08,0,8.066.166,12.957,5.054a4.4,4.4,0,0,1,.451,6.237A1.416,1.416,0,0,0,62.2,23.6v.414l1.417,1.417L48.632,40.417,34.742,26.528A16.929,16.929,0,0,0,24.033,5.557a16.462,16.462,0,0,0-11.075,0L11.482,6.1l12.2,12.2L14.8,27.186,2.635,15.021,2.145,16.6a16.807,16.807,0,0,0,1.247,12.94,16.873,16.873,0,0,0,19.934,8.3L35.391,49.9,32.476,52.82l1.708,1.708-8.712,5.423L5.193,80.193a9.087,9.087,0,0,0,0,12.914l.011.012a9.228,9.228,0,0,0,12.9-.012l20.1-20.1,5.562-8.894,1.647,1.648,2.915-2.915L78.206,92.72A8.1,8.1,0,0,0,83.837,95a7.843,7.843,0,0,0,5.67-2.391,7.938,7.938,0,0,0,0-11.214ZM96.156,33.741,85.408,44.489l-5.374-5.374L90.782,28.367Zm-8-5.573-8.285,8.285L77.314,33.9,85.6,25.614ZM63.607,14.893C59.879,11.165,54.694,9.921,51.7,9.507a16.228,16.228,0,0,1,9.9-3.382h.061a16.485,16.485,0,0,1,11.729,4.882L85.386,23,74.7,33.686,64.517,23.5A6.35,6.35,0,0,0,63.607,14.893Zm-15.3,41.546-6.435-6.434L64.994,26.882l6.435,6.435ZM23.866,35.552l-.591.2A14.878,14.878,0,0,1,5.158,28.606a14.852,14.852,0,0,1-1.515-9.749L14.8,30.014,26.514,18.3,15.191,6.977a14.581,14.581,0,0,1,8.183.468A14.926,14.926,0,0,1,32,15.083a14.773,14.773,0,0,1,.657,11.387l-.207.593L47.217,41.831l-3.585,3.586-9.725-9.724-1.414,1.414,9.725,9.724-1.785,1.785L38.557,46.74l-1.752,1.751ZM36.712,71.674,16.7,91.683a7.233,7.233,0,0,1-10.1.005,7.089,7.089,0,0,1,0-10.081L26.626,61.588l9.01-5.608,6.684,6.684Zm8.145-9.3.012-.019-8.924-8.922-.018.011L35.3,52.82l3.253-3.252L48.668,59.68l-3.252,3.253ZM88.08,91.206a5.848,5.848,0,0,1-4.2,1.807,6.186,6.186,0,0,1-4.274-1.72L49.745,61.432,51.5,59.68l-1.8-1.8,1.784-1.784L79.593,84.207l1.414-1.414L52.894,54.68l3.536-3.536L88.093,82.807A5.941,5.941,0,0,1,88.08,91.206Z"/><rect class="e" width="100" height="100"/></svg>