<svg xmlns="http://www.w3.org/2000/svg" width="100" height="100" viewBox="0 0 100 100"><defs><style>.a{fill:#ee8d10;}.b{fill:#fff;}.c{fill:#8e8e8e;}.d{fill:#1b1b1b;}.e{fill:none;}</style></defs><path class="a" d="M96.284,42.25a1.9,1.9,0,0,0,1.9-1.9v-3.9a1.9,1.9,0,0,0-1.9-1.9h-11.9l2.195,6.5H14.017l1.667-6.5H3.784a1.9,1.9,0,0,0-1.9,1.9v4a1.9,1.9,0,0,0,1.9,1.9h4.3a11.479,11.479,0,0,0-6.2,10.2v22.7a4.8,4.8,0,0,0,4.8,4.8h86.7a4.8,4.8,0,0,0,4.8-4.8V52.55a11.507,11.507,0,0,0-6.406-10.3h4.506Z"/><path class="b" d="M17.884,23.65a6.543,6.543,0,0,1,.929-1.948,15.97,15.97,0,0,0-5.129-2.852,15.876,15.876,0,0,0,10.1-10.1,15.876,15.876,0,0,0,10.1,10.1h41.9a6.543,6.543,0,0,1,6.4,4.8l5.1,17.4h-74.5Zm-8.8,27.8v5.6a1.9,1.9,0,0,0,1.9,1.9h10.8l3.8-9.4h-14.6A1.9,1.9,0,0,0,9.084,51.45Zm81-1.9h-14.6l3.8,9.4h10.8a1.9,1.9,0,0,0,1.9-1.9v-5.6A1.9,1.9,0,0,0,90.084,49.55Zm-29.1,6.5a23.756,23.756,0,0,1-16.6,16.6,23.756,23.756,0,0,1,16.6,16.6,23.581,23.581,0,0,1,16.6-16.6A23.756,23.756,0,0,1,60.984,56.05Z"/><path class="c" d="M20.184,80.05h1v13.1a1.9,1.9,0,0,1-1.9,1.9h-9.3a1.9,1.9,0,0,1-1.9-1.9V80.05h12.1Zm70.9,0h-12.2v13.1a1.9,1.9,0,0,0,1.9,1.9h9.4a1.9,1.9,0,0,0,1.9-1.9V80.05Z"/><path class="d" d="M99.184,40.35v-3.9a2.9,2.9,0,0,0-2.9-2.9H86.128L83.147,23.384a7.528,7.528,0,0,0-7.363-5.534h-38.1a12.865,12.865,0,0,1-12.9-12.8h-2a12.814,12.814,0,0,1-12.8,12.8v2a12.745,12.745,0,0,1,8.147,2.935c-.076.191-.149.383-.207.584L14.94,33.55H4.784a2.9,2.9,0,0,0-2.9,2.9v4a2.9,2.9,0,0,0,2.9,2.9H5.951a12.455,12.455,0,0,0-4.067,9.2v22.7a5.807,5.807,0,0,0,5.8,5.8h.4v12.1a2.9,2.9,0,0,0,2.9,2.9h8.3a2.9,2.9,0,0,0,2.9-2.9V81.05H55.647a19.591,19.591,0,0,1,4.337,12.3h2a19.591,19.591,0,0,1,4.337-12.3H78.884v12.1a2.9,2.9,0,0,0,2.9,2.9h8.4a2.9,2.9,0,0,0,2.9-2.9V81.05h.3a5.807,5.807,0,0,0,5.8-5.8V52.55a12.459,12.459,0,0,0-4.177-9.3h1.277A2.9,2.9,0,0,0,99.184,40.35Zm-75.4-30a14.9,14.9,0,0,0,8.522,8.492,14.856,14.856,0,0,0-8.526,8.506A14.859,14.859,0,0,0,15.29,18.85,14.859,14.859,0,0,0,23.788,10.346Zm-4.07,14.013a12.738,12.738,0,0,1,3.066,8.291h2a12.814,12.814,0,0,1,12.8-12.8h38.2a5.553,5.553,0,0,1,5.44,4.081L85.949,40.05H15.119ZM4.784,41.35a.9.9,0,0,1-.9-.9v-4a.9.9,0,0,1,.9-.9h9.57l-1.342,4.579A12.391,12.391,0,0,0,8.867,41.35Zm15.4,51.8a.9.9,0,0,1-.9.9h-8.3a.9.9,0,0,1-.9-.9V81.05h10.1Zm40.8-6.313A21.8,21.8,0,0,0,46.8,72.65,21.8,21.8,0,0,0,60.984,58.463,21.8,21.8,0,0,0,75.171,72.65,21.8,21.8,0,0,0,60.984,86.837ZM66.921,64.95a19.6,19.6,0,0,1-4.937-13h-2a19.6,19.6,0,0,1-4.937,13H27.964l5.795-14.4h33.55L73.1,64.95Zm24.163,28.2a.9.9,0,0,1-.9.9h-8.4a.9.9,0,0,1-.9-.9V81.05h10.2Zm6.1-40.6v22.7a3.8,3.8,0,0,1-3.8,3.8H68.175a19.61,19.61,0,0,1,13.509-5.4v-2a19.6,19.6,0,0,1-12.739-4.7h7.119l-7.4-18.4H32.409L25,66.95h28.02a19.6,19.6,0,0,1-12.739,4.7v2a19.612,19.612,0,0,1,13.509,5.4H7.684a3.8,3.8,0,0,1-3.8-3.8V52.55a10.512,10.512,0,0,1,10.5-10.5h72.3A10.512,10.512,0,0,1,97.184,52.55ZM88.057,40.129,86.714,35.55h9.57a.9.9,0,0,1,.9.9v3.9a.9.9,0,0,1-.9.9H91.993A12.387,12.387,0,0,0,88.057,40.129ZM8.084,51.45v5.6a2.9,2.9,0,0,0,2.9,2.9H22.458l4.609-11.4H10.984A2.9,2.9,0,0,0,8.084,51.45Zm13.026,6.5H10.984a.9.9,0,0,1-.9-.9v-5.6a.9.9,0,0,1,.9-.9H24.1ZM8.984,64.85h10.3v2H8.984Zm81.1-16.3H74l4.607,11.4H90.084a2.9,2.9,0,0,0,2.9-2.9v-5.6A2.9,2.9,0,0,0,90.084,48.55Zm.9,8.5a.9.9,0,0,1-.9.9H79.959l-2.992-7.4H90.084a.9.9,0,0,1,.9.9Zm-9.3,7.8h10.3v2h-10.3Z"/><rect class="e" width="100" height="100" transform="translate(0 0)"/></svg>