<svg xmlns="http://www.w3.org/2000/svg" width="100" height="100" viewBox="0 0 100 100"><defs><style>.a{fill:#ee8d10;}.b{fill:#8e8e8e;}.c{fill:#fff;}.d{fill:#1b1b1b;}.e{fill:none;}</style></defs><g transform="translate(0 -0.1)"><path class="a" d="M62.8,43.9H30.1a4.841,4.841,0,0,0-3.6,1.6,5.45,5.45,0,0,0-1.2,2.4,5.265,5.265,0,0,0,.6,3.5l2,3.2a4.533,4.533,0,0,0,3.8,2.1l44.7-.5,10.1,2.3a11.318,11.318,0,0,1,6.6,4.3,10.1,10.1,0,0,1,1.8,4.1l1.2,5.2a.974.974,0,0,0,1,.8h1v7.6H3.7V72.9H5a1.155,1.155,0,0,0,1.2-1.2v-12a6.871,6.871,0,0,1,3.2-5.8l6.9-4.2h.1l.1-.1.5-.4a2.478,2.478,0,0,0,.7-3L16,42.1a.9.9,0,0,1-.1-.5v-.2a.684.684,0,0,1,.7-.7l34.8-.5h.9A18.088,18.088,0,0,1,62.8,43.9ZM58.7,18.5H10.1a3.372,3.372,0,0,0-3.4,3.4h0a3.372,3.372,0,0,0,3.4,3.4H58.7m8.5-13.7h1V33.2H61.8a3.569,3.569,0,0,1-3.7-3.4V15a3.508,3.508,0,0,1,3.7-3.4Z"/><path class="b" d="M78.8,70.4A8.6,8.6,0,1,1,70.2,79,8.6,8.6,0,0,1,78.8,70.4Zm-54.9,1A8.6,8.6,0,1,1,15.3,80,8.6,8.6,0,0,1,23.9,71.4ZM84.4,33.1H61.8a3.569,3.569,0,0,1-3.7-3.4V15a3.569,3.569,0,0,1,3.7-3.4H84.4a5.848,5.848,0,0,1,5.9,5.9v9.7A5.848,5.848,0,0,1,84.4,33.1Z"/><path class="c" d="M92.3,62.3c-.2.1-4.2,2.7-8,.8-1.9-.9-3.9-3.2-3.9-5.5v-.2c.4.1,1,.2,1.7.4.7.1,1.7.4,2.8.6a26.75,26.75,0,0,1,3.3.9,7.85,7.85,0,0,1,3.3,2A7.006,7.006,0,0,1,92.3,62.3Zm-16-35.4M95.1,55.7,18,54.6a9.9,9.9,0,0,0-6.6,6.3,9.4,9.4,0,0,0-6.7-6.4,9.834,9.834,0,0,0,6.6-6.4A9.723,9.723,0,0,0,18,54.6ZM44.1,66.1a7.37,7.37,0,0,0,4.5,4.3,7.466,7.466,0,0,0-4.4,4.3,7.37,7.37,0,0,0-4.5-4.3A8.066,8.066,0,0,0,44.1,66.1ZM88.3,28.9v8.7a2.562,2.562,0,0,1-2.6,2.5,2.5,2.5,0,0,1-2.6-2.5c.1-.5.1-1,.2-1.5a2.885,2.885,0,0,0-2.8-2.2,2.807,2.807,0,0,0-2.8,2.5c0,1.7,0,3.4-.1,5.2a2.655,2.655,0,0,1-2.4,2.3,2.494,2.494,0,0,1-2.6-2.5V28.9"/><path class="d" d="M99,72H97l-1.2-5.2a11.741,11.741,0,0,0-2-4.4,11.513,11.513,0,0,0-1.677-1.875c-.009-.008-.015-.017-.023-.025a8.045,8.045,0,0,0-1.253-.981c-.073-.05-.144-.1-.217-.148s-.138-.082-.208-.123A12.756,12.756,0,0,0,86.7,57.7l-9.257-2.087c-4.105-3.618-8.245-7.2-12.358-10.813a25.73,25.73,0,0,0-1.942-1.7c-.114-.1-.229-.2-.343-.3h-.056A19.533,19.533,0,0,0,52.2,39.4l-35.7.5a1.707,1.707,0,0,0-1.7,1.7v.2a2.92,2.92,0,0,0,.2.9l1.7,4.1a1.679,1.679,0,0,1-.4,1.9l-.5.4-2.2,1.342A8.044,8.044,0,0,1,12.4,48l-.9-3-1,2.9a9.214,9.214,0,0,1-6,5.7L1,54.6l3.5.9a8.1,8.1,0,0,1,1.666.637A8.392,8.392,0,0,0,5.5,57.6a7.8,7.8,0,0,0-.3,2.2v12A.215.215,0,0,1,5,72H2.7v9.5H14.429a9.587,9.587,0,0,0,18.942,0h36.17a9.587,9.587,0,0,0,18.518,0H99ZM82.1,58.7c.245.041.585.1.956.177l1.216.279c.177.047.354.092.528.144a21.492,21.492,0,0,1,3.1.9c.145.056.273.113.406.169A10.493,10.493,0,0,1,90.7,61.944c-1.324.593-3.75,1.33-5.9.256a7.058,7.058,0,0,1-3.2-3.6C81.7,58.7,81.8,58.7,82.1,58.7ZM44.2,72.6a8.392,8.392,0,0,0-2.3-2.3,9.19,9.19,0,0,0,2.2-2.2,8.392,8.392,0,0,0,2.3,2.3A7.685,7.685,0,0,0,44.2,72.6ZM31.7,55.9a3.618,3.618,0,0,1-3-1.7l-2-3.2a3.858,3.858,0,0,1-.5-2.8,3.379,3.379,0,0,1,.9-1.9A4.7,4.7,0,0,1,30,45c1.336-.167,6.24-.241,13.6-.222V55.767ZM45.6,44.785c4.782.022,10.454.079,16.763.171l11.805,10.47L45.6,55.745ZM14.918,51.909a8.446,8.446,0,0,1-1.14-1.207A16.225,16.225,0,0,1,14.918,51.909ZM11.3,50.6a10.5,10.5,0,0,0,4.1,4,10.7,10.7,0,0,0-4,3.9,9.88,9.88,0,0,0-4.1-4A12.42,12.42,0,0,0,11.3,50.6ZM4.6,74.2h.3A2.22,2.22,0,0,0,7.1,72V60a4.678,4.678,0,0,1,.2-1.7A5.375,5.375,0,0,1,7.8,57.212,8.7,8.7,0,0,1,10.5,61.2l.9,3,1.1-2.8a8.65,8.65,0,0,1,5.9-5.7l3.5-1-3.5-.9A8.846,8.846,0,0,1,15,51.98l1.8-1.08.7-.6a3.716,3.716,0,0,0,1-4.2L16.8,42v-.1l34.5-.5h.9a15.8,15.8,0,0,1,7.1,1.7H30A5.966,5.966,0,0,0,25.6,45a5.727,5.727,0,0,0-1.4,2.8A6.273,6.273,0,0,0,25,52l2,3.2a5.29,5.29,0,0,0,4.6,2.6h.1l11.9-.134v7.367l-.3.767a7.415,7.415,0,0,1-3.9,3.7l-2.6,1,2.6.9a6.224,6.224,0,0,1,3.9,3.7l.3.767V79.5a.539.539,0,0,0,.029.1H33.48a9.588,9.588,0,0,0-19.16,0H4.7ZM23.9,87.7A7.7,7.7,0,1,1,31.6,80,7.7,7.7,0,0,1,23.9,87.7Zm21.679-8.1a.8.8,0,0,0,.021-.1V74.3A6.5,6.5,0,0,1,49,71.4l2.6-.9L49,69.6a6.751,6.751,0,0,1-3.4-2.8V57.644l28.8-.324V70.475A9.6,9.6,0,0,0,69.2,79c0,.2.018.4.03.6ZM78.8,86.8a7.7,7.7,0,1,1,7.7-7.7A7.7,7.7,0,0,1,78.8,86.8ZM97,79.6H88.37c.012-.2.03-.4.03-.6a9.565,9.565,0,0,0-12-9.285V57.346l3.031.7c.148,2.537,2.29,4.918,4.369,5.957a7.334,7.334,0,0,0,3.4.8,11.213,11.213,0,0,0,4.934-1.285c.021.029.045.055.066.085a10.376,10.376,0,0,1,1.7,3.7l1.2,5.2A1.927,1.927,0,0,0,97,74ZM78.8,73a6,6,0,1,0,6,6A6.018,6.018,0,0,0,78.8,73Zm0,10.2a4.055,4.055,0,0,1-4.1-4.1,4.1,4.1,0,1,1,4.1,4.1ZM23.9,74a6,6,0,1,0,6,6A6.018,6.018,0,0,0,23.9,74Zm0,10.1A4.055,4.055,0,0,1,19.8,80,4.1,4.1,0,0,1,28,80,4.055,4.055,0,0,1,23.9,84.1ZM18.1,67.7A4.1,4.1,0,1,0,14,63.6,4.055,4.055,0,0,0,18.1,67.7Zm0-6.2a1.994,1.994,0,0,1,2.1,2.1,2.182,2.182,0,0,1-2.1,2.1,2.1,2.1,0,1,1,0-4.2Zm-8-35.2h47v3.4a4.574,4.574,0,0,0,4.7,4.4h9.7v7.2a3.743,3.743,0,0,0,1.1,2.5,3.523,3.523,0,0,0,4.7.2,3.071,3.071,0,0,0,1.1-2.2l.1-5.2a1.9,1.9,0,0,1,1.8-1.5A1.743,1.743,0,0,1,82,36.3l-.1,1.3v.1a3.706,3.706,0,0,0,7.4,0V32.047a6.879,6.879,0,0,0,2-4.847V17.5a6.914,6.914,0,0,0-6.9-6.9H61.8A4.574,4.574,0,0,0,57.1,15v2.5h-47a4.4,4.4,0,1,0,0,8.8ZM85.6,39.1A1.483,1.483,0,0,1,84,37.7l.2-1.6v-.2a3.961,3.961,0,0,0-3.8-3,3.865,3.865,0,0,0-3.8,3.3l-.1,5.2a1.493,1.493,0,0,1-1.4,1.3,1.391,1.391,0,0,1-1.5-1.4v-12H87.2v8.4A1.483,1.483,0,0,1,85.6,39.1ZM84.5,12.6a4.892,4.892,0,0,1,4.009,2.1H71.4v2H89.319a4.8,4.8,0,0,1,.081.8v3.4H71.5v2H89.4v4.3c0,.034-.006.066-.007.1H71.5v4.8H69.2V12.6Zm-17.3,0V32.1H61.9a2.564,2.564,0,0,1-2.7-2.4V15a2.564,2.564,0,0,1,2.7-2.4ZM10.1,19.5h47v4.8h-47a2.4,2.4,0,1,1,0-4.8Z"/><rect class="e" width="100" height="100" transform="translate(0 0.1)"/></g></svg>