<svg xmlns="http://www.w3.org/2000/svg" width="100" height="100" viewBox="0 0 100 100"><defs><style>.a{fill:#ee8d10;}.b{fill:#fff;}.b,.c{fill-rule:evenodd;}.c{fill:#8e8e8e;}.d{fill:#1b1b1b;}.e{fill:none;}</style></defs><path class="a" d="M56.229,15.606H43.724V11.437a4.168,4.168,0,0,1,4.168-4.168H52.06a4.168,4.168,0,0,1,4.169,4.168ZM84.354,47.635a4.164,4.164,0,0,0-3.952-2.85H58.314V36.449a8.337,8.337,0,1,0-16.674,0v8.336H19.776a4.175,4.175,0,0,0-4,2.972q-1.083,3.6-2.167,7.18c-.959,3.177-1.919,6.35-2.879,9.545H89.823C88.043,58.848,86.2,53.217,84.354,47.635Z"/><path class="b" d="M56.229,31.637a7.352,7.352,0,0,0-12.505,0V14.564H56.229Zm18.639,5.2a12.813,12.813,0,0,1-8.133,7.836,12.228,12.228,0,0,1,8.232,7.9,12.541,12.541,0,0,1,8.1-7.811,12.226,12.226,0,0,1-8.2-7.927M27.973,19.744a9.863,9.863,0,0,1-5.278,5.124,9.422,9.422,0,0,1,5.369,5.191,9.658,9.658,0,0,1,5.251-5.1,9.421,9.421,0,0,1-5.342-5.21"/><path class="c" d="M89.53,63.552H11L1.373,92.732h9.119V92.7c0-3.433,2.253-6.217,5.032-6.217s5.03,2.784,5.03,6.217v.036h7.094V92.7c0-3.433,2.252-6.217,5.031-6.217S37.71,89.263,37.71,92.7v.036H44.8V92.7c0-3.433,2.252-6.217,5.031-6.217s5.032,2.784,5.032,6.217v.036h7.093V92.7c0-3.433,2.252-6.217,5.031-6.217s5.031,2.784,5.031,6.217v.036h7.093V92.7c0-3.433,2.253-6.217,5.031-6.217s5.031,2.784,5.031,6.217v.036H98.65Z"/><path class="d" d="M27.147,30.44l.9,2.158.931-2.143a8.712,8.712,0,0,1,4.71-4.579l2.354-.945-2.37-.9a8.439,8.439,0,0,1-4.777-4.66l-.884-2.149-.942,2.124a8.81,8.81,0,0,1-4.745,4.607l-2.341.956,2.366.891A8.447,8.447,0,0,1,27.147,30.44Zm.8-8.613a10.431,10.431,0,0,0,3.189,3.144,10.793,10.793,0,0,0-3.061,3.006,10.483,10.483,0,0,0-3.2-3.132A10.741,10.741,0,0,0,27.951,21.827ZM100,93.723,91.169,65.467l.009.006-.408-1.292c-.06-.189-.122-.382-.182-.572l-.328-1.05h-.005C88.8,57.984,87.209,53.094,85.3,47.322h0a5.09,5.09,0,0,0-1.117-1.868l2.341-.725-3.18-.922a11.194,11.194,0,0,1-7.529-7.28l-.9-2.742-.98,2.712a11.868,11.868,0,0,1-7.5,7.228l-.216.068H59.306V36.448a9.276,9.276,0,0,0-2.084-5.864V13.571h0V11.439a5.167,5.167,0,0,0-5.161-5.162H47.893a5.167,5.167,0,0,0-5.161,5.162v2.132h0V30.582a9.284,9.284,0,0,0-2.084,5.866v7.345H19.777a5.136,5.136,0,0,0-4.946,3.677L12.3,55.842q-1.036,3.425-2.07,6.863L0,93.723H10.492l.993-.036v-.992c0-2.881,1.812-5.224,4.038-5.224s4.039,2.343,4.04,5.218l-.043,1.034h8.128l.992-.036v-.992c0-2.881,1.812-5.224,4.039-5.224s4.039,2.343,4.039,5.26v.992H44.8l.993-.036v-.992c0-2.881,1.811-5.224,4.038-5.224s4.039,2.343,4.039,5.26v.992h8.086l.993-.036v-.992c0-2.881,1.811-5.224,4.038-5.224s4.039,2.343,4.039,5.26v.992h8.086l.992-.036v-.992c0-2.881,1.812-5.224,4.038-5.224s4.039,2.343,4.039,5.26v.992ZM55.236,15.557V28.75a9.3,9.3,0,0,0-10.52,0V15.557ZM44.717,11.439a3.179,3.179,0,0,1,3.176-3.177h4.168a3.179,3.179,0,0,1,3.176,3.177v2.132H44.717ZM42.632,36.448a7.344,7.344,0,0,1,14.688,0v7.345H42.632Zm32.2,2.824a13.182,13.182,0,0,0,5.609,5.512,13.594,13.594,0,0,0-5.455,5.34,13.178,13.178,0,0,0-5.639-5.492A13.932,13.932,0,0,0,74.834,39.272Zm-58.1,8.771a3.162,3.162,0,0,1,3.045-2.265H66.9a11.182,11.182,0,0,1,7.126,7.1l.916,2.771L75.9,52.9a11.559,11.559,0,0,1,6.1-6.671,3.136,3.136,0,0,1,1.4,1.718c1.826,5.513,3.359,10.218,4.76,14.612H12.35q.927-3.076,1.855-6.144ZM84.145,85.486c-3.042,0-5.565,2.713-5.967,6.252H72.961c-.392-3.523-2.92-6.252-5.971-6.252s-5.565,2.713-5.968,6.252H55.805c-.392-3.523-2.92-6.252-5.971-6.252s-5.566,2.713-5.968,6.252H38.65c-.392-3.523-2.92-6.252-5.971-6.252-3.034,0-5.551,2.7-5.963,6.252H21.5c-.392-3.523-2.921-6.252-5.972-6.252S9.958,88.2,9.555,91.738H2.745l8.972-27.192H88.8l8.5,27.192H90.116C89.724,88.215,87.2,85.486,84.145,85.486ZM76.95,72.8a1.036,1.036,0,0,1-.92,1.113H23.924a.995.995,0,0,1,0-1.985H76.03A1.025,1.025,0,0,1,76.95,72.8Z"/><rect class="e" width="100" height="100"/></svg>