<svg xmlns="http://www.w3.org/2000/svg" width="500" height="172" viewBox="0 0 500 172"><path d="M0,0V172H500V0ZM94.2,146.6,68.4,98.7H54.5v47.9H25.2V25.4H54.5V72.3H65.8L89.2,25.4h35.5l-33.4,56,37.6,65.2Zm143.9,0H208.8V48H165.1v98.6H135.8V25.4H238.1Zm120.4,0H329.2V48H285.5v98.6H256.2V25.4H358.5Zm49.4-29.5c3.3,5.5,8.9,8.3,16.8,8.3,6.7,0,11.9-1.6,15.4-4.7,3.6-3.2,5.5-8.2,5.7-15.1H475a44.168,44.168,0,0,1-6.8,22.3,40.726,40.726,0,0,1-17.6,15,58.83,58.83,0,0,1-25.8,5.3c-16,0-28.6-5.2-37.7-15.6s-13.8-25-13.8-43.9v-6c0-11.9,2.1-22.3,6.2-31.2a46.524,46.524,0,0,1,17.9-20.6c7.8-4.9,16.8-7.3,27.1-7.3,14.7,0,26.6,3.9,35.6,11.6s14.1,18.4,15.3,32H446c-.2-7.4-2.1-12.7-5.6-15.9s-8.9-4.8-16-4.8c-7.3,0-12.6,2.7-16,8.2s-5.2,14.1-5.3,26.1v8.6c-.1,12.9,1.6,22.1,4.8,27.7Z"/></svg>