<svg xmlns="http://www.w3.org/2000/svg" width="135" height="30" viewBox="0 0 135 30"><defs><style>.a{fill:#fff;}.b{fill:#eb6d01;}.c{fill:#eb6d00;}</style></defs><rect class="a" width="135" height="30"/><path class="b" d="M63.854,2.515C63.419,4.135,63,5.7,62.594,7.27c0,.195-.15.255-.345.255H44.354A2.13,2.13,0,0,0,41.969,9.34l-2.385,9a4.049,4.049,0,0,0-.12.615.96.96,0,0,0,.915,1.05h18.24c.585,0,.585,0,.435.57-.36,1.335-.72,2.655-1.05,3.99-.09.36-.255.465-.63.465H38.789a4.68,4.68,0,0,1-4.845-6.09q1.26-5.085,2.7-10.125A9,9,0,0,1,45.014,2.5h18.24Z" transform="translate(16.861 1.25)"/><path class="b" d="M42.648,2.51c-.09.24-.255.3-.39.405l-12.6,10c-.315.24-.315.375-.1.675l7.935,10.89c.1.135.195.285.3.435-.135.1-.27,0-.39,0h-6.18a.675.675,0,0,1-.63-.33c-2.685-3.69-5.37-7.4-8.07-11.07-.24-.33-.165-.465.1-.675L35.388,2.8a1.2,1.2,0,0,1,.825-.285h6.435Z" transform="translate(11.187 1.255)"/><path class="c" d="M84.381,11.121l-3.33,2.1a.87.87,0,0,1-.51.1H53.991c-.405,0-.405-.135-.315-.45.375-1.365.735-2.715,1.065-4.095.1-.375.27-.45.63-.45H81.7a.825.825,0,0,1,.765.375C83.076,9.531,83.721,10.311,84.381,11.121Z" transform="translate(26.814 4.164)"/><path class="b" d="M18.554,24.98h-2.34c-.36,0-.39-.1-.3-.42l4.1-15.315c.555-2.115,1.14-4.215,1.68-6.33.075-.315.195-.4.525-.4h4.665c.39,0,.4.105.315.435q-2.9,10.8-5.76,21.615c-.09.33-.21.45-.555.435C20.114,24.965,19.334,24.98,18.554,24.98Z" transform="translate(7.936 1.255)"/><path class="c" d="M66.42,7.521H55.62c-.4,0-.525,0-.4-.495.39-1.365.735-2.715,1.08-4.08.09-.315.195-.435.555-.435H74.01a.63.63,0,0,1,.57.255c1.02,1.305,2.07,2.58,3.105,3.87.15.2.36.375.225.645s-.4.225-.645.24Z" transform="translate(27.585 1.254)"/><path class="c" d="M63.689,14.17H73.844a.5.5,0,0,1,.465.375.51.51,0,0,1-.225.585l-.255.15-5.79,3.66a1.365,1.365,0,0,1-.72.225H52.484c-.345,0-.48,0-.36-.45.39-1.365.75-2.745,1.095-4.125.09-.36.255-.45.6-.45Z" transform="translate(26.041 7.07)"/></svg>