<svg xmlns="http://www.w3.org/2000/svg" width="222" height="30.379" viewBox="0 0 222 30.379"><defs><style>.a{fill:#1c1c1b;fill-rule:evenodd;}</style></defs><g transform="translate(-656.219 -745.45)"><g transform="translate(656.219 745.45)"><path class="a" d="M656.219,745.844h35.847v6.444h-28.4v4.757h28.556V764.1H663.662v11.661h-7.443V745.844Z" transform="translate(-656.219 -745.383)"/><path class="a" d="M691.438,745.844h7.442v22.4h23.7v7.518H691.438V745.844Z" transform="translate(-650.289 -745.383)"/><path class="a" d="M741.378,775.762h-14.43a6,6,0,0,1-5.621-5.676V745.844h7.443v23.014h26.278V745.844h7.443v24.242a6,6,0,0,1-5.62,5.676Z" transform="translate(-645.258 -745.384)"/><path class="a" d="M762.135,745.844v29.919h7.9v-11.2l17.924,11.2h13.214L777.021,760.42l22.936-14.576H786.894l-16.861,10.28v-10.28Z" transform="translate(-638.389 -745.383)"/><path class="a" d="M798.524,745.45v29.919H835.89V768.31H805.967v-4.142H835.89v-7.057H805.967v-4.6H835.89V745.45Z" transform="translate(-632.269 -745.45)"/><path class="a" d="M843.086,763.833a4.451,4.451,0,1,0,4.405,4.451,4.432,4.432,0,0,0-4.405-4.451Zm-.152.768h.152a3.5,3.5,0,0,1,3.494,3.684,3.5,3.5,0,1,1-3.646-3.684Zm-1.519,1.075v5.064h.76v-2.148h.912l1.367,2.148h.759l-1.366-2.148a1.338,1.338,0,0,0,1.214-1.382c0-1.073-.607-1.534-1.67-1.534Zm.76,2.3v-1.534h1.064c.76,0,1.064.154,1.064.766,0,.461-.3.768-.912.768Z" transform="translate(-625.491 -742.357)"/></g></g></svg>