<svg xmlns="http://www.w3.org/2000/svg" xmlns:xlink="http://www.w3.org/1999/xlink" width="165" height="66.911" viewBox="0 0 165 66.911"><defs><style>.a{fill:#1b1918;}.b{fill:#019445;}.c{fill:url(#a);}.d{fill:#fff;}.e{fill:#d9dadb;}</style><radialGradient id="a" cx="0.417" cy="0.441" r="0.731" gradientTransform="matrix(0.798, -0.603, -0.491, -0.649, 7.249, 25.913)" gradientUnits="objectBoundingBox"><stop offset="0" stop-color="#84db00"/><stop offset="0.374" stop-color="#75d604"/><stop offset="1" stop-color="#00b133"/></radialGradient></defs><g transform="translate(4.189 0.846)"><path class="a" d="M53.563,8.923H50.117c-6.9,0-12.819,17.772-4.656,17.77H50.7c3.024,0,5.27,1.123,4.276,4.15l-1.37,4.17H48.049l-4.524-.046c-5.788-.059-9.524-2.96-10.868-7.363-1.455-4.765.6-14.7,6.562-21.071A19,19,0,0,1,53.617.609H64.97L63.2,5.814c-1.147,3.364-3.49,3.114-4.827,3.113l-4.806,0Z" transform="translate(8.211 0.335)"/><path class="a" d="M105.153,11.206l-18.272,0c-3.024,0-4.4.854-4.937,2.639l-1.719,5.679c5.251,0,13.021,0,18.272,0,3.024,0,4.4-.854,4.936-2.639Z" transform="translate(19.308 2.785)"/><path class="a" d="M101.54,26.7l-18.273,0c-3.024,0-4.4.854-4.936,2.639l-1.72,5.681,18.272,0c3.024,0,4.4-.854,4.937-2.639ZM110.231.612l-18.273,0c-3.024,0-4.4.854-4.936,2.639L85.3,8.929l18.272,0c3.024,0,4.4-.854,4.937-2.639Z" transform="translate(18.472 0.336)"/><path class="a" d="M69.852,8.894H74.4c3.876,0,2.991,4.957,1.03,9.786-1.729,4.258-4.792,8.014-8.448,8.013H59.4c-3.024,0-4.419.854-5.007,2.639l-1.873,5.681h5.561l5.436-.046c4.82-.041,8.767-.4,13.382-4.643,4.878-4.486,10.564-16.139,9.59-22.879C85.727,2.165,82.955.61,76.242.609H64.009L56.885,21.947l4.526.006c2.693,0,4.045.037,5.478-3.909Z" transform="translate(12.905 0.335)"/><path class="a" d="M97.991,35.021h8.626l3.705-10.832,3.854-3.32,3.034,9.8c.939,3.027,1.9,4.356,4.014,4.356h6.6L121.013,15.8,137.4.584H126.817L116.87,11.416c-1.159,1.261-2.33,2.5-3.506,3.986h-.1L118.23.584h-8.625Z" transform="translate(23.413 0.331)"/><path class="b" d="M37.7,39.523,34.466,51.842h1.89l1.492-5.829c.323-1.348.7-3,.969-4.352h.1c.074,1.094.323,2.825.5,4l.9,6.108H41.9l3.456-6.236c.721-1.375,1.666-3.079,1.965-3.842h.124C47.22,43.01,47,44.64,46.8,45.962l-.771,5.88h1.939l1.517-12.319H46.9L43.864,45c-.846,1.5-1.765,3.258-2.163,4.122h-.05c-.1-.942-.323-2.393-.448-3.359l-.969-6.236Zm23.6,12.319a26.738,26.738,0,0,1,.5-5.7l1.193-6.414a10.843,10.843,0,0,0-3.232-.483c-5.221,0-8.3,4.529-8.3,8.805,0,2.342,1.318,4.072,3.456,4.072,1.691,0,3.357-.916,4.674-3.461h.05c-.149,1.272-.273,2.444-.273,3.182ZM60,44.817c-.6,3.283-2.636,5.574-4.352,5.574-1.591,0-2.063-1.349-2.063-2.724.024-3.41,2.561-6.745,5.667-6.745a5.226,5.226,0,0,1,1.417.179Zm5.3,12.064.969-5.319h.05a5.192,5.192,0,0,0,2.611.559c4,0,7.036-4.1,7.036-8.424,0-2.265-1.094-4.453-3.705-4.453a5.419,5.419,0,0,0-4.326,2.6h-.05l.348-2.317h-1.89c-.173,1.248-.422,2.923-.67,4.4L63.257,56.881Zm1.939-10.524C67.857,42.884,69.9,41,71.511,41c1.741,0,2.313,1.552,2.313,2.849,0,3.233-2.238,6.592-4.9,6.592a3.574,3.574,0,0,1-2.288-.662ZM79.74,39.523,77.429,51.842h2.014l1.02-5.549h.373c1.492,0,2.188.611,2.884,2.545.4,1.145.67,2.317.994,3h2.014a31.669,31.669,0,0,1-1.044-3.207c-.6-1.96-1.343-3.131-2.66-3.462l5.867-5.65H86.4l-5.2,5.447h-.473l1.02-5.447Zm17.4,10.028a6.594,6.594,0,0,1-3.232.866,2.732,2.732,0,0,1-2.686-1.655,5.224,5.224,0,0,1-.249-2.341c4.451.076,8.006-.79,8.006-4.022,0-1.755-1.243-3.155-3.531-3.155-3.879,0-6.564,4.2-6.564,7.915,0,2.723,1.392,4.962,4.575,4.962a8.14,8.14,0,0,0,3.979-.992ZM97,42.477c0,1.908-2.536,2.341-5.768,2.315.5-1.934,1.965-3.894,3.928-3.894,1.094,0,1.84.56,1.84,1.553Zm5.048,9.366,1.119-6.184C103.634,43.036,105.5,41,107.016,41s1.79,1.069,1.79,2.111a8.031,8.031,0,0,1-.15,1.5l-1.342,7.228H109.3l1.168-6.312c.5-2.748,2.263-4.529,3.755-4.529,1.343,0,1.815.839,1.815,2.138a8.347,8.347,0,0,1-.173,1.6l-1.293,7.1h2.014l1.343-7.28a12.881,12.881,0,0,0,.2-2.086,2.893,2.893,0,0,0-2.909-3.232,5.143,5.143,0,0,0-4.426,2.748,2.647,2.647,0,0,0-2.808-2.748,5.121,5.121,0,0,0-4.228,2.6h-.074l.323-2.317h-1.815c-.124,1.018-.3,2.215-.546,3.589l-1.617,8.73Z" transform="translate(8.816 9.184)"/><path class="c" d="M9.688-.254A18.468,18.468,0,0,1,32.158,13.359a18.974,18.974,0,0,1-13.3,23A18.468,18.468,0,0,1-3.61,22.747,18.977,18.977,0,0,1,9.688-.254Z" transform="translate(0 0)"/><path class="d" d="M4.544,9.416a39.493,39.493,0,0,0,7.622,1c4.492.149,9.393.019,15.262,0l2.053-.006c.489,0,.628.564.09.721l-1.81.527c-11.01,3.4-19.4,7.589-25.476,17.8-.242.407-.641.187-.575-.3.647-4.72,1.315-8.633,3.42-12.91C3.907,14.493,4.243,12.559,3,9.708c-.142-.322-.25-.58-.322-.78-.179-.5.1-.688.477-.518.923.418.248.743,1.392,1.006Z" transform="translate(1.361 2.105)"/><path class="e" d="M4.705,9.434a39.424,39.424,0,0,0,7.623,1c4,.134,8.322.045,13.365.01C15.817,13.688,7.877,18.32,2.138,27.313A35.574,35.574,0,0,1,5.292,16.262c-.283-.406-.577-.826-.88-1.269.073-.155.146-.309.222-.463A38.206,38.206,0,0,1,1,8.525c.026-.248.251-.319.53-.193a17.287,17.287,0,0,0,3.178,1.1Z" transform="translate(1.199 2.088)"/><path class="d" d="M3.253,6.734a39.33,39.33,0,0,0,7.623,1c4.491.15,9.393.021,15.261,0l2.054-.007c.487,0,.628.565.09.721l-1.81.528C15.46,12.373,6.743,17.235.666,27.446c-.242.407-.656.33-.575-.153.787-4.673,1.644-9.453,3.749-13.729A36.562,36.562,0,0,1-.08,6.931c-.14-.322-.25-.55-.321-.75-.179-.5.162-.74.575-.518a17,17,0,0,0,3.08,1.071Z" transform="translate(0.864 1.485)"/></g></svg>