<svg xmlns="http://www.w3.org/2000/svg" xmlns:xlink="http://www.w3.org/1999/xlink" width="165" height="30.8" viewBox="0 0 165 30.8"><defs><style>.a{fill:#fc3f1d;}.a,.b,.c,.d{fill-rule:evenodd;}.b{fill:#fff;}.c{fill:url(#a);}</style><linearGradient id="a" x1="0.5" y1="-0.238" x2="0.5" y2="1.095" gradientUnits="objectBoundingBox"><stop offset="0" stop-color="#ffe655"/><stop offset="1" stop-color="#fc0"/></linearGradient></defs><g transform="translate(0 0)"><path class="a" d="M252.366,425.758a15.007,15.007,0,1,1-15.007-15.04A15.021,15.021,0,0,1,252.366,425.758Z" transform="translate(-222.352 -410.718)"/><path class="b" d="M238.773,418.585h-1.522c-2.606,0-3.9,1.3-3.9,3.25,0,2.164.864,3.246,2.818,4.545l1.523,1.084-4.341,6.714h-3.477L234,428.113c-2.381-1.733-3.685-3.25-3.685-6.065,0-3.464,2.387-5.845,6.941-5.845h4.56v17.974h-3.039Z" transform="translate(-221.551 -410.133)"/><path class="c" d="M264.891,440.733h-.016a14.941,14.941,0,0,1-2.253-.387v-.014h-.061c-.158-.04-.315-.084-.473-.13v0h-.013q-.4-.116-.787-.255v-.012h-.035q-.666-.238-1.3-.535h0l-.266-.126v-.007h-.013l-.253-.128v-.007h-.012q-.471-.243-.922-.518v-.017h-.025q-.607-.373-1.175-.8v0h0q-.34-.256-.664-.531v0h0a15.068,15.068,0,0,1-2.264-2.383v-.022h-.018c-.131-.174-.259-.35-.383-.529v-.007h0c-.09-.129-.177-.258-.263-.392v-.009h-.006q-.2-.318-.394-.645v-.023h-.013a14.935,14.935,0,0,1-1.055-2.253v-.02h-.007a14.878,14.878,0,0,1-.661-2.382v-.023h0q-.075-.4-.128-.8h0a15.205,15.205,0,0,1,0-4.01h0q.053-.4.128-.8h0v-.024a14.91,14.91,0,0,1,.661-2.382h.007v-.02a14.814,14.814,0,0,1,1.055-2.252h.013v-.023c.125-.218.258-.434.394-.645h.006v-.01c.086-.132.174-.263.263-.391h0V417.2c.124-.179.252-.355.383-.528h.018v-.023a15.116,15.116,0,0,1,2.264-2.383h0v0q.324-.274.664-.531h0v0q.568-.428,1.175-.8h.025v-.016c.3-.184.609-.356.922-.519h.012v-.006l.253-.128h.013v-.007l.266-.128h0q.634-.3,1.3-.535h.035v-.012q.388-.138.789-.255h.011v0c.157-.047.315-.09.474-.131h.06v-.014a15,15,0,0,1,2.257-.386h.011c.461-.043.927-.067,1.4-.067s.939.023,1.4.067h.01a14.991,14.991,0,0,1,2.258.386v.014h.059c.159.041.318.084.475.131v0h.011q.4.116.789.255v.012h.035c.443.159.876.336,1.3.535h0l.266.128v.007h.013l.253.126v.007h.011c.314.163.622.335.923.519v.016h.024q.607.373,1.176.8v0h0q.34.256.664.531v0h0a15.116,15.116,0,0,1,2.264,2.383v.023h.017q.2.26.383.528v.007h0q.134.193.262.393v.009h.007c.136.211.268.427.394.645v.023h.013a14.912,14.912,0,0,1,1.053,2.252v.02h.008a15,15,0,0,1,.659,2.38v.027h0q.075.4.129.8v0h0a15.205,15.205,0,0,1,0,4.01h0v0c-.036.27-.08.535-.129.8h0v.026a14.967,14.967,0,0,1-.659,2.38h-.008v.021a14.963,14.963,0,0,1-1.053,2.252H279.3v.023q-.189.328-.394.645H278.9v.009q-.128.2-.262.392h0v.007c-.124.18-.251.355-.382.529h-.018v.022a15.118,15.118,0,0,1-2.264,2.383h0v0q-.324.274-.664.531h0v0q-.568.426-1.176.8H274.1v.016q-.451.276-.922.519h-.012v.007l-.253.128h-.013v.007l-.266.126h0c-.422.2-.855.376-1.3.535h-.035v.012q-.39.138-.788.255h-.012v0c-.157.045-.314.089-.473.13h-.061v.014a15.07,15.07,0,0,1-2.254.387h-.014c-.461.042-.928.065-1.4.065S265.352,440.775,264.891,440.733Z" transform="translate(-219.5 -410.718)"/><path class="d" d="M253.649,433.435l4.771-5.694-1.755,6.7L262.1,436.4l8.082-11.513-1.773,6.584,4.4,2.548,8.454-8.457c0-.087,0-.175,0-.263a14.963,14.963,0,0,0-1.087-5.615l-4.911,4.918,1.333-7.559-5.543-2.021L263.085,426.4l.8-5.163-4.345-2.506-7.989,9.526A14.926,14.926,0,0,0,253.649,433.435Z" transform="translate(-219.474 -410.259)"/><path class="d" d="M293.592,436.463h3.25l4.618-17.1v17.1h3.7V413.829h-5.1L295.477,430.5l-4.522-16.675h-5.2v22.634h3.22v-17.1l4.618,17.1ZM320.65,425.3c0-3.978-2.016-5.475-6.112-5.475a11.551,11.551,0,0,0-5.754,1.5v3.225a10.1,10.1,0,0,1,5.3-1.628c1.85,0,2.7.653,2.7,2.412v.913h-.62c-5.92,0-8.551,1.952-8.551,5.277s2.017,5.177,5.007,5.177a4.84,4.84,0,0,0,4-1.535h.167a5.1,5.1,0,0,0,.291,1.3h3.773c-.129-1.33-.2-2.667-.2-4V425.3Zm-3.866,7.258a3.212,3.212,0,0,1-2.767,1.306,2.226,2.226,0,0,1-2.438-2.443c0-1.921,1.333-2.6,4.652-2.6h.553v3.742Zm10.558-12.474h-3.581v21.107h3.872v-6.643a4.749,4.749,0,0,0,4.064,2.244c3.772,0,6.374-3.027,6.374-8.529,0-5.474-2.538-8.5-6.18-8.5a5.022,5.022,0,0,0-4.357,2.442l-.193-2.119Zm3.382,13.649c-2.053,0-3.091-1.66-3.091-5.439,0-3.81,1.1-5.468,3.282-5.468,2.117,0,3.154,1.658,3.154,5.437,0,3.809-1.105,5.47-3.345,5.47Zm19.524,2.734h4.388l-6.212-8.825,5.467-7.559h-3.9l-5.462,7.559V420.08h-3.871v16.383h3.871V428.42l5.722,8.043Zm17.4-1.106a9.583,9.583,0,0,1-5.43,1.431c-4.939,0-7.738-2.766-7.738-8.467,0-4.948,2.246-8.564,6.957-8.564,3.872,0,6.373,2.15,6.373,7.849v2.05h-9.327c.162,2.736,1.235,4.072,4.064,4.072a9.859,9.859,0,0,0,5.1-1.528v3.157Zm-6.274-12.535c-1.853,0-2.8,1.367-2.891,3.971h5.393v-.329c0-2.051-.583-3.642-2.5-3.642Zm20.2.323V420.08H368.605v3.064h4.553v13.319h3.873V423.144Z" transform="translate(-216.58 -410.386)"/></g></svg>