<svg xmlns="http://www.w3.org/2000/svg" width="165" height="49" viewBox="0 0 165 49"><defs><style>.a{fill:#e62e04;}.b{fill:#fff;fill-rule:evenodd;}</style></defs><g transform="translate(-222.638 -409.045)"><rect class="a" width="165" height="49" transform="translate(222.638 409.045)"/><path class="b" d="M261.562,420.236a4.859,4.859,0,0,1,4,4.22,4.851,4.851,0,0,1,4.023-4.19,4.6,4.6,0,0,1-4.017-4.328,4.582,4.582,0,0,1-4.007,4.3Zm27.267,20.652c1.41-1.932,2.815-3.869,4.34-5.706,1.432,1.894,2.862,3.8,4.27,5.712,1.078,0,2.155.007,3.234.018-1.9-2.663-3.923-5.239-5.876-7.863,1.907-2.661,3.957-5.216,5.856-7.88a11.873,11.873,0,0,0-3.192.124c-1.605,1.729-2.815,3.8-4.365,5.59-1.256-1.638-2.456-3.315-3.712-4.958-.818-1.3-2.526-.651-3.775-.756,1.891,2.672,3.94,5.219,5.851,7.875-1.961,2.62-3.986,5.192-5.873,7.868,1.082-.007,2.163-.017,3.243-.025Zm-21.887.022q-.021-7.835,0-15.67-1.381.029-2.756-.01c.014,5.228.007,10.462.007,15.69.911-.021,1.83-.025,2.745-.01Zm99.784-2.548c-2.122,1.226-4.681.251-6.273-1.414-.651.513-1.3,1.018-1.965,1.51a7.941,7.941,0,0,0,10.112,1.816,4.636,4.636,0,0,0,.637-7.17c-2.059-1.684-5.04-1.215-7.137-2.81-1.03-1.009.037-2.6,1.186-2.908,1.8-.756,3.677.169,4.981,1.455.633-.482,1.293-.932,1.969-1.355a6.777,6.777,0,0,0-9.4-1.523c-2.042,1.373-2.4,4.852-.4,6.426,1.915,1.539,4.58,1.266,6.627,2.523a2.055,2.055,0,0,1-.341,3.451Zm-13.4.052c-2.118,1.141-4.643.2-6.171-1.509-.655.574-1.334,1.117-2.022,1.652a8.174,8.174,0,0,0,10.025,1.795c2.529-1.379,2.984-5.561.643-7.338-2.028-1.54-4.835-1.169-6.9-2.619-1.16-.924-.209-2.625.963-2.96,1.824-.833,3.778.1,5.1,1.43.508-.537,1.774-.759,1.687-1.611a6.6,6.6,0,0,0-9.632-.86,4.167,4.167,0,0,0,.195,6.079c1.966,1.473,4.643,1.177,6.658,2.53a2.071,2.071,0,0,1-.545,3.412Zm-10.036-9.8A7.2,7.2,0,0,0,335.3,424.9a8.213,8.213,0,0,0-6.4,8.179,8.388,8.388,0,0,0,6.756,8.141A7.891,7.891,0,0,0,343.2,438.4q-1.014-.752-1.975-1.575a5.649,5.649,0,0,1-9.637-2.424c4.189-.044,8.375.026,12.56-.037.01-1.939.1-4-.866-5.751Zm-11.736,3.1a5.618,5.618,0,0,1,5.205-4.25,4.794,4.794,0,0,1,4.725,4.265c-3.313.046-6.622.068-9.93-.015Zm-3.226-4.352q0-1.363.013-2.721a9.387,9.387,0,0,0-5.38,2.029q-.035-.779-.062-1.548c-.9.011-1.785.007-2.681-.012q-.044,7.913,0,15.819c.9-.011,1.8-.015,2.707,0,.092-2.962-.148-5.943.126-8.9a5.725,5.725,0,0,1,5.271-4.665Zm-26.241,4.217c-.361,5.846-.085,11.726-.142,17.587.9-.01,1.8-.01,2.7,0,.022-3.4,0-6.81.01-10.216a7.8,7.8,0,0,0,11.34-.22,8.506,8.506,0,0,0-1.337-12.553c-4.533-3.487-11.847-.359-12.572,5.4Zm13.092,3.323a5.333,5.333,0,0,1-8.581,2.536c-3.283-2.713-2.075-8.978,2.156-9.9,4.086-1.253,7.9,3.386,6.425,7.366ZM270.793,418.85q.01,11.022,0,22.045c4.523.045,9.049.011,13.572.019-.051-.968-.055-1.935-.024-2.9-3.576.012-7.149.019-10.719,0q-.021-3.429,0-6.844c2.945-.023,5.887,0,8.832-.011q-.015-1.356.019-2.716-4.412-.054-8.823,0c-.055-2.243-.047-4.481-.032-6.725q4.958-.051,9.922,0a26.984,26.984,0,0,1,.073-2.891c-4.272-.006-8.546-.047-12.817.024Zm-13.2,22.079c.92-.029,1.835-.035,2.754-.027q-.045-10.973-.006-21.933c-.914,0-1.825,0-2.739-.023-.022,7.328,0,14.659-.01,21.983Zm-12.67-21.966c-2.668,7.348-5.5,14.637-8.173,21.981.909-.052,1.822-.075,2.731-.068.575-1.78,1.27-3.513,1.953-5.247,3.3.01,6.607-.008,9.909.01.654,1.749,1.343,3.484,1.941,5.251.909-.007,1.819,0,2.724.036-2.615-7.019-5.26-14.024-7.854-21.047-.329-1.514-2.155-.771-3.23-.917Zm5.323,13.769c-2.578.028-5.151.034-7.729-.007,1.268-3.421,2.445-6.881,3.891-10.228C247.731,425.893,248.986,429.314,250.247,432.732Z" transform="translate(1.405 0.686)"/></g></svg>