<svg xmlns="http://www.w3.org/2000/svg" width="172.435" height="62.01" viewBox="0 0 172.435 62.01"><defs><style>.a{fill:#242424;}</style></defs><path class="a" d="M218.448,53.851H143.39v.77h75.058Z" transform="translate(-50.842 -19.073)"/><path class="a" d="M119.952,29.806a32.214,32.214,0,0,1,7.013-6.057A39.684,39.684,0,0,1,137.534,18.8s-5.335.234-10.905,1.037-6.778,1.539-6.778,1.539-1.207-.736-6.777-1.539-10.9-1.037-10.9-1.037a39.684,39.684,0,0,1,10.569,4.953,37.231,37.231,0,0,1,7.214,6.053Z" transform="translate(-36.197 -6.659)"/><path class="a" d="M182.184,22.461c1.543-.435,18.018-.6,23.521-2.142s5.5-5.354,5.5-5.354L153.16,21.189c1.846,3.112.772,5.656-1.476,7.429s-2.517,1.171-4.932,3.112a61.12,61.12,0,0,0-5.335,4.919s11.307-.268,13.388-.3,1.342-.033.839-.368-4.429-.8-4.7-1.1.772-.469,3.422.033a53.339,53.339,0,0,0,9.126.435c.7-.1-.268-.368,3.557-.5a10.881,10.881,0,0,0,5.973-1.74s-4.16-.067-5.67-.335-4.026-.469-4.026-.469.3-.97,2.952-.636a88.921,88.921,0,0,0,11.241.167c3.02-.2,3.892-1.573,3.892-1.573a17.016,17.016,0,0,0,4.765-.167,14.311,14.311,0,0,0,4.63-2.075s-17.079-.368-18.051-.3c-1.007.067-2.148-.368-.94-.6s20.467-.6,23.252-1.305,2.785-1.171,2.785-1.171a5.508,5.508,0,0,0,2.718-.6A4.885,4.885,0,0,0,202.415,22s-20.3,1.272-20.9,1.305C180.942,23.264,180.641,22.862,182.184,22.461Z" transform="translate(-50.144 -5.304)"/><path class="a" d="M111.306,28.017c0,1.372,1.611,2.476,3.557,2.476a4.01,4.01,0,0,0,3.054-1.2c-.436-.335-.873-.636-1.309-.937-1.007-.7-2.382-1.573-3.725-2.41a2.368,2.368,0,0,0-1.577,2.071Z" transform="translate(-39.423 -9.189)"/><path class="a" d="M123.9,46.734c.7-.837,0-1.573-.537-2.343-.5-.77-.369-1-.369-1S124.437,45,125.779,45s1.141-.7,1.141-.7-2.819-2.008-3.993-2.744c-1.141-.77-.973-.8-.973-.8h.57l8.724-6.325a21.013,21.013,0,0,1-3.993.636,18.917,18.917,0,0,1-4.932-.368s.839-.535,6.14-.535,9.294-5.455,9.294-8.132-2.953-4.685-2.953-4.685-1.375.8-3.188,2.008a3.626,3.626,0,0,1,2.114,3.012c0,2.108-2.449,3.815-5.5,3.815a6.732,6.732,0,0,1-3.993-1.2c-2.349,2.008-4.127,3.681-4.127,3.681a32.448,32.448,0,0,0-4.227-3.949,6.468,6.468,0,0,1-4.4,1.539c-3.02,0-5.5-1.707-5.5-3.815a3.564,3.564,0,0,1,2.047-2.978c-1.644-1-2.919-1.807-2.919-1.807s-6.341,2.443-1.577,8.132c4.765,5.656,11.643,4.384,12.885,4.384a1.378,1.378,0,0,1,1.443,1.037s-4.5.1-6.106-.067a16.246,16.246,0,0,1-3.154-.77l8.421,6.358h.571l.034.535a11.175,11.175,0,0,0-1.745.9c-1.141.736-3.355,2.476-3.355,2.476a2.2,2.2,0,0,0,2.617-.435c1.476-1.171,2.047-.8,2.047-.8s-2.785,1.707-1.711,2.978,2.953-.97,2.953-.97-.805,3.28,1.375,3.28,1.476-3.045,1.476-3.045S123.2,47.57,123.9,46.734Z" transform="translate(-36.053 -7.563)"/><path class="a" d="M138.458,29.59a4.244,4.244,0,0,0,2.751.9c1.98,0,3.557-1.1,3.557-2.476a2.46,2.46,0,0,0-1.577-2.075c-.973.7-2.047,1.439-3.053,2.242C139.565,28.652,139,29.121,138.458,29.59Z" transform="translate(-49.04 -9.189)"/><path class="a" d="M164.055,15.139c-.47-.5-1.141-.2-2.013-.3s.4-.736.8-1.171c.369-.469-1.41-.368-2.886.3a3.194,3.194,0,0,0-1.879,2.142C159.659,15.173,164.524,15.641,164.055,15.139Z" transform="translate(-55.99 -4.732)"/><path class="a" d="M192.986,68.557a1.144,1.144,0,0,0-.839.234.854.854,0,0,0-.268.636l.034.368,1.006,4.25h.235l1.074-4.25v-.268a.882.882,0,0,0-.335-.7A1.161,1.161,0,0,0,192.986,68.557Z" transform="translate(-67.958 -24.284)"/><path class="a" d="M202.1,68.739a1.619,1.619,0,0,0-1.678,0,1.012,1.012,0,0,0-.269.268,1.244,1.244,0,0,0-.067.4l.034.368,1.074,4.25h.167l1.041-4.25.034-.335A.731.731,0,0,0,202.1,68.739Z" transform="translate(-70.863 -24.265)"/><path class="a" d="M56.657,68.557a1.144,1.144,0,0,0-.839.234.856.856,0,0,0-.268.636l.034.368,1.007,4.25h.235l1.074-4.25v-.268a.884.884,0,0,0-.336-.7A1.27,1.27,0,0,0,56.657,68.557Z" transform="translate(-19.674 -24.284)"/><path class="a" d="M65.765,68.739a1.62,1.62,0,0,0-1.678,0,1.011,1.011,0,0,0-.268.268,1.245,1.245,0,0,0-.067.4l.034.368,1.074,4.25h.168l1.04-4.25.034-.335a.8.8,0,0,0-.337-.7Z" transform="translate(-22.579 -24.265)"/><path class="a" d="M75.058,53.851H0v.77H75.058Z" transform="translate(0 -19.073)"/><path class="a" d="M15.626,20.526c5.5,1.539,21.977,1.74,23.521,2.142,1.543.435,1.241.8.638.77s-20.9-1.305-20.9-1.305a4.616,4.616,0,0,0,1.845,2.041,5.108,5.108,0,0,0,2.718.6s0,.5,2.785,1.171c2.785.7,22.044,1.071,23.252,1.305s.067.7-.939.6c-1.007-.067-18.052.3-18.052.3a14.042,14.042,0,0,0,4.63,2.108,17.019,17.019,0,0,0,4.764.167S40.757,31.8,43.777,32a77.933,77.933,0,0,0,11.24-.167c2.651-.3,2.953.636,2.953.636s-2.516.2-4.026.469-5.67.335-5.67.335a11.223,11.223,0,0,0,5.972,1.74c3.825.1,2.852.368,3.557.5a53.446,53.446,0,0,0,9.126-.435c2.651-.5,3.691-.335,3.422-.033s-4.194.77-4.7,1.1-1.241.335.839.368,13.388.3,13.388.3A67.5,67.5,0,0,0,74.545,31.9c-2.445-1.9-2.684-1.334-4.932-3.108s-3.322-4.317-1.476-7.429L10.123,15.172S10.123,18.987,15.626,20.526Z" transform="translate(-3.581 -5.377)"/><path class="a" d="M98.156,16.311a3.038,3.038,0,0,0-1.879-2.142c-1.476-.7-3.288-.77-2.886-.3.369.469,1.678,1.071.805,1.171s-1.543-.2-2.013.3C91.714,15.876,96.579,15.408,98.156,16.311Z" transform="translate(-32.639 -4.799)"/><path class="a" d="M255.475,0a5.488,5.488,0,1,0,5.5,5.488A5.488,5.488,0,0,0,255.475,0Zm0,10.006a4.491,4.491,0,1,1,3.191-1.322A4.5,4.5,0,0,1,255.475,10.006Z" transform="translate(-88.54)"/><path class="a" d="M258.768,7.793a2.888,2.888,0,0,0-.6-.469,1.719,1.719,0,0,0,1.107-.5,1.506,1.506,0,0,0,.369-1.037,1.545,1.545,0,0,0-.235-.87,1.236,1.236,0,0,0-.638-.535,4.183,4.183,0,0,0-1.309-.134h-2.349V9.8h1.108V7.492h.235a2.2,2.2,0,0,1,.571.067.77.77,0,0,1,.335.234,7.722,7.722,0,0,1,.6.8l.8,1.2h1.342l-.672-1.071a6.368,6.368,0,0,0-.669-.929Zm-1.744-1.2h-.839V5.183h.872a3.725,3.725,0,0,1,.8.033.7.7,0,0,1,.436.234.652.652,0,0,1,.134.469.711.711,0,0,1-.1.4.534.534,0,0,1-.3.234c-.132,0-.471.036-1.008.036Z" transform="translate(-90.357 -1.502)"/><path class="a" d="M91.252,84.063l-.067-.234-.235.067a6.075,6.075,0,0,1-.638.167,3.314,3.314,0,0,1-.57.067,1.522,1.522,0,0,1-.537-.1,2.847,2.847,0,0,1-.6-.335,8.886,8.886,0,0,1-.839-.8,14.2,14.2,0,0,1-1.174-1.372c-.47-.569-1.007-1.305-1.611-2.142-.57-.8-1.275-1.74-2.047-2.845.839-.7,1.543-1.339,2.181-1.908.671-.6,1.275-1.138,1.778-1.606s.939-.9,1.275-1.272.638-.7.839-.971a5.409,5.409,0,0,0,.47-.8,1.744,1.744,0,0,0,.134-.7,1.618,1.618,0,0,0-.1-.6,1.509,1.509,0,0,0-.335-.469,1.317,1.317,0,0,0-.47-.268,1.57,1.57,0,0,0-.57-.1,2.33,2.33,0,0,0-.671.1l-.134.033-.1.3v.067l.034.067a1.691,1.691,0,0,1,.067.435,4.45,4.45,0,0,1-.1.937,3.158,3.158,0,0,1-.4.937,8.29,8.29,0,0,1-.772,1.071,14.284,14.284,0,0,1-1.241,1.305c-.5.5-1.107,1.037-1.812,1.673-.671.6-1.443,1.272-2.282,2.008,0-.368.034-.736.034-1.071.034-.7.034-1.339.067-1.941s.034-1.138.034-1.573v-.4l.034-.736v-.569a7.261,7.261,0,0,0-.034-.87,2.158,2.158,0,0,0-.2-.7,1.061,1.061,0,0,0-.537-.468,2.172,2.172,0,0,0-.872-.134,6.593,6.593,0,0,0-1.275.134q-.755.151-1.812.4l-.2.067.034.2.067.6.034.234.235-.033a9.634,9.634,0,0,1,1.208-.1,2.339,2.339,0,0,1,.537.067.461.461,0,0,1,.268.167.63.63,0,0,1,.134.3,2.534,2.534,0,0,1,.034.535c0,1.171,0,2.343-.034,3.514-.034,1.138-.034,2.343-.067,3.514-.034,1.2-.067,2.443-.134,3.715-.034,1.272-.1,2.61-.168,4.016v.234l.2.033h.2l1.745-.234.2-.033v-.2c.034-.837.034-1.673.067-2.543s.067-1.707.067-2.51c.034-.837.034-1.64.067-2.41v-.4a1.419,1.419,0,0,1,.168.234,4.9,4.9,0,0,1,.3.435c.738,1,1.409,1.908,1.98,2.677s1.107,1.472,1.543,2.008c.436.569.839,1.071,1.174,1.439a8.852,8.852,0,0,0,.94.971,2.939,2.939,0,0,0,.772.535,1.486,1.486,0,0,0,.738.167,5.182,5.182,0,0,0,.638-.067,3.764,3.764,0,0,0,.772-.2,5.125,5.125,0,0,0,.839-.3,5.887,5.887,0,0,0,.805-.368l.168-.1-.067-.2Z" transform="translate(-26.903 -24.037)"/><path class="a" d="M120,84.209l-.067-.234-.235.067c-.168.067-.3.1-.4.134a1.2,1.2,0,0,1-.335.067c-.1,0-.2.033-.3.033h-.268a1.78,1.78,0,0,1-.436-.033.673.673,0,0,1-.268-.134.853.853,0,0,1-.235-.335,4.84,4.84,0,0,1-.2-.7,8.861,8.861,0,0,1-.134-1.138c-.034-.469-.034-1-.034-1.673,0-1,0-1.975.034-2.878s.067-1.74.1-2.543c.034-.77.067-1.506.1-2.142s.067-1.2.1-1.673.067-.87.1-1.171a5.249,5.249,0,0,0,.034-.636.943.943,0,0,0-.235-.7.991.991,0,0,0-.738-.268h-.94c-.436,0-1.006.033-1.711.033s-1.543.033-2.55.033h-3.423a13.935,13.935,0,0,0-1.946.134c-.7.1-1.577.2-2.516.335l-.235.033.034.234.067.669.034.234.235-.033c.2-.033.369-.033.5-.067.134,0,.235-.033.335-.033h.5a1.261,1.261,0,0,1,.369.033,1.608,1.608,0,0,1,.235.1c.067.033.1.134.134.234a1.545,1.545,0,0,1,.067.468c0,1.2,0,2.443-.034,3.614s-.034,2.376-.067,3.581c-.034,1.238-.067,2.476-.134,3.681-.034,1.272-.1,2.61-.168,4.016v.234l.2.033h.2l1.745-.234.2-.033v-.2l.034-1.439.067-1.774q.05-1.606.1-3.112c.033-1,.067-2.008.1-2.945s.067-1.841.067-2.644l.034-1.807v-.4c0-.535.034-1.037.034-1.439h6.207a1.251,1.251,0,0,1,.4.067.309.309,0,0,1,.2.134l.1.2a1.249,1.249,0,0,1,.034.368,5.083,5.083,0,0,1-.034.6c0,.3-.033.7-.067,1.171s-.034,1-.067,1.64c-.034.6-.034,1.272-.067,2.008s-.034,1.506-.067,2.276c0,.8-.034,1.64-.034,2.476,0,.77,0,1.439.034,1.974s.067,1,.134,1.406a4.2,4.2,0,0,0,.235.937,1.459,1.459,0,0,0,.4.569,1.164,1.164,0,0,0,.537.268,3.325,3.325,0,0,0,.6.067,5,5,0,0,0,1.477-.234A15.694,15.694,0,0,0,120,85.046l.2-.1-.067-.2Z" transform="translate(-36.576 -24.184)"/><path class="a" d="M149.283,84.209l-.067-.234-.235.067c-.168.067-.3.1-.4.134a1.194,1.194,0,0,1-.335.067c-.1,0-.2.033-.3.033h-.269a1.779,1.779,0,0,1-.436-.033.678.678,0,0,1-.268-.134.847.847,0,0,1-.235-.335,4.75,4.75,0,0,1-.2-.7,8.856,8.856,0,0,1-.134-1.138c-.033-.469-.033-1-.033-1.673,0-1,0-1.974.033-2.878s.067-1.74.1-2.543c.034-.77.067-1.506.1-2.142s.067-1.2.1-1.673.067-.87.1-1.171a5.26,5.26,0,0,0,.034-.636.94.94,0,0,0-.235-.7.991.991,0,0,0-.738-.268h-.94c-.436,0-1.006.033-1.711.033s-1.544.033-2.55.033h-3.422a13.922,13.922,0,0,0-1.946.134c-.705.1-1.577.2-2.517.335l-.235.033.033.234.067.669.034.234.235-.033c.2-.033.369-.033.5-.067.134,0,.235-.033.335-.033h.5a1.258,1.258,0,0,1,.369.033,1.651,1.651,0,0,1,.235.1c.067.033.1.134.134.234a1.546,1.546,0,0,1,.067.468c0,1.2,0,2.443-.034,3.614s-.034,2.376-.067,3.581c-.033,1.238-.067,2.476-.134,3.681-.034,1.272-.1,2.61-.168,4.016v.234l.2.033h.2l1.745-.234.2-.033v-.2l.034-1.439.067-1.74q.05-1.606.1-3.112c.034-1,.067-2.008.1-2.945s.067-1.841.067-2.644l.034-1.841v-.368c0-.535.034-1.037.034-1.439h6.207a1.25,1.25,0,0,1,.4.067.309.309,0,0,1,.2.134l.1.2a1.249,1.249,0,0,1,.034.368,5.086,5.086,0,0,1-.034.6c0,.3-.034.7-.067,1.171s-.034,1-.067,1.64c-.034.6-.034,1.272-.067,2.008s-.034,1.506-.067,2.276c0,.8-.034,1.64-.034,2.476,0,.77,0,1.439.034,1.974s.067,1,.134,1.406a4.237,4.237,0,0,0,.235.937,1.459,1.459,0,0,0,.4.569,1.167,1.167,0,0,0,.537.268,3.335,3.335,0,0,0,.6.067,4.994,4.994,0,0,0,1.477-.234,15.7,15.7,0,0,0,1.812-.669l.2-.1-.067-.2Z" transform="translate(-46.948 -24.184)"/><path class="a" d="M175.607,82.3c-.067-.033-.1-.1-.167-.134s-.1-.067-.134-.067l-.134-.067-.134.1a9.823,9.823,0,0,1-1.208.937,7,7,0,0,1-1.208.636,5.284,5.284,0,0,1-1.174.368,6.191,6.191,0,0,1-1.107.1,4.082,4.082,0,0,1-1.443-.234,4.757,4.757,0,0,1-1.275-.7,4.821,4.821,0,0,1-1.074-1.1,6.513,6.513,0,0,1-.839-1.506,9.832,9.832,0,0,1-.536-1.841,10.788,10.788,0,0,1-.2-2.142,12.14,12.14,0,0,1,.134-1.908,9.779,9.779,0,0,1,.436-1.774,8.423,8.423,0,0,1,.738-1.573,6.174,6.174,0,0,1,1.04-1.238,5.113,5.113,0,0,1,1.376-.8,4.587,4.587,0,0,1,1.711-.3,5.562,5.562,0,0,1,1.074.1,4.69,4.69,0,0,1,.973.3,3.467,3.467,0,0,1,.839.5,3.339,3.339,0,0,1,.672.7,1.876,1.876,0,0,1,.335.8,4.135,4.135,0,0,1,.1.9v.368l-.033.234h.235l.637.033h.235V72.76c.034-.77.067-1.406.1-1.941s.034-.971.034-1.339a.968.968,0,0,0-.4-.7,4.392,4.392,0,0,0-1.006-.6,7.069,7.069,0,0,0-1.476-.435,8.057,8.057,0,0,0-1.846-.167,8.46,8.46,0,0,0-2.65.4,7.665,7.665,0,0,0-2.148,1.1,7.792,7.792,0,0,0-1.677,1.64,10.116,10.116,0,0,0-1.174,2.008A11.992,11.992,0,0,0,162.522,75a11.125,11.125,0,0,0-.235,2.343,10.4,10.4,0,0,0,.235,2.309,9.757,9.757,0,0,0,.7,2.041,7.465,7.465,0,0,0,1.107,1.707,6.462,6.462,0,0,0,1.443,1.272,5.521,5.521,0,0,0,1.745.8,6.291,6.291,0,0,0,1.98.3,8.019,8.019,0,0,0,1.543-.134,6.922,6.922,0,0,0,1.543-.5,9,9,0,0,0,1.51-.9,11.172,11.172,0,0,0,1.51-1.372.638.638,0,0,0,.1-.268.379.379,0,0,0-.1-.268C175.742,82.4,175.675,82.365,175.607,82.3Z" transform="translate(-57.483 -23.945)"/></svg>