<svg xmlns="http://www.w3.org/2000/svg" width="165" height="50.6" viewBox="0 0 165 50.6"><defs><style>.a{fill:#e0e3e7;}.b{fill:#36466c;}</style></defs><path class="a" d="M75.4,23.6a35.259,35.259,0,0,1,6.8-6,39.005,39.005,0,0,1,10.3-4.9s-5.2.2-10.6,1-6.6,1.5-6.6,1.5-1.2-.7-6.6-1.5-10.6-1-10.6-1a39.005,39.005,0,0,1,10.3,4.9A33.648,33.648,0,0,1,75.4,23.6Zm17.8.2c-2.2,1.7-2.5,1.2-4.8,3.1a47.932,47.932,0,0,0-5.2,4.9l13-.3c2,0,1.3,0,.8-.4s-4.3-.8-4.6-1.1.7-.5,3.3,0a52.587,52.587,0,0,0,8.9.4c.7-.1-.2-.4,3.5-.5a10.9,10.9,0,0,0,5.8-1.7s-4-.1-5.5-.3-3.9-.5-3.9-.5.3-1,2.9-.6a99.134,99.134,0,0,0,10.9.2c2.9-.2,3.8-1.6,3.8-1.6a14.24,14.24,0,0,0,4.6-.2,15.122,15.122,0,0,0,4.5-2s-16.6-.4-17.6-.3-2.1-.4-.9-.6,19.9-.6,22.6-1.3,2.7-1.2,2.7-1.2a6.6,6.6,0,0,0,2.7-.6,4.939,4.939,0,0,0,1.8-2l-20.3,1.3c-.6,0-.9-.3.6-.8s17.5-.6,22.9-2.1,5.3-5.3,5.3-5.3L94.5,16.5C96.4,19.5,95.4,22,93.2,23.8ZM63.9,19.3c0,1.4,1.6,2.5,3.5,2.5a4.234,4.234,0,0,0,3-1.2,14.629,14.629,0,0,0-1.3-.9c-1-.7-2.3-1.6-3.6-2.4A2.106,2.106,0,0,0,63.9,19.3ZM72.1,27a1.246,1.246,0,0,1,1.4,1s-4.4.1-5.9-.1a11.813,11.813,0,0,1-3.1-.8l8.2,6.3h.6V34a7,7,0,0,0-1.7.9c-1.1.7-3.2,2.5-3.2,2.5a2.121,2.121,0,0,0,2.5-.4c1.5-1.2,2-.8,2-.8s-2.7,1.7-1.7,3,2.9-.9,2.9-.9-.8,3.2,1.3,3.2,1.4-3,1.4-3,1.8,1.9,2.5,1.1,0-1.6-.5-2.3-.4-1-.4-1,1.4,1.6,2.7,1.6,1.1-.7,1.1-.7-2.8-2-3.9-2.7c-1.1-.8-.9-.8-.9-.8H78l8.5-6.3a26.292,26.292,0,0,1-3.9.6,19.387,19.387,0,0,1-4.8-.3s.8-.5,6-.5,9-5.4,9-8.1S90,14.4,90,14.4s-1.3.8-3.1,2a3.275,3.275,0,0,1,2,3c0,2.1-2.4,3.8-5.3,3.8A6.667,6.667,0,0,1,79.7,22c-2.3,2-4,3.6-4,3.6a37.8,37.8,0,0,0-4.1-3.9,6.126,6.126,0,0,1-4.3,1.5c-2.9,0-5.3-1.7-5.3-3.8a3.569,3.569,0,0,1,2-3c-1.6-1-2.8-1.8-2.8-1.8S55,17,59.7,22.7,71,27,72.1,27ZM81,20.9a4.388,4.388,0,0,0,2.7.9c1.9,0,3.5-1.1,3.5-2.5a2.436,2.436,0,0,0-1.5-2c-1,.7-2,1.4-3,2.2C82.1,20,81.5,20.4,81,20.9ZM99.2,11c-.5-.5-1.1-.2-2-.3s.4-.7.8-1.2-1.4-.4-2.8.3a3.135,3.135,0,0,0-1.8,2.1C94.9,11,99.7,11.4,99.2,11ZM5.3,15.7c5.3,1.5,21.4,1.7,22.9,2.1s1.2.8.6.8L8.5,17.3a4.939,4.939,0,0,0,1.8,2,5.954,5.954,0,0,0,2.7.6s0,.5,2.7,1.2,21.5,1.1,22.6,1.3.1.7-.9.6-17.6.3-17.6.3a12.958,12.958,0,0,0,4.5,2,14.21,14.21,0,0,0,4.6.1s.8,1.4,3.8,1.6a79.34,79.34,0,0,0,10.9-.2c2.6-.3,2.9.6,2.9.6s-2.5.2-3.9.5a50.679,50.679,0,0,1-5.5.3,10.643,10.643,0,0,0,5.8,1.7c3.7.1,2.8.4,3.5.5a52.587,52.587,0,0,0,8.9-.4c2.6-.5,3.6-.3,3.3,0s-4.1.8-4.6,1.1-1.2.3.8.4l13,.3a60.242,60.242,0,0,0-5.2-4.9c-2.4-1.9-2.6-1.3-4.8-3.1s-3.2-4.3-1.4-7.4L0,10.3S0,14.1,5.3,15.7ZM57.6,12a2.939,2.939,0,0,0-1.8-2.1c-1.4-.7-3.2-.8-2.8-.3s1.7,1.1.8,1.2-1.5-.2-2,.3S56.1,11.1,57.6,12ZM159.8,0a5.164,5.164,0,0,0-5.2,5.2,5.2,5.2,0,1,0,10.4,0A5.164,5.164,0,0,0,159.8,0Zm0,9.6a4.4,4.4,0,0,1-4.4-4.2,4.3,4.3,0,1,1,8.6-.2v.1h0a4.183,4.183,0,0,1-4.2,4.3ZM161.2,6a2.092,2.092,0,0,0-.6-.4,1.231,1.231,0,0,0,1-.5,1.209,1.209,0,0,0,.3-1,1.884,1.884,0,0,0-.2-.8,1.47,1.47,0,0,0-.6-.5,5.019,5.019,0,0,0-1.2-.2h-2.2V7.9h1.1V5.7h.2a.749.749,0,0,1,.5.1c.1,0,.2.1.3.2a5.548,5.548,0,0,1,.6.8l.8,1.2h1.3l-.6-1C161.6,6.6,161.4,6.3,161.2,6Zm-1.7-1.1h-.8V3.5h1.6a.669.669,0,0,1,.6.7.6.6,0,0,1-.1.4c-.1.1-.2.2-.3.2a3.083,3.083,0,0,1-1,.1Z"/><path class="b" d="M25.1,47a11.914,11.914,0,0,1-4.6.6c-4.4,0-6-2-6-7.6s1.6-7.6,6-7.6a15.8,15.8,0,0,1,4.3.5l-.3,2.4c-1.3-.1-2.2-.1-4-.1-2.1,0-2.7,1.1-2.7,4.8s.6,4.8,2.7,4.8a30.954,30.954,0,0,0,4.3-.2Zm15.1-7.1c0,5.9-1.7,7.6-6.5,7.6s-6.5-1.7-6.5-7.6,1.7-7.7,6.5-7.7C38.5,32.3,40.2,34,40.2,39.9Zm-9.5,0c0,3.9.7,5,3,5s3-1.1,3-5-.7-5-3-5S30.7,36,30.7,39.9ZM43,32.8a22.823,22.823,0,0,1,4.5-.4c3.6,0,5,.8,5,3.8,0,2.1-.7,3.2-2.5,3.4v.1c2.1.2,2.9,1.6,2.9,3.9,0,3-1.4,3.8-4.7,3.8a19.465,19.465,0,0,1-5.4-.6l.2-2.3a23.834,23.834,0,0,0,4.6.4c1.6,0,2.1-.4,2.1-2,0-1.7-.5-2.2-2.1-2.2H44.9V38.4h2.7c1.4,0,1.9-.4,1.9-1.8s-.5-1.8-2-1.8a28.279,28.279,0,0,0-4.1.3Zm20.8,6.9c2.2.2,2.9,1.6,2.9,3.9,0,3-1.4,3.8-4.8,3.8-2,0-4,0-6-.2V32.6a42.757,42.757,0,0,1,5.4-.2c3.7,0,5,.8,5,3.8,0,2.2-.7,3.2-2.5,3.5Zm-2.4-1.1c1.5,0,2-.4,2-1.9s-.5-1.8-2.2-1.8H59v3.8Zm0,6.4c1.7,0,2.2-.4,2.2-2,0-1.8-.5-2.2-2.3-2.3H59V45ZM82.6,32.8a22.823,22.823,0,0,1,4.5-.4c3.6,0,5,.8,5,3.8,0,2.1-.7,3.2-2.5,3.4v.1c2.1.2,2.9,1.6,2.9,3.9,0,3-1.4,3.8-4.7,3.8a19.465,19.465,0,0,1-5.4-.6l.2-2.3a23.834,23.834,0,0,0,4.6.4c1.6,0,2.1-.4,2.1-2,0-1.7-.5-2.2-2.1-2.2H84.5V38.4h2.7c1.4,0,1.8-.4,1.8-1.8s-.5-1.8-2-1.8a28.279,28.279,0,0,0-4.1.3Zm37.6,14.5V38.5a13.553,13.553,0,0,1,.2-2h-.2a10.837,10.837,0,0,1-.8,1.9l-4.8,8.8h-3.1V32.6h3v8.6a14.919,14.919,0,0,1-.2,2.1h.1a10.837,10.837,0,0,1,.8-1.9l4.8-8.8h3.1V47.3h-2.9Zm-11.4,3.3h-2.7V47H97.7v3.6H95l-.2-6h1.1a4.472,4.472,0,0,0,1.3-2.2,14.271,14.271,0,0,0,.6-3.6l.4-6.4h9.2V44.5h1.7Zm-9.6-6h5.4V34.9H101l-.2,3.8A14.8,14.8,0,0,1,99.2,44.6ZM78.7,40.9H73v3.9h6.7v2.4H70V32.6h9.7V35H73v3.5h5.8Zm57.4,0h-5.7v3.9h6.7v2.4h-9.7V32.6h9.7V35h-6.7v3.5h5.7Z"/></svg>