<svg xmlns="http://www.w3.org/2000/svg" width="165" height="36.299" viewBox="0 0 165 36.299"><defs><style>.a{fill:#0069ff;}</style></defs><g transform="translate(-166.82 -36.766)"><path class="a" d="M186.754,36.867a18.147,18.147,0,1,0,16.053,19.95,18.3,18.3,0,0,0,.005-3.747A18.074,18.074,0,0,0,186.754,36.867Zm-.584,27.653a9.687,9.687,0,1,1,8.262-8.338A9.635,9.635,0,0,1,186.17,64.521Zm26.292-26.935a4.239,4.239,0,0,0-4.108,5.109,4.305,4.305,0,0,0,4.267,3.359h11.713L206.106,70.316a1.213,1.213,0,0,0,.232,1.694,1.2,1.2,0,0,0,.722.246h28.591a4.305,4.305,0,0,0,4.267-3.358,4.235,4.235,0,0,0-3.249-5.019,4.139,4.139,0,0,0-.858-.091H221.54l18.214-24.245a1.227,1.227,0,0,0-.235-1.711,1.214,1.214,0,0,0-.729-.247Zm114.25.1a4.294,4.294,0,0,0-3.283,4.25v14.1l-22.711-18.18a1.209,1.209,0,0,0-1.959.955v29.11a4.3,4.3,0,0,0,3.283,4.25,4.221,4.221,0,0,0,5.108-4.137V53.809l22.712,18.18a1.2,1.2,0,0,0,1.7-.2,1.227,1.227,0,0,0,.262-.758V41.818a4.2,4.2,0,0,0-5.108-4.135ZM267.58,45.242c9.606,0,16.784,5.106,16.784,9.674s-7.177,9.674-16.784,9.674S250.8,59.484,250.8,54.916s7.177-9.674,16.784-9.674m0-8.467c-13.9,0-25.176,8.122-25.176,18.141s11.272,18.141,25.176,18.141,25.176-8.122,25.176-18.141S281.483,36.775,267.58,36.775Z"/></g></svg>