<svg xmlns="http://www.w3.org/2000/svg" width="222" height="47.906" viewBox="0 0 222 47.906"><defs><style>.a{fill:#cc1a1c;fill-rule:evenodd;}</style></defs><g transform="translate(-207.992 -399.379)"><path class="a" d="M350.148,406.56h35.476v8.289H360.24v4.145h17.816a9.858,9.858,0,0,1,9.775,9.882h0a9.859,9.859,0,0,1-9.775,9.883H350.148v-32.2Zm-128.92,4.864,11.916-12.046,23.693,23.953-23.693,23.953-12.46-12.6h15.746a6.494,6.494,0,0,0,6.44-6.511h0a6.531,6.531,0,0,0-2.475-5.121,6.533,6.533,0,0,0,2.475-5.121h0a6.494,6.494,0,0,0-6.44-6.511Zm-9.461,17.864h22.146a1.9,1.9,0,0,0,1.887-1.909h0a1.9,1.9,0,0,0-1.887-1.908H207.992l3.775,3.816Zm-3.231-8.648h25.377a1.9,1.9,0,0,0,1.887-1.909h0a1.9,1.9,0,0,0-1.887-1.908h-21.6l-3.775,3.816Zm90.906,1.91c1.421-1.717,3.025-3.924,3.025-6.325a9.859,9.859,0,0,0-9.776-9.882h-21.14l-6.068,8.129h25.149a2.234,2.234,0,0,1,2.216,2.241h0a2.235,2.235,0,0,1-2.216,2.242h-11.75l-.078,7.192h11.828a2.234,2.234,0,0,1,2.216,2.241h0a2.235,2.235,0,0,1-2.216,2.242H265.483l5.91,8.129h21.3a9.86,9.86,0,0,0,9.776-9.883c0-2.321-1.553-4.547-3.025-6.325Zm44.887-15.99h-10.09v12.434h-15.9a1.916,1.916,0,0,1-1.6-1.793V406.56H306.646v10.721a8.869,8.869,0,0,0,8.973,8.866H332.5a2.235,2.235,0,0,1,2.216,2.241h0a2.236,2.236,0,0,1-2.216,2.242h-25.15v8.129h27.209a9.859,9.859,0,0,0,9.775-9.883V406.56ZM402.4,426.326h17.817a9.883,9.883,0,0,0,0-19.765H392.309v32.2H402.4V426.326Zm0-11.636h15.757a2.242,2.242,0,0,1,0,4.484H402.4V414.69Zm-42.16,11.458v4.483H376a2.236,2.236,0,0,0,2.216-2.242h0A2.235,2.235,0,0,0,376,426.147Z"/></g></svg>