<svg xmlns="http://www.w3.org/2000/svg" width="222" height="32.716" viewBox="0 0 222 32.716"><defs><style>.a{fill:#005294;}</style></defs><g transform="translate(-417.013 -61.357)"><path class="a" d="M626.108,61.357a3.841,3.841,0,1,0,3.788,3.829A3.816,3.816,0,0,0,626.108,61.357Zm-209.095.189V94.073H441.57c8.2-.7,10.255-3.619,11.106-11.229V72.963c-.717-6.407-1.149-11.417-11.106-11.417Zm39.4,0V94.073H464.7V83.27h13c3.38.4,3.67,3.512,3.67,6.926,0,0-.088,3.353.828,3.877h8.052a20.669,20.669,0,0,1-.876-5.532c.127-5.4-1.269-6.767-3.552-8.344l.048-.283c2.031-1.169,3.662-2.538,3.859-6.643V71.215c0-4.435-.471-9.668-8.335-9.668Zm37.935,0V94.073h30V86.982H502.616v-6.69h20.128v-5.98H502.616V67.952h21.241V61.546Zm33.815,0V94.073h7.838V70.529h.473l11.2,23.544h6.2l10.846-23.544h.473V94.073h8.052V61.546H560.112l-9.378,20.92H550.5l-9.874-20.92Zm50.415,0V94.073h30V86.982H586.847v-6.69h20.127v-5.98H586.847V67.952h21.241V61.546Zm33.553,0V94.073h26.877V86.982H620.4V61.546Zm13.972.685a2.967,2.967,0,1,1-2.936,2.956A2.932,2.932,0,0,1,626.108,62.231Zm-1.635.923v4.16h.853v-1.7h.782l.9,1.7h.971l-.994-1.773c.726-.051,1.112-.345,1.112-1.112,0-1.1-.64-1.276-1.587-1.276Zm.853.661h.994c.4,0,.924,0,.924.5,0,.524-.252.624-.71.615h-1.208Zm-200.19,4.137h14.421c4.054,0,4.925,2.914,4.925,7.541v4.4c0,4.626-1.082,7.092-4.925,7.092H425.136Zm39.569,0h12.93c2.608,0,3.907.53,3.907,3.4v1.088c0,2.335-.937,4.113-3.173,4.113H464.7Z"/></g></svg>