<svg xmlns="http://www.w3.org/2000/svg" width="165" height="37.771" viewBox="0 0 165 37.771"><defs><style>.a{fill:#ae119c;}.b{fill:#fff;fill-rule:evenodd;}</style></defs><g transform="translate(0.066 -0.417)"><rect class="a" width="165" height="37.771" transform="translate(-0.066 0.417)"/><path class="b" d="M237.142,431.83l-4.334-16.237h2.845l3.328,12.47,3.57-12.47h2.65l3.584,12.535L252.13,415.6l2.846,0-4.337,16.234-3.3,0L243.879,419.7l-3.467,12.127-3.27,0ZM256.936,415.6h2.706V431.82h-2.706V415.6Zm8.495,13.674h6.589v2.545h-9.24V415.6h2.651v13.674Zm14.914-13.655a7.264,7.264,0,0,1,5.526,2.339,8.58,8.58,0,0,1,0,11.523,7.267,7.267,0,0,1-5.526,2.338h-6.364V415.6h6.364v.019Zm0,13.674a4.757,4.757,0,0,0,3.717-1.571,5.669,5.669,0,0,0,1.455-3.986,5.594,5.594,0,0,0-1.455-3.981,4.811,4.811,0,0,0-3.717-1.572h-3.7v11.11Zm22.028-2.108a4.31,4.31,0,0,1-1.417,3.312,4.862,4.862,0,0,1-3.452,1.328h-6.928V415.6H297a4.807,4.807,0,0,1,3.359,1.292,4.158,4.158,0,0,1,1.383,3.2,3.9,3.9,0,0,1-1.643,3.314,4.141,4.141,0,0,1,2.275,3.78Zm-9.126-9.077v4.266h3.769a2.134,2.134,0,0,0,0-4.266Zm4.274,11.21a2.265,2.265,0,0,0,0-4.528h-4.274v4.547h4.274v-.019Zm10.023-.038h7.17v2.545h-9.821V415.6h9.71v2.546h-7.059v4.212h6.479v2.526h-6.479v4.4Zm18.78,2.545-3.434-5.912h-3.138v5.912H317.1V415.6h6.479a4.9,4.9,0,0,1,3.678,1.535,4.99,4.99,0,0,1,1.532,3.685,5.073,5.073,0,0,1-3.212,4.7l3.677,6.305Zm-6.572-13.717v5.428h3.811a2.72,2.72,0,0,0,0-5.428Zm20.741,13.717-3.416-5.915h-3.137v5.915h-2.65V415.593h6.479a4.886,4.886,0,0,1,3.678,1.537,4.993,4.993,0,0,1,1.531,3.689,5.077,5.077,0,0,1-3.211,4.7l3.677,6.309ZM333.941,418.1v5.429h3.81a2.721,2.721,0,0,0,0-5.429Zm11.444-2.507h2.65v16.23h-2.65V415.6Zm8.439,13.686h7.17v2.545h-9.82V415.6h9.706v2.546h-7.056v4.212H360.3v2.526h-6.479v4.4Zm9.019-1.148,2.3-1.346a3.854,3.854,0,0,0,4.014,2.733c2.015,0,3-.862,3-2.133a1.666,1.666,0,0,0-.8-1.5,11.432,11.432,0,0,0-2.872-1.159,11.241,11.241,0,0,1-3.4-1.479,3.742,3.742,0,0,1-1.569-3.272,4.151,4.151,0,0,1,1.532-3.4,5.474,5.474,0,0,1,3.678-1.273,5.993,5.993,0,0,1,5.64,3.574l-2.241,1.291a3.5,3.5,0,0,0-3.4-2.264c-1.547,0-2.537.786-2.537,2.021,0,1.2.782,1.755,3.268,2.522.613.207,1.063.357,1.344.468.3.093.69.262,1.192.468a4.391,4.391,0,0,1,1.178.655,3.876,3.876,0,0,1,1.66,3.329,4.273,4.273,0,0,1-1.587,3.5,6.3,6.3,0,0,1-4.143,1.27C365.96,432.119,363.681,430.623,362.844,428.134Z" transform="translate(-221.33 -404.469)"/></g></svg>