<svg xmlns="http://www.w3.org/2000/svg" width="165" height="70" viewBox="0 0 165 70"><defs><style>.a{fill:#d72027;}.b{fill:#fff;fill-rule:evenodd;}</style></defs><g transform="translate(-222.638 -392.586)"><rect class="a" width="165" height="70" transform="translate(222.638 392.586)"/><path class="b" d="M236.45,403.555q4.079,0,8.157,0a10.21,10.21,0,0,1,5.579,1.563,6.99,6.99,0,0,1,2.787,4.4,7.61,7.61,0,0,1-.4,4.659,6.026,6.026,0,0,1-2.584,2.769,6.766,6.766,0,0,1,4.19,2.363,7.218,7.218,0,0,1,1.506,3.992,8.31,8.31,0,0,1-1.311,5.458,8.078,8.078,0,0,1-4.161,2.982,13.214,13.214,0,0,1-4.322.576H236.45V403.555Zm5.585,4.587q0,3.678,0,7.355a10.488,10.488,0,0,0,3.673-.353,3.186,3.186,0,0,0,1.932-1.824,4.376,4.376,0,0,0,.034-2.985,3.2,3.2,0,0,0-1.928-1.846,10.338,10.338,0,0,0-3.711-.347Zm0,11.691c0,2.635,0,5.271,0,7.905a34.312,34.312,0,0,0,4.233-.125,4.455,4.455,0,0,0,2.9-1.495,3.9,3.9,0,0,0-.278-5.059,5.65,5.65,0,0,0-3.689-1.222c-1.058-.009-2.115,0-3.172,0Zm21.845-5.518a10.581,10.581,0,0,1,6.139-1.248,10.782,10.782,0,0,1,4,1.08c0,1.741-.005,3.481.005,5.221a5.976,5.976,0,0,0-3.509-1.615,5.479,5.479,0,0,0-4.258,1.159,5.557,5.557,0,0,0-.472,7.55,5.34,5.34,0,0,0,3.84,1.781,6.074,6.074,0,0,0,4.395-1.647q0,2.583,0,5.167a10.752,10.752,0,0,1-10.792-.614,9.359,9.359,0,0,1-3.861-5.748,11.168,11.168,0,0,1,.568-6.573,9.309,9.309,0,0,1,3.948-4.514Zm18.814-.569a11.62,11.62,0,0,1,5.321-.661,8.454,8.454,0,0,1,7.724,6.3,14.482,14.482,0,0,1,.493,4.487q-6.92,0-13.844,0a5.178,5.178,0,0,0,1.295,3.585,4.5,4.5,0,0,0,3.335,1.3,4.824,4.824,0,0,0,3.469-1.368,6.09,6.09,0,0,0,.833-1.086c1.6.263,3.2.517,4.807.781a9.191,9.191,0,0,1-3.165,4.11,9.643,9.643,0,0,1-4.865,1.69,11.863,11.863,0,0,1-5.4-.731,9.51,9.51,0,0,1-4.369-3.785A10.555,10.555,0,0,1,277,422.414a10.428,10.428,0,0,1,1.352-4.856,8.9,8.9,0,0,1,4.345-3.812Zm1.518,3.933a4.544,4.544,0,0,0-1.649,2.8q4.371.005,8.74,0a4.36,4.36,0,0,0-2.542-3.329,4.509,4.509,0,0,0-4.548.529Zm80.064,1.5a10.319,10.319,0,0,1,6.474,1.035,10.486,10.486,0,0,1,4.078,14.648,10.3,10.3,0,0,1-17.492.355,10.5,10.5,0,0,1,3.654-14.894,10.293,10.293,0,0,1,3.287-1.144ZM362.25,426.4c0-.245,0-.489,0-.734-.552,0-1.1,0-1.656,0q0,4.5,0,9c.551,0,1.1,0,1.657,0,0-1.283,0-2.565,0-3.848a2.579,2.579,0,0,0,3.725.225,3.478,3.478,0,0,0,.286-4.606,2.622,2.622,0,0,0-4.011-.037Zm5.2-.733c.916,1.663,1.845,3.317,2.76,4.981-.7,1.34-1.418,2.674-2.126,4.011.623.012,1.247,0,1.873.008q2.351-4.5,4.686-9c-.624-.008-1.245.007-1.867-.008-.556,1.092-1.069,2.2-1.608,3.305-.6-1.1-1.195-2.195-1.781-3.3-.646,0-1.291,0-1.937,0Zm-9.614,3.96a1.091,1.091,0,0,0-.454,1.764,1.067,1.067,0,1,0,.454-1.764Zm5.341-2.577a1.648,1.648,0,0,0-.985,2.127,1.581,1.581,0,0,0,2.1.951,1.684,1.684,0,0,0,.845-2.226,1.59,1.59,0,0,0-1.956-.852Zm-99.794,13.611a6,6,0,0,1,4.452.291q0,1.365,0,2.729a3.282,3.282,0,0,0-3.174-.722,2.481,2.481,0,0,0-1.538,1.416,2.835,2.835,0,0,0,.9,3.416,3.084,3.084,0,0,0,3.812-.355c0,.9,0,1.8,0,2.7a5.429,5.429,0,0,1-7-1.734,5.573,5.573,0,0,1-.517-4.558,4.852,4.852,0,0,1,3.06-3.183Zm19.636-.171a4.685,4.685,0,0,1,4.139,1.012,5.182,5.182,0,0,1,1.622,3.447,5.657,5.657,0,0,1-1.222,4.218,4.677,4.677,0,0,1-4.006,1.559,3.643,3.643,0,0,1-2.618-1.5c0,2.135,0,4.271,0,6.405-.914,0-1.828,0-2.741,0q0-7.479,0-14.956h2.741c0,.4,0,.809,0,1.213a3.676,3.676,0,0,1,2.085-1.4Zm-.407,2.421a2.578,2.578,0,0,0-1.813,1.74,2.867,2.867,0,0,0,.823,3.043,2.7,2.7,0,0,0,3.094.215,2.851,2.851,0,0,0,.323-4.476,2.7,2.7,0,0,0-2.428-.523Zm37.126-2.458a5.7,5.7,0,0,1,3.9.647,4.567,4.567,0,0,1,1.937,2.835,8.2,8.2,0,0,1,.191,2.1h-7.222a2.66,2.66,0,0,0,.814,1.974,2.582,2.582,0,0,0,3.835-.722c.84.135,1.682.265,2.521.413a4.685,4.685,0,0,1-3.11,2.835,6.292,6.292,0,0,1-4.026-.241,4.829,4.829,0,0,1-2.727-3.406,6.031,6.031,0,0,1,.636-4.244,4.626,4.626,0,0,1,3.25-2.188Zm.069,2.152a2.316,2.316,0,0,0-1.167,1.657c1.516,0,3.033.01,4.547-.007a2.5,2.5,0,0,0-.64-1.26,2.338,2.338,0,0,0-2.74-.389Zm-17.974,7.815q.871-5,1.759-10c.676,0,1.354,0,2.031,0q1.315,2.9,2.629,5.808c.905-1.927,1.748-3.884,2.649-5.813.675.011,1.35,0,2.025.006.581,3.332,1.174,6.662,1.756,9.992-.916.008-1.832,0-2.746,0-.267-1.734-.5-3.474-.805-5.2-.817,1.811-1.645,3.617-2.465,5.427q-.408,0-.815,0-1.244-2.728-2.485-5.458c-.253,1.745-.534,3.487-.788,5.232Zm-65.56-9.747c.915,0,1.83-.007,2.746,0q-.008,2.987,0,5.975c1.486-1.988,2.956-3.988,4.439-5.978.909,0,1.817,0,2.727,0q0,4.873,0,9.747-1.371,0-2.743,0c0-1.974,0-3.947,0-5.922-1.475,1.969-2.938,3.948-4.407,5.923h-2.757q0-4.875,0-9.747Zm12.482,0q1.369,0,2.742,0c0,1.147-.009,2.3.007,3.444,1.25-.009,2.5,0,3.75,0,0-1.146,0-2.293,0-3.44.913,0,1.827,0,2.741,0q0,4.873,0,9.747h-2.741c-.005-1.315.009-2.63-.008-3.943-1.25.01-2.5,0-3.75.006v3.937q-1.371,0-2.743,0,0-4.875,0-9.747Zm19.945,0c2.7.007,5.393-.016,8.088.011-.017.786,0,1.571-.009,2.357-.889,0-1.779,0-2.669,0q0,3.688,0,7.377h-2.741q0-3.69,0-7.378c-.891,0-1.781,0-2.671,0,0-.79,0-1.579,0-2.368Zm20.92,0q1.6-.007,3.2,0,1.477,2.749,2.967,5.493c.9-1.821,1.774-3.658,2.662-5.485,1.036-.023,2.075,0,3.112-.009q-3.884,7.484-7.786,14.961c-1.035-.011-2.069,0-3.1,0q1.775-3.334,3.543-6.672c-1.53-2.76-3.07-5.518-4.591-8.284Zm38.224,0c.914,0,1.828,0,2.742,0,0,1.146,0,2.293,0,3.44h3.757c0-1.146,0-2.293,0-3.44.913,0,1.826,0,2.739,0q.008,4.875,0,9.748h-2.742v-3.937q-1.879,0-3.758,0v3.937q-1.371,0-2.743,0,0-4.875,0-9.747Zm10.625,0c2.7-.01,5.4,0,8.107,0,0,.789,0,1.578,0,2.368-.9,0-1.8,0-2.7,0q0,3.688,0,7.378h-2.718q0-3.688,0-7.377c-.9,0-1.8,0-2.694,0,0-.788,0-1.577,0-2.364Zm9.494,0h2.74c0,1.154,0,2.309,0,3.464a25.206,25.206,0,0,1,2.9.073,2.918,2.918,0,0,1,2.255,1.591,3.725,3.725,0,0,1-.114,3.128,2.865,2.865,0,0,1-2.487,1.49q-2.645,0-5.293,0,0-4.875,0-9.747Zm2.741,5.66c0,.639,0,1.279,0,1.918a8.578,8.578,0,0,0,1.961-.1.957.957,0,0,0,.483-1.429,1.242,1.242,0,0,0-.991-.394c-.486,0-.97,0-1.455,0Zm6.426-5.66c.915,0,1.829,0,2.743,0q0,4.873,0,9.747-1.373,0-2.745,0Q357.136,445.548,357.135,440.675Z" transform="translate(1.364 1.097)"/></g></svg>