<svg xmlns="http://www.w3.org/2000/svg" xmlns:xlink="http://www.w3.org/1999/xlink" width="165" height="37.741" viewBox="0 0 165 37.741"><defs><style>.a{fill:#21a038;}.b{fill:#632895;}.c{fill:#209f38;}.c,.d,.e,.f,.g,.h,.i,.j{fill-rule:evenodd;}.d{fill:url(#a);}.e{fill:url(#b);}.f{fill:url(#c);}.g{fill:url(#d);}.h{fill:url(#e);}.i{fill:url(#f);}.j{fill:url(#g);}</style><linearGradient id="a" x1="0.601" y1="0.934" x2="0.398" y2="-0.004" gradientUnits="objectBoundingBox"><stop offset="0" stop-color="#f2e600"/><stop offset="0.14" stop-color="#f2e600"/><stop offset="0.3" stop-color="#e6e000"/><stop offset="0.58" stop-color="#c8d411"/><stop offset="0.89" stop-color="#a0c52f"/><stop offset="1" stop-color="#a0c52f"/></linearGradient><linearGradient id="b" x1="0.111" y1="0.59" x2="0.948" y2="0.41" gradientUnits="objectBoundingBox"><stop offset="0" stop-color="#00a5de"/><stop offset="0.06" stop-color="#00a5de"/><stop offset="0.54" stop-color="#3d87c8"/><stop offset="0.92" stop-color="#3183c5"/><stop offset="1" stop-color="#3183c5"/></linearGradient><linearGradient id="c" x1="-0.02" y1="0.56" x2="0.936" y2="0.438" gradientUnits="objectBoundingBox"><stop offset="0" stop-color="#a0c52f"/><stop offset="0.12" stop-color="#a0c52f"/><stop offset="0.27" stop-color="#83bc32"/><stop offset="0.87" stop-color="#169e35"/><stop offset="1" stop-color="#169e35"/></linearGradient><linearGradient id="d" x1="-0.076" y1="0.42" x2="0.903" y2="0.589" gradientUnits="objectBoundingBox"><stop offset="0" stop-color="#3183c5"/><stop offset="0.06" stop-color="#3183c5"/><stop offset="0.79" stop-color="#0087c9"/><stop offset="1" stop-color="#0087c9"/></linearGradient><linearGradient id="e" x1="-0.909" y1="0.418" x2="0.072" y2="0.47" xlink:href="#d"/><linearGradient id="f" x1="0.107" y1="0.393" x2="1.003" y2="0.603" gradientUnits="objectBoundingBox"><stop offset="0" stop-color="#f2e600"/><stop offset="0.13" stop-color="#f2e600"/><stop offset="0.3" stop-color="#eae200"/><stop offset="0.53" stop-color="#d7da00"/><stop offset="0.8" stop-color="#b7cd1e"/><stop offset="0.98" stop-color="#a0c52f"/><stop offset="1" stop-color="#a0c52f"/></linearGradient><linearGradient id="g" x1="0.375" y1="1.04" x2="0.617" y2="0.108" gradientUnits="objectBoundingBox"><stop offset="0" stop-color="#a0c52f"/><stop offset="0.07" stop-color="#a0c52f"/><stop offset="0.25" stop-color="#81bd58"/><stop offset="0.92" stop-color="#00a5de"/><stop offset="1" stop-color="#00a5de"/></linearGradient></defs><g transform="translate(3.895 0.879)"><path class="a" d="M59.354,5.8l2.964-2.237H52.4v13.42h9.916V14.753H55.232V11.316h6.046V9.08H55.232V5.8Zm-14.439,3H41.471v-3h5.5l2.964-2.237h-11.3v13.42h5.91c3.315,0,5.214-1.535,5.214-4.216,0-2.56-1.723-3.971-4.848-3.971Zm-.492,5.954h-2.95V11.033h2.951c1.8,0,2.632.623,2.632,1.861,0,1.264-.887,1.858-2.632,1.858ZM70.352,3.565h-5.4v13.42h2.828v-3.8h2.57c3.447,0,5.586-1.854,5.586-4.815S73.8,3.565,70.352,3.565Zm-.062,7.386H67.782V5.8h2.508c1.812,0,2.814.914,2.814,2.576s-1,2.575-2.814,2.575ZM33.782,14.08a4.958,4.958,0,0,1-2.442.625,4.276,4.276,0,0,1-4.405-4.431,4.408,4.408,0,0,1,6.978-3.605l2.03-1.531-.133-.118A6.7,6.7,0,0,0,31.23,3.39,7.144,7.144,0,0,0,26.211,5.3,6.741,6.741,0,0,0,24.225,10.2,6.966,6.966,0,0,0,26.2,15.18a7,7,0,0,0,5.007,1.983,6.664,6.664,0,0,0,5.028-2.054c-.932-.7-1.83-1.381-1.83-1.381l-.626.351Z" transform="translate(0.974 0.185)"/><path class="b" d="M36.917,25.827,32.7,32.954H31.525l-4.3-7.028v9.98H24.881V22.5H27.84l4.343,7.3,4.3-7.3h2.771V35.906h-2.34ZM50.84,30.1H44.814v3.6H51.74v2.2H42.474V22.494h9.059v2.2H44.814v3.2H50.84Zm12.388-5.4h-6.55V35.9H54.339V22.494h8.89v2.2ZM75.262,35.9H72.773l-1.253-3.18H65.513L64.277,35.9H61.9l5.314-13.407h2.657L75.26,35.9Zm-4.6-5.383-2.153-5.5-2.154,5.5ZM93.01,25.826,88.8,32.953H87.618l-4.305-7.028V35.9H80.975V22.5h2.959l4.343,7.3,4.3-7.3h2.772V35.9H93.01ZM110.359,35.9h-2.486l-1.257-3.18h-6.007L99.373,35.9H97l5.314-13.407h2.657L110.36,35.9Zm-4.6-5.383-2.151-5.5-2.154,5.5h4.305Zm8.609,1.208v4.179h-2.341V22.5h4.36a7.119,7.119,0,0,1,4.5,1.139,4.132,4.132,0,0,1,1.4,3.4,4.19,4.19,0,0,1-1.5,3.525,7.043,7.043,0,0,1-4.4,1.17h-2.019Zm0-7.031v4.826h2.191a4.281,4.281,0,0,0,2.469-.582,2.238,2.238,0,0,0,.823-1.964,1.971,1.971,0,0,0-.767-1.762,4.586,4.586,0,0,0-2.49-.518ZM127.014,35.9h-2.339V22.494h2.339v5.631h1.964l4.211-5.631h2.844l-5,6.379,5.8,7.028h-2.994l-4.755-5.8h-2.078Zm19.86-5.8h-6.026v3.6h6.926v2.2h-9.267V22.494h9.06v2.2h-6.719v3.2h6.026ZM160.1,24.7h-4.418V35.9h-2.34V24.7H149v-2.2h11.1v2.2h0Z" transform="translate(1.002 0.956)"/><path class="c" d="M16.638,3.485a11.626,11.626,0,0,1,1.394,2.329l-10.6,7.867-4.429-2.8V7.523l4.429,2.8Z" transform="translate(0.299 0.189)"/><path class="d" d="M-1.211,10.377c0-.153,0-.3.011-.451l-2.681-.137c-.01.2-.014.391-.014.588A11.722,11.722,0,0,0-.489,18.661l1.9-1.919A9.012,9.012,0,0,1-1.211,10.377Z" transform="translate(0 0.461)"/><path class="e" d="M7.593,1.828c.149,0,.3,0,.447.012l.134-2.7A11.526,11.526,0,0,0-.63,2.553l1.9,1.916a8.887,8.887,0,0,1,6.32-2.64Z" transform="translate(0.141)"/><path class="f" d="M7.276,19.1c-.148,0-.3,0-.446-.012l-.134,2.7A11.536,11.536,0,0,0,15.5,18.373L13.6,16.458A8.889,8.889,0,0,1,7.276,19.1Z" transform="translate(0.458 0.75)"/><path class="g" d="M12.292,3.4l2.265-1.681a11.527,11.527,0,0,0-7.308-2.6V1.828A8.842,8.842,0,0,1,12.292,3.4Z" transform="translate(0.482)"/><path class="h" d="M18.633,10.439a11.861,11.861,0,0,0-.186-2.1l-2.5,1.856c0,.081,0,.162,0,.243A9.012,9.012,0,0,1,13,17.114l1.807,2.014A11.719,11.719,0,0,0,18.633,10.439Z" transform="translate(0.731 0.399)"/><path class="i" d="M7.61,19.112a8.864,8.864,0,0,1-6.627-2.97l-2,1.817a11.568,11.568,0,0,0,8.625,3.86Z" transform="translate(0.125 0.736)"/><path class="j" d="M1.736,4.033-.069,2.024A11.717,11.717,0,0,0-3.9,10.713h2.685A9.022,9.022,0,0,1,1.736,4.033Z" transform="translate(0 0.125)"/></g></svg>