<svg xmlns="http://www.w3.org/2000/svg" width="204.301" height="100" viewBox="0 0 204.301 100"><defs><style>.a{fill:#d9000d;}.a,.b,.c{fill-rule:evenodd;}.b{fill:#fff;}.c{fill:#161615;}</style></defs><g transform="translate(-654.378 -710.339)"><path class="a" d="M755.928,710.339l102.751,50.909L755.928,810.339l-101.55-49.091,101.55-50.909Z"/><path class="b" d="M696.848,757.539l7.263-12.819h6.657L702.9,756.929l7.868,13.429h-7.262l-6.658-12.819Z" transform="translate(3.173 2.498)"/><path class="b" d="M697.359,770.358H690.7V744.721h6.657v25.637Z" transform="translate(2.725 2.498)"/><path class="b" d="M732.98,770.358h-5.447l-7.867-14.039v14.039h-6.052V744.721h6.052l6.657,12.208.605-12.208h6.052v25.637Z" transform="translate(4.411 2.498)"/><path class="b" d="M745.464,770.358H738.2V744.721h7.263v25.637Z" transform="translate(6.286 2.498)"/><path class="b" d="M769.257,753.267a7.5,7.5,0,0,1-1.816,5.493,8.491,8.491,0,0,1-7.261,3.662h-3.631v7.936H750.5V744.721h8.472c3.026,0,7.263,1.221,8.472,3.052a7.5,7.5,0,0,1,1.816,5.494Zm-5.446,0c0-1.831-2.42-3.663-4.842-3.663h-2.42v7.936h2.42c2.422,0,4.842-2.442,4.842-4.273Z" transform="translate(7.16 2.498)"/><path class="b" d="M786.349,770.358H770.613V744.721h15.735V749.6h-9.078v4.883h7.868v4.883h-7.868v5.494h9.078v5.494Z" transform="translate(8.675 2.498)"/><path class="b" d="M812.1,770.358h-6.657L800.6,761.2l-5.446,9.156H788.5l7.262-13.429L789.1,744.721h7.262l4.237,7.935,3.632-7.935h6.657l-6.657,12.208,7.868,13.429Z" transform="translate(9.961 2.498)"/><path class="c" d="M808.611,729.24a5.22,5.22,0,1,0,5.219-5.265,5.247,5.247,0,0,0-5.219,5.265Zm.983,0a4.242,4.242,0,1,1,4.236,4.466,4.355,4.355,0,0,1-4.236-4.466Zm2.327,2.588h.969v-2.182h.791c1.1,0,1.133.5,1.147.979.031.872.016.993.194,1.2h1c-.209-.287-.163-.437-.209-1.25-.029-.525-.075-1.127-.745-1.263v-.031a1.216,1.216,0,0,0,.879-1.2,1.5,1.5,0,0,0-1.715-1.518h-2.31v5.265Zm.969-4.543H813.9c.626,0,1.059.165,1.059.8,0,.377-.149.842-.954.842h-1.119v-1.638Z" transform="translate(11.333 1.131)"/></g></svg>