<svg xmlns="http://www.w3.org/2000/svg" width="339.992" height="181.855" viewBox="0 0 339.992 181.855"><defs><style>.a{fill:#f6f6f6;}</style></defs><path class="a" d="M181.015,34.3c.061,0,.112.077.112.172s-.049.173-.111.173-.112-.077-.112-.173S180.953,34.3,181.015,34.3ZM170.09,55.123h0a.186.186,0,1,0-.186-.187A.186.186,0,0,0,170.09,55.122Zm12.217-12.339a.18.18,0,1,0,.348.092.176.176,0,0,0,.006-.046.159.159,0,0,0-.136-.174A.18.18,0,0,0,182.307,42.784Zm.218-.128ZM181.014,34.3h0Zm.683.235a.113.113,0,0,0-.115.11h0a.117.117,0,1,0,.234.014.119.119,0,0,0-.11-.124Zm-.344-1.031a.127.127,0,0,0-.137.116h0a.139.139,0,1,0,.159-.115Zm6.476-4.243a.111.111,0,1,0-.112-.118v0A.114.114,0,0,0,187.829,29.262Zm-4.087,18.569h0a.173.173,0,1,0-.169.209A.192.192,0,0,0,183.742,47.831Zm-.953-.319h0a.183.183,0,1,0-.127-.225.155.155,0,0,0-.007.048A.16.16,0,0,0,182.789,47.512Zm.786-.376a.139.139,0,1,0-.113.113A.139.139,0,0,0,183.575,47.136ZM169.448,57.521h-.007a.235.235,0,1,0,.231-.271A.255.255,0,0,0,169.448,57.521Zm18.031-27.54,0,0h0Zm-5.055,5.129,0,0a.182.182,0,1,0-.131-.221.177.177,0,0,0,.134.219Zm.656,5.427a.239.239,0,1,0-.239.247.244.244,0,0,0,.237-.247ZM170.208,58.543H170.2a.116.116,0,1,0,.007,0Zm12.973-8.617h0c.2,0,.365-.084.365-.189s-.164-.189-.365-.189-.366.084-.366.189S182.979,49.926,183.181,49.926Zm1.453-.2c0-.1-.14-.189-.314-.189s-.313.084-.313.189.143.2.316.2l0-.008C184.493,49.918,184.634,49.834,184.634,49.729Zm1.038-.525a.186.186,0,1,0-.192.194h.009l0-.008A.186.186,0,0,0,185.672,49.2Zm-.34.6c0-.17-.092-.307-.206-.307s-.206.138-.206.307.1.315.209.315l0-.008C185.239,50.108,185.332,49.971,185.332,49.8Zm-.077-1.092a.113.113,0,0,0-.132-.09.112.112,0,0,0-.092.112.125.125,0,0,0,.129.119h.008l0-.008A.113.113,0,0,0,185.255,48.709Zm1.111-.519v-.008c-.127,0-.229.071-.229.157s.1.157.229.157.228-.07.228-.157S186.489,48.19,186.366,48.19Zm-.627,2.565c0-.078-.2-.14-.441-.14s-.441.063-.441.14.2.145.442.145v0C185.541,50.9,185.739,50.833,185.739,50.755Zm.272-.94a.137.137,0,1,0-.144.144h.009l0-.007A.137.137,0,0,0,186.011,49.815Zm-1.149-4.454,0-.007c-.188.082-.252.232-.351.4a.675.675,0,0,1-.228.226.771.771,0,0,0-.285.221c-.129.223.255.221.379.216a.614.614,0,0,0,.424-.2,1.706,1.706,0,0,0,.328-.371.409.409,0,0,0,.033-.4A.222.222,0,0,0,184.862,45.361ZM182.4,33.771l0-.009c.116.051.232-.039.345-.074a.65.65,0,0,0,.378-.26.487.487,0,0,0,.017-.635c-.161-.148-.383-.225-.552-.367s-.3-.312-.454-.461c-.212-.2-.768-.7-1.069-.424-.277.256-.129.688.036.954a2.636,2.636,0,0,0,.64.735,1.692,1.692,0,0,1,.282.2A1.24,1.24,0,0,0,182.4,33.771ZM170.139,56.1h-.006a.148.148,0,1,1,.006,0ZM186.4,46.911h0a.172.172,0,1,0,.2.17A.184.184,0,0,0,186.4,46.911Zm-2.159,1.8a.172.172,0,1,0,.17-.134.155.155,0,0,0-.167.142Zm.614-.4a.4.4,0,0,0,.443-.339v0a.457.457,0,1,0-.557.329A.5.5,0,0,0,184.856,48.305Zm-15.267,7.849a.235.235,0,1,0-.235-.235h0A.235.235,0,0,0,169.589,56.154Zm16.222-7.807v0c0-.086-.047-.157-.1-.157s-.1.071-.1.157.046.157.1.157S185.811,48.434,185.811,48.347Zm-2.843-.173c0-.115-.15-.207-.336-.207s-.337.093-.337.207.155.206.341.206l0,0C182.817,48.382,182.968,48.289,182.968,48.174Zm-7.431,3.182h0a.108.108,0,1,0-.108-.108A.108.108,0,0,0,175.539,51.356Zm0,0h0Zm-.33-.078h0Zm.725.587h0a.127.127,0,1,0-.128-.127A.127.127,0,0,0,175.937,51.865Zm-.726-.588c.064,0,.116-.112.116-.247s-.052-.248-.117-.248-.118.111-.118.248S175.146,51.276,175.21,51.277Zm1.143.145h0a.1.1,0,1,0-.1-.1A.1.1,0,0,0,176.354,51.421Zm11.129-21.443a.12.12,0,0,0,.091-.14.121.121,0,0,0-.142-.093.12.12,0,0,0-.1.118A.133.133,0,0,0,187.482,29.979Zm-10.8,22.082h0a.189.189,0,1,0-.19-.189A.189.189,0,0,0,176.68,52.06Zm-5.053,7.569h-.006a.111.111,0,1,1,.006,0Zm.045-.781c.085,0,.155-.05.155-.109s-.071-.112-.158-.112-.159.05-.159.112S171.587,58.848,171.672,58.849ZM177.6,44.7c.211,0,.38-.112.38-.248s-.172-.248-.383-.248-.383.112-.383.248S177.387,44.7,177.6,44.7Zm-3.074,6.858a.1.1,0,1,0-.1-.1A.1.1,0,0,0,174.527,51.559Zm-2.852,7.291h0Zm.714-4.439c0,.108.137.2.307.2s.307-.088.307-.2-.137-.2-.307-.2S172.389,54.3,172.389,54.411Zm.129-1.528h0Zm-.01,0h.005a.192.192,0,1,0-.213-.191A.2.2,0,0,0,172.508,52.884Zm4.445-1.345h0a.13.13,0,1,0-.13-.13A.13.13,0,0,0,176.954,51.538Zm6.4-23.949,0,0a.1.1,0,1,0-.079-.1A.093.093,0,0,0,183.354,27.592Zm-.848,3.146,0,0a.947.947,0,0,1,.3.079c.15.11-.048.4-.089.53a.513.513,0,0,0,.181.666,1.767,1.767,0,0,0,.82.214,1.321,1.321,0,0,0,.732-.307,1.527,1.527,0,0,1,.607-.352c.253-.038.513-.093.771-.112s.568-.014.737-.225c.185-.234.11-.605.141-.881a1.637,1.637,0,0,1,.447-.875c.2-.251.214-.449-.049-.662-.281-.227-.686-.37-.86-.707s-.036-.713-.079-1.057c-.035-.279-.21-.662-.546-.654-.278.007-.33.307-.369.523a.541.541,0,0,1-.376.494,3.311,3.311,0,0,0-.708.256,6.347,6.347,0,0,1-.706.428c-.2.091-.537.171-.6.416s.115.483.089.727c-.033.313-.357.487-.574.671-.182.155-.45.431-.222.662A.738.738,0,0,0,182.509,30.736Zm1.06-3.786h0a.117.117,0,0,0,.1-.134.119.119,0,0,0-.236.019A.126.126,0,0,0,183.569,26.95Zm.531.431a.1.1,0,1,0,0-.2.119.119,0,0,0-.131.1C183.967,27.337,184.028,27.381,184.1,27.381Zm0,0h0Zm-.529-.432h0l0,0Zm-2.226,0h0c.288,0,.522-.128.522-.287s-.234-.287-.522-.287-.522.129-.522.287S181.058,26.95,181.347,26.95ZM177.6,44.7h0Zm1.573,5.77,0,0a.126.126,0,1,0-.146-.124A.136.136,0,0,0,179.177,50.471ZM178.57,43h0c.164,0,.3-.066.3-.148s-.133-.148-.3-.148-.3.066-.3.148S178.407,43,178.57,43Zm.075,7.416h-.006a.154.154,0,0,0-.156.152h0a.157.157,0,1,0,.162-.152Zm1.792-7.459h0c.113,0,.2-.068.2-.152a.207.207,0,0,0-.4,0C180.239,42.893,180.325,42.96,180.437,42.96ZM179.2,44.379h0a.177.177,0,1,0-.14-.208.2.2,0,0,0,0,.034A.16.16,0,0,0,179.2,44.379ZM180.779,34.3h0c.068,0,.123-.1.123-.229s-.055-.229-.123-.229-.125.1-.125.229S180.71,34.3,180.779,34.3Zm-.914,15.991h0a.139.139,0,0,0,.151-.127.14.14,0,0,0-.127-.152.139.139,0,0,0-.151.128v.012A.134.134,0,0,0,179.865,50.292ZM279.792,28.8a.351.351,0,0,0,.082.051l0,0c.369.181,1.087-.09,1.46-.088a1.286,1.286,0,0,0,.809-.224c.256-.215.158-.669.023-.941-.173-.349-.6-.875-.988-.5-.2.192-.275.5-.494.675-.2.165-.443.145-.677.217a.471.471,0,0,0-.217.812ZM230.169,42.286l0,0a2.317,2.317,0,0,1,.227.286.467.467,0,0,0,.283.25c.154.031.431.005.439-.194s-.212-.292-.316-.418a.71.71,0,0,1-.156-.47c0-.152.038-.382-.091-.5s-.3-.07-.43-.186c-.085-.078-.233-.4-.374-.373-.271.058.03.707.077.84A2.3,2.3,0,0,0,230.169,42.286Zm-9.863,13.785,0-.008a.088.088,0,1,0-.073-.1v.014a.081.081,0,0,0,.067.094Zm.705-.944,0,0a.252.252,0,1,0-.257-.253A.252.252,0,0,0,221.013,55.125Zm-.392.662,0-.005c.036,0,.065-.041.065-.091s-.029-.092-.065-.092-.065.041-.065.092S220.583,55.789,220.619,55.789Zm1.162-.966,0,0a.139.139,0,1,0-.14-.139A.141.141,0,0,0,221.781,54.823Zm17.045-11.012a.816.816,0,0,0,.1.792.806.806,0,0,0,.654.426c.172.026.463.021.533-.165a1.58,1.58,0,0,0-.01-.819.59.59,0,0,0-.607-.554l0,0C239.182,43.448,238.954,43.495,238.826,43.811Zm-7.08-4.125,0,0c.092.045.27.083.309.193s-.1.265-.164.354c-.08.115-.2.267-.134.415s.273.218.408.283.3.137.336.295a.816.816,0,0,1-.108.429.645.645,0,0,0,.21.783,1.481,1.481,0,0,0,.936.378c.309.016.717-.107.985.093.215.16.38.567.678.588a.574.574,0,0,0,.312-.134.967.967,0,0,1,.467-.127c.239-.008.4-.014.461-.3a1.209,1.209,0,0,0-.1-.625c-.031-.088-.065-.175-.092-.256a1.576,1.576,0,0,0-.2-.344c-.1-.155.011-.253.106-.377.031-.041.094-.147.156-.141.1.009.081.184.085.251a.67.67,0,0,0,.2.485.525.525,0,0,0,.188.13c.127.047.192-.07.261-.154s.17-.156.237-.245a3.687,3.687,0,0,0,.171-.373.857.857,0,0,1,.306-.321c.19-.108.38-.15.474-.367.078-.179.07-.416.209-.565.173-.184.349.1.494.2a.689.689,0,0,0,.4.085c.078.006.118.021.187-.021a1.709,1.709,0,0,0,.323-.4,1.876,1.876,0,0,0,.211-.319c.063-.131.079-.253-.048-.344a1.923,1.923,0,0,0-1.086-.159c-.175,0-.478.074-.62-.034a4.1,4.1,0,0,0-.4-.28,1.378,1.378,0,0,1-.621-.546c-.153-.346-.408-1.257.115-1.436a.583.583,0,0,1,.278-.028c.123.072.062.308.03.412-.056.183.067.388.136.567a.975.975,0,0,0,.442.617,3.582,3.582,0,0,0,.964.215,4.784,4.784,0,0,0,1.134.057c.246-.024.609-.242.531-.535a2.823,2.823,0,0,0-.25-.541A.9.9,0,0,1,240.6,37a.534.534,0,0,0-.05-.338c-.11-.157-.28-.3-.3-.493-.024-.292.14-1.231-.445-.989-.337.139-.558.614-.951.338a1.657,1.657,0,0,0-.314-.18c-.146-.058-.268.063-.381.135a3.441,3.441,0,0,0-.44.318,1.614,1.614,0,0,1-.967.471,4.209,4.209,0,0,1-1.282-.23c-.239-.058-.581-.111-.567.234.008.187.13.29.149.46.02.188-.065.389.017.57.067.148.337.173.48.221.165.056.39.149.427.342a.851.851,0,0,1-.171.6.651.651,0,0,1-.67.032c-.154-.088-.256-.278-.394-.393a1.564,1.564,0,0,0-.787-.458,5.217,5.217,0,0,1-.729,0,.4.4,0,0,1-.277-.222c-.1-.148-.249-.153-.413-.178-.416-.064-.237.32-.4.556a2.6,2.6,0,0,0-.2.232.793.793,0,0,0-.024.421,1.008,1.008,0,0,1-.174.6C231.579,39.289,231.411,39.519,231.746,39.686Zm2.216,8.2a1.5,1.5,0,0,0,.912.242c.242.007.218-.289.069-.417s-.431-.125-.622-.185c-.219-.068-.488-.22-.718-.11C233.34,47.551,233.859,47.807,233.962,47.89Zm-.361-.469h0Zm-14.448,7.741.007,0c.1,0,.182-.044.182-.1s-.081-.1-.182-.1-.183.044-.183.1S219.052,55.162,219.153,55.162Zm.1,4.373,0,0c0,.07.076.126.17.126s.169-.056.169-.126-.076-.126-.169-.126S219.249,59.466,219.249,59.535Zm-2.185.907,0,0a.135.135,0,1,0-.157-.134A.146.146,0,0,0,217.064,60.442Zm2.6-3.305h0l0,0a.118.118,0,1,0-.122-.117A.12.12,0,0,0,219.666,57.137Zm.4-1.536c.048,0,.087-.029.087-.065s-.038-.065-.087-.065-.087.029-.087.065a.079.079,0,0,0,.084.07Zm-.272,3.681,0,0c0,.07.041.127.091.127s.091-.057.091-.127-.041-.126-.091-.126S219.789,59.213,219.789,59.282ZM187.272,33.4c-.066.1-.416.675-.549.427h0c-.066-.121.01-.352.036-.475.052-.24.117-.478.149-.723.044-.357,0-.8-.456-.8a5.883,5.883,0,0,0-1.072.245,1.1,1.1,0,0,0-.84.5c-.155.272-.183.633-.476.8-.361.21-.8.27-1.078.615s.053.493.348.6c.341.128.379.373.4.691a2.507,2.507,0,0,0,.312,1.112.586.586,0,0,0,.326.287.81.81,0,0,1,.4.211c.09.109.106.321.246.383s.327-.014.47.015a1.219,1.219,0,0,1,.5.189,1.5,1.5,0,0,1,.335.493c.085.162.178.459.374.519s.48-.138.688-.171a2.583,2.583,0,0,0,.79-.124c.244-.119.346-.407.511-.607s.586-.476.533-.783c-.06-.349-.546-.514-.769-.741-.242-.248.136-.372.321-.486a.908.908,0,0,0,.451-.747,5.247,5.247,0,0,0,.065-.994,1.156,1.156,0,0,0-.483-.8,1.261,1.261,0,0,0-.821-.38C187.639,32.709,187.44,33.15,187.272,33.4ZM216.48,60.364l0,0a.1.1,0,0,0,.077-.119.1.1,0,0,0-.119-.076.1.1,0,0,0-.079.1A.11.11,0,0,0,216.48,60.364Zm55.009-25.093,0-.008c.072,0,.13-.082.13-.182s-.058-.182-.13-.182-.13.082-.13.182S271.416,35.271,271.489,35.271Zm1.09-.9,0,0c.068,0,.124-.1.124-.215s-.056-.215-.124-.215-.124.1-.124.215S272.51,34.366,272.579,34.366Zm3,3.211,0,0c.076,0,.137-.082.137-.184s-.062-.182-.137-.182-.137.082-.137.182S275.506,37.577,275.582,37.577Zm-.3.47h0l0,0a.144.144,0,0,0-.026-.287.145.145,0,0,0-.131.144A.15.15,0,0,0,275.287,38.047ZM315.1,6.777l0,0c.036.051.055.123.112.157.139.083.215-.16.225-.253a.438.438,0,0,0-.031-.175.685.685,0,0,0-.075-.216c-.043-.062-.085-.159-.169-.169s-.14.068-.168.137c-.054.131-.128.281-.017.4A1.248,1.248,0,0,1,315.1,6.777ZM281.829,9.688a7.533,7.533,0,0,1,.844,1,1.961,1.961,0,0,1,.281.636,2.909,2.909,0,0,0,.214.731.567.567,0,0,0,.773.209.575.575,0,0,0,.227-.244,1.936,1.936,0,0,0,.139-.6c.034-.221.094-.434.147-.651.118-.481.089-.976.188-1.459a4.265,4.265,0,0,0,.18-1.51c-.037-.275-.064-.549-.08-.826a1.782,1.782,0,0,0-.163-.842c-.314-.479-.9.3-1.15.481-.368.268-.833-.016-1.213.255a.913.913,0,0,0-.348.929c.029.175.145.317.047.479a1.993,1.993,0,0,0-.241.609,1.611,1.611,0,0,0-.068.463.6.6,0,0,0,.221.34ZM168.9,57.887h0a.1.1,0,1,0,.1-.094h0A.094.094,0,0,0,168.9,57.887ZM245.157,27.93l0,0a.314.314,0,1,0-.379-.307A.348.348,0,0,0,245.157,27.93Zm-5.183,1.247a.359.359,0,0,0,.215-.006.775.775,0,0,0,.389-.784c-.038-.246-.045-.653-.41-.577a.522.522,0,0,0-.356.4c-.009.089.024.178.015.268a1.747,1.747,0,0,1-.09.264A.351.351,0,0,0,239.974,29.177Zm30.5,5.646,0,0a.154.154,0,1,0-.189-.15A.173.173,0,0,0,270.477,34.823ZM240.7,45.287l.007,0c.008.238.079.47.092.708a1.122,1.122,0,0,1-.194.706c-.1.148-.3.35-.248.545s.314.22.478.184a.994.994,0,0,0,.423-.265,1.528,1.528,0,0,1,.593-.276c.193-.041.276.11.442.176.377.15.649-.243.887-.465a1.63,1.63,0,0,1,1.176-.619,1.028,1.028,0,0,0,.647-.1.334.334,0,0,0,.134-.454l-.014-.024a3.033,3.033,0,0,0-.512-.488,2.96,2.96,0,0,0-.417-.428,2.417,2.417,0,0,0-.582-.171,2.72,2.72,0,0,1-.686-.379c-.377-.249-.819-.086-1.246-.094a.647.647,0,0,0-.575.194,2.069,2.069,0,0,0-.29.69A1.749,1.749,0,0,0,240.7,45.287Zm1.953-9.345.007,0c.49-.055.9-.37,1.393-.412a.97.97,0,0,1,.575.167.589.589,0,0,0,.5.087,1.435,1.435,0,0,0,.44-.373,8.83,8.83,0,0,1,.669-.752,1.782,1.782,0,0,0,.576-.7,1.456,1.456,0,0,0,.021-1.2c-.187-.275-.492.047-.688.145-.314.157-.637.014-.955.112-.374.115-.453.559-.74.78-.323.246-.719-.04-1.033-.158a.636.636,0,0,0-.789.191,1.727,1.727,0,0,0-.271.591c-.042.134-.1.421-.276.442-.13.016-.291-.115-.427-.129-.153-.016-.33.018-.355.2a.837.837,0,0,0,.22.55A1.114,1.114,0,0,0,242.653,35.942Zm3.477-6.563h0l.007,0a.217.217,0,1,0-.187-.243l0,.028A.2.2,0,0,0,246.13,29.379ZM270.046,36.1l.007,0a.217.217,0,1,0-.242-.216A.231.231,0,0,0,270.046,36.1Zm-23.185-15,0,0a.19.19,0,1,0-.177-.2v.014A.182.182,0,0,0,246.861,21.1Zm-27.15,35.2h0l0,0a.14.14,0,1,0-.126-.152v.013A.133.133,0,0,0,219.711,56.3ZM196.157,40.958l.007,0c.17,0,.307-.058.307-.13s-.137-.13-.307-.13-.306.058-.306.13S195.989,40.958,196.157,40.958Zm-.306-1.1,0,0c0-.053-.015-.1-.033-.1s-.033.044-.033.1.015.1.033.1S195.851,39.909,195.851,39.855Zm.284,5.019a.151.151,0,0,0,.159-.13h0a.168.168,0,1,0-.2.126A.172.172,0,0,0,196.135,44.874Zm.11-4.582h0a.1.1,0,1,0-.114-.1A.106.106,0,0,0,196.245,40.292Zm-.506,4.967a.15.15,0,0,0,.3-.032.168.168,0,0,0-.184-.15h0l0,0A.151.151,0,0,0,195.739,45.259Zm1.25-.567c0,.1.108.182.242.182s.241-.081.241-.182a.218.218,0,0,0-.241-.183C197.089,44.509,196.989,44.591,196.989,44.692Zm.091-3.59.008,0a.144.144,0,1,0-.146-.144A.146.146,0,0,0,197.08,41.1Zm-.721,2.921.008,0c0,.1.129.179.287.179s.288-.08.288-.179-.129-.18-.288-.18S196.359,43.924,196.359,44.023Zm-6.529,1.054h0a.107.107,0,0,0,.01.214.107.107,0,1,0-.009-.214Zm8.266,1.377.008,0a.332.332,0,1,0-.008,0Zm-8.747-.683c0,.044.07.079.157.079s.157-.035.157-.079-.07-.078-.157-.078S189.349,45.732,189.349,45.771Zm.476-.694h0l0,0Zm5.718-4.536,0,0a.124.124,0,1,0-.124-.124A.125.125,0,0,0,195.547,40.544Zm-5.718,6.333c0,.075.025.137.056.137s.056-.061.056-.137-.025-.132-.056-.132v0C189.85,46.738,189.825,46.8,189.825,46.874Zm-.965-5.941,0,0c-.193.229-.431.466-.047.642a1.541,1.541,0,0,0,.971.08,1.747,1.747,0,0,0,.874-.35,1.738,1.738,0,0,1,.383-.327,6.04,6.04,0,0,1,.834-.235,14.075,14.075,0,0,1,1.762-.447,1.155,1.155,0,0,0,.859-.359,3.407,3.407,0,0,0,.393-1.107c.085-.35.071-.636-.285-.805-.21-.1-.7-.115-.784-.372-.1-.321.169-.652-.1-.958-.316-.358-.81-.07-1.143.091-.13.063-.18.083-.221-.063a4.252,4.252,0,0,1-.033-.731c-.03-.322-.151-.988-.58-.62-.256.219-.4.487-.764.317-.094-.043-.227-.15-.337-.1-.132.056-.134.273-.14.39a7.187,7.187,0,0,1,.011,1.078c-.066.332-.107.648-.141.987a.817.817,0,0,1-.6.8.82.82,0,0,0-.585.872A1.745,1.745,0,0,1,188.86,40.933Zm1.795,2.638,0,.008a.118.118,0,1,0,.117-.124A.121.121,0,0,0,190.655,43.571Zm24.777,16.115,0,0a.128.128,0,1,0-.03-.254.127.127,0,0,0-.113.126A.137.137,0,0,0,215.432,59.686Zm-5.931-2.8,0,.005c.11,0,.2-.139.2-.309s-.089-.309-.2-.309-.2.138-.2.309S209.389,56.885,209.5,56.885Zm-3.617-.637c-.238.047-.449.257-.7.2-.2-.048-.437-.292-.642-.123s-.045.431.072.6c.142.206-.089.384-.219.53-.038.044-.131.129-.1.2s.18.1.246.108a1.506,1.506,0,0,1,.328.03c.052.015.1.037.156.056a.947.947,0,0,1,.219.158,2.26,2.26,0,0,0,.206.159.817.817,0,0,0,.3.066.5.5,0,0,0,.519-.259,5.741,5.741,0,0,0,.373-.723.6.6,0,0,0-.08-.68.74.74,0,0,0-.673-.322Zm-1.541-8.527h0Zm10.5,12.45,0,.008c.1,0,.189-.059.189-.13s-.085-.131-.189-.131-.19.059-.19.131S214.74,60.171,214.845,60.171Zm-10.5-12.45Zm11.019,12.65,0,.009c0,.036.058.066.13.066s.131-.03.131-.066-.059-.067-.131-.067S215.36,60.338,215.36,60.371Zm.614-.138,0,0a.188.188,0,1,0-.161-.211.11.11,0,0,0,0,.026A.174.174,0,0,0,215.974,60.233ZM203.331,47.471l0,0c.173,0,.313-.087.313-.2s-.14-.2-.313-.2-.314.087-.314.2S203.157,47.471,203.331,47.471Zm-4.665-1.611a.124.124,0,0,0-.14.1l0,0a.143.143,0,0,0,.094.178.142.142,0,0,0,.084-.272A.138.138,0,0,0,198.666,45.86ZM198.51,44.4l0,0a.211.211,0,1,0-.145-.261.209.209,0,0,0-.008.061A.175.175,0,0,0,198.51,44.4Zm-.1.766.007,0a.1.1,0,1,0-.117-.1A.109.109,0,0,0,198.409,45.171Zm-.183.526.008,0a.124.124,0,1,0-.13-.124A.128.128,0,0,0,198.226,45.7Zm6.115,2.024a.125.125,0,1,0-.137-.124A.131.131,0,0,0,204.341,47.721Zm-1.933-1.5a.079.079,0,1,0-.092-.078.085.085,0,0,0,.088.074Zm.422.493a.1.1,0,0,0,.054,0v-.009a.124.124,0,0,0,.137-.1c0-.058-.061-.1-.137-.1a.108.108,0,1,0-.054.209Zm-17.812-.024c-.362,0-.656.1-.656.232s.294.231.656.231.657-.1.657-.227v0C185.674,46.8,185.38,46.692,185.018,46.692Zm73.348,45.944a.717.717,0,0,0,.1-.4.659.659,0,0,0-.134-.469.706.706,0,0,0-.436-.234,3.742,3.742,0,0,0-.8-.033h-.872v1.41h.838v0c.537,0,.876-.034,1.009-.036A.53.53,0,0,0,258.366,92.636Zm-48.977,62.075c-.191.121-1.29.793-.95,1.069s.957-.38,1.139-.612c.087-.111.345-.383.172-.521C209.643,154.56,209.484,154.652,209.389,154.711ZM153.612,58.333c.171.546.718-.3.814-.488.123-.256-.1-.461-.361-.345l0,.005A.679.679,0,0,0,153.612,58.333ZM318.9,144.416a10.331,10.331,0,0,0-.714-.927c-.125-.179-.617-1-.909-.746-.2.173,0,.879-.035,1.134-.8-.019-1.376-.918-2.019-1.314-.712-.44-1.583-.634-2.266-1.12-.7-.5-.73-1.29-1.012-2.038a3.3,3.3,0,0,0-.541-.961,1.42,1.42,0,0,1-.3-.982,4.874,4.874,0,0,0-.477-1.666c-.2-.446-.552-.854-.213-1.322a2.276,2.276,0,0,1,1.881-.924,5.383,5.383,0,0,1,1.276.169c.258.055,1.17.37,1.3-.008.109-.311-.359-.787-.61-.889-.364-.146-.777.006-1.149-.135s-.6-.488-.937-.678a1.921,1.921,0,0,0-.56-.19c-.135-.026-.374-.006-.486-.088-.217-.158-.222-.6-.4-.82a5.028,5.028,0,0,0-.729-.677c-.153-.123-.28-.28-.44-.393a6.186,6.186,0,0,0-.588-.292,5.626,5.626,0,0,1-1-.821c-.268-.253-.476-.552-.757-.8-.3-.258-.571-.366-.775-.718-.15-.261-.306-.847-.688-.763-.254.056-.447.521-.727.3s-.221-.8-.416-1.086c-.237-.345-.916-.543-1.291-.692a3.97,3.97,0,0,1-.754-.272c-.225-.152-.209-.377-.257-.618a.8.8,0,0,0-.362-.567c-.2-.124-.463-.17-.6-.383-.1-.159-.134-.49.063-.6.153-.081.437.035.607.03a.956.956,0,0,0-.185-.57c-.084-.165-.123-.348-.206-.51-.292-.577-1.007-.592-1.553-.683-.307-.051-.885-.119-1.008-.471-.111-.316.23-.474.341-.715.13-.284-.186-.377-.411-.482a10.38,10.38,0,0,1-1.08-.543,6.516,6.516,0,0,1-1-.892c-.3-.278-.252-.64-.46-.979a.941.941,0,0,0-1.133-.268c-.177.14-.072.407-.1.606-.192.035-.53-.236-.69-.061-.263.292.8.785.964.866a3.771,3.771,0,0,1,.885.446,1.628,1.628,0,0,1,.4.838,2.67,2.67,0,0,1,.264,1.152c-.05.291-.419.585-.673.291-.089-.1-.151-.277-.314-.228-.291.087-.353.564-.3.805a1.378,1.378,0,0,0,.289.536c.133.186.192.417.337.6a1.567,1.567,0,0,0,.586.387c.518.245.6.744.745,1.241.164.578.525,1.084.685,1.663a1.245,1.245,0,0,0,.337.635.908.908,0,0,1,.365.529,1.235,1.235,0,0,0,.347.685c.246.229.447.12.761.148-.006.213-.059.572.065.746a1.106,1.106,0,0,0,.67.323c.6.132,1.342-.068,1.727.488a2.012,2.012,0,0,1,.326.759,1.775,1.775,0,0,0,.393.7,5.333,5.333,0,0,1,.4.773c.144.264.331.515.5.763.212.312.442.6.641.919a4.988,4.988,0,0,0,.658.764,3.136,3.136,0,0,1,.571.809,3.857,3.857,0,0,0,.681.866,2.784,2.784,0,0,1,.661,1.2,2.839,2.839,0,0,0,.453,1.129c.243.3.482.61.713.922a2.977,2.977,0,0,0,.995.742,2.579,2.579,0,0,1,1.049,1.129c.133.261.33.471.474.723a3.273,3.273,0,0,1,.271.728,2.529,2.529,0,0,0,.746,1.186c.381.369.7.839,1.053,1.238a1.641,1.641,0,0,1,.348.952,12.105,12.105,0,0,0,.289,1.462,1.654,1.654,0,0,0,.368.733,16.874,16.874,0,0,0,1.423,1.073c.228.192.872.671.844.045-.026-.549-.514-.985-.567-1.529-.052-.529-.425-1.044-.207-1.592.106-.266.493-.322.741-.378a5.768,5.768,0,0,0,1.055-.457c.529-.228.749.035,1.028.471.159.248.657.9.6.2a2.942,2.942,0,0,0-.279-1.057ZM9.589,100.142c.273-.5-.308-.631-.666-.772a.786.786,0,0,1-.48-.4,5.329,5.329,0,0,0-.176-.536c-.2-.34-.684-.32-.57-.819A6.514,6.514,0,0,0,7.918,97a2.181,2.181,0,0,1,.236-.847,9.518,9.518,0,0,0,.492-.952c.071-.16.859-1.336.243-1.225-.266.048-.474.353-.618.557a3.271,3.271,0,0,0-.468.881c-.1.319-.114.658-.221.974a3.834,3.834,0,0,1-.474.883c-.125.189-.323.577-.557.652-.258.082-.243-.364-.261-.523-.022-.2-.138-.511-.043-.7.114-.229.444-.3.65-.414.288-.156.331-.435.408-.73.09-.344.235-.651.354-.982a2.286,2.286,0,0,0,.039-.928,8.538,8.538,0,0,1-.01-1.049c.019-.345.026-.69.032-1.036,0-.193.053-.464-.1-.615-.2-.195-.6-.193-.855-.238-.379-.067-.348.227-.513.483a.759.759,0,0,1-.818.351,1.627,1.627,0,0,1-.789-.6,2.8,2.8,0,0,0-.819-.7c-.267-.131-.562-.193-.824-.339-.331-.184-.951-.936-1.273-.335-.165.308.049.609.276.811.2.177.666.391.663.7,0,.29-.368.481-.511.7-.164.251,0,.416.142.629a.929.929,0,0,1-.466,1.374c-.493.17-1.025-.1-1.43.346a1.707,1.707,0,0,0-.379.635.6.6,0,0,0,.2.588,2.055,2.055,0,0,1,.4.683,1.207,1.207,0,0,0,.618.767c.172.091.359.148.525.245a2.16,2.16,0,0,0,.868.285,1.85,1.85,0,0,1,1.026.484c.272.224.586.392.869.6.137.1.226.228.4.239a3.558,3.558,0,0,0,.652-.046c.2-.023.5-.088.672.054.4.316-.045,1.048.166,1.454.094.181.3.228.478.3a2.826,2.826,0,0,1,.638.355,1.021,1.021,0,0,0,1.231.169A2.378,2.378,0,0,0,9.589,100.142Zm100.1-46.9h0a.157.157,0,1,0-.174-.156A.165.165,0,0,0,109.689,53.238ZM296.673,87.329a.353.353,0,1,0-.339-.367v.014a.346.346,0,0,0,.337.352Zm34.707,13.283a3.12,3.12,0,0,1-.367-.626,2.512,2.512,0,0,0-.621-.721,2.434,2.434,0,0,0-.69-.413,1.637,1.637,0,0,1-.743-.3,3.933,3.933,0,0,1-.406-.609,1.369,1.369,0,0,0-.724-.45c-.261-.072-.537-.088-.8-.175a3.23,3.23,0,0,1-.927-.651,5.948,5.948,0,0,0-1-.726c-.375-.2-.729-.366-1.091-.594a5.12,5.12,0,0,1-.586-.545c-.194-.17-.428-.228-.606-.376-.272-.224-.462-.592-.717-.842a2.81,2.81,0,0,0-.845-.59c-.445-.192-.915-.277-1.355-.5a2.932,2.932,0,0,1-.622-.4c-.361-.315-.637-.745-.989-1.08-.567-.539-.941-1.271-1.637-1.67a6.535,6.535,0,0,1-.862-.47,1.081,1.081,0,0,1-.194-.2c-.225-.3-.277-.689-.492-1a17.081,17.081,0,0,0-1.314-1.806c-.277-.3-.229-.589-.236-.976a2.8,2.8,0,0,0-.325-.991c-.119-.323.017-.638-.044-.965s-.32-.53-.417-.832c-.1-.318-.047-.692-.374-.887s-.727-.061-1.019-.3a.855.855,0,0,1-.263-.9c.158-.293.6-.287.807-.553.234-.31.052-.685.12-1.033.072-.364.391-.614.494-.97a2.514,2.514,0,0,0-.03-1c-.056-.453-.15-.895-.244-1.339a5.9,5.9,0,0,1-.061-1.188,2.246,2.246,0,0,0-.15-1.045,5.3,5.3,0,0,0-1.147-1.212c-.55-.547-.376-1.131-.345-1.815s-.075-1.369-.107-2.049c-.016-.327.025-.661.005-.985a5.5,5.5,0,0,0-.688-2.029c-.131-.237-.378-.353-.48-.6a3.04,3.04,0,0,1-.182-1.689,4.722,4.722,0,0,1,.524-2.093c.189-.3.439-.693.289-1.056a.794.794,0,0,0-.846-.391c0-.122.01-.242.017-.363.025-.51,0-.793-.489-1.018a3.077,3.077,0,0,1-.973-.779,2.148,2.148,0,0,0-1.076-.537c-.5-.151-.724-.636-.95-1.077a3.083,3.083,0,0,1-.323-1.521c.016-.513.5-.755.562-1.242.08-.617-.45-.129-.732-.081-.522.088-.765-.1-.95.531a2.853,2.853,0,0,1-.554,1.3c-.143.152-.389.276-.4.508a1.248,1.248,0,0,0,.643.912,1.089,1.089,0,0,1,.636.757,2.394,2.394,0,0,0,.539.885,1.04,1.04,0,0,0,.883.379c.22.009.717.1.833.317a.388.388,0,0,1-.478.534c-.247-.077-.536-.665-.739-.289a1.994,1.994,0,0,0-.109.832,2.535,2.535,0,0,0,.018.276,26.547,26.547,0,0,1,.149,2.748,3.2,3.2,0,0,0,.852,1.768c.285.417.03.938-.124,1.362-.1.276-.249,1.12-.688.567-.178-.222-.034-.542-.22-.764-.518-.622-.6.9-1.139.2-.2-.269-.2-.382-.525-.5a.6.6,0,0,1-.479-.628c-.018-.3.033-.632-.239-.844-.229-.177-.559-.116-.768-.33-.155-.157-.191-.71-.419-.762-.3-.07-.253.457-.229.618.08.563.367,1.6-.6,1.189-.3-.127-.538-.323-.861-.13-.293.175-.277.4-.307.7s-.161.577-.185.883c-.048.61-.735.631-1.015,1.077-.343.551-.058,1.241-.408,1.763-.145.216-.457.408-.458.695,0,.268.276.477.45.642a1.724,1.724,0,0,1,.51.67,3.474,3.474,0,0,1,.017,1.048,1.435,1.435,0,0,0,.369.833,1.668,1.668,0,0,1,.234,1.032,13.536,13.536,0,0,0,.1,2.195,5.358,5.358,0,0,0,.365,2.023,3.409,3.409,0,0,1,.438.632,5.128,5.128,0,0,1,.113.964c.087.6.28,1.09.965.825.391-.15.347-.373.479-.708.23-.572,1.18-.232,1.518.01s.783.318.338.752a4.088,4.088,0,0,1-.943.592c-.171.1-.306.2-.279.389.034.227.278.261,0,.441a3.647,3.647,0,0,1-.509.122,1.368,1.368,0,0,0-.978,1.6c.059.312.059,1.018-.3,1.184-.278.13-.4-.189-.573-.319-.322-.248-.426.037-.369.349.107.573.287,1.428-.4,1.718-.353.147-2.3.432-1.846-.429.191-.36.7-.437,1-.683a1.424,1.424,0,0,0,.5-.948c-.044-.367-.557-.3-.791-.149-.341.224-.5.775-.992.741-.4-.028-.584-.528-1.016-.418-.482.124-.429.6-.434.985-.006.535-.208.521-.582.249-.459-.335-.534.083-.887.345-.376.278-.839-.024-1.224.217-.342.213-.442.742-.6,1.088a.725.725,0,0,0-.125.454c.035.152.191.212.247.344.131.3-.333.561-.2.8.109.2.74.162.953.294-.14.226-.317.422-.475.637a.729.729,0,0,1-.888.217c-.465-.143-.517.122-.816.465-.119.135-.318.177-.4.322-.115.2.023.48-.193.644-.122.094-.3.045-.445.047a4.1,4.1,0,0,0-.832.125.952.952,0,0,0-.149.046,1.292,1.292,0,0,0-.739.747c-.078.314.339.684.422,1,.1.4-.074,1.03-.627.779-.353-.16-.364-.691-.58-.979-.363-.483-.787.133-1.1.374a7.062,7.062,0,0,0-.936,1.034,4.065,4.065,0,0,1-1.073.725,2.691,2.691,0,0,0-1.163,1.259,2.208,2.208,0,0,1-.514.6,5.253,5.253,0,0,0-.461.694,3.514,3.514,0,0,0-.357.769c-.1.268-.288.494-.376.765-.391,1.208.837,2.614.183,3.729-.158.27-.427.436-.6.689a.922.922,0,0,0-.047.778c.124.568.111,1.156.2,1.731a1.17,1.17,0,0,1,0,.735c-.1.215-.278.36-.333.6a2.888,2.888,0,0,0,0,.777,2.162,2.162,0,0,1-.348.988c-.138.3-.019.632-.152.934-.117.268-.285.4-.3.708a2.205,2.205,0,0,1-.138,1.042c-.2.391-.051.485.09.877s-.117.452-.222.779a3.107,3.107,0,0,0,0,1.113c.045.348.3.631.258.992-.037.306-.122.608-.153.914a4.832,4.832,0,0,1-.015.722,4.552,4.552,0,0,1-.227.51,2.921,2.921,0,0,0-.572,1.261,2.165,2.165,0,0,1-.083.812c-.112.258-.365.3-.42.61-.119.675.472,1.4.07,2.051-.415.672-1.2.7-1.249,1.617-.029.536-.465,1.483.361,1.62.335.056.564-.368.862-.293.138.035.2.213.352.256.551.157.83-.445,1.2-.676a4.121,4.121,0,0,1,.679-.206c.25-.1.357-.339.576-.473.6-.367.551.616.656.933.094.287.331.387.554.561a.946.946,0,0,1,.38.8c.014.254-.012.394.265.443a.932.932,0,0,0,.72-.214c.338-.391-.362-.778-.509-1.114a1.044,1.044,0,0,1,.3-1.367c.177-.124.481-.225.658-.04.209.221-.022.473-.141.669s-.237.423.013.571.5-.113.706-.225c.723-.393.15.524.317.841.142.267.311.3.1.607-.106.153-.543.5-.307.7s.567-.213.716-.327c.211-.162.58-.193.753-.373s.055-.492.114-.725a3.385,3.385,0,0,1,.322-.58c.055-.118.144-.6.327-.59s.181.459.258.577c.35.546.577-.458.495-.753a2.487,2.487,0,0,0-.867-1.169c-.3-.27-.861-.977-.227-1.2.508-.176.967.125,1.413-.309.4-.387.655-.623,1.254-.536.244.037.5-.011.739.029.218.038.335.209.541.271.225.069.471-.092.668-.026.11.036.231.224.313.3a3.138,3.138,0,0,0,.643.528c.222.107.28.02.508-.041.464-.125.828.16,1.277.177.374.015.8-.021,1,.407.207.459-.156.808.5.919,1.118.19.127,1.474.927,1.943.3.175.707.071,1.023.249.368.207.127.61.5.8.2.1.324.027.35.309.014.165-.089.262-.128.4-.069.249.02.3.122.494a1.787,1.787,0,0,1,0,1.147c-.076.272-.436.585-.249.892.122.2.428.148.534.372s-.075.409-.146.578a1.42,1.42,0,0,0,.287,1.36c.271.353.438.749.676,1.131.256.408.329.948.678,1.294a3.413,3.413,0,0,0,.657.647c.243.141.406.164.5.451s.174.6.28.9a1.7,1.7,0,0,0,.324.754c.23.217.51.284.659.591.134.276.12.6.259.872.171.339.481.588.658.927a3.077,3.077,0,0,1,.215.983,3.224,3.224,0,0,0,.281.714,4.618,4.618,0,0,1,.087,2.17c-.058.435-.079.866-.151,1.3a3.789,3.789,0,0,0-.059,1.54,8.006,8.006,0,0,0,.353.826,2.373,2.373,0,0,1,.1.381,4.2,4.2,0,0,1-.3,2.386c-.3.658.013,1.1.127,1.752a10.547,10.547,0,0,1,.234,2.019c-.014.737-.058,1.474-.1,2.209-.038.647-.076,1.291-.1,1.939a12.87,12.87,0,0,1-.22,2.7c-.182.724-.591,1.394-.81,2.111a2.226,2.226,0,0,0,.206,1.574c.23.661-.071.749-.518,1.152-.431.389-.136.881-.078,1.361a12.352,12.352,0,0,1-.107,2.233,7.6,7.6,0,0,1-.731,2.46,14.489,14.489,0,0,1-.856,2.28,3.24,3.24,0,0,1-1.521,1.187,1.268,1.268,0,0,0-.787.746,2.271,2.271,0,0,1-.4.831c-.411.437-1.13-.087-1.666.287-.264.185-.51.434-.847.4a.968.968,0,0,1-.865-.669c-.159-.336-.2-.873-.649-.412-.183.185-.228.362-.523.384-.209.017-.438-.039-.653-.027-.061.5.162.829-.2,1.232-.31.346-.141.928-.22,1.392-.067.392-.044.759-.076,1.146-.038.465-.449.41-.818.427-.591.026-.538.25-.673.724a5.349,5.349,0,0,0-1.057-.486,2.179,2.179,0,0,1-.638-.142c-.454-.266-.2-.9.149-1.138.392-.275.93-.1,1.354-.3a1.1,1.1,0,0,0,.419-1.5c-.013-.023-.027-.045-.041-.067-.4-.8-.6-1.669-.986-2.483-.211-.448-.315-.934-.559-1.37-.268-.474-.675-.844-.946-1.313a8.019,8.019,0,0,0-.589-.973,1.045,1.045,0,0,1-.189-.817.866.866,0,0,1,.288-.7c.225-.2.443-.326.5-.642.087-.485.012-1.092.348-1.512.255-.317.556-.189.9-.194.377-.006.506-.261.732-.519a1.3,1.3,0,0,1,.817-.5c.5-.007.518.569.8.84.241.235.307,0,.306-.258a6.039,6.039,0,0,1,.026-1.05,1.913,1.913,0,0,1,.251-.533,2.124,2.124,0,0,0-.273-1.712,1.858,1.858,0,0,1-.014-1.516,1.937,1.937,0,0,0,.147-1.516,15.651,15.651,0,0,1-.759-1.591.111.111,0,0,0-.009-.031,10.355,10.355,0,0,0-.263-1.452c-.187-.45-.56-.8-.606-1.3a4.326,4.326,0,0,1,.522-1.68c.191-.6-.154-.934-.528-1.361a2.625,2.625,0,0,1-.707-1.9,5.22,5.22,0,0,0,.055-.8c-.023-.2-.108-.343-.332-.323-.6.051-1.251.886-1.553,1.33-.324.475-.437,1.046-.75,1.519a7.125,7.125,0,0,1-1.366,1.229,3.368,3.368,0,0,0-1.027,1.608,2.22,2.22,0,0,1-.79,1.337c-.493.343-1.1.462-1.612.763a1.972,1.972,0,0,0-.845,1.107c-.457-.271-.613-.809-1.2-.875-.315-.034-.661.072-.878-.217-.229-.309-.051-.728-.234-1.065-.138-.256-.422-.38-.61-.6a5.346,5.346,0,0,1-.657-.791,1.869,1.869,0,0,0-.356-.547.693.693,0,0,0-.239-.136,10.142,10.142,0,0,0-2.543-.186c-.583-.038-.764-.424-1.257-.634-.4-.171-.587-.017-.89.212-.465.352-.785.211-1.22-.013a.783.783,0,0,0-.89.119c-.306.207-.607.617-1,.56-.326-.049-.579-.3-.9-.369a4.271,4.271,0,0,1-2.284-1.062,2.783,2.783,0,0,1-.978-1.686,1.051,1.051,0,0,0-.441-.753,1.071,1.071,0,0,0-.48-.274c-.35-.118-.515-.653-.593-.975-.106-.431-.132-.529-.6-.546-.728-.028-.674-.383-.935-.952a1.787,1.787,0,0,0-.4-.51,1.106,1.106,0,0,0-.263-.229c-.111-.06-.3-.058-.392-.134-.437-.355.049-1.137-.58-1.468-.19-.1-.427,0-.628-.1-.371-.184-.383-.727-.666-1a1.637,1.637,0,0,0-.74-.329c-.632-.187-.772-.791-1.3-1.119s-1.253-.062-1.848-.246c-.247-.078-.551-.256-.818-.184-.242.066-.343.31-.52.463-.547.474-1.383-.018-1.954-.214a3.182,3.182,0,0,0-1.892-.248c-.645.216-.753,1.034-1.375,1.254-.582.206-1.189-.089-1.763.23l-.152.091a8.7,8.7,0,0,0-1.153,1.025A24.1,24.1,0,0,1,245,148c-.568.357-1.247.907-.914,1.664.263.593,1.078.793,1.509,1.25a3.373,3.373,0,0,1,.734,2.613,16.527,16.527,0,0,1-1,2.781,11.332,11.332,0,0,0-.557,3.009,5.713,5.713,0,0,0,.139,1.469,4.9,4.9,0,0,0,.522,1,1.784,1.784,0,0,1-.584,2.361c-.61.437-1.539.586-1.945,1.265-.182.307-.159.7-.368.994a1.07,1.07,0,0,1-1.01.331,2.726,2.726,0,0,1-.914-.342c-.624-.309-1.3-.433-1.926-.686a3.1,3.1,0,0,0-1.862-.274,1.366,1.366,0,0,0-.791.579,1.431,1.431,0,0,1-1.218.424c-.864-.017-1.3-.646-2-1.011a2.488,2.488,0,0,0-2.087.045,2.017,2.017,0,0,0-.919.586,1.716,1.716,0,0,1-1.014.746c-.816.223-.737,1-.9,1.673a2.158,2.158,0,0,1-1.013,1.541,3.51,3.51,0,0,1-2.086.248c-.77-.045-1.165.459-1.637.991a6.7,6.7,0,0,1-.774.713,2.094,2.094,0,0,1-2.045.323c-.3-.127-.5-.312-.844-.225-.249.062-.424.271-.644.335a1.151,1.151,0,0,1-.781-.238,2.579,2.579,0,0,0-1.709-.145,3.648,3.648,0,0,1-1.774-.034,4.518,4.518,0,0,1-1.824-1.089c-.28-.374-.5-.7-.926-.78a1.133,1.133,0,0,0-.313-.014c-.265.02-.438.185-.693.231a1.4,1.4,0,0,1-.907-.155,2.3,2.3,0,0,1-1.039-1.033,1.374,1.374,0,0,0-1.066-.827c-.489-.093-.991.036-1.492-.03a9.354,9.354,0,0,0-1.241.053,5.482,5.482,0,0,0-2.327.653c-.274.128-.451.347-.705.482-.314.167-.7.045-1.021.212a3.813,3.813,0,0,1-.364.253c-.171.066-.251.006-.42-.02-.291-.043-.585.06-.87.008a2.134,2.134,0,0,1-.753-.48,2.612,2.612,0,0,0-1.226-.318c-.377-.071-.6-.452-.79-.764a6.943,6.943,0,0,1-.93-1.8c-.171-.678.014-1.587-.545-2.107s-1.419-.5-2.106-.7a13.4,13.4,0,0,0-2.13-.812c-.305-.035-.6.059-.9.038a1.439,1.439,0,0,1-.844-.434,2.307,2.307,0,0,0-1-.586,7.946,7.946,0,0,1-1.021-.121c-.317-.115-.884-.993-1.272-.95a.229.229,0,0,0-.126.053c-.2.162-.195.7-.281.927a1.94,1.94,0,0,1-.719.9,8.175,8.175,0,0,0-1.355,1.247,1.84,1.84,0,0,0-.288,1.451,6.539,6.539,0,0,0,.083,1.479c.152.555.62.957.729,1.52.1.514.061,1.456-.415,1.8a3.593,3.593,0,0,1-.656.251,2.551,2.551,0,0,0-.792.622c-.417.446-.8.973-1.479.817-.413-.094-.745-.382-1.147-.485a13.908,13.908,0,0,1-1.525-.15,3.282,3.282,0,0,1-.841-.5.877.877,0,0,0-.6-.241c-.246.02-.479.142-.726.175a2.266,2.266,0,0,1-1.775-.495c-.279-.284-.512-.611-.8-.882-.156-.142-.344-.236-.489-.392a2.1,2.1,0,0,1-.356-.644,2.662,2.662,0,0,0-.495-.777,1.375,1.375,0,0,0-.519-.261,3.219,3.219,0,0,0-1.775-.072,4.2,4.2,0,0,1-.95.042,1.674,1.674,0,0,0-.9.306c-.162.088-.427.184-.515-.048-.057-.153.05-.4.091-.551.055-.193.228-.48.175-.682-.061-.238-.357-.216-.548-.178-.3.058-.573.165-.874.208a5.18,5.18,0,0,0-.774.115c-.481.144-.946.33-1.419.5a3.143,3.143,0,0,1-1.238.353,1.2,1.2,0,0,0-.615.013,2.944,2.944,0,0,0-.5.3c-.217.154-.478.253-.682.415a1.617,1.617,0,0,1-1.131.5,5.764,5.764,0,0,1-.84-.076,1.693,1.693,0,0,0-.593-.048.406.406,0,0,0-.15.063c-.285.192-.335.739-.428,1.029a1.089,1.089,0,0,1-.709.781,1.977,1.977,0,0,1-.777.045,3.8,3.8,0,0,0-.691.036,12.236,12.236,0,0,0-1.5.218,6.109,6.109,0,0,0-.722.157c-.182.073-.343.2-.528.259a3.716,3.716,0,0,1-1.264.287c-.242-.028-.566-.129-.635-.384-.075-.283-.06-.41-.364-.415-.394-.007-.585-.566-.733-.888a2.091,2.091,0,0,0-.928-1.076c-.469-.267-1.038,0-1.529.059a5.422,5.422,0,0,1-.969.069,2.846,2.846,0,0,1-.694-.207,1.368,1.368,0,0,1-.859-.472,2.113,2.113,0,0,1-.307-1.175,3.493,3.493,0,0,0-.132-1.155,1.166,1.166,0,0,0-.615-.717,7.3,7.3,0,0,0-1.06-.628c-.357-.144-.6-.344-.47-.747a4.561,4.561,0,0,1,.3-.889c.167-.3.072-.392-.047-.687-.038-.094-.072-.18-.109-.26a1.617,1.617,0,0,0-.327-.479,6.2,6.2,0,0,0-.973-.78c-.312-.213-.695-.221-1.016-.421-.2-.129-.465-.334-.649-.06-.072.106-.087.208-.239.161-.127-.041-.221-.178-.317-.261-.323.213-.4.637-.765.8-.4.177-.854-.075-1.245-.163a10.961,10.961,0,0,1-1.2-.123,1.4,1.4,0,0,1-.693-.71,2.54,2.54,0,0,1-.1-.671c-.07-.345-.328-.515-.522-.781s-.057-.6-.127-.9c-.11-.487-.638-.61-1.076-.575s-.641.2-.573.635c.059.373.178.893-.176,1.164-.281.215-.7.118-1.011.264-.178.084-.481.449-.643.222a1.283,1.283,0,0,1-.074-.607c-.007-.284,0-.568-.013-.851-.024-.621-.12-1.237-.159-1.855s-.012-1.211-.027-1.818a10.093,10.093,0,0,0-.188-1.459c-.122-.711-.273-1.419-.4-2.128q-.1-.528-.166-1.06a3.051,3.051,0,0,0-.133-.93c-.074-.158-.214-.274-.288-.431a1.734,1.734,0,0,1-.1-.588,5.9,5.9,0,0,0-.2-.977c-.077-.285-.166-.565-.265-.842-.063-.176-.131-.352-.2-.527a3.355,3.355,0,0,0-.7-.993,3.78,3.78,0,0,1-.454-1c-.133-.281-.369-.478-.5-.751a1.072,1.072,0,0,1,.033-1.036c.18-.284.339-.238.579-.071.294.208.447.173.654-.119a3.539,3.539,0,0,0,.628-1.085,3.53,3.53,0,0,0-.58.067,6.14,6.14,0,0,1-.81.1c-.411-.021-.7-.2-1.113-.017a1.563,1.563,0,0,1-1.069.222.767.767,0,0,0-.248-.014,1.023,1.023,0,0,0-.649.392c-.135.152-.186.285-.4.3a1.09,1.09,0,0,1-.381-.038c-.277-.078-.315.058-.545.156s-.452-.141-.687-.145-.16.186-.321.258c-.182.082-.363-.163-.445-.289-.115-.179-.191-.289-.427-.3-.646-.041-.318.7-.75.852s-.68-.354-.772-.663c-.052-.177-.151-.492-.352-.56-.181-.06-.378.115-.53.192-.286.145-.882.2-.868-.278.011-.376.437-.612.694-.82.29-.234,1.157-.15,1.025-.7-.124-.513-.683-.363-1.055-.449a2.348,2.348,0,0,1-.524-.165,1.244,1.244,0,0,1-.47-.652c-.079-.2-.178-.471-.431-.294-.173.121-.467.625-.74.321-.2-.218.31-.613.357-.845a1.406,1.406,0,0,0-.182-.923c-.062-.086-.2-.227-.318-.15s-.04.264-.041.365c0,.363-.4.343-.671.232-.3-.122-.479-.389-.809-.464a3.7,3.7,0,0,1-.993-.2c-.523-.287.162-1.375.427-1.622s.68-.279.716-.691a3.423,3.423,0,0,0-.249-1.147c-.159-.6.3-1.007.294-1.585-.007-.465-.355-.586-.75-.619-.276-.024-.574,0-.8-.024a1.754,1.754,0,0,1-.778-.26,2.2,2.2,0,0,1-.56-.8.877.877,0,0,0-.712-.5c-.123,0-.24.046-.363.036a1.535,1.535,0,0,1-.53-.184,1.085,1.085,0,0,0-.707-.157c-.21.041-.4.137-.61.189s-.353-.077-.555-.073-.257.155-.384.267a.309.309,0,0,1-.289.061,5.636,5.636,0,0,0-.627-.1c-.165,0-.317.047-.485.041a5.151,5.151,0,0,1-1.344-.224c-.732-.228-1.442-.53-2.174-.769a4.729,4.729,0,0,1-.976-.446,1.4,1.4,0,0,0-.961-.168c-.315.037-.586.206-.888.261a2.365,2.365,0,0,1-.809.034,3.875,3.875,0,0,1-.888-.208,1.556,1.556,0,0,1-.341-.2,1.183,1.183,0,0,0-.639-.177,3.61,3.61,0,0,0-.958-.136c-.265.032-.4-.1-.506-.336a.682.682,0,0,0-.464-.418c-.167-.056-.329-.115-.492-.173-.127-.045-.254-.088-.386-.128a4.052,4.052,0,0,1-.862-.389,1.871,1.871,0,0,0-.786-.2c-.479-.065-1.094.143-1.485-.21a1.792,1.792,0,0,0-.643-.445c-.3-.1-.74-.032-.928-.336-.13-.214-.069-.9-.368-.961s-.416.5-.543.66-.4.138-.527.316c-.142.2-.005.416.093.593a2.015,2.015,0,0,1,.251.874c.016.389-.232.325-.537.353-.286.028-.478.131-.362.431a1.6,1.6,0,0,0,.377.646c.179.145.423.128.511.36.047.126.045.271.091.4.057.158.151.3.216.458.085.207.14.554-.122.666a.465.465,0,0,1-.546-.251c-.156-.356-.056-.714-.361-1.024-.244-.247-.466-.212-.777-.219-.354-.007-.7-.15-1.048-.154-.386,0-1.162-.141-1.353.307-.147.343.041.747.122,1.084s.207.757-.144.988a2.339,2.339,0,0,1-2.522-.2c-.208-.114-.367-.168-.455-.1-.066.047-.092.16-.071.365.058.561.2,1.11.249,1.672a5.011,5.011,0,0,0,.311,1.511c.2.472.521.883.717,1.354.277.667-.461,1.4-1.086,1.514a6.1,6.1,0,0,1-1.33-.05,1.6,1.6,0,0,1-1.126-.264c-.627-.59-.631-2.082-1.781-1.744-.329.1-.694.259-1,.024-.245-.185-.359-.5-.577-.717-.235-.231-.528-.383-.659-.7a3.03,3.03,0,0,1,.006-1.484c.051-.446.092-1-.312-1.305a1.571,1.571,0,0,0-1.03-.218,1.413,1.413,0,0,0-.431.092.941.941,0,0,1-.513-.008c-.3-.054-.535-.082-.644-.407-.078-.23-.219-.437-.306-.669a4.078,4.078,0,0,0-.162-.458,1,1,0,0,0-.707-.446,4.573,4.573,0,0,0-1.052-.041,11.222,11.222,0,0,1-1.478.05c-.3-.043-.608-.033-.9-.1a1.275,1.275,0,0,1-.749-.643,3.111,3.111,0,0,1-.326-2.131c.008-.215-.061-1.061-.469-.849-.211.111-.35.573-.424.778-.112.314-.147.747-.574.694a.692.692,0,0,1-.64-.453.971.971,0,0,1,.026-.713c.143-.248.365-.448.517-.688s.043-.506.047-.788c0-.3.119-.574.118-.872a6.608,6.608,0,0,0,.051-.911,1.852,1.852,0,0,0-.466-.845,3.724,3.724,0,0,0-.585-.494,1.317,1.317,0,0,0-.585-.356c-.416-.107-.543-.3-.566-.744a2.971,2.971,0,0,1,.349-1.2c.307-.912-.931-.888-1.492-.895-.162.1-.28.263-.469.308a.719.719,0,0,1-.695-.109c-.162-.174-.117-.4-.177-.615-.093-.341-.138-.7-.258-1.034a.6.6,0,0,0-.177-.288.537.537,0,0,0-.324-.079.605.605,0,0,1-.12-.014c-.235-.049-.365-.222-.586-.354a.992.992,0,0,0-.849-.048c-.22.085-.331.3-.536.395a1.44,1.44,0,0,1-1.329-.351,2.1,2.1,0,0,0-.9-.547c-.426-.1-.642.214-.9.489-.4.436-.982.187-1.432-.089-.519-.318-.95-.55-1.546-.242a.892.892,0,0,0-.493.452,3.277,3.277,0,0,0-.022.586,1.43,1.43,0,0,1-.693,1.262c-.146.083-.291.213-.442.28a1.073,1.073,0,0,1-.782-.135.509.509,0,0,1-.223-.426,5.42,5.42,0,0,1,.1-1.108c.047-.562.258-1.7-.236-2.14-.335-.3-.854-.066-1.186.113a.35.35,0,0,1-.033.017,2.838,2.838,0,0,1-1.693.447c-.426-.044-1.174-.45-1.577-.2-.483.292-.18,1.226-.192,1.665-.024.836-.8,1.052-1.462,1.318a6.577,6.577,0,0,0-.875.471,5.09,5.09,0,0,1-.585.308c-.462.2-1.247.414-.924,1.057.123.248.337.481.288.779-.058.352-.377.555-.625.771-.194.168-.576.316-.517.631a.834.834,0,0,0,.486.557,1.658,1.658,0,0,1,.613.362,2.643,2.643,0,0,1,.334.63c.189.376.633.388.719.808a1.82,1.82,0,0,1-.244,1.18,5.192,5.192,0,0,0-.4.838,7.254,7.254,0,0,0-.153.927,6.52,6.52,0,0,1-.086.8c-.033.139-.127.464-.282.507-.206.056-.507-.238-.716-.253-.261-.02-.325.21-.341.427a2.156,2.156,0,0,0,.527,1.3,5.338,5.338,0,0,0,.594.861.5.5,0,0,1,.213.43c0,.038-.066.055-.072.093s.023.1.016.115c-.091.187-.564.226-.757.262a.8.8,0,0,1-.806-.139c-.108-.116-.2-.253-.37-.165s-.158.178-.38.2a1.733,1.733,0,0,1-.986-.247,1.633,1.633,0,0,0-1.115-.363c-.555.1-.9-.371-1.433-.419a2.624,2.624,0,0,0-.621.113c-.16.02-.19-.042-.3-.154a1.04,1.04,0,0,0-.372-.245,1.5,1.5,0,0,0-.977.061,3.567,3.567,0,0,0-1.036.441,2.6,2.6,0,0,1-1.38.487c-.145.009-.289.011-.434.012-.238,0-.477,0-.714.013-.313.02-.829,0-1.062.253s-.042.557.063.81a2.471,2.471,0,0,1,.136.791,5.7,5.7,0,0,1,.078.761,3.894,3.894,0,0,1-.264.964,3.4,3.4,0,0,1-.233.669c-.171.272-.481.137-.749.153-.194.012-.59.291-.385.522a1.1,1.1,0,0,0,.764.116c.19-.05.391-.289.592-.266a.236.236,0,0,1,.186.278.24.24,0,0,1-.086.141c-.168.131-.4.043-.587.092a2.073,2.073,0,0,0-.658.427,1.666,1.666,0,0,0-.4.506,1.6,1.6,0,0,1-.444.6.725.725,0,0,1-.4.161c-.131,0-.253-.066-.385-.065-.288,0-.315.221-.316.46a.331.331,0,0,0,.1.3c.052.04.209.042.235.107.04.1-.191.212-.246.282a.6.6,0,0,0-.136.478,1.887,1.887,0,0,1-.181.69,2.821,2.821,0,0,0-.07.809,6.035,6.035,0,0,1-.116,1.279c-.084.389-.1.787-.2,1.179a3.807,3.807,0,0,0-.033.4c-.024.171-.081.345-.109.517-.031.188-.024.385-.05.576a4.507,4.507,0,0,1-.621-.119c-.307-.054-.621-.053-.93-.093-.7-.092-1.4-.026-2.1-.082a1.431,1.431,0,0,1-1.245-.954,4.8,4.8,0,0,1-.117-1.12,6.752,6.752,0,0,1-.065-.953,11.012,11.012,0,0,0-.054-1.684c-.024-.219.006-.438-.038-.652a4.342,4.342,0,0,0-.241-.739,3.15,3.15,0,0,0-.673-1.268.9.9,0,0,1-.1-.948c.123-.323.391-.53.485-.863a3.448,3.448,0,0,0,.09-.4,1.983,1.983,0,0,0,.012-.661,2.491,2.491,0,0,0-.138-.609,2.549,2.549,0,0,0-.216-.359,3.359,3.359,0,0,1-.282-.447c-.121-.251-.157-.532-.26-.791-.034-.088-.071-.194-.112-.3a1.372,1.372,0,0,0-.2-.383c-.1-.124-.3-.121-.445-.177a2.806,2.806,0,0,0-.539-.145,1.412,1.412,0,0,1-.982-.571,4.425,4.425,0,0,1-.549-1.242c-.124-.416-.118-.855-.237-1.27,0-.015-.008-.03-.013-.044a8.325,8.325,0,0,1-.123-.916,6.069,6.069,0,0,1-.123-.623c-.015-.147.024-.285.02-.429a2.375,2.375,0,0,0-.266-1,3.505,3.505,0,0,0-.348-.49c-.092-.113-.187-.224-.279-.331a8.623,8.623,0,0,1-.636-.886,3.8,3.8,0,0,0-.507-.656,1.95,1.95,0,0,1-.322-.463,4.369,4.369,0,0,1-.428-1.125,11.009,11.009,0,0,0-.446-1.782c-.019-.048-.041-.094-.065-.143-.092-.189-.212-.375-.315-.553a2.511,2.511,0,0,0-.52-.64,2.96,2.96,0,0,1-.55-.568c-.128-.194-.256-.387-.392-.577a.648.648,0,0,1-.131-.2.922.922,0,0,1-.023-.318c.009-.057.035-.11.043-.167.019-.141-.035-.274-.028-.412a3.372,3.372,0,0,1,.067-.4c.021-.117.056-.232.077-.352a5.053,5.053,0,0,0,.1-.735,4.728,4.728,0,0,0-.008-.988c-.089-.492-.146-.977-.186-1.475-.021-.258-.114-.511-.152-.767-.023-.152-.029-.3-.05-.457a4.541,4.541,0,0,1-.072-.545,2.7,2.7,0,0,0-.084-.693,1.6,1.6,0,0,1-.051-.642c.018-.149.027-.3.038-.452a2.814,2.814,0,0,0-.024-.535,2.29,2.29,0,0,1-.067-.317c.006-.1.047-.2.055-.308a.592.592,0,0,1,.1-.243.484.484,0,0,0,.054-.347c-.039-.112-.14-.17-.157-.3a.568.568,0,0,1,.084-.348,1.091,1.091,0,0,0,.24-.746,1.7,1.7,0,0,0-.13-.323,1.475,1.475,0,0,1-.1-.418c-.035-.257-.182-.585-.045-.831a.613.613,0,0,1,.328-.258,1.326,1.326,0,0,1,.8.033c.377.119.338.482.119.74a1.022,1.022,0,0,0-.209.275c-.035.105.052.118.139.157a2.266,2.266,0,0,0,.275.136,1.2,1.2,0,0,0,.189.01c.141.019.185.114.23.233a.407.407,0,0,1,.045.317c-.026.081-.048.335.112.238.092-.055.058-.223.168-.258a.3.3,0,0,1,.263.116c.086.139.045.352.174.467.068.06.164.055.237.112a.228.228,0,0,0,.274.055c.193-.094.234-.4.4-.533.087-.072.149-.056.25-.055a.292.292,0,0,0,.242-.19.191.191,0,0,1,.246-.111l.024.011c.094.034.182.083.273.124a.469.469,0,0,0,.373.068.456.456,0,0,0,.271-.242c.063-.1.207-.141.271-.016.047.092-.019.21.038.3s.245.054.336.031a1.291,1.291,0,0,0,.441-.206.935.935,0,0,1,.327-.206c.063-.014.206-.026.218.064a.387.387,0,0,1-.029.138.674.674,0,0,0-.025.2,1.375,1.375,0,0,0,.081.4.311.311,0,0,0,.22.206c.145-.3.033-.633.1-.949.041-.2.1-.407.134-.614a.37.37,0,0,0-.124-.36c-.08-.079-.236-.184-.183-.316a.591.591,0,0,1,.139-.175c.065-.065.132-.128.2-.192a.639.639,0,0,0,.256-.411c0-.155-.078-.351.024-.49s.243-.026.336.043a4.886,4.886,0,0,1,1.03,1.322c.074.113.081.284.209.351a.557.557,0,0,0,.526-.074c.141-.071.272-.208.445-.153a.363.363,0,0,1,.128.076,2.145,2.145,0,0,1,.279.343c.131.166.207.157.4.221.38.131.617.837,1.043.293a.894.894,0,0,0-.123-1.063c-.36-.437-1.088-.772-1.087-1.424a.876.876,0,0,1,1.141-.782c.325.128.535.437.848.579a1.644,1.644,0,0,0,.806.051c.692-.047.886.22,1.279.75.136.184.3.513.514.62.3.151.459-.1.655-.292.256-.255.327-.239.619-.042.224.151.425.329.558.007.117-.284-.029-.608.139-.9a6.6,6.6,0,0,1,.55-.608c.145-.192.265-.507.545-.524.317-.019.444.343.693.454.46.2.575-.455.837-.7a13.385,13.385,0,0,1,1.377-1,1.343,1.343,0,0,0,.292-.271,1.958,1.958,0,0,0,.251-1.115,2.743,2.743,0,0,0-.088-1.47V94.8c-.224-.455-.556-.7-.617-1.239-.071-.613-.052-1.03-.566-1.437a1.615,1.615,0,0,1-.556-1.49c.035-.611.679-.759.848-1.3s-.644-.849-1.055-.951c-.567-.139-1.162-.1-1.415-.738-.22-.552-.083-1.19-.286-1.758-.222-.619-.572-.985-.459-1.7.147-.93.766-.54,1.394-.865a.868.868,0,0,0,.284-.241,2.466,2.466,0,0,0,.349-1.252,3.264,3.264,0,0,0-.368-1.5,2.1,2.1,0,0,0-.456-.754c-.158-.16-.483-.338-.512-.586-.073-.619.971-.569,1.333-.511.43.068,1.024.2,1.224-.32a1.505,1.505,0,0,0,.075-.262c.087-.437-.006-.8.429-1.185s.647-.624.53-1.23c-.1-.546-.488-.837-.8-1.259a7.5,7.5,0,0,0-1.622-1.83c-.49-.335-1.448-.218-1.375-1.009a3.7,3.7,0,0,1,.313-1.245,2.67,2.67,0,0,1,.6-.863c.3-.254.712-.267,1.05-.451.6-.326.874-1.83,1.778-1.124a1.949,1.949,0,0,1,.6.992c.1.34.049.864.285,1.146.43.515,1.816.084,2.343-.095a2.167,2.167,0,0,1,.14-.375c.035-.071.073-.141.115-.212.306-.509.178-.616-.067-1.12s.051-.832.3-1.265a2.171,2.171,0,0,0,.328-1.194c-.022-.5-.241-.876.057-1.33a6.365,6.365,0,0,1,.966-1.1,3.939,3.939,0,0,0,.5-.517c.117-.162.2-.409.365-.529.378-.274.928.071,1.272-.335.15-.178.146-.432.272-.621a1.041,1.041,0,0,1,.588-.356,1.908,1.908,0,0,0,.191-.084c.376-.2.341-.437.23-.917a3.682,3.682,0,0,0-.506-1.435c-.413-.6-.328-.892-.058-1.534.247-.591-.126-.736-.428-1.189a2.454,2.454,0,0,1-.2-1.385c-.019-.445-.171-.979.33-1.2.463-.207.92-.106,1.314-.491a2.556,2.556,0,0,0,.694-1.411c.116-.637.193-.73.836-.736.614-.006.821-.275.976-.83.332-1.2,1.622-1.1,2.647-1.087a9.148,9.148,0,0,1-.336,1.215c-.14.558.136.621.465.223a9.063,9.063,0,0,0,1.08-1.153c.247-.432.023-.89.617-1.064a3.01,3.01,0,0,0,1.018-.285c.243-.173.334-.554.564-.707.2-.137.418-.058.611-.164a.5.5,0,0,0,.169-.156c.21-.293.2-.452.643-.425.332.02.57.066.654.407.076.305.1.738.567.652.373-.068.251-.521.254-.812.01-.871.663-.824,1.351-.831-.007.344.062.412.393.413a1.033,1.033,0,0,1,.686.145c-.019.577.136.7.662.822a1.014,1.014,0,0,1,.9.907c.035.337-.184.945.221,1.124.447.2.889-.333.969-.711a1.744,1.744,0,0,0-.176-1.173c-.175-.291-.6-.459-.659-.807a4,4,0,0,1,.053-.513,2.032,2.032,0,0,0-.17-.576c-.146-.462.363-.369.732-.471,1.223-.344-.426-.879-.816-1.176a16.244,16.244,0,0,1,1.844.13,12.726,12.726,0,0,1,1.587.393c.43.084.877.124,1.326.166.318.03.637.06.949.109a20.734,20.734,0,0,1,2.3.508,6.975,6.975,0,0,0,.986.134,24.325,24.325,0,0,0,2.584.252,3.893,3.893,0,0,0,2.284-.521,2.226,2.226,0,0,0,.917-1.667,7.269,7.269,0,0,1,.131-2.023c.171-.44.28-.826.81-.883.507-.052,1.1.128,1.547-.2.475-.354-.025-.833.165-1.273.231-.534.855-.158,1.256-.15.536.012.674-.461.626-.911-.033-.32-.077-.638-.1-.958-.017-.235-.052-.582.3-.4.122.064.136.17.289.2a1.535,1.535,0,0,0,.371,0,.938.938,0,0,0,.4-.122c.213-.145.18-.474.444-.635.248-.15.456-.077.666-.321.5-.573,1.006-.348,1.679-.414a1.452,1.452,0,0,0,1.013-.555,2.03,2.03,0,0,0,.681-1.021,2.3,2.3,0,0,1,.342-1.153,2.012,2.012,0,0,1,.466-.441c.075-.057.147-.115.217-.177.172-.151.332-.313.508-.463A4.136,4.136,0,0,1,82.8,30.6a1.041,1.041,0,0,1,.555-.1,5.471,5.471,0,0,1,1.077.187,2.9,2.9,0,0,0,1.226-.136,1.861,1.861,0,0,0,1.128-.708,3.77,3.77,0,0,0,.534-1.316,4.846,4.846,0,0,0,.023-1,1.408,1.408,0,0,1,.22-1,1.441,1.441,0,0,1,1.474-.517c.234.033.682.226.892.059.087-.069.1-.2.149-.291a.749.749,0,0,1,.311-.3,1.85,1.85,0,0,1,.88-.315,1.325,1.325,0,0,1,.741.4,4.88,4.88,0,0,0,.716.3,3.316,3.316,0,0,1,.84.566c.263.253.429.659.806.772.348.1.7-.253,1.038-.294.2-.024.355,0,.381.219a2.257,2.257,0,0,1,0,.557.524.524,0,0,0,.007.343c.137.246.452.187.683.2a.869.869,0,0,1,.8.491,1.447,1.447,0,0,1-.085,1.133c-.079.173-.306.647-.562.593s-.294-.711-.367-.916c-.141-.389-.335-.2-.413.109a1.455,1.455,0,0,0,.016.92c.114.241.464.422.481.7a.47.47,0,0,1-.224.365c-.074.06-.323.175-.343.279-.036.182.557.276.682.387.237.207.129.583.229.857a8.492,8.492,0,0,0,.617,1.081c.143.264.34.488.484.747a1.69,1.69,0,0,1,.113.9,2.957,2.957,0,0,1-.087.8,2.248,2.248,0,0,0-.123.865,6.968,6.968,0,0,1-.019,1.1c-.035.347-.009.692-.021,1.038-.013.4-.1.79-.134,1.187-.037.42.024.837-.022,1.253a3.021,3.021,0,0,0,.117,1.146,4.847,4.847,0,0,1,.05,1.477c-.038.54,0,1.091-.076,1.628a2.706,2.706,0,0,1-.547,1.09c-.255.414-.345.924-.634,1.315a1.506,1.506,0,0,1-.721.426,2.53,2.53,0,0,1-.839.2,8.036,8.036,0,0,0-.931.042,7.2,7.2,0,0,1-1.3.154,5.484,5.484,0,0,1-.808-.087,2.372,2.372,0,0,1-.708-.17,11.725,11.725,0,0,1-1.18-.964,2.692,2.692,0,0,1-.838-.861c-.1-.2-.14-.42-.251-.613a2.3,2.3,0,0,1-.356-.7,5.349,5.349,0,0,0-.4-.926,3.424,3.424,0,0,1-.173-.977,1.8,1.8,0,0,0-.324-.974c-.164-.206-.415-.364-.493-.628-.157-.522.285-.979-.011-1.5a1.4,1.4,0,0,1-.257-.715,1.91,1.91,0,0,1,.206-.66.516.516,0,0,0-.072-.473,3.824,3.824,0,0,1-.354-.852,7.315,7.315,0,0,1,.163-2.034c.005-.142.046-.687-.168-.731-.19-.039-.339.4-.391.517a8.558,8.558,0,0,0-.37,1.171c-.024.093-.047.186-.071.279a6.1,6.1,0,0,1-.792,1.575c-.55.942-.135,2.1-.444,3.1-.179.585-.609.427-1.033.687-.19.116-.286.332-.516.391-.3.077-.588-.129-.879-.164-.671-.079-.551.769-.6,1.195-.07.564-.583.85-1.065,1.047-.286.117-.616.122-.894.248s-.238.362-.222.636a2.369,2.369,0,0,1-.136.745c-.058.254.1.41.225.618a1.562,1.562,0,0,1-.1,1.418c-.125.256-.4.365-.544.6-.154.251.047.367.224.531a.134.134,0,0,1,.02.021,1.6,1.6,0,0,1,.32.886,3.11,3.11,0,0,0,.394.745c.155.3.187.6.562.708a.979.979,0,0,0,.826-.148,4.859,4.859,0,0,0,1.03-1.069c.366-.532-.211-.716-.653-.8a2.775,2.775,0,0,1,.093-.654c.1-.323.38-.54.45-.877.064-.308-.088-.951.2-1.167s.617.194.876.271c.3.088.448-.21.708-.3.988-.361.348,1.209.444,1.6.079.32.354.683.1.99-.118.138-.734.259-.753.407s.618.438.729.523a1.218,1.218,0,0,1,.482.807c.135.717.013,1.51.816,1.843.843.351,1.413-.115,1.759-.87.289-.632.216-1.717.976-2a3.037,3.037,0,0,1,1.182-.056c.424.016.832-.068,1.254-.079.681-.019,1.106.532,1.706.732.271.09.564-.056.841-.088a7.2,7.2,0,0,1,1.236-.079.636.636,0,0,1,.6.3c.1.226.006.5.085.739.122.373,1.274,1.143.531,1.464-.2.089-.487.1-.493.353-.008.274.22.284.4.4.213.143.1.293.172.522a1.682,1.682,0,0,0,.273-.05.938.938,0,0,0,.093-.035c.227-.1.348-.337.56-.46s.52-.094.732-.24.186-.388.325-.569c.172-.224.46-.214.7-.314.49-.207.543-.893.557-1.364a2.671,2.671,0,0,1,.023-.837c.1-.259.332-.287.568-.36.461-.139.665-.654,1.186-.567.24.04.47.161.714.065a1.5,1.5,0,0,0,.6-.651,6.082,6.082,0,0,1,.967-1.156c.472-.462.292-.9.452-1.473.051-.182.192-.459.409-.3.2.148.14.555.17.766a.8.8,0,0,0,.452.6c.486.315,1.375.888,1.218,1.6-.075.344-.239.66-.291,1.01a8.516,8.516,0,0,0-.013.918c-.018.425-.246,1.49-.821,1.5-.3,0-.539-.34-.716-.534a1.488,1.488,0,0,0-.809-.554,4.462,4.462,0,0,0-1.119.042c-.323.025-.783.007-1.031.257-.468.473.12,1.294-.063,1.86-.194.6-.647,1.048-.177,1.659a2.738,2.738,0,0,0,1.6,1.144,2.963,2.963,0,0,0,1.92-.547c.346-.271.712-.785,1.191-.8.457-.018.853.426,1.224.612.4.2.406-.435.533-.651.3-.509.612.075.78.319a1.454,1.454,0,0,0,.436.437,3.84,3.84,0,0,0,2.079.122,1.3,1.3,0,0,1,1.066.034,6.756,6.756,0,0,1,.577.463c.437.321,1.118.039,1.611.186.25.076.333.262.411.492.031.091.072.414.212.381.221-.051.144-.691.4-.817a1.286,1.286,0,0,1,.872.084,6.033,6.033,0,0,0,.878.368,5.667,5.667,0,0,0,1.11.1.563.563,0,0,1,.485.255c.06.117.079.289-.068.34s-.309-.132-.43-.168a.418.418,0,0,0-.446.112,1.853,1.853,0,0,1-.442.346c-.126.05-.275.03-.393.1-.271.162-.342.623-.434.9-.153-.03-.489-.163-.632-.062s-.088.452,0,.585c.215.337.754.158.952.6.11.246-.122,1.308.383,1.018.232-.134.24-.382.34-.6a.688.688,0,0,1,.434-.362,2.325,2.325,0,0,1,1.83.394,2.805,2.805,0,0,1,.788.459c.225.214.413.464.629.688s.276.413.617.344a1.95,1.95,0,0,1,1.063-.111c.264.1.389.3.682.181.252-.1.4-.313.694-.279a2.277,2.277,0,0,1,.955.281c.2.208-.19.339-.265.537-.1.259.215.471.109.717-.13.3-.708.315-.949.5-.484.379-.288,1.527.383,1,.245-.19.156-.514.3-.754a.96.96,0,0,1,.84-.365c.285.031.4.288.62.435.286.188.472.061.709-.134.285-.234.838-.493,1-.832.173-.366-.306-.424-.453-.663-.159-.259.16-.5.276-.724.133-.251.151-.555.394-.737s.534-.145.789-.252c.221-.093.517-.417.774-.31s.407.69.592.912c.258.31.515.613.763.927.2.254.554.271.805.484a5.077,5.077,0,0,1,.7.61,7.625,7.625,0,0,1,.707,1.255,2.6,2.6,0,0,0,.17.386c.065.085.177.119.234.2.169.246.075.7.152.986.081.308.318.551.409.856a4.488,4.488,0,0,1,.1.488,2.291,2.291,0,0,0,.146.519,12.826,12.826,0,0,0,.765,1.127,10.241,10.241,0,0,1,.457,1.225,5.672,5.672,0,0,1,.394,1.087c.071.369.047.995.4,1.233s.866-.034,1.162-.227a2.322,2.322,0,0,0,.943-1.19,1,1,0,0,0,.015-.62,3.7,3.7,0,0,0-.3-.522,1.879,1.879,0,0,1-.059-.655,1.517,1.517,0,0,1,.084-.716c.089-.2.284-.316.406-.488.092-.13.25-.449.184-.614-.145-.36-.771.037-.829-.381a2.25,2.25,0,0,0-.3-1.127c-.1-.135-.186-.223-.173-.392a1.116,1.116,0,0,1,.15-.5,1.1,1.1,0,0,1,.521-.353,2.992,2.992,0,0,0,.726-.358,1.643,1.643,0,0,0,.4-.568c.093-.251.009-.516.122-.768a1.953,1.953,0,0,1,.393-.571.84.84,0,0,0,.26-.669.372.372,0,0,0-.173-.3c-.079-.059-.224-.111-.223-.228,0-.218.392-.237.43-.48s-.318-.414-.131-.659a1.3,1.3,0,0,1,.776-.373,4.806,4.806,0,0,0,2.91-1.323,4.749,4.749,0,0,1,1.1-1.064,3.917,3.917,0,0,0,1.07-1.007c.146-.2.274-.413.429-.607a2.2,2.2,0,0,1,.222-.241c.11-.1.238-.178.354-.276a1.648,1.648,0,0,1,.234-.2,1.883,1.883,0,0,1,.215-.085c.184-.077.313-.279.472-.4.073-.054.251-.171.342-.112s.074.217.1.3a.451.451,0,0,0,.157.237,2.074,2.074,0,0,0,1.133.492,2.108,2.108,0,0,1,1.043.225c.606.438.519,1.609.392,2.244a6.049,6.049,0,0,1-.618,1.588c-.244.467-.58.887-.8,1.361a1.439,1.439,0,0,1-.778.839c-.379.124-.931.071-1.029.579a2.243,2.243,0,0,0,.156.995,4.2,4.2,0,0,1,.187,1.51c-.018.516.014,1.143-.417,1.511-.378.323-.728.39-.828.939a3.4,3.4,0,0,1-.418,1.613,3.065,3.065,0,0,0-.709,1.214,4.1,4.1,0,0,1-.633,1.536,1.733,1.733,0,0,0-.423,1.241c.066.9,1.138,2.167.1,2.829-.434.277-.975.335-1.176.874s-.067,1.216-.4,1.7c-.264.38-.755.271-1.14.425-.545.219-.789.777-1.087,1.24a1.346,1.346,0,0,1-1.237.69c-.453.01-.7.007-.854.47-.169.5-.41.882-1,.845a3.813,3.813,0,0,1-1.508-.611,2.365,2.365,0,0,1-.982-.962c-.149-.261-.425-.981-.833-.7-.382.259-.3.873-.088,1.2a11.6,11.6,0,0,0,.765.921,4.026,4.026,0,0,0,.817.867,1.789,1.789,0,0,0,.633.175,3.338,3.338,0,0,1,.636.265c.419.2.916.6,1.4.547a6.655,6.655,0,0,0,1.262-.569c1.158-.414,2.525-.443,3.326-1.513a6.384,6.384,0,0,1,1.237-1.589c.458-.323,1.079-.364,1.485-.768a2.144,2.144,0,0,0,.377-1.787,2.459,2.459,0,0,1,.256-1.661,1.567,1.567,0,0,1,1.134-.8,9.311,9.311,0,0,1,1.741.123c.565.062.911.215.985.816a9.8,9.8,0,0,0,.3,1.683,2.145,2.145,0,0,1-.62,2c-.232.306-.571.559-.539.989a2.925,2.925,0,0,0,.238,1.289,1.97,1.97,0,0,0,1.1.636c1.008.372,1.2,1.482,1.741,2.28.615.092.185-1,.052-1.268a4.62,4.62,0,0,0-.341-.564c-.163-.238-.094-.394-.174-.64-.166-.517-1-.3-1.375-.585-.234-.174-.2-.36-.138-.611a3.359,3.359,0,0,0,0-.75,1.873,1.873,0,0,1,.136-.827c.2-.367.463.037.71-.232a2.9,2.9,0,0,0,.338-.743,1.409,1.409,0,0,0,.208-.753,1.447,1.447,0,0,1,.114-.79c.141-.327.206-.606-.073-.881-.246-.241-.613-.331-.808-.625-.174-.261-.192-.592-.4-.835-.187-.215-.458-.27-.679-.435s-.33-.464-.558-.638c-.3-.23-.634-.08-.947.042s-.563.215-.806-.061-.329-.439-.707-.479c-.243-.025-.714.049-.756-.288-.038-.313.353-.62.489-.868a1.4,1.4,0,0,0,.069-.861.945.945,0,0,1,.277-.747,3,3,0,0,0,.544-.785c.109-.274.135-.575.25-.85.244-.587.894-.726,1.326-1.123a2.721,2.721,0,0,0,.459-2,4.718,4.718,0,0,1-.113-.538,1.737,1.737,0,0,1,.146-.542,1.1,1.1,0,0,0-.189-1.065c-.254-.271-.578-.5-.114-.8.283-.177.6-.22.776-.51.158-.254.284-.557.574-.689.5-.23,1.063,0,1.571-.284a3.416,3.416,0,0,0,.566-.48,2.655,2.655,0,0,0,.809-1.01c.139-.4-.012-.793.272-1.144.162-.2.481-.673.754-.627a2.475,2.475,0,0,1-.2,1.548c-.139.448.161,1.15-.282,1.474-.387.282-.973.478-1.121,1-.106.37.087.715.109,1.08.046.76-.905,1.108-.278,1.868.218.265.441.516.652.787a1.517,1.517,0,0,0,.872.5c.356.1.725.177.887.547.173.4.222.739.625.994.142.089.916.451,1.035.172.073-.172-.467-.612-.554-.747-.2-.3-.2-.669-.372-.979a2.619,2.619,0,0,0-.91-.742,2.721,2.721,0,0,1-1-1.744,1.96,1.96,0,0,1,.022-.92c.148-.411.438-.242.762-.323.2-.051.5-.258.708-.185s.223.421.336.589c.256.384.567,1.037,1.137.859.89-.278-.374-1.424-.193-1.855.11-.259.671-.31.9-.342a2.229,2.229,0,0,1,.245-.022,2.049,2.049,0,0,1,1.048.223,3.759,3.759,0,0,1,1.827,2.294c.236.764.244,1.683,1.169,1.888.664.148,1.727-.091,1.51.92a1,1,0,0,1-.569.773c-.322.134-.7.124-.979.358a1.509,1.509,0,0,0-.375.881c-.1.409-.314.779-.423,1.184-.1.381.011.64.426.441a2.708,2.708,0,0,0,.634-.471c.084-.076.319-.391.436-.4.179-.014-.079.6-.12.737a5.189,5.189,0,0,1-.384,1.074c-.281.492-1.043.972-.854,1.6.116.388.257.77.353,1.165a5.162,5.162,0,0,1,.092,1.157,1.135,1.135,0,0,0,.961,1.128c.8.048.834-.536.58-1.137a.98.98,0,0,0-.342-.434c-.15-.11-.384-.19-.424-.4-.065-.334.289-.525.127-.888a.763.763,0,0,1,.033-.835,3.969,3.969,0,0,1,.6-.772,2.2,2.2,0,0,0,.2-1.686c-.09-.669-.365-1.5,0-2.12a6.443,6.443,0,0,0,.529-.827,2.419,2.419,0,0,0,.075-.892,1.742,1.742,0,0,0-.132-.879c-.168-.3-.53-.446-.671-.764-.266-.6.59-1.184-.238-1.5a3.4,3.4,0,0,1-1.383-.976c-.374-.5,0-1.269.172-1.773.327-.964-.143-2.236.765-2.988a1.888,1.888,0,0,1,1.583-.2,10.453,10.453,0,0,0,1.583.581c.6.05,1.165-.054,1.764.046a4.218,4.218,0,0,0,1.81.031c.4-.131.77-.564,1.223-.256.429.293-.2.673-.162,1,.11.819,2.8-.274,2.293-.86-.163-.187-.466-.171-.452-.5.013-.259.15-.421.064-.7s-.292-.492-.106-.786c.205-.325.483-.567.271-.973-.336-.647-.984-.878-.908-1.722.624-.051.791.79,1.507.524.341-.126,1.25-.661.588-.951-.175-.078-.662-.186-.365-.465.164-.155.548-.077.752-.078.28,0,.485-.021.628-.288a1.069,1.069,0,0,1,.489-.56,4.015,4.015,0,0,1,.721-.346,6.3,6.3,0,0,1,1.243-.069c.325-.036.374-.316.6-.493.246-.2.423.032.661.122a.755.755,0,0,0,.752-.1c.176-.12.435-.4.674-.29.123.055.136.267.26.3.14.043.218-.1.3-.188a1.107,1.107,0,0,1,.732-.433c.182-.008.707.074.591-.283-.093-.285-.578-.136-.655-.43-.1-.361.357-.235.53-.2.354.063.386-.1.659-.246a.88.88,0,0,1,.713.09,1.6,1.6,0,0,0,.719.194c.172,0,.622-.039.714.169s-.356.439-.026.624c.192.108.545,0,.768.062.115.03.246.116.368.093s.168-.139.269-.211c.213-.153.517-.028.7-.234s.051-.473.269-.651a1.747,1.747,0,0,1,.62-.287,1.873,1.873,0,0,1,.829.283c.2.1.552.521.769.236.283-.375-.444-.745-.632-.965-.169-.2-.5-.656-.2-.873.233-.167.8-.023,1.075,0a5.41,5.41,0,0,1,1.062.326c.318.1.818.518,1.151.41.437-.142-.164-.563-.317-.681-.243-.186-.614-.374-.558-.722.03-.19.155-.327.077-.528-.06-.155-.325-.268-.333-.434-.016-.333.9-.431.309-.76.426-.444.066-1.282.775-1.541.293-.107.7.037.915-.247.189-.248.007-.631.264-.833s.526-.108.678-.45c.131-.291.213-.6.614-.518s.47.449.682.718.5.209.8.287a.525.525,0,0,1,.411.618.59.59,0,0,1-.024.082.977.977,0,0,1-.837.607c-.355.077-.572.329-.411.7.2.456.7-.128,1,.138.236.207.26.322.617.289.238-.022.474-.067.711-.1,2.105-.257-.765,1.817.341,2.11.332.09,1.37.093,1.411-.384.027-.316-.409-.4-.442-.686-.037-.316.3-.286.5-.22a2.84,2.84,0,0,0,1.521.266,7.669,7.669,0,0,0,1.446-.621c.216-.088.537-.249.718-.026.133.164.173.45.292.639.182.282.056.652.213.932a.3.3,0,0,0,.335.171c.07-.006.683-.217.7-.085.041.353-.192.524.019.869.08.133.232.354.419.33s.13-.153.118-.306c-.021-.254.017-.583.358-.493.314.083.184.4.268.642.18.518.623.87.6,1.466-.008.226-.074.607-.358.482-.1-.047-.142-.123-.267-.159-.16-.048-.161-.031-.278-.158-.182-.194-.43-.273-.461.083-.076.9,1.267.75,1.612,1.333a3.755,3.755,0,0,1,.259.894c.2.65-.151.967-.684,1.235-.128.064-.222.181-.35.249-.049.027-.107-.007-.154.042-.086.09-.053.22-.053.343a1.079,1.079,0,0,1-.09.444c-.033.086-.109.25-.208.262a.53.53,0,0,0-.131-.119.55.55,0,0,0-.366.081c-.255.16-.193.451-.247.718-.094.464-.169.4-.581.473-.324.056-.341.351-.522.563-.27.321-1.4.208-1,.937.114.206.466.422.453.647-.016.324-.4.366-.614.49-.258.152-.355.452-.523.68-.078.1-.193.19-.262.3-.1.15-.049.252-.092.41-.2.732-1.2.155-1.571.639-.169.224.01.523-.051.778a1.187,1.187,0,0,1-.651.636c-.326.159-.626.2-.77.566-.107.274.023.532-.109.8-.22.449-1.018.83-.836,1.407a1.278,1.278,0,0,0,1.016-.545,5.347,5.347,0,0,0,.193-.536,3.388,3.388,0,0,1,.344-.561c.352-.475.819-.376,1.348-.373a1.211,1.211,0,0,0,.812-.206.7.7,0,0,0,.227-.382c.032-.131,0-.291.119-.371.27-.175,1.075.009.823-.609-.1-.234-.349-.432-.262-.719.072-.237.3-.231.5-.15.384.154.434.917.889.779s.3-.659.629-.916c.035-.027.074-.053.116-.081.209-.135.473-.28.5-.533a.3.3,0,0,0-.055-.213.639.639,0,0,0-.329-.212c-.565-.182-.733.554-1.251.578-1.1.048.06-1.418.54-1.527.4-.09.144.647.605.419.339-.167.329-.62.774-.675-.027.292-.093.716.116.921a.419.419,0,0,0,.221.108,5.25,5.25,0,0,1,.6.071,1.6,1.6,0,0,0,.531.094c.359,0,.843-.026.618-.531-.082-.182-.368-.979.1-.9.384.061.307.7.48.95a1.814,1.814,0,0,1,.323.475c.072.232-.024.308-.13.494a.989.989,0,0,0-.119.539c.028.48.321.493.677.633.18.07.746.287.662-.123-.062-.3-.822-.737-.492-1.044.3-.276.874-.144,1.213-.409.362-.28.549-.727.963-.955a1.89,1.89,0,0,1,1.355.007,2.815,2.815,0,0,0,1.284-.139,3.067,3.067,0,0,1,.66-.09c.331-.015.914-.043,1.124.293.122.194-.021.372-.074.567a.545.545,0,0,0,.331.665,3.014,3.014,0,0,0,1.406.2,1.505,1.505,0,0,1,.679.12c.166.081.3.239.469.3.41.154.726-.3,1.019-.514a6.378,6.378,0,0,1,1.294-.513c.431-.182.91-.324,1.322-.541.528-.277.409-.649.1-1.055a4.162,4.162,0,0,1-.525-1.109c-.146-.363-.4-.679-.074-1.022a4.491,4.491,0,0,1,.775-.569c.173-.116.414-.391.635-.333.242.063.389.391.594.523.313.2.843.071,1.2.039.382-.035.892.122,1.1-.275.249-.473.41-.907,1-1.048a.866.866,0,0,1,.657.171c.221.117.472.163.691.281.262.139.381.387.569.6a1.492,1.492,0,0,0,.578.324.9.9,0,0,1,.427.529,1.506,1.506,0,0,0,.421.523c.185.17.427.41.292.68-.089.178-.479.279-.494.479-.031.406.943.175,1.148.392a1.124,1.124,0,0,1,.27,1.093c-.114.432-.345.392-.749.458-.266.044-.517.184-.5.5.012.3.341.471.533.654s.71.529.647.008c-.021-.171-.169-.42-.052-.578.162-.22.5.021.7.042a2.716,2.716,0,0,1,.649.135c.022.462-.494.828-.424,1.257.053.331.578.427.811.611.31.243.586.514.912.738a7.807,7.807,0,0,0,1.013.5,2.247,2.247,0,0,0,.9.381.767.767,0,0,1,.1-.323c.434-.621.77.311,1.107.437.245.094.4-.1.407-.338a1.157,1.157,0,0,0-.294-.666,2.243,2.243,0,0,1-.258-1.386c.009-.216.094-.432.081-.647a1.049,1.049,0,0,0-.29-.567c-.313-.429-.22-.971-.331-1.466-.046-.2-.213-.671-.006-.839.172-.14.444.064.588.163.336.229.532.6.91.765a2.342,2.342,0,0,0,1.341.245c.529-.066.733-.336.867-.844a1.849,1.849,0,0,1,.307-.679c.258-.352.563-1.215,1.089-1.166.389.034.646.347,1.049.37a1.823,1.823,0,0,1,1.1.214,1,1,0,0,0,1.075-.051,2.3,2.3,0,0,0,.452-.351.843.843,0,0,0,.176-.182.717.717,0,0,0,0-.253c-.1.054-.192.125-.29.186-.562.347-.883-.352-.88-.836,0-.259.019-.552.279-.673a3.912,3.912,0,0,1,.821-.229c.31-.057.474.251.764.245.322-.005.4-.382.335-.633a1.677,1.677,0,0,0-.387-.783c-.231-.179-.571-.114-.81-.306-.674-.542.4-1.107.145-1.7-.33-.772-.967.479-1.274.576-.335.106-.376-.289-.3-.526.091-.289.244-.445.209-.77-.039-.355-.026-.463.273-.688a2.37,2.37,0,0,0,.594-.493,1.054,1.054,0,0,0-.276-1.335c-.15-.1-.585-.2-.578-.437s.358-.182.511-.154a2.449,2.449,0,0,0,.941.07,6.927,6.927,0,0,0,.9-.449,5.467,5.467,0,0,0,.95-.458c.3-.181.625-.332.938-.489.258-.129.488-.307.747-.437s.507-.123.751-.252a4.227,4.227,0,0,1,2.16-.679,1.194,1.194,0,0,1-.533.677c-.3.158-.748.115-.976.394-.177.215-.123.536-.246.779-.087.175-.453.47-.318.684.147.234.655.072.822-.048.214-.155.309-.435.467-.641a8.147,8.147,0,0,0,.516-.672c.14-.229.308-.557.6-.625.418-.1.373.477.356.723-.009.136-.084,1.046-.293.563a1.544,1.544,0,0,0-.17-.431c-.152-.172-.266-.12-.269.1-.009.436.419.743.154,1.178-.148.242-.514.456-.262.727.1.109.253.174.359.284.082.084.152.249.252.307.58.333.786-1.156.843-1.468a2.883,2.883,0,0,0,.041-1.257c-.077-.31-.18-.606-.242-.921a1.641,1.641,0,0,1-.083-.888,1.755,1.755,0,0,1,.717-.689,7.211,7.211,0,0,1,1.817-.719c.488-.137,1.343-.5,1.789-.087a.574.574,0,0,1-.077.807c-.211.237-.55.264-.764.485a.383.383,0,0,0,.2.665c.335.054.543-.287.832-.38s.589,0,.878-.108a3.32,3.32,0,0,1,.847-.172c.289-.038.445-.252.7-.365s.389.04.614,0c.116-.019.157-.139.312-.139s.225.088.359.15a2.623,2.623,0,0,0,.751.123c.28.05.28.218.411.457.131-.035.259-.076.385-.123a2.624,2.624,0,0,0,1.175-1.177,10.37,10.37,0,0,0,.832-1.348,9.3,9.3,0,0,1,.927-1.969,11.645,11.645,0,0,1,1.4-1.245,14.409,14.409,0,0,1,.965-1.1,3.241,3.241,0,0,1,1.832-.571c.54-.029,1.07-.076,1.609-.124s1.148-.027,1.433.506c.275.514.257,1.12.762,1.5.6.46,1.435.085,2-.263.378-.231.637.043,1.032-.1a.771.771,0,0,1,.077-.363c.3-.421,1.014.159,1.157-.476a1.026,1.026,0,0,0-.3-.878,1.022,1.022,0,0,1-.187-.431c-.062-.422.3-.908.516-1.242a4.255,4.255,0,0,0,.427-1.369c.181-.644.5-.48,1.012-.52.481-.036.862-.52,1.2-.816a4.333,4.333,0,0,0,1.345-2.513c.055-.3-.05-1.2.433-1.161.213.02.341.24.577.247s.394-.086.629.028a.924.924,0,0,0,.2.328c.421.334.833-.436,1.143-.632.2-.127.431-.2.633-.325.143-.088.431-.376.616-.309s.225.428.356.556a.385.385,0,0,0,.608-.034,7.73,7.73,0,0,0,.415-.687,4.754,4.754,0,0,1,.685-.573c.51-.449-.308-.61-.6-.946-.185-.212-.314-.5-.6-.591a3,3,0,0,0-.887.057,6.743,6.743,0,0,1-.756-.152,2.786,2.786,0,0,0-.9.2c-.727.155-.358-.892-.83-1.2-.25-.164-1.614-.252-1.044-.871.193-.211.54-.181.791-.268a1.245,1.245,0,0,0,.447-.288,1.049,1.049,0,0,1,.1-.1.331.331,0,0,0,.084-.074c.059-.078.1-.167.162-.245.166-.214.3-.452.473-.665a2.133,2.133,0,0,1,.565-.519,1.628,1.628,0,0,1,.453-.186c.229-.058.6-.143.579-.429-.013-.2-.255-.393-.327-.573-.251-.631.288-.626.459-1.127.084-.25-.077-.363.208-.545.187-.122.409-.126.561-.313.3-.377,0-.876.208-1.291a2.054,2.054,0,0,1,.81-.786,3.624,3.624,0,0,0,.9-.764.958.958,0,0,1,.495-.363c.228-.055.453.055.654-.1s.1-.332.159-.554c.09-.36.438-.513.7-.726a4.372,4.372,0,0,0,.326-.381,1.339,1.339,0,0,1,.383-.179c-.177.4.066.532.35.274a2.876,2.876,0,0,1,.948-.551,8.72,8.72,0,0,0,1.753-1.131,2.435,2.435,0,0,1,.8-.4c.334-.083.694-.013,1.022-.119.639-.209.888-.814,1.378-1.19.256-.2.551-.321.8-.54.173-.157.953-1.058,1.117-.7.064.136-.227.708.051.718.536.02.248-1.332.879-1.435.41-.068.754.346,1.18.239.509-.128.205-.421-.063-.609-.349-.243-.437-.457-.047-.729s.666-.089,1.032.13c.117.07.344.253.491.172s.075-.286.122-.406c.159-.409.469.07.709.238.752.53,1.512-.539,2.168.083.309.291.374.431.841.348.389-.071.654-.135.822-.493.082-.177.5-.651.4-.832-.193-.385-.8.123-.98.226-.469.259-.685-.267-1.112-.361-.385-.083-.673.524-1.025.363-.391-.18.075-.709.148-.942.1-.315-.11-.858.3-.977.23-.069.543.186.712-.038.087-.115.059-.359.1-.5.084-.323.394-.655.362-.993-.4-.046-.418.424-.775.409a4.677,4.677,0,0,1,.623-1.372c.114-.228.114-.394.359-.453.338-.081.685-.012,1.019-.067a2.158,2.158,0,0,0,1.027-.437c.206-.178.332-.432.592-.551s.539-.035.78-.167c.5-.273.523-.95,1.153-1.142.687-.21.514.732.485,1.128-.021.286-.041.471.262.527.231.043.436.019.576.241a.5.5,0,0,1-.122.643c-.138.129-.624.384-.349.61.227.187.617-.172.883.011.346.238-.034.476-.117.721-.1.277.161.549-.055.788-.187.209-.585.265-.816.429-.316.223-.3.421.105.455a1.829,1.829,0,0,0,.86-.189c.416-.162.432.014.714.27.331.3.557-.2.869-.056.278.13.382.67.556.9.254.346.257,1.236.887,1.065.414-.113.432-.688.817-.845.225-.089.83-.071.986.145.2.277-.077.618-.333.692-.328.093-.728.084-.558.566a.851.851,0,0,1,.381.049.4.4,0,0,1,.118.553.451.451,0,0,1-.048.06c-.226.228-.379-.053-.623-.044-.3.011-.211.22-.058.388.178.2.364.265.194.552-.133.225-.344.247-.566.322a2.957,2.957,0,0,0-.643.358,2.892,2.892,0,0,0-1.242,1.409c-.066.236-.009.565-.274.682-.248.11-.477-.084-.688.151-.169.187-.166.519-.507.472s-.338-.416-.425-.663c-.107-.3-.239-.317-.534-.311a5.442,5.442,0,0,0-.744-.055c-.324.056-.291.32-.345.584a1.245,1.245,0,0,1-.527.729,1.779,1.779,0,0,0-.615,1.519c-.04.532-.2,1.672-.954,1.6-.284-.028-.454-.3-.765-.24-.251.05-.431.262-.7.282a.778.778,0,0,1-.894-.642l-.006-.043c-.058-.257-.176-.338-.448-.471-.168-.084-.445-.219-.617-.068-.229.2.019.461.162.618a.893.893,0,0,1,.292.564c-.314-.03-1.275-.266-1,.451.133.345.922.34,1.235.367a2.748,2.748,0,0,0,.4.95c.5.564.912-.549,1.395-.663s.737.5.928.834a1.791,1.791,0,0,0,.4.523c.218.179.533.265.678.522.176.312.038.738.107,1.078a3.063,3.063,0,0,0,.526,1.114,2.526,2.526,0,0,1-.268,2.658,1.767,1.767,0,0,1-1.06.832,6.223,6.223,0,0,0-1.185.246c-.285.125-.849.359-.757.763.128.56.675.084.9-.093.332-.267.66-.166.428.292-.186.369-.511.525-.6.961.263-.006.679.141.92.043.275-.112.3-.467.37-.706.057-.2,0-1.706.469-1.058.209.285.246.514.662.41a4.342,4.342,0,0,1,.815-.147c.217-.015.661-.046.7-.337s-.408-.28-.436-.6c-.043-.465,1-.484,1.319-.447.008.179-.036.367.138.454a1.4,1.4,0,0,0,.554-.048c.38-.069.817-.276,1.142.047.259.257.033,1.025.4,1.155.346.122.573-.519.729-.711.3-.375.744.069,1.1-.122.293-.157.788-.821,1.014-.209.064.175,0,.451.191.57s.382-.043.527-.162c.416-.344,1-.617,1.479-.209a.759.759,0,0,1,.255.543c.013.146-.09.487-.018.608.122.2.853.065.6.472-.208.335-.653.4-.9.686a4.536,4.536,0,0,0-.554.987,1.969,1.969,0,0,1-.8,1c-.457.192-.648-.158-1.034-.265-.272-.075-.819.335-.552.612.115.12.4.02.537.019a1.015,1.015,0,0,1,.575.157c.2.382-.1.827.006,1.222.119.429.546.793.472,1.268-.028.177-.18.286-.214.449a.8.8,0,0,0,.132.553c.107.151.268.2.287.422s-.174.289-.227.468c-.088.288.267.714.309,1.008.063.449-.189.8-.158,1.236a.57.57,0,0,0,.012.081c.036.15.134.227.167.366a2.448,2.448,0,0,1-.148.785,3.6,3.6,0,0,0-.123.9c.034.4.3.432.568.707.163.167.21.2.155.465-.034.172-.424.593-.291.736.16.176.553-.1.71.114.3.424-.437,1.03-.3,1.446s1.042.118,1.078.575c.017.236-.254.407-.339.607-.121.284,0,.444.076.7a5.715,5.715,0,0,1,.1,1.1,7.642,7.642,0,0,0,.243.851,3.18,3.18,0,0,0,.333.97c.289.465.735.822,1.006,1.3.1.181.2.487.022.652s-.51.034-.725.015a6.83,6.83,0,0,0-2.358.151,1.038,1.038,0,0,0-.745.651c-.115.32-.044.689-.265.967-.234.3-.474.368-.522.784a6.841,6.841,0,0,0-.022,1.136,1.56,1.56,0,0,1-.165,1.075,1.515,1.515,0,0,0-.326.964A2.762,2.762,0,0,0,316.516,56c.169.31.5.529.626.868s-.189.516-.513.371c-.371-.164-.215-.6-.439-.861a1.151,1.151,0,0,0-.44-.225c-.167-.075-.3-.221-.465-.293-.331-.147-.381.224-.379.53,0,.342.223.621.22.963a5.426,5.426,0,0,0-.108,1.094c.063.3.32.3.526.493a.892.892,0,0,1,.1.937c-.416.66-1.133-.526-1.526.026-.184.262.044.545.035.817-.014.407-.293.291-.582.247-.74-.108-.379.885-.218,1.277a9.223,9.223,0,0,0,.573,1.26c.289.486.394.294.9.342.26.025.234.115.287.361.048.226.033.237.234.323.179.077.383.042.489.258.189.386-.39.486-.1.9.087.125.233.154.355.239a.711.711,0,0,1,.273.361,8.268,8.268,0,0,1,.4,1.031c.136.4.251.808.38,1.212a4.018,4.018,0,0,0,.509.792,2.2,2.2,0,0,0,.659.8c.267.166.512.045.788,0,.168-.03.407,0,.525-.157.214-.278-.292-.527-.259-.818.039-.344.5-.383.752-.472.285-.1.5-.384.82-.343.714.088.781,1.047.826,1.6.012.136.021.265.036.385a.875.875,0,0,0,.817.908,1.511,1.511,0,0,1,.582.123c.234.14.372.488.658.546.254.051.444-.232.618-.372.625-.5,1.028.04,1.627.289.682.285,1.451.786,1.023,1.667-.329.675-1.176.191-1.572.752-.463.657.163,1.3.469,1.85.342.612.384,1.333.972,1.79a5.011,5.011,0,0,0,1.857.844c.629.153,1.214.241,1.5.9a1.563,1.563,0,0,1-.36,1.854c-.316.255-.746.46-.911.858a2.4,2.4,0,0,0,.128,1.4c.085.258.3.452.373.714A2.812,2.812,0,0,1,329.6,85a2.64,2.64,0,0,0,.294,1.1,1.86,1.86,0,0,0,.816.727c.388.252.626.721,1.059.85.338.1.829.125,1,.5.2.437-.7.423-.916.695-.452.56.162,1.967-.692,2.244-.3.1-1.028-.01-.761.586.166.37.691.146,1.01.22.582.137.411.432.417.893s.345.629.709.824a1.213,1.213,0,0,1,.612.742,14.01,14.01,0,0,1,.7,1.925,8.116,8.116,0,0,0,.389.991,2.409,2.409,0,0,1-.11,1.025,2.262,2.262,0,0,0,.216.915,3.413,3.413,0,0,1,0,.845,7.418,7.418,0,0,0,.317,1.063c.2.992-.8.543-1.336.379a5.5,5.5,0,0,1-1.005-.463,4.153,4.153,0,0,1-.941-.444ZM64.3,47.543a3.789,3.789,0,0,0-.352-.869,1.93,1.93,0,0,0-.514-.752c-.589-.471-1.252-.226-1.926-.169a2.09,2.09,0,0,0-.757.1.345.345,0,0,0-.15.138c-.159.279.073.738.045,1.046a.892.892,0,0,1-.3.583,7.746,7.746,0,0,1-1.05.621c-.227.15-.162.231-.163.471a.753.753,0,0,1-.306.6,3.866,3.866,0,0,0-.642.805c-.143.2-.486.633-.282.887.186.233.673.158.932.2.881.143.323,1.141.944,1.491a1.315,1.315,0,0,0,.954-.036,2.011,2.011,0,0,1,.562-.071h.145c.8.05,1.124-.715,1.43-1.328a7.548,7.548,0,0,0,.488-1.018,5.807,5.807,0,0,0,.11-.9,2.038,2.038,0,0,1,.5-.932A1.085,1.085,0,0,0,64.3,47.543ZM72.51,50.2h0c-.568-.309-.577.889-.53,1.156a2.236,2.236,0,0,1-.4,1.79c-.38.538-.4-.093-.81-.206-.2-.055-.5.157-.639.1s.2-.407.274-.505a8.78,8.78,0,0,0,.859-1.3c.2-.414-.229-.106-.4-.025a2.616,2.616,0,0,0-.819.512c-.119.12-.264.364-.42.434-.442.2-.158-.514-.184-.7-.438.072-.443.709-.71,1.024-.344.4-.851.385-.977.984a3.264,3.264,0,0,0,.331,1.746,1.07,1.07,0,0,1-.613,1.157.58.58,0,0,1-.245.061c-.422-.006-.5-.682-.591-1.038-.045-.177-.109-.443-.329-.469-.189-.023-.334.16-.371.326-.085.384.255.714.464,1.039a1.373,1.373,0,0,1,.111.207,1.552,1.552,0,0,0,1.668,1.115,2.676,2.676,0,0,0,1.011-.414,1.281,1.281,0,0,0,.328-.407,4.045,4.045,0,0,1,.305-.5c.256-.324.6-.531.758-.93.177-.443.243-.794.682-1.064.42-.258,1-.334,1.289-.768A2.723,2.723,0,0,0,72.8,52.14C72.821,51.688,73,50.471,72.51,50.2Zm4.028-2.924h0a.784.784,0,0,0-.7,0c-.188.128-.2.433-.309.621-.121.216-.352.336-.469.549a.654.654,0,0,0,.02.611,3.777,3.777,0,0,1,.117.7c.046.237.221.409.472.28s.224-.345.171-.583c-.072-.321-.211-.673.127-.86a1.207,1.207,0,0,0,.588-.518C76.689,47.83,76.816,47.477,76.538,47.277ZM192.482,99.2c1.578-.937,6.442-.469,5.974-.971s-1.142-.2-2.013-.3.4-.736.8-1.171c.369-.469-1.41-.368-2.886.3A3.2,3.2,0,0,0,192.482,99.2Zm-36.12.763a39.69,39.69,0,0,1,10.57,4.953,37.231,37.231,0,0,1,7.214,6.053,32.213,32.213,0,0,1,7.013-6.057,39.7,39.7,0,0,1,10.568-4.949s-5.335.234-10.9,1.037-6.779,1.539-6.779,1.539-1.207-.736-6.776-1.539S156.362,99.96,156.362,99.96Zm28.177,4.609c-.973.7-2.047,1.439-3.052,2.242-.572.471-1.137.94-1.679,1.409a4.245,4.245,0,0,0,2.752.9c1.979,0,3.557-1.1,3.557-2.476A2.462,2.462,0,0,0,184.539,104.569Zm-16.963,2.417c-1.008-.7-2.383-1.573-3.725-2.41a2.37,2.37,0,0,0-1.578,2.071c0,1.372,1.612,2.476,3.558,2.476a4.009,4.009,0,0,0,3.054-1.2C168.448,107.588,168.011,107.287,167.576,106.986Zm-11.669-7.655a3.037,3.037,0,0,0-1.878-2.142c-1.477-.7-3.289-.77-2.886-.3.368.469,1.677,1.071.8,1.171s-1.544-.2-2.013.3C149.466,98.9,154.331,98.428,155.907,99.331ZM130.19,126.7c-.012-.024-.023-.049-.035-.072-.069-.14-.142-.278-.208-.419.077.161.163.326.242.49Zm36.5-7.446a67.356,67.356,0,0,0-5.333-4.913c-2.445-1.9-2.684-1.334-4.932-3.108s-3.322-4.317-1.476-7.429L96.932,97.614s0,3.815,5.5,5.354,21.977,1.74,23.521,2.142c1.544.435,1.242.8.638.77s-20.9-1.305-20.9-1.305a4.614,4.614,0,0,0,1.844,2.041,5.1,5.1,0,0,0,2.719.6s0,.5,2.784,1.171c2.786.7,22.044,1.071,23.252,1.305s.068.7-.939.6c-1.006-.067-18.052.3-18.052.3a14.054,14.054,0,0,0,4.63,2.108,17.025,17.025,0,0,0,4.765.167s.868,1.375,3.888,1.575a77.951,77.951,0,0,0,11.24-.167c2.651-.3,2.953.636,2.953.636s-2.516.2-4.026.469-5.67.335-5.67.335a11.22,11.22,0,0,0,5.972,1.74c3.825.1,2.852.368,3.557.5a53.34,53.34,0,0,0,9.126-.435c2.651-.5,3.692-.335,3.422-.033s-4.194.77-4.7,1.1-1.242.335.838.368S166.687,119.255,166.687,119.255Zm14.571,5.3s-2.82-2.008-3.994-2.744c-1.141-.77-.972-.8-.972-.8h.57l8.724-6.325a21,21,0,0,1-3.994.636,18.892,18.892,0,0,1-4.931-.368s.839-.535,6.139-.535,9.294-5.455,9.294-8.132-2.953-4.685-2.953-4.685-1.375.8-3.188,2.008a3.63,3.63,0,0,1,2.115,3.012c0,2.108-2.45,3.815-5.5,3.815a6.724,6.724,0,0,1-3.993-1.2c-2.349,2.008-4.127,3.681-4.127,3.681a32.567,32.567,0,0,0-4.227-3.949,6.47,6.47,0,0,1-4.4,1.539c-3.019,0-5.5-1.707-5.5-3.815a3.568,3.568,0,0,1,2.047-2.978c-1.643-1-2.919-1.807-2.919-1.807s-6.341,2.443-1.576,8.132c4.764,5.656,11.643,4.384,12.885,4.384a1.379,1.379,0,0,1,1.443,1.037s-4.5.1-6.106-.067a16.12,16.12,0,0,1-3.154-.77l8.42,6.358h.572l.034.535a11.287,11.287,0,0,0-1.745.9c-1.142.736-3.356,2.476-3.356,2.476a2.2,2.2,0,0,0,2.617-.435c1.476-1.171,2.047-.8,2.047-.8s-2.784,1.707-1.711,2.978,2.953-.97,2.953-.97-.8,3.28,1.375,3.28,1.476-3.045,1.476-3.045,1.915,1.927,2.615,1.091,0-1.573-.536-2.343c-.5-.77-.37-1-.37-1s1.443,1.606,2.786,1.606S181.258,124.553,181.258,124.553Zm33.331,19.28c-.091-.321-.269-.961-.623-1.106-.591-.244-.8,1.627-.881,1.952-.207.865-.459,1.712-.614,2.588-.014.075-.027.151-.043.227a12.419,12.419,0,0,1-2.987,6.2,9.065,9.065,0,0,0-1.469,1.863,7.791,7.791,0,0,0-.279,1.062,3,3,0,0,1-.56,1.028c-.509.587-1.288.784-1.837,1.316-.605.589-.754,1.61-1.443,2.1a1.07,1.07,0,0,1-.993.078c-.245-.08-.6-.358-.855-.349-.387.011.008.75-.116,1.013-.223.477-1.32.315-1.75.486-.759.3-.207.782.3.95a5.278,5.278,0,0,0,1.581.26,4.25,4.25,0,0,0,.9-.085c.7-.145,1.332-.512,2.032-.67a1.218,1.218,0,0,0,1.225-1.213,1.051,1.051,0,0,0-.008-.148,5.475,5.475,0,0,1,.242-1.53,1.252,1.252,0,0,1,1.038-.694,1.238,1.238,0,0,0,1.153-.659,2.45,2.45,0,0,1,.94-1.026,9.137,9.137,0,0,0,1.253-.5,1.711,1.711,0,0,0,.728-1.219,1.472,1.472,0,0,1,.546-1c.345-.2,1.31-.386.888-.97-.283-.394-.723-.64-.377-1.182a3.2,3.2,0,0,1,.924-.73,2.577,2.577,0,0,0,1.011-1.245,3.9,3.9,0,0,0,.033-1.706,7.071,7.071,0,0,1-.079-1.644c.057-.55.2-1.086.258-1.635A4.863,4.863,0,0,0,214.589,143.833ZM251.451,97.48,193.406,103.7c1.847,3.112.773,5.656-1.476,7.429s-2.516,1.171-4.932,3.112a61.134,61.134,0,0,0-5.334,4.919s11.307-.268,13.388-.3,1.341-.033.839-.368-4.43-.8-4.7-1.1.773-.469,3.422.033a53.25,53.25,0,0,0,9.127.435c.7-.1-.268-.368,3.557-.5a10.876,10.876,0,0,0,5.972-1.74s-4.159-.067-5.669-.335-4.026-.469-4.026-.469.3-.97,2.952-.636a88.77,88.77,0,0,0,11.241.167c3.02-.2,3.892-1.573,3.892-1.573a16.981,16.981,0,0,0,4.764-.167,14.293,14.293,0,0,0,4.63-2.075s-17.078-.368-18.05-.3c-1.007.067-2.148-.368-.94-.6s20.467-.6,23.252-1.305,2.785-1.171,2.785-1.171a5.5,5.5,0,0,0,2.718-.6,4.88,4.88,0,0,0,1.844-2.041s-20.3,1.272-20.9,1.305c-.574-.045-.874-.447.668-.848,1.544-.435,18.018-.6,23.521-2.142S251.451,97.48,251.451,97.48Zm11.375-4.173a5.489,5.489,0,1,0-5.477,5.488A5.5,5.5,0,0,0,262.826,93.307ZM280.9,122.13h0a1.549,1.549,0,0,0-.306.687c-.036.193-.129.628.221.531.174-.049.207-.218.316-.335a1.4,1.4,0,0,1,.364-.2c.149-.084.2-.339.207-.5a.428.428,0,0,0-.207-.444C281.245,121.755,281.031,121.945,280.9,122.13ZM95.9,51.741a.248.248,0,0,0,.5-.013.256.256,0,0,0-.261-.248A.248.248,0,0,0,95.9,51.741Zm188.86,71.684.005,0a.39.39,0,0,0-.377-.08.142.142,0,0,0-.069.18C284.4,123.666,284.889,123.633,284.764,123.425Zm-1.288-2.81h0Zm0,0c-.173.138-.216.5-.488.3-.152-.109-.419-.464-.557-.16a2.446,2.446,0,0,0-.136.83,3.674,3.674,0,0,1-.16.749c-.016.059-.055.159.02.19s.227-.063.293-.09a.659.659,0,0,1,.524-.011.813.813,0,0,1,.314.31.646.646,0,0,0,.124.156.192.192,0,0,0,.207-.008c.061-.034.145-.041.2-.091a.446.446,0,0,0,.092-.332c-.006-.271-.212-.458-.243-.716-.038-.315.289-.487.338-.775A.344.344,0,0,0,283.479,120.614Zm.11,2.994h.007a.341.341,0,0,0,.086.264c.089.066.23-.019.262-.105a.319.319,0,0,0-.024-.268C283.824,123.371,283.613,123.471,283.589,123.608Zm.53-3.382h0c.249.13.359-.345.132-.46-.118-.06-.268.134-.271.241A.255.255,0,0,0,284.119,120.226ZM123.436,48.837a.119.119,0,0,0-.143-.084.121.121,0,0,0,.029.238A.135.135,0,0,0,123.436,48.837Zm4.369,12.809a1.306,1.306,0,0,0,.571-.214.685.685,0,0,0,.215-.513c.033-.211.1-.423.144-.634a1.83,1.83,0,0,0-.026-.861,8.792,8.792,0,0,0-.362-.805c-.11-.273-.124-.623-.255-.9-.122-.259-.37.033-.5.147a7.771,7.771,0,0,0-.81.695.78.78,0,0,0-.054.839,8.564,8.564,0,0,1,.4.851,1.033,1.033,0,0,1,.034.2c.027.32-.185.639-.057.97v0C127.216,61.707,127.564,61.664,127.805,61.646Zm-4.369-12.81h0l0,0Zm-13.215,4.75a.14.14,0,0,0-.152.125v0h0a.15.15,0,1,0,.172-.124Zm14.456,8.606,0,0c0,.292.129.529.287.529s.287-.237.287-.529-.129-.529-.287-.529S124.677,61.9,124.677,62.192ZM122.9,45.123h0a.234.234,0,1,0-.176-.28.224.224,0,0,0-.006.052A.209.209,0,0,0,122.9,45.123Zm25.4,10.63c.154.16.382.034.559-.017a.965.965,0,0,1,.55-.039c.157.06.251.237.413.3a.584.584,0,0,0,.507-.047,1.192,1.192,0,0,0,.392-.977,1.006,1.006,0,0,0-.915-.975c-.519-.019-.972.451-1.3.793l0,.005C148.292,55.021,148.024,55.464,148.3,55.753ZM136.83,67.794l0,0c0,.194.07.352.157.352s.157-.158.157-.352-.07-.352-.157-.352S136.83,67.6,136.83,67.794ZM122.524,47.653l0,.005c.177.022.323-.093.493-.1s.223.191.263.336c.021-.005.008-.012.013-.027V47.84a1,1,0,0,0,.388.611.737.737,0,0,1,.207.3,2.516,2.516,0,0,1,.027.274.46.46,0,0,0,.139.242c.044.045.176.125.179.2.009.155-.423.161-.523.236-.216.163.082.5.163.671.136.281-.044.2-.214.081-.211-.143-.416-.244-.6-.009a1.217,1.217,0,0,0-.237.766,1.27,1.27,0,0,0,.213.633c.12.185.35.355.393.579.049.254-.14.5-.153.75-.016.3.215.339.459.292s.452-.126.621.108c.155.213.237.478.514.559.25.074.46.024.624.27.194.289.27.658.571.868a.6.6,0,0,0,.694.014.7.7,0,0,0,.185-.569c0-.23-.059-.454-.067-.684a7.3,7.3,0,0,0-.015-.837,2.385,2.385,0,0,1-.083-.524c.009-.122.057-.236.067-.359a3.074,3.074,0,0,1,.142-1.086,2.939,2.939,0,0,0,.454-1.573,1.168,1.168,0,0,1,.019-.73,1.832,1.832,0,0,1,.629-.517,2.188,2.188,0,0,1,.413-.228,3.748,3.748,0,0,0,.384-.14c.282-.157.222-.539.221-.811,0-.07-.023-.233.057-.272.059-.029.158.044.214.058.218.055.276-.125.443-.21s.364.031.527-.091.21-.466.427-.5c.153-.021.353.213.474.05.136-.183-.026-.5.041-.7.124-.388.848-.1.9-.6.075-.689-.651-1.065-1.074-1.461a3.316,3.316,0,0,0-.55-.467,2.912,2.912,0,0,0-.659-.414,1.387,1.387,0,0,0-.819-.023,1.032,1.032,0,0,0-.355.182c-.1.1-.136.24-.226.346a.52.52,0,0,1-.735.028l0,0c-.192-.15-.344-.448-.632-.357-.209.066-.427.413-.315.626s.511.177.422.5a.682.682,0,0,1-.208.284c-.077.078-.133.174-.209.252-.227.234-.515.125-.781.245-.285.128-.353.491-.6.663a1.534,1.534,0,0,1-.749.167c-.243.023-.338-.143-.4-.368-.045-.173-.073-.413-.3-.4-.382.021-.673.471-.894.729a4.168,4.168,0,0,0-.788,1.255C122.2,47.036,122.05,47.6,122.524,47.653ZM110.53,53.345l0,0c.094.065.159.165.257.227a1.009,1.009,0,0,0,.5.111,2.391,2.391,0,0,0,.413-.051c.209-.04.418-.065.628-.1.107-.017.211-.053.319-.067a2.23,2.23,0,0,1,.283.009,1.213,1.213,0,0,0,.776-.186.466.466,0,0,0,.092-.515c-.076-.275-.178-.54-.241-.82a3.139,3.139,0,0,0-.213-.808,1.177,1.177,0,0,0-1.467-.4,8.041,8.041,0,0,0-.837.68c-.309.233-.678.394-.969.649C109.573,52.508,110.156,53.084,110.53,53.345ZM82.815,46.21c0,.206.1.372.222.372s.222-.166.222-.372-.1-.369-.227-.369l.005,0C82.914,45.838,82.815,46,82.815,46.21ZM111.008,54.1h0c0,.06.078.109.174.109s.174-.049.174-.109-.078-.109-.174-.109S111.008,54.035,111.008,54.1Zm1.114,2.719,0,.005c0,.116.179.209.4.209s.4-.093.4-.209-.179-.209-.4-.209S112.122,56.7,112.122,56.815Zm10.139-7.058,0,.005c.325.2.589-.323.7-.554a.969.969,0,0,0-.031-.765c-.086-.214-.379-.488-.622-.322-.217.149-.1.449-.053.65a.782.782,0,0,1-.049.566C122.137,49.471,122.105,49.664,122.261,49.757Zm.028,1.488,0,.005c.08,0,.144-.111.144-.248s-.064-.248-.144-.248-.143.111-.143.248S122.208,51.245,122.289,51.245ZM261.826,93.307a4.491,4.491,0,0,1-4.464,4.518h-.036a4.5,4.5,0,1,1,4.5-4.518Zm-1.683,2.8-.672-1.071a6.437,6.437,0,0,0-.669-.929,2.9,2.9,0,0,0-.6-.469,1.713,1.713,0,0,0,1.107-.5,1.5,1.5,0,0,0,.369-1.037,1.543,1.543,0,0,0-.234-.87,1.242,1.242,0,0,0-.638-.535,4.223,4.223,0,0,0-1.31-.134h-2.349v5.552h1.109V93.809h.235a2.234,2.234,0,0,1,.57.067.785.785,0,0,1,.336.234,7.749,7.749,0,0,1,.6.8l.8,1.2Zm76.284,34.961v0c-.159.188-.14.558-.2.787a2.8,2.8,0,0,0-.165.687,2.415,2.415,0,0,1-.02.809,7.61,7.61,0,0,0-.422.842c-.046.2-.028.63.218.7a.157.157,0,0,0,.043.009c.248.023.4-.341.452-.535.038-.159.052-.326.078-.488a2.754,2.754,0,0,0,.04-.559,1.981,1.981,0,0,1,.168-.641,2.459,2.459,0,0,0,.206-1.35C336.783,131.16,336.608,130.855,336.427,131.071Zm-.038-17.176Zm-.163.457c0,.257.073.456.164.456s.163-.2.163-.456-.073-.456-.164-.457S336.226,114.1,336.226,114.352Zm-.4-3.043a1.43,1.43,0,0,0-.011-.553c-.022-.091-.053-.18-.148-.213s-.172.02-.263-.054c-.06-.05-.141-.226-.242-.171-.059.031-.083.207-.084.267a1.18,1.18,0,0,0,.086.314c.064.253-.043.535.227.7C335.615,111.73,335.782,111.521,335.825,111.309Zm-.069,1.228h0a.185.185,0,1,0,.184-.209A.2.2,0,0,0,335.756,112.537Zm.618,15.983h0c0,.106.055.192.122.192s.122-.086.122-.192-.055-.191-.122-.191S336.374,128.414,336.374,128.52Zm-.859-14.168h0c.061,0,.111-.068.111-.15s-.05-.15-.111-.15-.111.067-.111.15S335.453,114.352,335.515,114.352Zm.216,14.072h0c0-.052-.067-.1-.148-.1s-.148.043-.148.1.066.1.148.1S335.731,128.477,335.731,128.424Zm2.07-4.393c-.245-.025-.294.244-.313.43-.028.269-.049.529-.1.794a.78.78,0,0,0,.077.592c.221.286.411-.227.456-.4.035-.135.1-.256.133-.392C338.128,124.771,338.271,124.08,337.8,124.031Zm-1.015-5.572h0v0a.262.262,0,1,0,.287.261A.275.275,0,0,0,336.786,118.459Zm2.774-51.476c-.283.016-.571.02-.853.042-.2.017-.626.219-.524.487.067.176.477.19.634.171a2.444,2.444,0,0,0,.871-.287c.078-.048.381-.285.3-.389C339.929,66.933,339.644,66.978,339.56,66.983Zm-1.81,55.788a.24.24,0,1,0-.235.287A.266.266,0,0,0,337.75,122.771Zm-.218-2.049v0a.322.322,0,1,0-.322-.322A.322.322,0,0,0,337.532,120.727ZM336.31,69.083v0c-.521,0-.938.331-1.452.039-.167-.1-.336-.266-.545-.228a.39.39,0,0,0-.311.409c.066.413.78.356,1.078.352s.609-.012.913-.01.552.172.847.127c.183-.027.376-.254.207-.425A1.168,1.168,0,0,0,336.31,69.083ZM82.2,46.871c.083,0,.15-.05.15-.111s-.067-.111-.15-.111-.15.05-.15.111S82.12,46.871,82.2,46.871Zm-2.526,1.613c0,.083.1.15.215.15s.215-.068.215-.15-.1-.15-.215-.15S79.677,48.4,79.677,48.484Zm256.148,62.825h0v0ZM161.562,70.956h0a.23.23,0,0,0-.153.217c-.019.208.106.342.316.245.14-.065.251-.341.121-.463C161.775,70.887,161.643,70.925,161.562,70.956ZM82.223,45.749h0c0-.18-.105-.326-.235-.326s-.235.146-.235.326.105.327.235.327S82.223,45.929,82.223,45.749ZM317.766,65.317a1.581,1.581,0,0,0,.113.7c.1.187.576.3.648.03a.993.993,0,0,0-.048-.422c-.026-.121-.062-.237-.094-.357a3.165,3.165,0,0,1-.1-1.217,6.666,6.666,0,0,1,.138-.654,1.386,1.386,0,0,0,.06-.52c-.046-.311-.371-.506-.644-.6-.253-.089-.564-.057-.554.277.008.253.23.447.224.7-.008.314-.263.594-.365.88s.078.377.259.559v0A1.157,1.157,0,0,1,317.766,65.317ZM80.3,46.607h0a.138.138,0,1,0,.137-.154A.146.146,0,0,0,80.3,46.607Zm.639-.694h0a.135.135,0,0,0,.161.1.134.134,0,0,0-.031-.265A.15.15,0,0,0,80.943,45.913Zm81.819,26.11a1.221,1.221,0,0,0-.374.535c-.043.1-.145.284-.025.365a.389.389,0,0,0,.35-.021.628.628,0,0,0,.35-.4c.055-.125.242-.484.042-.569h0C162.975,71.88,162.867,71.951,162.762,72.023Zm171.587,30.9c-.129.073.013.206.069.274s.081.109.124.163a2.132,2.132,0,0,0,.125.189.425.425,0,0,0,.226.091c.066.013.121.015.151-.054.041-.091-.017-.148-.076-.208a1.769,1.769,0,0,1-.279-.288l0,0C334.619,102.969,334.5,102.834,334.349,102.921Zm.027,34.25a3.071,3.071,0,0,1-.17.821,1.412,1.412,0,0,1-.767.526c-.182.073-.541.157-.579.392-.035.209.165.456.207.658.136.655-.516,1.049-.517,1.657a5.254,5.254,0,0,0,.194.831,9.286,9.286,0,0,1,.041,1.248,1.14,1.14,0,0,0,.384.982c.429.277.54-.512.583-.786a3.707,3.707,0,0,0-.194-1.455,1.872,1.872,0,0,1-.03-.874,1.82,1.82,0,0,1,.424-.68,1.456,1.456,0,0,0,.369-.711c.039-.254-.026-.506,0-.759.057-.636.787-.977.862-1.624C335.247,136.808,334.533,136.525,334.376,137.171Zm-2.343-32.392v0a.218.218,0,0,0,.217.14.81.81,0,0,0,.409-.18c.062-.044.12-.1.06-.176a.267.267,0,0,0-.178-.08C332.38,104.486,331.928,104.517,332.033,104.779Zm.116,40.892a1.261,1.261,0,0,0-.945.247c-.239.2-.177.484-.106.754a3.341,3.341,0,0,1,.165,1.1,6.97,6.97,0,0,0-.162.951v.083c0,.311-.08.608-.082.922,0,.1,0,.379.086.445.226.173.516-.478.557-.626a5.6,5.6,0,0,0,.093-.9c.035-.322.012-.647.056-.969a5.393,5.393,0,0,1,.443-1.355C332.36,146.093,332.512,145.744,332.149,145.671Zm1.759-38.652h0v0Zm0,0a.88.88,0,0,0,.13.5c.185.372.578.361.716-.041.116-.338.023-.731.16-1.064a2.692,2.692,0,0,0,.31-.822.818.818,0,0,0-.372-.731,2.666,2.666,0,0,1-.606-.686c-.1-.161-.308-.537-.552-.392s-.2.516-.131.729c.109.32.342.583.463.9a2.014,2.014,0,0,1,.033,1.193C334.026,106.753,333.937,106.879,333.908,107.018ZM154.7,18.879a.165.165,0,0,0-.172.151h0a.176.176,0,1,0,.2-.15Zm.767-1.262c.091,0,.165-.111.165-.248s-.074-.248-.165-.248-.165.111-.165.248S155.381,17.616,155.471,17.617Zm.022-.941a.153.153,0,0,0,.145-.16h0a.145.145,0,1,0-.144.16Zm1.976,45.861c.217-.073.684-.239.535-.551a1.272,1.272,0,0,0-.391-.415c-.254-.192-.665-.4-.95-.166a4.564,4.564,0,0,0-.37.416c-.111.121-.243.22-.352.343-.074.082-.181.221-.062.311s.325.015.449.006h-.005a1.4,1.4,0,0,1,.57.106A.963.963,0,0,0,157.469,62.537Zm-2-44.92h0Zm-.322.688a.245.245,0,1,0,.271-.216l-.027,0A.233.233,0,0,0,155.15,18.305Zm.418,2.7h0a1.317,1.317,0,0,0,.476.03,2.243,2.243,0,0,0,.436-.093,3.3,3.3,0,0,1,.39-.129,1.219,1.219,0,0,0,.632-.363c.214-.213.467-.633.066-.807a2.946,2.946,0,0,0-.711-.1c-.4-.073-.837-.614-1.254-.378a1.471,1.471,0,0,0-.648,1.077A.752.752,0,0,0,155.568,21.006Zm-.462-3.678h0a2.337,2.337,0,0,0-.028-.418,1.341,1.341,0,0,0-.216-.47c-.083-.131-.142-.211-.3-.162a1.224,1.224,0,0,0-.045.567c.016.143.012.285.027.427.012.108,0,.272.108.337C154.811,17.7,155.106,17.5,155.106,17.328ZM168.8,55.886h-.006a.191.191,0,1,0,.006,0Zm-11.59,1.763h0a.715.715,0,0,0-.171-.624c-.25-.2-.23.323-.181.441S157.094,57.906,157.209,57.649Zm-.054-40.86c.127,0,.23-.144.23-.321s-.1-.322-.231-.322-.23.144-.23.322S157.028,16.789,157.155,16.789Zm-.766-1.206h-.006a.263.263,0,0,0,.276.024c.159-.078.3-.306.134-.451s-.464-.522-.654-.2a.4.4,0,0,0-.016.354A1.183,1.183,0,0,0,156.389,15.583ZM131.7,42.255c-.141.034-.568.026-.64.156s.223.4.293.489c.127.16.25.346.4.51v0c.117.13.257.237.374.368a3.852,3.852,0,0,1,.482.693.968.968,0,0,0,.264.371c.32.211.812.357.972-.1.1-.288.049-.626.163-.9.087-.215.237.052.315.149.1.131.252.313.39.12.1-.147.106-.441.264-.543.132-.087.3.079.435.1.279.033.459-.267.581-.471.074-.122.25-.6.442-.564.171.027.3.425.391.548.477.616.951-.434,1.093-.8.042-.108.148-.637.283-.671s.238.357.278.436c.087.17.227.4.423.219.168-.154.219-.511.418-.618.141-.076.252.177.3.277.068.151.1.292.3.293s.441-.1.661-.106c.171-.008.461.035.578-.142.084-.129.024-.43.026-.58,0-.281.189-.373.4-.186a.747.747,0,0,0,.516.185c.143-.015.15-.131.256-.22a1.55,1.55,0,0,1,.756-.234c.279-.027.246.221.463.313.236.1.454-.19.647-.278a.6.6,0,0,1,.364-.1,2.7,2.7,0,0,0,.968-.062,4.752,4.752,0,0,0,.739-.143.517.517,0,0,1,.658.138,2.782,2.782,0,0,0,.679.522.834.834,0,0,0,.8-.047,1.866,1.866,0,0,1,.934-.227c.3.019.587.147.891.166a3.21,3.21,0,0,0,1.071-.2,4.2,4.2,0,0,1,1.184-.174,1.868,1.868,0,0,0,.969-.129,2,2,0,0,0,.715-.905c.3-.625.539-1.352-.128-1.815a2.036,2.036,0,0,0-2.029-.218,5.1,5.1,0,0,1-1.606.644,2.212,2.212,0,0,1-.869-.03c-.261-.068-.5-.193-.764-.258-.556-.138-1.192.068-1.67-.316-.495-.4-.865-1.1-1.61-.833a2.367,2.367,0,0,0-.446.24,2.477,2.477,0,0,1-.373.262c-.182.066-.306-.1-.447-.184a.786.786,0,0,0-.467-.1,2.51,2.51,0,0,1-.98-.278A1.685,1.685,0,0,0,141.81,37c-.425.079-.7.414-1.154.339-.173-.029-.307-.064-.439.076s-.176.308-.345.4c-.394.206-.727-.306-1.1-.157-.207.083-.273.329-.456.435-.2.117-.336-.086-.44-.238s-.219-.388-.432-.435a.567.567,0,0,0-.5.182c-.313.338.049.582.207.866.111.2-.057.3-.23.34-.22.056-.4.028-.4.329,0,.1.154.466.092.546-.128.162-.773-.641-1.048-.416-.217.177.1.759-.289.731s-.774-.06-1,.352c-.127.233-.1.658-.467.477a3.075,3.075,0,0,0-.545-.3.541.541,0,0,0-.51.192c-.146.13-.3.292-.514.275s-.366-.172-.561-.221a.4.4,0,1,0-.282.75c.185.128.529.2.653.4S131.842,42.221,131.7,42.255Zm24.6,16.372H156.3a.181.181,0,0,0,.164.294c.123-.013.36-.032.412-.165C157.006,58.436,156.445,58.447,156.3,58.627Zm-1.649-43.1c.161.089.349.116.512.2.123.064.2.195.327.249a.271.271,0,0,0,.362-.126.307.307,0,0,0,.013-.032,1.049,1.049,0,0,0-.034-.459.338.338,0,0,0-.252-.234c-.115-.023-.224.041-.338.02-.219-.04-.658-.473-.8-.064a.39.39,0,0,0,.207.447Zm1.227,41.338c.178-.09.286.016.474.009.245-.008.138-.283.055-.424s-.272-.124-.425-.093c-.364.074-.691.258-.607.678.01.051.471-.151.51-.168Zm1.737-42.206h0c.177.1.408.276.619.249.162-.02.516-.149.462-.378a.265.265,0,0,0-.154-.165,2.657,2.657,0,0,0-.573-.1c-.215-.041-.376-.094-.5.121C157.4,14.534,157.514,14.606,157.619,14.663Zm.682,4.3a.31.31,0,0,0-.038-.407,1.107,1.107,0,0,0-.7-.1c-.244,0-.619-.125-.8.1-.111.141.03.344.113.471a.8.8,0,0,0,.688.3.729.729,0,0,0,.4-.1c.138-.089.262-.121.342-.258ZM160,60.171h0Zm5.989-8.89c.1.055.26.019.369.035.161.024.462.2.554-.027.038-.1.047-.2.088-.3.054-.125.2-.247.192-.386a.2.2,0,0,0-.2-.2h0c-.232-.028-.477.233-.644.356C166.262,50.821,165.729,51.136,165.989,51.281Zm2.409-2.275h-.007a.412.412,0,0,0,.528.009c.092-.082.066-.168.048-.275a.63.63,0,0,0-.278-.465,1.566,1.566,0,0,0-.285-.072.52.52,0,0,0-.31-.055c-.18.059-.009.264.029.367A.887.887,0,0,0,168.4,49.006Zm-.909,8.917h-.006c0,.111.121.2.271.2s.271-.091.271-.2-.121-.2-.271-.2S167.489,57.811,167.489,57.923Zm-.247-8.939h-.007a.14.14,0,0,0,.2,0,.109.109,0,0,0,.023-.029.344.344,0,0,0,.019-.217,1.664,1.664,0,0,0-.022-.243c-.029-.138-.123-.3-.285-.211-.185.1-.059.348-.019.492C167.177,48.857,167.172,48.929,167.242,48.984Zm.357-2.49h0a.18.18,0,1,0-.2-.179A.191.191,0,0,0,167.6,46.494Zm.912,11.226,0,0,0,0Zm.12-.186c0-.1-.057-.186-.127-.186s-.127.083-.127.186.061.181.13.184S168.631,57.635,168.631,57.534Zm.112-2.5a.183.183,0,1,0-.183.183h0A.183.183,0,0,0,168.743,55.038Zm-9.412-37.809h0c.041.089.136.193.242.183a.167.167,0,0,0,.148-.186h0c-.007-.2.013-.436-.169-.561a.158.158,0,0,0-.223.019l0,0c-.054.071-.029.153-.033.234A.629.629,0,0,0,159.331,17.229Zm-.049,43.638a.662.662,0,0,0,.113.7c.11.144.431.508.583.227a1.619,1.619,0,0,0,.166-.425,1.027,1.027,0,0,0,.026-.362c-.026-.213.2-.8-.169-.835a.391.391,0,0,0-.319.182,2.812,2.812,0,0,1-.163.24A1.544,1.544,0,0,0,159.282,60.867Zm.816-1.48c-.121-.057-.42.035-.444.174s.1.217.235.2h-.007c.077-.009.265-.032.31-.1S160.164,59.419,160.1,59.387Zm-1.773-39.122h0a.55.55,0,0,0,.066.774c.011.009.022.018.034.026a1.847,1.847,0,0,0,.539.267,1.151,1.151,0,0,0,.577.008,5.214,5.214,0,0,0,.607-.258c.245-.1.689-.112.7-.47a1.913,1.913,0,0,0-.071-.444,3.158,3.158,0,0,0-.12-.446c-.084-.215-.2-.157-.357-.035a1.081,1.081,0,0,1-.635.308C159.2,20.013,158.642,19.771,158.325,20.265Zm-3.934-.118c-.059-.176-.123-.349-.174-.527a1.024,1.024,0,0,0-.306-.516c-.149-.138-.383-.327-.559-.126a1.027,1.027,0,0,0-.183.5.751.751,0,0,1-.241.343c-.1.112-.248.248-.2.413a.434.434,0,0,0,.392.289c.165.015.349.048.475-.086.054-.057.066-.131.136-.17a.177.177,0,0,1,.223.023c.117.106.291.43.475.225v0C154.52,20.412,154.428,20.255,154.391,20.147Zm12.576,36.738h-.006c-.151,0-.274.092-.274.205s.123.206.274.206.274-.092.274-.206S167.118,56.885,166.967,56.885Zm-1.054.261h0Zm-5.275-39.633c.052.034.149.093.215.072.084-.029.088-.158.064-.229a2.461,2.461,0,0,1-.09-.315,1,1,0,0,0-.141-.427c-.137-.176-.268-.007-.3.149a.82.82,0,0,0,.249.75Zm5.27,39.632c.166,0,.3-.076.3-.169s-.136-.169-.3-.169-.3.075-.3.169S165.743,57.143,165.908,57.145ZM157.156,16.79h0Zm-3.573,1.126a.336.336,0,0,0,.022-.338,1.217,1.217,0,0,0-.277-.259c-.122-.1-.367-.219-.418.016a.6.6,0,0,0,.3.581C153.318,17.965,153.488,18.016,153.583,17.916Zm-2.294-.3h0a.091.091,0,0,0,.1-.079v0a.1.1,0,0,0-.192,0A.09.09,0,0,0,151.289,17.617Zm2.287-1.077v0a1.742,1.742,0,0,0,0,.382,2.535,2.535,0,0,0,.189.514,1.163,1.163,0,0,0,.278.435c.076.066.189.136.269.035.094-.119.038-.32.008-.451a1.323,1.323,0,0,1,0-.532c.028-.17.092-.388-.037-.532-.054-.06-.128-.1-.182-.156a.628.628,0,0,1-.13-.3c-.049-.228-.054-.6-.3-.712a.213.213,0,0,0-.292.076.22.22,0,0,0-.029.109,1.749,1.749,0,0,0,.1.688A1.046,1.046,0,0,1,153.576,16.54Zm.695,1.768c-.077,0-.139.093-.139.209s.063.209.139.209.139-.094.139-.209-.062-.2-.139-.2Zm-3.383-1.417a.133.133,0,0,0-.124.143v0l0,0a.124.124,0,1,0,.122-.144Zm-.06-3.812,0,0c.255.028.38-.113.273-.339-.062-.131-.307-.358-.43-.15-.058.1-.143.2-.079.318A.353.353,0,0,0,150.828,13.079Zm.293,3.071,0,0c0-.113-.069-.2-.152-.2s-.152.092-.152.2.069.2.152.2S151.121,16.263,151.121,16.15Zm.623,1.884h.006a.094.094,0,1,0-.114-.091A.1.1,0,0,0,151.744,18.034Zm-.333.278c-.067,0-.122.076-.122.169s.055.17.122.17.119-.075.119-.169h0C151.533,18.387,151.478,18.312,151.411,18.312Zm0-1.418h0a.109.109,0,1,0-.122-.108A.115.115,0,0,0,151.408,16.894Zm.844,1.628h0a.144.144,0,1,0-.157-.144A.151.151,0,0,0,152.252,18.522Zm-.335-.993h0a.121.121,0,1,0-.087-.147.1.1,0,0,0,0,.03A.107.107,0,0,0,151.917,17.529Zm.755-1.087h0c.151.071.41.4.6.267.1-.071.046-.178,0-.263a.889.889,0,0,0-.458-.459c-.12-.049-.4-.059-.384.14A.442.442,0,0,0,152.672,16.442Zm-6.715-4.18h0c.076.244.12.664.481.564.192-.053.348-.2.546-.237a.438.438,0,0,1,.359.114c.078.077.112.226.255.168.121-.05.055-.178.148-.24s.182-.008.22.089a2.473,2.473,0,0,0,.159.449c.176.285.465.139.573-.119.186-.444-.26-.823-.619-1a1.494,1.494,0,0,0-.818-.2c-.4-.029-.567-.415-.907-.571a.829.829,0,0,0-.623-.015c-.12.044-.282.134-.25.285s.175.252.262.353A.993.993,0,0,1,145.957,12.262Zm4.061,4.774h0c-.142-.031-.277-.077-.416-.117-.112-.032-.24-.063-.32.042-.11.144-.21.4-.074.549a1.377,1.377,0,0,0,.229.209c.066.046.141.063.206.111a.874.874,0,0,0,.49.253.587.587,0,0,0,.532-.278.3.3,0,0,0-.114-.352,1.717,1.717,0,0,1-.287-.251A.412.412,0,0,0,150.018,17.036Zm2.8,4.674c0,.078.109.142.242.142s.244-.065.244-.144-.109-.143-.244-.143S152.821,21.631,152.819,21.71Zm0,0h0v0Zm1.393-.84h0a.17.17,0,1,0-.171.169h0A.17.17,0,0,0,154.211,20.871Zm-5.684-7.224,0,0c-.024-.135-.287-.159-.389-.108-.146.073-.03.266.079.321S148.553,13.791,148.527,13.647Zm5.231,7.918c0,.159.068.288.152.288s.152-.13.152-.288-.068-.285-.152-.285v0C153.826,21.277,153.758,21.406,153.758,21.565Zm-5.4-7.309c-.226.053-.4-.265-.506-.412s-.259-.365-.478-.3c-.177.048-.3.159-.492.154a2.094,2.094,0,0,0-.715-.016c-.2.064-.229.23-.153.406.065.151.115.238.008.383-.092.125-.279.28-.255.455s.279.187.417.179a1.458,1.458,0,0,0,.7-.23c.164-.1.358-.353.562-.369.135-.01.207.087.276.182s.215.141.314.218c.075.058.126.152.221.174a1.894,1.894,0,0,1,.249.038,4.358,4.358,0,0,0,.772.192.933.933,0,0,0,.64-.021,1.066,1.066,0,0,0,.415-.559.22.22,0,0,0-.079-.3.339.339,0,0,0-.039-.018c-.38-.209-.149-.744-.393-1.054a.585.585,0,0,0-.589-.186c-.247.063-.364.292-.46.506C148.69,13.855,148.584,14.2,148.358,14.256Zm4.454,4.921a1.088,1.088,0,0,1-.2-.228c-.058-.1-.131-.208-.25-.127a1.256,1.256,0,0,0-.242.328.46.46,0,0,1-.281.179c-.134.042-.644.147-.432.371l0,0a1.185,1.185,0,0,0,.343.214.481.481,0,0,0,.3.074.991.991,0,0,0,.435-.288c.126-.107.294-.136.377-.3A.182.182,0,0,0,152.812,19.177Zm.1-1.838,0,0h0Zm-5.736-.805a.567.567,0,0,0,.023.43.447.447,0,0,0,.364.294c.159.009.446.125.551-.058a.455.455,0,0,0-.054-.58c-.136-.089-.332-.038-.481-.11l0,0C147.46,16.45,147.246,16.358,147.172,16.534Z" transform="translate(-0.01 0.005)"/></svg>