<svg xmlns="http://www.w3.org/2000/svg" width="50.006" height="30.105" viewBox="0 0 50.006 30.105"><defs><style>.a{fill:#fca412;}.b{fill:#d81e04;}.c{fill:#fefefe;}.d{fill:#192068;}</style></defs><g transform="translate(0.106 0.105)"><path class="a" d="M24.9,26.1a14.768,14.768,0,0,0,10,3.9,15,15,0,0,0,0-30,14.768,14.768,0,0,0-10,3.9,15.017,15.017,0,0,0-1,21.2Z"/><path class="a" d="M47.8,23.4a.458.458,0,0,1,.4-.5h0a.5.5,0,0,1,0,1,.547.547,0,0,1-.4-.5Zm.5.3a.4.4,0,1,0-.4-.4h0C48,23.6,48.1,23.7,48.3,23.7Zm0-.1v-.4h0v.1h.1l.1.2h.1l-.1-.2a.1.1,0,0,0,.1-.1h0v-.1h-.3v.5Z"/><path class="b" d="M29.7,13.4a9.005,9.005,0,0,0-.3-1.6H20.3a9.363,9.363,0,0,1,.4-1.6H29c-.2-.5-.4-1.1-.6-1.6h-7A12.9,12.9,0,0,1,22.3,7h5.3a9.062,9.062,0,0,0-1.1-1.6h-3c.5-.6,1-1.1,1.5-1.6A15.007,15.007,0,0,0,4.8,26a15.207,15.207,0,0,0,10.1,3.9,14.768,14.768,0,0,0,10-3.9h0c.5-.5,1-1,1.5-1.6h-3a9.062,9.062,0,0,1-1.1-1.6h5.3c.3-.5.6-1,.9-1.6h-7a7.579,7.579,0,0,1-.6-1.6h8.3a9.363,9.363,0,0,0,.4-1.6c.1-.5.2-1.1.3-1.6,0-.5.1-1,.1-1.6A5.768,5.768,0,0,0,29.7,13.4Z"/><path class="c" d="M47.8,18.5a.458.458,0,0,1,.4-.5h0a.472.472,0,0,1,.5.5h0a.472.472,0,0,1-.5.5h0A.458.458,0,0,1,47.8,18.5Zm.5.4a.4.4,0,1,0,0-.8h0a.43.43,0,0,0-.4.4A.781.781,0,0,0,48.3,18.9Zm0-.2v-.3h0v.1h.1l.1.2h.1l-.1-.2.1-.1v-.1h-.3v.4Z"/><path class="d" d="M19.9,19.3a5.019,5.019,0,0,1-1.2.2c-.8,0-1.2-.5-1.2-1.4v-.6l.1-.6.1-.5.7-4.2h1.5l-.2.9h1l-.2,1.5h-1l-.4,2.5v.3c0,.3.1.5.5.5a.9.9,0,0,0,.5-.1Z"/><path class="d" d="M24.9,19.3a8.752,8.752,0,0,1-1.6.2,2.489,2.489,0,0,1-2.8-2.2v-.6c0-2.1,1.2-3.7,2.8-3.7a2.1,2.1,0,0,1,2.2,1.9v.3a7.719,7.719,0,0,1-.2,1.5H22v.2c0,.7.5,1.1,1.4,1.1a3.287,3.287,0,0,0,1.7-.4l-.2,1.7Zm-1-3.7v-.3c0-.4-.2-.8-.6-.8h-.1c-.5,0-.9.4-1,1.1Z"/><path class="d" d="M7.5,19.4H5.9l.9-5.8L4.7,19.4H3.6l-.1-5.8-1,5.8H.9l1.3-7.6H4.6v4.7l1.6-4.7H8.8Z"/><path class="d" d="M11.4,16.7h-.3c-.9,0-1.4.4-1.4.9a.56.56,0,0,0,.5.6h.1c.7,0,1.1-.6,1.1-1.5Zm1.3,2.7H11.3v-.6a2.136,2.136,0,0,1-1.7.8,1.649,1.649,0,0,1-1.5-1.7h0a2.2,2.2,0,0,1,.1-.8c.3-1,1.2-1.5,2.7-1.6h.7c0-.1.1-.3.1-.4,0-.4-.3-.5-1.1-.5a5.067,5.067,0,0,0-1.3.2H9l.2-1.4a5.822,5.822,0,0,1,1.9-.3q2.1,0,2.1,1.8a4.869,4.869,0,0,1-.1,1.2l-.4,2.2-.1.4v.5Z"/><path class="d" d="M32.6,13.3a3.255,3.255,0,0,1,1.4.4l.3-1.6a.6.6,0,0,0-.4-.1l-.6-.2a1.949,1.949,0,0,0-.8-.1,3.458,3.458,0,0,0-2.8,1.2h-.2l-1.5,1,.1-.6H26.4l-1,6.2H27l.6-3.3a3.288,3.288,0,0,1,.3-.6,1.086,1.086,0,0,1,.9-.4H29a4.869,4.869,0,0,0-.1,1.2c0,2,1.1,3.3,2.9,3.3a5.9,5.9,0,0,0,1.4-.2l.3-1.8a7.006,7.006,0,0,1-1.4.3c-1,0-1.5-.7-1.5-1.9C30.6,14.5,31.4,13.3,32.6,13.3Z"/><path class="d" d="M46.3,11.8,45.9,14a1.859,1.859,0,0,0-1.5-.9,2.313,2.313,0,0,0-2.1,1.4h0l-1-.6.1-.6H39.6l-1,6.2h1.6l.5-3.3s.4-.5.5-.6a1.012,1.012,0,0,1,.7-.4,5.663,5.663,0,0,0-.3,1.8c0,1.5.8,2.6,2,2.6a1.8,1.8,0,0,0,1.5-.7l-.1.6h1.5l1.3-7.6H46.3Zm-2,6.2c-.5,0-.8-.4-.8-1.2,0-1.2.5-2.1,1.3-2.1.6,0,.8.4.8,1.2,0,1.2-.5,2.1-1.3,2.1Z"/><path class="d" d="M36.9,16.7h-.3c-.9,0-1.4.4-1.4.9a.56.56,0,0,0,.5.6h.1c.7,0,1.1-.6,1.1-1.5Zm1.3,2.7H36.8v-.6a2.136,2.136,0,0,1-1.7.8A1.558,1.558,0,0,1,33.6,18v-.1c0-1.5,1.1-2.4,2.8-2.4h.7c0-.1.1-.3.1-.4,0-.4-.3-.5-1.1-.5a5.067,5.067,0,0,0-1.3.2h-.3l.2-1.4a5.822,5.822,0,0,1,1.9-.3q2.1,0,2.1,1.8a4.869,4.869,0,0,1-.1,1.2l-.3,2.2v.9Z"/><path class="d" d="M16,14.6a4.869,4.869,0,0,1,1.2.1l.2-1.4a7.6,7.6,0,0,0-1.4-.1c-1.8,0-2.4,1-2.4,2.1A1.743,1.743,0,0,0,14.8,17c.6.3.8.4.8.6s-.3.6-1,.6a4.013,4.013,0,0,1-1.5-.3L13,19.3h.3c.1,0,.3.1.4.1h.9c1.8,0,2.6-.7,2.6-2.1A1.743,1.743,0,0,0,16,15.6c-.7-.3-.8-.4-.8-.6S15.6,14.6,16,14.6Z"/><path class="c" d="M34.8,11.6l-.3,1.6a2.41,2.41,0,0,0-1.5-.4c-1.2,0-2.1,1.2-2.1,2.9,0,1.2.6,1.9,1.5,1.9a3.708,3.708,0,0,0,1.4-.4l-.3,1.7a6.753,6.753,0,0,1-1.4.2c-1.8,0-2.8-1.3-2.8-3.3,0-2.7,1.5-4.6,3.6-4.6a1.7,1.7,0,0,1,.7.1l.7.2Z"/><path class="c" d="M29.6,12.7h-.2c-.5,0-.9.3-1.3,1l.2-.9H26.8l-1,6.2h1.6c.6-3.8.8-4.4,1.5-4.4H29a6.033,6.033,0,0,1,.6-1.9Z"/><path class="c" d="M20.3,18.9a5.019,5.019,0,0,1-1.2.2A1.155,1.155,0,0,1,17.8,18v-.8l.1-.6L18,16l.7-4.2h1.6l-.2.9H21l-.2,1.5H20l-.4,2.6v.3c0,.3.2.4.5.4a.6.6,0,0,0,.4-.1Z"/><path class="c" d="M14.1,14.7a1.743,1.743,0,0,0,1.2,1.7c.7.3.8.4.8.7s-.3.6-.9.6a5.9,5.9,0,0,1-1.4-.2l-.2,1.4h.8a2.719,2.719,0,0,0,.9,0c1.7,0,2.5-.6,2.5-2.1a1.556,1.556,0,0,0-1.1-1.7c-.7-.3-.8-.4-.8-.7s.3-.5.8-.5a4.869,4.869,0,0,1,1.2.1l.2-1.4a6.6,6.6,0,0,0-1.4-.1C14.7,12.6,14,13.6,14.1,14.7Z"/><path class="c" d="M47.1,18.9H45.6l.1-.6a2.127,2.127,0,0,1-1.5.7c-1.2,0-2-1-2-2.5,0-2.1,1.2-3.8,2.6-3.8a1.65,1.65,0,0,1,1.5.9l.4-2.2h1.6l-1.2,7.5Zm-2.3-1.4c.7,0,1.3-.9,1.3-2.1,0-.8-.3-1.2-.8-1.2-.7,0-1.3.9-1.3,2.1C43.9,17.1,44.2,17.5,44.8,17.5Z"/><path class="c" d="M25.2,18.8a4.671,4.671,0,0,1-1.7.3A2.391,2.391,0,0,1,20.8,17v-.6c0-2.1,1.2-3.7,2.8-3.7a2.1,2.1,0,0,1,2.2,1.9v.3a7.719,7.719,0,0,1-.2,1.5H22.4v.2c0,.7.5,1.1,1.4,1.1a3.287,3.287,0,0,0,1.7-.4l-.3,1.5Zm-.9-3.7v-.3c.1-.4-.2-.7-.6-.8h-.2c-.5,0-.9.4-1,1.1Z"/><path class="c" d="M7.9,18.9H6.3l.9-5.8-2,5.8H4l-.1-5.8-1,5.8H1.4l1.3-7.6H5L5.1,16l1.5-4.7H9.2Z"/><path class="c" d="M11.9,16.2h-.4c-.9,0-1.4.3-1.4,1a.56.56,0,0,0,.5.6h.1c.7,0,1.2-.6,1.2-1.6Zm1.2,2.7H11.8v-.6a2.136,2.136,0,0,1-1.7.8,1.538,1.538,0,0,1-1.5-1.5v-.1c0-1.5,1-2.4,2.8-2.4h.7c0-.1.1-.3.1-.4,0-.4-.3-.6-1-.6a5.7,5.7,0,0,0-1.3.1l-.2.1H9.4l.2-1.4a6.279,6.279,0,0,1,1.9-.3q2.1,0,2.1,1.8c0,.4-.1.8-.1,1.2l-.4,2.2-.1.4v.5Z"/><path class="c" d="M37.4,16.2H37c-.9,0-1.4.3-1.4,1a.56.56,0,0,0,.5.6h.1c.7,0,1.2-.6,1.2-1.6Zm1.2,2.7H37.3v-.6a2.136,2.136,0,0,1-1.7.8,1.538,1.538,0,0,1-1.5-1.5v-.1c0-1.5,1-2.4,2.8-2.4h.6c0-.1.1-.3.1-.4,0-.4-.3-.6-1-.6a6.6,6.6,0,0,0-1.4.1l-.2.1h-.2l.2-1.4a6.279,6.279,0,0,1,1.9-.3q2.1,0,2.1,1.8a5.852,5.852,0,0,1-.2,1.3l-.3,2.2v.9Z"/><path class="c" d="M42.9,12.7h-.2c-.5,0-.8.3-1.3,1l.2-.9H40.1l-1,6.2h1.6c.6-3.8.8-4.4,1.5-4.4h.1a10.564,10.564,0,0,1,.6-1.9Z"/></g></svg>