<svg xmlns="http://www.w3.org/2000/svg" xmlns:xlink="http://www.w3.org/1999/xlink" width="43.3" height="12.3" viewBox="0 0 43.3 12.3"><defs><style>.a{fill:#4db45e;}.b{fill:url(#a);}</style><linearGradient id="a" x1="0.002" y1="92.303" x2="0.998" y2="92.303" gradientUnits="objectBoundingBox"><stop offset="0.3" stop-color="#00b4e6"/><stop offset="1" stop-color="#088ccb"/></linearGradient></defs><path class="a" d="M11.6,0h0A2.159,2.159,0,0,0,9.5,1.6C9.1,3.1,8,7.2,7.9,7.3H7.6S6.4,3.1,6,1.6A2.354,2.354,0,0,0,3.9,0H0V12.2H3.9V5h.3l2.2,7.3H9.1L11.3,5h.3v7.3h3.9V0Z"/><path class="a" d="M25.7,0A2.256,2.256,0,0,0,24,1.3l-2.7,6H21V0H17.1V12.2h3.7a2.1,2.1,0,0,0,1.7-1.3l2.7-6h.3v7.3h3.9V0Z"/><path class="a" d="M31.1,5.6v6.7h3.8v-4h4.2A4.083,4.083,0,0,0,43,5.5H31.1Z"/><path class="b" d="M39.1,0H30.5A6.292,6.292,0,0,0,35,4.8h0a4.145,4.145,0,0,0,1.6.2h6.6a2.769,2.769,0,0,0,.1-.9A4.206,4.206,0,0,0,39.1,0Z"/></svg>