<svg xmlns="http://www.w3.org/2000/svg" width="45.695" height="50" viewBox="0 0 45.695 50"><defs><style>.a{fill:#e6e6e6;}.b{fill:#999;}.c{fill:#242424;}.d{fill:#fff;}</style></defs><g transform="translate(-22.04)"><path class="a" d="M86.546,0,97,10.452V50H59.24V0Z" transform="translate(-33.567)"/><path class="b" d="M349.293,10.452H338.84V0Z" transform="translate(-285.862)"/><path class="c" d="M59.685,305.692H22.04V293.008h45.7Z" transform="translate(0 -264.394)"/><path class="b" d="M25.673,426.527V422.9H22.04Z" transform="translate(0 -381.598)"/><g transform="translate(34.045 31.328)"><path class="d" d="M144.968,328.091V320.8h3.3a2.028,2.028,0,0,1,2.509,2.5,2.785,2.785,0,0,1-.491,1.944,2.93,2.93,0,0,1-1.986.481l-.32,0h-1.628v2.356Zm1.383-3.519h1.575a2.094,2.094,0,0,0,1.194-.217,1.4,1.4,0,0,0,.255-1.022,1.911,1.911,0,0,0-.211-1.145,1.694,1.694,0,0,0-1.1-.222h-1.714v2.606Z" transform="translate(-144.968 -320.8)"/><path class="d" d="M213.5,328.091V320.8h3.583a2.813,2.813,0,0,1,2.139.669,3.469,3.469,0,0,1,.612,2.339,7.831,7.831,0,0,1-.491,3.506q-.492.776-2.217.777Zm1.383-1.164h1.97c.663,0,1.089-.153,1.284-.456a4.419,4.419,0,0,0,.291-2.017,4.919,4.919,0,0,0-.261-2.05c-.175-.292-.584-.436-1.228-.436h-2.056v4.959Z" transform="translate(-206.804 -320.8)"/><path class="d" d="M290.064,321.966v1.966h3.267v1.163h-3.267v3H288.68V320.8h4.828v1.166Z" transform="translate(-274.646 -320.8)"/></g></g></svg>