<svg xmlns="http://www.w3.org/2000/svg" width="135" height="30" viewBox="0 0 135 30"><defs><style>.a{fill:#26206a;}.b{fill:#fff;}.b,.c{fill-rule:evenodd;}.c{fill:#e4003d;}</style></defs><rect class="a" width="135" height="30"/><path class="b" d="M20.75,5.825a67.5,67.5,0,0,1,13.02,0,21.135,21.135,0,0,1,0,12.855,57.136,57.136,0,0,1-7.5.3c-1.83-.075-3.66-.15-5.475-.3.21-1.155.45-2.28.645-3.435a48.449,48.449,0,0,0,8.85,0c.075-.45.135-.9.195-1.35h-6v-3.3h6a10.363,10.363,0,0,0-.165-1.35,49.109,49.109,0,0,0-8.91,0c-.195-1.14-.435-2.28-.66-3.42Zm-16.14,0H19.1V18.68H14.45V9.455H9.23V18.68H4.61V5.825Zm32.085,0h4.5V10.46H42.89l3.72-4.635h5.355l-5.22,6q2.775,3.435,5.565,6.84H46.64c-1.26-1.6-2.49-3.225-3.735-4.845h-1.71v4.845h-4.5Z" transform="translate(2.305 2.755)"/><path class="c" d="M37.51,5.283a24.75,24.75,0,0,1,5.055,0c0,1.5,0,3,0,4.41H37.51Zm18.57,0a2.6,2.6,0,0,1,2.685,1.005,3.765,3.765,0,0,1,0,3.675,2.73,2.73,0,0,1-4.14.315,3.78,3.78,0,0,1-.525-3.1A2.355,2.355,0,0,1,56.08,5.283Zm0,.96a1.665,1.665,0,0,0-.765,1.5,3.975,3.975,0,0,0,.21,1.83,1.245,1.245,0,0,0,2.16,0,3.615,3.615,0,0,0,0-2.655,1.185,1.185,0,0,0-1.65-.615Zm5.22-.63a3.99,3.99,0,0,1,3-.165l-.195.975a3,3,0,0,0-2.025,0,1.95,1.95,0,0,0-.735,1.77,1.89,1.89,0,0,0,.675,1.68,3.645,3.645,0,0,0,2.265,0,4.393,4.393,0,0,0,.195.855,4.23,4.23,0,0,1-3.39-.12,2.76,2.76,0,0,1-1.035-2.46,2.85,2.85,0,0,1,1.23-2.58Zm-13.14,4.5c.975-1.395.795-3.165.96-4.755h3.66v4.725h.555v2.28H52.39v-1.41h-3.9v1.41h-.96v-2.25h.615Zm2.01-3.885a8.625,8.625,0,0,1-.75,3.9h2.145V6.2Zm14.685-.87H69.6v.9H67.84v4.665H66.655V6.168h-1.8v-.9Zm6.42,0c-.63,1.875-1.3,3.75-1.92,5.565a4.185,4.185,0,0,0,1.23,0,11.026,11.026,0,0,0,.42-1.245h2l.4,1.3H74.68c-.645-1.875-1.26-3.765-1.875-5.64h-1.5Zm.765.84c.24.885.465,1.77.735,2.655h-1.53c.255-.885.48-1.785.765-2.67Zm3.51-.855a25.5,25.5,0,0,1,3,.075,1.5,1.5,0,0,1,1.14,1.62,1.5,1.5,0,0,1-.63.975,1.575,1.575,0,0,1-.21,2.82,13.71,13.71,0,0,1-3.315.09V5.268Zm1.215.87v1.5c.54,0,1.245.165,1.62-.345a.75.75,0,0,0-.27-1,4.5,4.5,0,0,0-1.35-.105Zm0,2.28v1.59a5.775,5.775,0,0,0,1.5,0,.84.84,0,0,0,0-1.5,5.775,5.775,0,0,0-1.5,0ZM81.85,5.358h3.57v5.565H84.19V6.138H82.9a11.19,11.19,0,0,1-.555,3.93,2.46,2.46,0,0,1-1.62,1.14c-.105-.285-.2-.57-.3-.84.45-.27.99-.555,1.1-1.125a34.947,34.947,0,0,0,.33-3.96Zm4.92,1.665a1.5,1.5,0,0,1,1.305-1.65,25.265,25.265,0,0,1,2.82,0v5.655H89.7V8.673c-.48,0-1.125-.09-1.41.39a12.5,12.5,0,0,0-.63,1.86h-1.23c.36-.87.33-1.995,1.155-2.6a1.65,1.65,0,0,1-.81-1.365Zm1.74-.75a.825.825,0,0,0,0,1.5,8.445,8.445,0,0,0,1.23,0V6.2a6.135,6.135,0,0,0-1.185.075Zm3.735-.945h3.87V6.2H93.46V7.7h2.22v.8H93.535v1.65H96.31v.915H92.245Zm5.175,0h1.5c.525,1.275,1.035,2.565,1.5,3.855.57-1.275,1.05-2.58,1.62-3.855h1.5v5.655h-1.215V7.293c-.465,1.05-.9,2.1-1.335,3.15H99.97c-.42-1.08-.915-2.115-1.305-3.195v3.7H97.51V5.328ZM83,12.423l.5-.375c.33.27.645.645,1.1.675a2.565,2.565,0,0,0,1.29-.645l.36.345a2.34,2.34,0,0,1-1.65,1.02,1.976,1.976,0,0,1-1.5-1.05Zm-34.35,1.83a4.08,4.08,0,0,1,3.09-.33,6.146,6.146,0,0,1-.165.915,2.655,2.655,0,0,0-2.115.135,2.115,2.115,0,0,0-.72,1.95,1.7,1.7,0,0,0,.78,1.5,3.915,3.915,0,0,0,2.22,0c.09.27.165.555.24.84a4.5,4.5,0,0,1-3.24,0,2.415,2.415,0,0,1-1.215-2.235,3.09,3.09,0,0,1,1.125-2.865Zm4.26-.33H56.74v.855h-2.6v1.365a4.5,4.5,0,0,1,2.475.33,1.755,1.755,0,0,1-.09,2.835,2.79,2.79,0,0,1-1.35.255H52.9V13.938Zm1.215,3v1.77a9.285,9.285,0,0,0,1.29,0,.885.885,0,0,0,.12-1.62,5.61,5.61,0,0,0-1.425-.09Zm5.28-3a3.435,3.435,0,0,1,2.055,0,2.3,2.3,0,0,1,1.5,1.71,3.915,3.915,0,0,1-.375,2.91,2.805,2.805,0,0,1-3.8.555,3.21,3.21,0,0,1-.93-2.91,2.55,2.55,0,0,1,1.5-2.265Zm.5.825c-.96.6-.93,1.98-.705,3a1.26,1.26,0,0,0,1.815.84,1.95,1.95,0,0,0,.735-1.665,3,3,0,0,0-.4-1.815,1.245,1.245,0,0,0-1.5-.285Zm3.84-.825a13.875,13.875,0,0,1,3,.15,1.77,1.77,0,0,1,.345,3,3.8,3.8,0,0,1-2.16.33v2.145H63.745v-5.61Zm1.245.84v1.8a4.65,4.65,0,0,0,1.215-.09.945.945,0,0,0-.12-1.62,5.25,5.25,0,0,0-1.08-.09Zm3.69-.84h1.23v2.22h2.175v-2.2H73.33v5.61H72.1v-2.46H69.91v2.475H68.68Zm6,0h1.23v2.235a4.5,4.5,0,0,1,2.445.33,1.725,1.725,0,0,1,.555,2.13,1.5,1.5,0,0,1-1.365.93H74.68Zm1.23,3v1.77a6.885,6.885,0,0,0,1.365-.075.885.885,0,0,0,0-1.605,5.19,5.19,0,0,0-1.365-.09Zm3.765-3h1.2v5.64H79.66v-5.64Zm2.6,0h1.2v3.87c.78-1.29,1.5-2.565,2.34-3.855h1.2v5.61h-1.2V15.693l-2.34,3.8H82.255V13.923Zm8.58,0h3.885v.87H92.08v4.74H90.85v-5.61Zm4.5,0a14.46,14.46,0,0,1,3,.135,1.77,1.77,0,0,1,.465,2.865c-.63.585-1.5.42-2.325.45v2.145H95.245v-5.61Zm1.215.855v1.785a4.5,4.5,0,0,0,1.185-.09.945.945,0,0,0,.27-1.35c-.345-.465-.975-.3-1.5-.345Zm3.09-.855c.51,1.215,1.05,2.415,1.5,3.63a2.28,2.28,0,0,0,.555.75c-.21.57-.78.48-1.275.435l-.18.825a2.85,2.85,0,0,0,1.77,0,1.845,1.845,0,0,0,.765-1.11c.585-1.5,1.215-3,1.785-4.5H103.39c-.435,1.14-.84,2.3-1.245,3.45l-1.245-3.48H99.655Zm5.5.285a5.025,5.025,0,0,1,3.18-.15,1.275,1.275,0,0,1,.825,1.41,1.83,1.83,0,0,1-.705,1.035c.27.21.6.39.735.72a1.605,1.605,0,0,1-.825,2.115,5.01,5.01,0,0,1-3.435,0c.075-.27.165-.555.255-.825a4.365,4.365,0,0,0,2.28.135.81.81,0,0,0,.345-1.35c-.435-.36-1.05-.255-1.5-.3v-.735a2.12,2.12,0,0,0,1.5-.375.63.63,0,0,0-.27-1.02,3.87,3.87,0,0,0-2.025.165l-.27-.8ZM37.51,15.423h5.07v4.155a22.05,22.05,0,0,1-5.07,0Z" transform="translate(18.755 2.577)"/></svg>