<svg xmlns="http://www.w3.org/2000/svg" width="50" height="50" viewBox="0 0 50 50"><defs><style>.a{fill:none;}.b{fill:#ee8d10;}.c{fill:#1b1b1b;}</style></defs><rect class="a" width="50" height="50"/><path class="b" d="M32,35.064,29.87,37.2a26.842,26.842,0,0,1-10.545-6.523A27,27,0,0,1,12.8,20.129L14.936,18,6.4,9.461,0,15.862a53.848,53.848,0,0,0,13.042,21.1A53.96,53.96,0,0,0,34.138,50l6.4-6.4Z"/><path class="c" d="M39.014,0a10.988,10.988,0,0,0-9.875,15.807L28.026,21.03l5.169-.722A10.987,10.987,0,1,0,39.014,0Zm0,19.974a8.969,8.969,0,0,1-4.759-1.362l-.616-.386-.721.1-2.341.327.518-2.431.144-.675-.3-.62a8.9,8.9,0,0,1-.909-3.942,8.987,8.987,0,1,1,8.988,8.988ZM36.263,30.8,32.7,34.357h0L31.29,35.771l0,0L29.87,37.2a26.842,26.842,0,0,1-10.545-6.523A27,27,0,0,1,12.8,20.129L14.936,18l0,0L19.2,13.728,10.666,5.2l-3.56,3.56h0L5.692,10.169h0L0,15.862a53.848,53.848,0,0,0,13.042,21.1A53.96,53.96,0,0,0,34.138,50l6.4-6.4,0-.006.7-.7h0l3.559-3.56ZM10.666,8.024l5.7,5.7-2.145,2.146-5.7-5.7ZM33.609,47.7A52.245,52.245,0,0,1,14.456,35.543,52.154,52.154,0,0,1,2.3,16.391l4.807-4.808,5.707,5.706-.2.2-1.227,1.226-.874.874.39,1.172A29.033,29.033,0,0,0,29.242,39.1l1.17.387.872-.872,1.424-1.423,5.7,5.705-.288.29h0Zm.511-11.927.705-.708,1.438-1.438,5.7,5.7-2.145,2.145Zm-1.7-25.815h2.708v2H32.417Zm5.242,0h2.708v2H37.659Zm7.95,0v2H42.9v-2Z"/></svg>