<svg xmlns="http://www.w3.org/2000/svg" width="100" height="100" viewBox="0 0 100 100"><defs><style>.a{fill:#ee8d10;}.b{fill:#1b1b1b;}.c{fill:none;}</style></defs><g transform="translate(-0.2 -0.2)"><path class="a" d="M60.9,31.4A27.9,27.9,0,1,0,88.8,59.3,27.911,27.911,0,0,0,60.9,31.4Zm.3,32.5A4.9,4.9,0,1,1,66.1,59,4.845,4.845,0,0,1,61.2,63.9Z"/><path class="b" d="M68.5,20.864V14.9H71a3.478,3.478,0,0,0,3.5-3.5V6A3.543,3.543,0,0,0,71,2.5H50.4A3.543,3.543,0,0,0,46.9,6v5.4a3.543,3.543,0,0,0,3.5,3.5h2.3v6.049A38.85,38.85,0,0,0,30.5,34.6h-19a1,1,0,0,0,0,2H29a38.72,38.72,0,0,0-5.036,9.9H1.7a1,1,0,1,0,0,2H23.343a38.94,38.94,0,0,0-1.425,9.8H13a1,1,0,0,0,0,2h8.933A38.78,38.78,0,0,0,23.208,69H5.6a1,1,0,0,0,0,2H23.8A38.9,38.9,0,1,0,68.5,20.864ZM48.9,11.4V6a1.538,1.538,0,0,1,1.5-1.5H71A1.538,1.538,0,0,1,72.5,6v5.4A1.538,1.538,0,0,1,71,12.9H50.4A1.538,1.538,0,0,1,48.9,11.4Zm17.6,3.5v5.6a35.06,35.06,0,0,0-11.8,0V14.9Zm-5.7,81a36.9,36.9,0,0,1-7.985-72.919L53.9,22.8q.823-.187,1.649-.32a37.106,37.106,0,0,1,5.195-.379,37.152,37.152,0,0,1,6.556.7l1.2.2v-.085A36.9,36.9,0,0,1,60.8,95.9Zm0-65.9a29,29,0,1,0,29,29A29.021,29.021,0,0,0,60.8,30Zm0,56a27,27,0,1,1,27-27A27.015,27.015,0,0,1,60.8,86ZM45.2,58.6a1.075,1.075,0,0,1-1,1H38.7a1,1,0,0,1,0-2h5.5A.945.945,0,0,1,45.2,58.6Zm38.7,0a1,1,0,0,1-1,1H77.4a1,1,0,0,1,0-2h5.5A.945.945,0,0,1,83.9,58.6Zm-20.7,17v5.5a1,1,0,0,1-2,0V75.6a.945.945,0,0,1,1-1A1,1,0,0,1,63.2,75.6Zm-2-33.2V36.9a1,1,0,1,1,2,0v5.5a1,1,0,0,1-2,0Zm12-1.8L63.129,52.942a6.207,6.207,0,0,0-4.8.307L50.8,46.4a.992.992,0,0,0-1.3,1.5l7.167,6.515a6.4,6.4,0,1,0,8.2-.56L74.7,41.9a.992.992,0,1,0-1.5-1.3ZM61.1,63.4A4.4,4.4,0,1,1,65.5,59,4.439,4.439,0,0,1,61.1,63.4Z"/><rect class="c" width="100" height="100" transform="translate(0.2 0.2)"/></g></svg>