<svg xmlns="http://www.w3.org/2000/svg" width="100" height="100" viewBox="0 0 100 100"><defs><style>.a{fill:#ee8d10;}.b{fill:#1b1b1b;}.c{fill:none;}</style></defs><path class="a" d="M67.7,63.1c-2,6.3-8.5,13.9-17.8,13.8-9-.1-14.9-7.3-17.1-12.9a19.176,19.176,0,0,1-1.2-8.6C32,48.7,35.4,45,44.4,31.5c2.5-3.8,4.5-6.8,5.5-8.4q3.45,4.95,6,8.7c9.9,14.4,12,18.4,12.4,23.8A17.153,17.153,0,0,1,67.7,63.1Z"/><path class="b" d="M50,0a50,50,0,1,0,50,50A50.018,50.018,0,0,0,50,0ZM2,50A47.985,47.985,0,0,1,82.662,14.846L61.289,37.715C60,35.778,58.521,33.6,56.8,31.1q-2.55-3.75-6-8.7l-.9-1.2-.8,1.3c-1.8,2.8-3.7,5.6-5.5,8.4-1.5,2.3-2.9,4.3-4.1,6.1-5.9,8.8-8.4,12.5-8.8,18.3a20.059,20.059,0,0,0,1.2,9.1,22.782,22.782,0,0,0,1.533,3.121L17.135,84.96A47.856,47.856,0,0,1,2,50ZM34.841,66.014A17.881,17.881,0,0,1,32.6,55.4c.3-5.3,2.6-8.6,8.5-17.3,1.2-1.8,2.6-3.8,4.1-6.1,1.6-2.3,3.2-4.7,4.7-7.1,2,2.8,3.7,5.3,5.1,7.3,1.876,2.71,3.468,5.045,4.819,7.087Zm26.106-25C65.782,48.481,67,51.65,67.3,55.5a15.8,15.8,0,0,1-.6,7.2C65.1,68,59.3,75.8,50.1,75.8h-.2c-6.611-.073-11.259-4.1-13.964-8.028ZM50,98A47.8,47.8,0,0,1,18.621,86.3L34.545,69.26c3.341,4.711,8.671,8.565,15.355,8.64h.2c9.1,0,16.2-7.2,18.6-14.5a22.107,22.107,0,0,0,.7-8c-.312-4.365-1.6-7.7-6.98-15.967L84.1,16.234A47.99,47.99,0,0,1,50,98Zm3.2-27.2a1.1,1.1,0,0,1,.6-1,10.589,10.589,0,0,0,6.1-4.5,11.168,11.168,0,0,0,1.5-8.2.921.921,0,0,1,.7-1.1,1.028,1.028,0,0,1,1.2.7,13.265,13.265,0,0,1-1.7,9.8,13.511,13.511,0,0,1-7.3,5.2A1.018,1.018,0,0,1,53.2,70.8Z"/><rect class="c" width="100" height="100"/></svg>