<svg xmlns="http://www.w3.org/2000/svg" width="100" height="100" viewBox="0 0 100 100"><defs><style>.a{fill:#ee8d10;}.b{fill:#1b1b1b;}.c{fill:none;}</style></defs><path class="a" d="M50,84.3a60.38,60.38,0,0,1-13.5-7.9A63.452,63.452,0,0,1,22.1,60.9v-34a49.3,49.3,0,0,0,15.2-3.6A48.666,48.666,0,0,0,50,15.8a51.123,51.123,0,0,0,14.9,8.3,46.344,46.344,0,0,0,13,2.7v34A64.083,64.083,0,0,1,65.7,74.5,61.112,61.112,0,0,1,50,84.3Z"/><path class="b" d="M89,16.8A73.258,73.258,0,0,1,71.1,13,68.493,68.493,0,0,1,50.5,1.5L49.9,1l-.6.5A72.488,72.488,0,0,1,31.7,11.8a67.831,67.831,0,0,1-20.9,4.9l-.9.1V65.6l.2.2A88.663,88.663,0,0,0,30.5,87.7,93.331,93.331,0,0,0,49.6,98.8l.4.2.2-.1a89.129,89.129,0,0,0,39.5-33l.2-.2V16.9Zm-.9,48.3A87.516,87.516,0,0,1,50,96.9,85.965,85.965,0,0,1,31.7,86.2,88.732,88.732,0,0,1,11.9,65V18.7a73.045,73.045,0,0,0,20.6-5A69.371,69.371,0,0,0,50,3.6,72.765,72.765,0,0,0,70.6,14.9a69.224,69.224,0,0,0,17.5,3.8Zm-37.5-50-.6-.5-.6.5a47.953,47.953,0,0,1-12.5,7.4A51.362,51.362,0,0,1,22,26l-.9.1V61.3l.2.2A66.07,66.07,0,0,0,35.9,77.2a64.636,64.636,0,0,0,13.7,8l.4.2.3-.2a66.807,66.807,0,0,0,15.9-9.8A63.082,63.082,0,0,0,78.6,61.5l.2-.2V26.1l-.9-.1a55.3,55.3,0,0,1-12.7-2.7A51.259,51.259,0,0,1,50.6,15.1ZM23,60.7V28a52.936,52.936,0,0,0,14.6-3.6A51.837,51.837,0,0,0,49,17.942V82.873A64.918,64.918,0,0,1,37,75.7,64.538,64.538,0,0,1,23,60.7Zm53.9,0A60.348,60.348,0,0,1,65,74a65.1,65.1,0,0,1-14,8.79V17.959A51.09,51.09,0,0,0,64.6,25.2a50.969,50.969,0,0,0,12.3,2.7Z"/><rect class="c" width="100" height="100"/></svg>