<svg xmlns="http://www.w3.org/2000/svg" width="100" height="100" viewBox="0 0 100 100"><defs><style>.a{fill:#ee8d10;}.b{fill:#1b1b1b;}.c{fill:none;}</style></defs><path class="a" d="M47.5,30.5l-6.6,3.8a3.948,3.948,0,0,0-1.1,5.3,3.787,3.787,0,0,0,4.9,1.3l6.6-3.8,6.2-1.3,15.9-9.2-21.7-.9ZM45,56.2a5.9,5.9,0,0,1-11.8,0c0-3.3,5.9-14.1,5.9-14.1S45,52.9,45,56.2ZM34.7,85.3a11.1,11.1,0,1,1,22.2-.2v.2"/><path class="b" d="M70.4,72.8a1.9,1.9,0,1,1,1.9-1.9A1.9,1.9,0,0,1,70.4,72.8Zm7.6,0a1.839,1.839,0,0,0,1.9-1.9A1.9,1.9,0,1,0,78,72.8Zm-1.9-9.5A1.9,1.9,0,0,0,78,65.2a1.839,1.839,0,0,0,1.9-1.9,1.9,1.9,0,0,0-3.8,0Zm9.4,9.5a1.9,1.9,0,0,0,0-3.8,1.967,1.967,0,0,0-1.9,1.9A1.9,1.9,0,0,0,85.5,72.8Zm0-7.6a1.9,1.9,0,1,0,0-3.8,1.967,1.967,0,0,0-1.9,1.9A1.9,1.9,0,0,0,85.5,65.2Zm0-7.6a1.9,1.9,0,1,0,0-3.8,1.967,1.967,0,0,0-1.9,1.9A1.9,1.9,0,0,0,85.5,57.6ZM21.3,72.8a1.839,1.839,0,0,0,1.9-1.9,1.9,1.9,0,1,0-1.9,1.9Zm-7.6,0a1.9,1.9,0,0,0,0-3.8,1.967,1.967,0,0,0-1.9,1.9A1.9,1.9,0,0,0,13.7,72.8Zm0-7.6a1.9,1.9,0,1,0,0-3.8,1.967,1.967,0,0,0-1.9,1.9A1.9,1.9,0,0,0,13.7,65.2ZM6.2,72.8a1.839,1.839,0,0,0,1.9-1.9,1.9,1.9,0,1,0-1.9,1.9Zm0-7.6a1.9,1.9,0,1,0-1.9-1.9A1.9,1.9,0,0,0,6.2,65.2Zm0-7.6a1.9,1.9,0,1,0,0-3.8,1.839,1.839,0,0,0-1.9,1.9A1.9,1.9,0,0,0,6.2,57.6ZM98.4,13.993A5.3,5.3,0,0,1,95.9,17.268L82.94,24.779l.127.223a3.275,3.275,0,0,1-1.187,4.476L78.711,31.36a3.519,3.519,0,0,1-1.688.436,3.156,3.156,0,0,1-2.8-1.616l-1.293-2.252L57.862,36.646l-6.2,1.3L45.2,41.667a4.927,4.927,0,0,1-5.451-.466l.23.42C40.594,42.749,46,52.745,46,56.2a6.9,6.9,0,0,1-13.8,0c0-3.455,5.406-13.451,6.023-14.579l.7-1.282a4.377,4.377,0,0,1-.3-.454,4.872,4.872,0,0,1,1.788-6.559l6.448-3.712,4.337-4.78,14.979-8.667L64.933,14A3.275,3.275,0,0,1,66.1,9.532L69.289,7.64a3.279,3.279,0,0,1,4.489,1.18L74,9.211,86.9,1.735A5.419,5.419,0,0,1,90.993,1.2,5.3,5.3,0,0,1,94.269,3.7l3.6,6.194A5.414,5.414,0,0,1,98.4,13.993ZM67.173,17.9l-12,6.942,16.371.679ZM39.1,44.225c-2.225,4.252-4.9,10.011-4.9,11.975a4.9,4.9,0,0,0,9.8,0C44,54.078,40.99,47.854,39.1,44.225ZM69.762,27.45l-17.631-.731-3.993,4.467L41.4,35.067a2.672,2.672,0,0,0-1.282,1.687,2.941,2.941,0,0,0,.257,2.16,2.884,2.884,0,0,0,3.841,1.012l6.88-3.9,6.043-1.267Zm11.56-1.471L77.55,19.408l-5.317-9.172.039-.022L72.033,9.8a1.185,1.185,0,0,0-1.061-.6,1.451,1.451,0,0,0-.694.18l-3.2,1.9a1.271,1.271,0,0,0-.4,1.743l1.231,2.145.054-.032,6.805,11.73-.108.062L75.967,29.2a1.275,1.275,0,0,0,1.755.42L80.89,27.74A1.277,1.277,0,0,0,81.322,25.979ZM96.132,10.9,92.535,4.7a3.321,3.321,0,0,0-2.053-1.573,3.431,3.431,0,0,0-2.586.339L75,10.945l4.35,7.577,2.615,4.511,12.935-7.5a3.317,3.317,0,0,0,1.573-2.053A3.421,3.421,0,0,0,96.132,10.9ZM53.3,56.2h-2A12.213,12.213,0,0,1,39.1,68.4v2A14.216,14.216,0,0,0,53.3,56.2Zm1.485,20.9H90.3V92.5a6.407,6.407,0,0,1-6.4,6.4H7.9a6.407,6.407,0,0,1-6.4-6.4V77.1H36.816c.119-.132.229-.27.355-.4A12.137,12.137,0,0,1,54.3,76.571C54.47,76.741,54.625,76.922,54.785,77.1ZM38.6,78.1a9.939,9.939,0,0,0-2.891,7H55.9a10.111,10.111,0,0,0-17.3-7Zm27.694,9-7.557,9.8H68.909l7.557-9.8Zm-2.525,0H55.392l-7.558,9.8h8.375Zm-40.975,0-7.557,9.8H23.6l7.475-9.8Zm3.329,9.8h8.385l7.475-9.8H33.6Zm10.9,0h8.288l7.559-9.8H44.495ZM3.5,79.1v6H33.707a11.838,11.838,0,0,1,1.64-6ZM7.9,96.9h4.809l7.557-9.8H3.5v5.4A4.353,4.353,0,0,0,7.9,96.9Zm80.4-4.4V87.1H78.992l-7.558,9.8H83.9A4.353,4.353,0,0,0,88.3,92.5ZM56.259,79.1a11.793,11.793,0,0,1,1.641,6H88.3v-6Z"/><rect class="c" width="100" height="100" transform="translate(0 0)"/></svg>