<svg xmlns="http://www.w3.org/2000/svg" width="135" height="30" viewBox="0 0 135 30"><defs><style>.a,.b{fill:#243688;}.b,.c{fill-rule:evenodd;}.c{fill:#fff;}</style></defs><rect class="a" width="135" height="30"/><path class="b" d="M72.06,24H92.64V3H72.06ZM82.245,5.49v.18H82.1v.105a.225.225,0,0,1,.135.21h.24a.21.21,0,0,1,.18-.225l-.18-.105v-.15Zm0,.63a1.5,1.5,0,0,0,.18.75c.1-.27.36-.585.1-.84Zm.27.99h.18a9.251,9.251,0,0,1,.18-1.1c-.285.285-.27.72-.36,1.08Zm-7.8-.96a2.745,2.745,0,0,0,0,1.665,3.48,3.48,0,0,0,.645.96A4.185,4.185,0,0,0,77.1,10.1a2.205,2.205,0,0,1-.375-.75,3.945,3.945,0,0,1-1.5-1.755,11.265,11.265,0,0,1,1.5,1.695,1.38,1.38,0,0,0-.09-.495,9,9,0,0,0-1.92-2.625ZM81.9,6a10.789,10.789,0,0,0,.21,1.14l.135-.09A1.635,1.635,0,0,0,81.9,6Zm6.18,2.79a.855.855,0,0,0,0,.465,12.285,12.285,0,0,1,1.5-1.71A3.96,3.96,0,0,1,88.08,9.3a2.1,2.1,0,0,1-.435.78A4.815,4.815,0,0,0,89.9,8.13a2.49,2.49,0,0,0,.225-2.04,9,9,0,0,0-1.98,2.7ZM81.51,6.285a2.88,2.88,0,0,0,.27.93h.255a3.105,3.105,0,0,0-.18-.975l-.345.075Zm1.35-.075a2.175,2.175,0,0,0-.165.93l.225.09a3.96,3.96,0,0,0,.3-.93Zm-4.02.8a1.532,1.532,0,0,0,.765-.375.615.615,0,0,0-.765.375Zm1.5-.24h-.195l.195.135a.48.48,0,0,1,0,.135c.135,0,.165-.165.27-.21h0a.87.87,0,0,1-.255-.27.63.63,0,0,0-.09.21Zm3.96-.21a.36.36,0,0,1-.24.285l.195.1V7.17a.315.315,0,0,0,.165-.255h.105V6.81c-.09-.09-.18-.165-.255-.255Zm.63.405c.09.3.42.6.225.93a.362.362,0,0,0,.33-.3c.015-.18-.3-.525-.3-.825h0c.21.135.4.33.675.27a2.235,2.235,0,0,0-.2.735,2.265,2.265,0,0,0,.135.7,1.71,1.71,0,0,0,.12-.78c0-.225.165-.42.21-.645l-.315-.09a.765.765,0,0,0-.735-.315,2.908,2.908,0,0,0-.225.36Zm-5.625.645c0,.165.195.21.315.3l-.15-.255a4.08,4.08,0,0,0,.285-.7,1.665,1.665,0,0,0-.135-.285c-.1.315-.4.585-.375.945Zm-.72-.6a4.591,4.591,0,0,0,.195.645,1.185,1.185,0,0,0,.12.75,1.5,1.5,0,0,0,.09-.9,3,3,0,0,1-.18-.63l-.255.1Zm1.695.225a1.26,1.26,0,0,0,.12.4.69.69,0,0,0,.225-.435c-.105,0-.27-.09-.345,0Zm3.87,0a1.254,1.254,0,0,0,.15.435.66.66,0,0,0,.18-.51h-.33Zm-2.31,0c.09.18.315.15.48.165v.24h.15V7.5a.78.78,0,0,0,.48-.135,1.7,1.7,0,0,0-1.125,0Zm1.965,0a.6.6,0,0,0,.45.6,2.55,2.55,0,0,0-.135-.585Zm.735,0a2.325,2.325,0,0,0-.12.54h.225c.09-.165.165-.33.24-.495Zm-4.65,0c.105.225.18.54.465.57a2.386,2.386,0,0,0-.135-.585Zm.75,0a2.671,2.671,0,0,0-.1.585c.27,0,.375-.36.45-.6Zm.66.735a1.59,1.59,0,0,0,.585-.135,1.65,1.65,0,0,0,.3-.345A.8.8,0,0,0,81.3,7.965ZM82.575,7.5a.87.87,0,0,0,.885.51.93.93,0,0,0-.885-.51Zm7.4.93c-.45.435-.9.87-1.365,1.275-.15.12-.165.345-.225.51A11.04,11.04,0,0,1,90.27,8.88a4.74,4.74,0,0,1-1.8,1.335,1.215,1.215,0,0,0-.36.315,3.105,3.105,0,0,0,1.245-.39,4.725,4.725,0,0,0,1.5-1.065,1.965,1.965,0,0,0,.36-1.5,4.5,4.5,0,0,0-1.2.84Zm-16.29.24a2.22,2.22,0,0,0,.78.885,5,5,0,0,0,2.115.945c-.12-.315-.465-.39-.735-.555A3.915,3.915,0,0,1,74.46,8.8a12.989,12.989,0,0,1,1.9,1.365.975.975,0,0,0-.315-.585,12.36,12.36,0,0,0-2.475-2.04,2.16,2.16,0,0,0,.09,1.065Zm4.605-.7h.42a2.235,2.235,0,0,1,0-.315,2.31,2.31,0,0,0-.39.375Zm7.77-.345a1.816,1.816,0,0,0,0,.285h.4a.96.96,0,0,0-.39-.345Zm-5.895.225a.465.465,0,0,0,0,.15,1.89,1.89,0,0,0,.645,0,3.33,3.33,0,0,0-.66-.09Zm3.78,0a1.29,1.29,0,0,0,.675,0,.66.66,0,0,1,0-.15,4.5,4.5,0,0,0-.645,0Zm-4.185.12a.885.885,0,0,0,.255.48V7.98Zm.24,0a1,1,0,0,0,.3.705c.09.09.225,0,.33,0l.33.15a2.729,2.729,0,0,1,.4-.225h0a1.92,1.92,0,0,0,.375.225,1.5,1.5,0,0,0,.435-.1,2.235,2.235,0,0,1-.54-.255l.195-.18H81.7l.15-.18a4.77,4.77,0,0,1-1.845,0Zm.3.315a.54.54,0,0,1,.1.15l.255-.18h-.36Zm2.655-.315a.555.555,0,0,1,0,.315.9.9,0,0,0,.12.12,1.4,1.4,0,0,1-.51.27,1.08,1.08,0,0,0,.375.105.99.99,0,0,0,.42-.24v.15h.15a.36.36,0,0,1,0,.12l.255.09c.165,0,.345-.24.495,0a.885.885,0,0,0,.465-.81,4.05,4.05,0,0,1-1.8,0Zm1.17.3.24.18v-.18Zm.57.21A.69.69,0,0,0,85,7.98C84.72,7.98,84.765,8.3,84.69,8.475ZM79.14,8.25a.6.6,0,0,0,0,.51.195.195,0,0,0,.3,0h0V8.52h.15a.87.87,0,0,0,0,.21,2.6,2.6,0,0,1,.465.105A2.447,2.447,0,0,0,80.34,8.7a3.7,3.7,0,0,1-.69-.465c-.12-.165-.315,0-.465,0Zm6,0a4.245,4.245,0,0,1-.675.48l.285.15a2.115,2.115,0,0,0,.48-.255h.03V8.94h.3a.75.75,0,0,0,.18-.36l-.09-.225c-.15,0-.33-.165-.45,0ZM87.39,9c-.465.435-.39,1.155-.72,1.665a2.67,2.67,0,0,0,1.14-1.02,1.7,1.7,0,0,0,.105-.945,1.23,1.23,0,0,0-.525.3Zm-10.5-.3a1.38,1.38,0,0,0,.12,1.005,2.73,2.73,0,0,0,1.08.945,6.224,6.224,0,0,1-.33-1.02A1.35,1.35,0,0,0,76.89,8.7Zm4.5,0c.075.39.36.7.435,1.095a1.02,1.02,0,0,0,0-.63A1.065,1.065,0,0,0,81.36,8.7Zm1.59.495a1,1,0,0,0,0,.555A8.071,8.071,0,0,0,83.4,8.7a1.035,1.035,0,0,0-.45.495Zm-3.09-.15V9.51a.885.885,0,0,1,.675-.465l-.255-.3a.915.915,0,0,0-.45.3ZM81.06,9h-.195a3.09,3.09,0,0,1,.63.69V9.48l-.39-.645a1.126,1.126,0,0,0-.09.2Zm.6-.12a.84.84,0,0,0,.63.57,1.2,1.2,0,0,0-.345-.555Zm1.83,0c-.105.27-.33.48-.3.795A4.906,4.906,0,0,1,83.85,9h-.135l-.225-.105Zm0,.7c.195-.165.39-.33.6-.48a1.035,1.035,0,0,1,.705.465,1.38,1.38,0,0,0,0-.435,1.5,1.5,0,0,0-.45-.315l-.12.09a.765.765,0,0,0-.795.675Zm-3.165-.69a4.651,4.651,0,0,0,.765.66A1.29,1.29,0,0,0,80.97,9a2.535,2.535,0,0,0-.54-.18ZM82.65,9a1.41,1.41,0,0,0-.225.45.9.9,0,0,0,.645-.585A.5.5,0,0,0,82.65,9Zm-2.22.255c.105.12.315.18.375.345a3.961,3.961,0,0,0,.255.7,3.569,3.569,0,0,0,.09-.555c-.195-.225-.39-.555-.72-.495Zm3.105.51a3.613,3.613,0,0,0,.1.555,2.73,2.73,0,0,0,.33-.69c0-.21.255-.285.405-.4-.36-.075-.54.315-.765.51Zm-1.29-.315c0,.1-.21.225-.165.375a1.5,1.5,0,0,0,.3.51,2.205,2.205,0,0,0,.285-.6A.39.39,0,0,0,82.245,9.45ZM85.9,10.5c-.225.18-.555.345-.525.7s.36.765.36,1.2a1.35,1.35,0,0,1-1.26.135c0,.195-.18.375-.27.555h.3v.495a1.155,1.155,0,0,0,.48-.33.885.885,0,0,0,.435.27,3.672,3.672,0,0,0,.12-.435.93.93,0,0,0,.645.33,1.08,1.08,0,0,0,0-.72,1.845,1.845,0,0,0,.645,0,1.08,1.08,0,0,0-.315-.57.87.87,0,0,0,.57-.36c0-.255-.33-.24-.51-.285a.885.885,0,0,0,.39-.57,1.365,1.365,0,0,0-.81.09,2.355,2.355,0,0,0,.495-.51,1.83,1.83,0,0,0,.225-1.155,3.585,3.585,0,0,1-.975,1.1ZM77.85,9.39a2.265,2.265,0,0,0,.105,1,2.415,2.415,0,0,0,.525.645,1.32,1.32,0,0,0-.8-.075,1.185,1.185,0,0,0,.405.645,1.185,1.185,0,0,0-.555.21.93.93,0,0,0,.645.435.735.735,0,0,0-.3.585h.63l-.105.18a1,1,0,0,0,0,.3l.09.21a1.1,1.1,0,0,0,.615-.345c0,.15,0,.4.21.435a1.38,1.38,0,0,0,.33-.27.96.96,0,0,0,.51.315v-.51h.33c-.1-.2-.21-.375-.3-.57a1.5,1.5,0,0,1-.975,0,.289.289,0,0,1-.255-.27,5.235,5.235,0,0,1,.345-1.035.585.585,0,0,0-.285-.585,3.54,3.54,0,0,1-1.2-1.29Zm3.51,1.41a1.845,1.845,0,0,0,.315-.585,1.245,1.245,0,0,0-.15-.51,1.065,1.065,0,0,0-.165,1.1Zm-8.565-.975a2.49,2.49,0,0,0,1.275,1c.885.33,1.845.42,2.73.765a1.35,1.35,0,0,1-.315-.45A6.225,6.225,0,0,1,74.64,10.5a7.11,7.11,0,0,1,1.74.465c.165.09.345,0,.51-.09-.6-.27-1.215-.48-1.83-.69a6.21,6.21,0,0,0-2.265-.39Zm9.765.78c.165.15.255.36.435.48s0,.21,0,.315a2.085,2.085,0,0,0-.315-.405,2.464,2.464,0,0,0,0,.345c0,.15.21.285.15.465s-.09.195,0,.21a.975.975,0,0,0,.315-.45c0,.195.18.39.27.585a1.591,1.591,0,0,0,.165-.315,2.655,2.655,0,0,1-.36-.915c.18.255.21.6.435.84s.375.465.66.375a.57.57,0,0,0,.255-.855c-.12.15-.24.4-.48.315a1.5,1.5,0,0,1-.765-.8l-.255.09a2.19,2.19,0,0,0-.225-1.14,1.14,1.14,0,0,0-.255.855Zm.48-.4a1.5,1.5,0,0,0,.315.585A1.185,1.185,0,0,0,83.22,9.69a.915.915,0,0,0-.18.51Zm6.915,0a18.081,18.081,0,0,0-2.145.78,1.935,1.935,0,0,0,.42.12,7.725,7.725,0,0,1,1.86-.6,6,6,0,0,1-1.8.6,5.1,5.1,0,0,0-.345.45c.885-.33,1.83-.435,2.73-.765A2.385,2.385,0,0,0,91.9,9.78a5.775,5.775,0,0,0-1.95.315Zm-8.175.96a5.2,5.2,0,0,0,.39-.66,1.605,1.605,0,0,0-.255-.81c-.135.435-.435.93-.135,1.365ZM76.335,9.9c.165.39.36.855.78,1a1.215,1.215,0,0,0,.855-.1,3.63,3.63,0,0,0-1.6-.9Zm10.5.9a1.125,1.125,0,0,0,.825.09,1.6,1.6,0,0,0,.765-.99,3.435,3.435,0,0,0-1.59.9Zm-4.65.09a.708.708,0,0,0,.21.405c.12-.12.27-.27.24-.465a3.1,3.1,0,0,0-.27-.33c-.09.135-.24.255-.225.435Zm-1.665.21v.09a.435.435,0,0,0,.5,0,.705.705,0,0,0,.2-.69.945.945,0,0,1-.69.585Zm3-.6a1.08,1.08,0,0,0,.15.75c.165,0,.54.12.525-.15a1.035,1.035,0,0,1-.675-.6Zm-3,1.1c-.18,0-.255-.195-.345-.33h-.09c0,.24-.075.525.12.69a.405.405,0,0,0,.555,0,2,2,0,0,0,.69-1.275c-.285.3-.495.75-.93.825Zm.57.21c.09,0,.135.36.255.225a1.29,1.29,0,0,0,.195-1.245,2.6,2.6,0,0,1-.45,1.02Zm-4.5-.81a.567.567,0,0,0,.4.54,1.275,1.275,0,0,0,.915,0,2.475,2.475,0,0,1-.27-.48,6.075,6.075,0,0,0-1.05,0Zm5.07.6c0,.27.24.405.39.57a.78.78,0,0,1,0-.81,3,3,0,0,0,0-.39c-.135.2-.36.36-.36.63Zm5.415-.54a2.249,2.249,0,0,1-.285.48,1.065,1.065,0,0,0,1.395-.45c-.345-.21-.735,0-1.11,0Zm-14.25.165a4.125,4.125,0,0,0,1.29.63,6.66,6.66,0,0,0,2.04.15c.12,0,.135-.135.21-.195a6.84,6.84,0,0,1-1.74-.225,3.63,3.63,0,0,1,1.335,0c.225,0,.465.15.705,0a4.2,4.2,0,0,0-1.035-.345,7.365,7.365,0,0,0-2.805-.09Zm15.225.405a.375.375,0,0,0,.315,0,4.5,4.5,0,0,1,1.74-.12,6.84,6.84,0,0,1-1.74.225.24.24,0,0,0,.285.195,10.635,10.635,0,0,0,1.5,0,4.5,4.5,0,0,0,1.71-.735,7.5,7.5,0,0,0-3.855.405Zm-5.835-.315c-.105.165-.24.375-.135.585s.21.39.39.255a.615.615,0,0,0,0-.855l-.135.075h-.15Zm-6,.735a1.4,1.4,0,0,0,1.41.1s0-.12,0-.15a.825.825,0,0,0-1.365,0Zm10.995-.3c0,.135-.165.255-.24.375l.435.15a3,3,0,0,0-.735,0,1.245,1.245,0,0,0,.525.585,1.035,1.035,0,0,0,.915,0,1.755,1.755,0,0,0-.225-.405,1.38,1.38,0,0,0-.48-.21A1.5,1.5,0,0,0,88.47,12a1.41,1.41,0,0,0-.42-.315,1.38,1.38,0,0,0-.78,0Zm-5.655.12a1.335,1.335,0,0,0-.27.57c0,.255.21.42.345.615a3.225,3.225,0,0,0,.285-.555.645.645,0,0,0-.36-.63Zm-.825.345a1.62,1.62,0,0,0,.195.87,1.17,1.17,0,0,0,.3-.645,1.11,1.11,0,0,0-.18-.54,3.119,3.119,0,0,0-.315.315Zm2.01,0a1.23,1.23,0,0,0,0,.405,2.624,2.624,0,0,1,.27.435,1.68,1.68,0,0,0,.36-.555,1.5,1.5,0,0,0-.285-.645,1.5,1.5,0,0,0-.33.36Zm.93.885a1.5,1.5,0,0,0,.225-.9l-.285-.3a.915.915,0,0,0,0,1.2Zm-10.5-.33a4.965,4.965,0,0,0,1.335.1,11.52,11.52,0,0,0,2.145-.285l.21-.24a1.38,1.38,0,0,0-.5,0,4.05,4.05,0,0,1-1.5.135,3.66,3.66,0,0,1,.78-.18,2.9,2.9,0,0,0,.825-.135,4.71,4.71,0,0,0-1.215,0,3.375,3.375,0,0,0-2.025.6Zm15.15-.555a6.4,6.4,0,0,1,1.5.255,4.35,4.35,0,0,1-1.5-.12,1.1,1.1,0,0,0-.54,0c.24.315.66.3,1.02.375a6.48,6.48,0,0,0,2.685,0,4.275,4.275,0,0,0-1.335-.525,7.448,7.448,0,0,1-1.29-.075c-.195,0-.45-.1-.6.075Zm-8.1,0c.09.255.105.57.345.72s0,.135.15.195H80.28a5.1,5.1,0,0,1-.1.51l-.3-.09c.285.345.255.825.465,1.2.12-.3.255-.585.39-.885a.75.75,0,0,0,0-.75h.24a1.275,1.275,0,0,0-.285-.45v-.48a1.5,1.5,0,0,1-.51-.075Zm-3.1.15a.96.96,0,0,0-.555.6,1.1,1.1,0,0,0,1.065-.135,1.965,1.965,0,0,0,.345-.51,1.95,1.95,0,0,0-.885,0Zm4.92.135a1.4,1.4,0,0,0,.315.675c.15-.21.375-.435.315-.72l-.33-.18A2.234,2.234,0,0,0,82.035,12.495Zm1.935-.255V12.7l.195.21a3.51,3.51,0,0,0,.285-.69Zm-8.61.675a2.16,2.16,0,0,0-1.575,1.155,2.64,2.64,0,0,0,1.5-.27,14.159,14.159,0,0,1,1.5-.675l-.27-.12a3.96,3.96,0,0,1-1.41.39,7.935,7.935,0,0,1,1.5-.645,8.445,8.445,0,0,0-1.215.165Zm7.11.36a1.5,1.5,0,0,0,.195.75.9.9,0,0,0,.33-.48,1,1,0,0,0-.21-.765,2.325,2.325,0,0,0-.315.495Zm.975-.495a2.1,2.1,0,0,0-.33.48,1.335,1.335,0,0,0,.24.735,1.725,1.725,0,0,0,.45-.72,6,6,0,0,0-.36-.495Zm4.695,0a7.83,7.83,0,0,1,1.5.645,3.885,3.885,0,0,1-1.395-.39l-.345.1a12,12,0,0,1,1.5.63,2.775,2.775,0,0,0,1.5.33,2.055,2.055,0,0,0-1.26-1.08A8.61,8.61,0,0,0,88.14,12.78Zm-10.98.45c.1.09.195.24.345.24a.945.945,0,0,0,.915-.555,2.085,2.085,0,0,1-.615,0,3.915,3.915,0,0,0-.645.36Zm3.855,0a1.71,1.71,0,0,0,.42.735,1.875,1.875,0,0,0,.255-.585c0-.27-.21-.45-.345-.645l-.375.525Zm.78.075a.93.93,0,0,0,.33.705,1.365,1.365,0,0,0,.21-.63.885.885,0,0,0-.3-.585C81.855,12.885,81.825,13.125,81.795,13.305Zm2.025-.12.4-.24-.255-.18a1.71,1.71,0,0,0-.195.45Zm2.535-.33a1.08,1.08,0,0,0,1.05.555l.24-.24a7.155,7.155,0,0,0-.675-.345,1.575,1.575,0,0,1-.645,0Zm-2.19.195-.195.21c-.12.555.3.975.45,1.5h.12a3.09,3.09,0,0,1,.345-1.05H84.6l-.09-.465L84.2,13.11Zm-8.385.6a2.085,2.085,0,0,0-1.08,1.32,1.71,1.71,0,0,0,1-.285,11.7,11.7,0,0,0,1.035-.9,1.71,1.71,0,0,0,.5-.54,6.8,6.8,0,0,1-1.5.9,2.055,2.055,0,0,1,.57-.57,7.771,7.771,0,0,0,.855-.465,10.094,10.094,0,0,0-1.41.54Zm11.82-.54c.27.21.6.3.87.48a2.07,2.07,0,0,1,.585.555,3.57,3.57,0,0,1-.99-.555,1.23,1.23,0,0,0-.525-.3c.45.435.915.855,1.38,1.275a1.725,1.725,0,0,0,1.185.4,2.115,2.115,0,0,0-1.08-1.32,9.6,9.6,0,0,0-1.5-.54Zm-9.93.525v.285a.84.84,0,0,0,.795-.375,1.564,1.564,0,0,0-.12-.375,1.38,1.38,0,0,0-.69.465Zm8.76-.465c0,.165-.18.36,0,.495a.765.765,0,0,0,.72.255,1.155,1.155,0,0,0-.18-.42,1.335,1.335,0,0,0-.615-.36Zm-7.92.405a1.5,1.5,0,0,0-.465.69c.48,0,1.11-.345.99-.9a5.474,5.474,0,0,0-.525.21Zm7.275-.21a3.271,3.271,0,0,0,0,.375,1.065,1.065,0,0,0,.975.525,1.6,1.6,0,0,0-.51-.75l-.45-.15Zm-8.52.135a3.21,3.21,0,0,0-1.5,2.16,1.29,1.29,0,0,0,.615-.195c.42-.24.615-.72.945-1.08s.39-.33.315-.6a5.2,5.2,0,0,1-1.185.96,2.025,2.025,0,0,1,.42-.525c.27-.255.645-.375.885-.66h-.42Zm2.31-.09a1.845,1.845,0,0,0,.225,1.41.735.735,0,0,0,.525.3,3.724,3.724,0,0,0-.225-.735A1.511,1.511,0,0,0,79.575,13.41Zm5.46,0a6.39,6.39,0,0,0-.645,1.665h.3a1.5,1.5,0,0,0,.465-1.5l-.12-.09ZM79.2,14.79a1.035,1.035,0,0,0,.255-1.11h-.21l-.1-.18a1.02,1.02,0,0,0,0,1.275Zm7.845-1.29a2.25,2.25,0,0,0,.645.5,2.505,2.505,0,0,1,.57.555v.135a5.535,5.535,0,0,1-1.125-.93v.3a9.51,9.51,0,0,1,.765.975,1.335,1.335,0,0,0,1.05.585,2.775,2.775,0,0,0-.24-.78,4.68,4.68,0,0,0-1.335-1.38h-.42Zm-1.785.12a2.115,2.115,0,0,0,0,.75,2.22,2.22,0,0,0,.24.405,1.4,1.4,0,0,0,.285-.555,1.17,1.17,0,0,0-.135-.675h-.375Zm-4.41.81.225.33A1.125,1.125,0,0,0,81.3,14.3a1.02,1.02,0,0,0-.285-.66A1.215,1.215,0,0,0,80.85,14.43Zm.54-.15a.9.9,0,0,0,.33.57c.1-.21.285-.45.225-.705a3.721,3.721,0,0,0-.255-.48c-.12.195-.315.375-.3.615Zm1.365,0a1.23,1.23,0,0,0,.255.63c.12-.165.315-.33.315-.555a1.312,1.312,0,0,0-.3-.615,1.23,1.23,0,0,0-.27.54Zm.66.075c0,.1.1.21.075.33h-.12a.585.585,0,0,0,0,.825l.135.1a1.17,1.17,0,0,0,.105-.78.855.855,0,0,0,.285-.435,1.29,1.29,0,0,0-.18-.69c-.135.195-.33.4-.285.66ZM82.35,13.86a3.164,3.164,0,0,0-.27.495,1.167,1.167,0,0,0,.285.615,2.879,2.879,0,0,0,.27-.465,1.262,1.262,0,0,0-.285-.645Zm-4.68.27a2.91,2.91,0,0,0-.945,1.92,1.8,1.8,0,0,0,.825-.495c.285-.345.435-.8.72-1.155h-.3a3.24,3.24,0,0,1-.795,1c.09-.585.585-.93.885-1.38a.467.467,0,0,0-.375.1Zm9-.09c.345.42.825.8.9,1.365a4.335,4.335,0,0,1-.81-.99h-.255l.555.975a1.635,1.635,0,0,0,.96.7,2.85,2.85,0,0,0-1.05-2.07Zm-7.965.3a3.135,3.135,0,0,1-.345,1.23,4.86,4.86,0,0,1,.225-1.305,2.535,2.535,0,0,0-.57,1.065,1.635,1.635,0,0,0,0,.93,1.125,1.125,0,0,0,.72-.855,6.839,6.839,0,0,0,.12-1.35c0,.09-.18.15-.18.285Zm7.17-.255a5.866,5.866,0,0,0,.2,1.5,1.29,1.29,0,0,0,.63.66,1.5,1.5,0,0,0,0-1.095,2.31,2.31,0,0,0-.54-.93,5.836,5.836,0,0,1,.255,1.335,3,3,0,0,1-.36-1.23.3.3,0,0,0-.195-.27Zm-6.885.495a2.55,2.55,0,0,0,.21,1.74,4.5,4.5,0,0,0,.3-1.665l-.18.165a1.935,1.935,0,0,1-.12.825,1.5,1.5,0,0,1,0-.735.666.666,0,0,0-.15-.33Zm6.63.18a1.755,1.755,0,0,1,0,.885c-.15-.33,0-.765-.255-1a3.87,3.87,0,0,0,.3,1.7,2.805,2.805,0,0,0,.21-1.785l-.18.21Zm-6,0a3.48,3.48,0,0,0,.36,1.365h.18a2.415,2.415,0,0,0,0-.93L79.9,15a2.175,2.175,0,0,1,0,.54,1.83,1.83,0,0,1-.195-.69l-.075-.165H79.53Zm1.5.345a1.866,1.866,0,0,0,.15.585,1.29,1.29,0,0,0,.3-.585,2.581,2.581,0,0,0-.165-.435c-.12.135-.27.255-.285.435Zm.855-.36a1.5,1.5,0,0,0-.315.57,1.89,1.89,0,0,0,.225.675,1.3,1.3,0,0,0,.36-.735C82.245,15.06,82.245,14.82,81.975,14.745Zm2.835.945a3.435,3.435,0,0,1,0-.555l-.18.1a1.83,1.83,0,0,0,0,1.02,2.385,2.385,0,0,0,.45-1.59c-.195.315-.18.7-.345,1.02Zm-2.34-.525a1.275,1.275,0,0,0,.33.735,1.29,1.29,0,0,0,.225-.735,3.466,3.466,0,0,0-.27-.525.51.51,0,0,0-.285.525Zm-.435.765a2.55,2.55,0,0,0,.27.93,2.6,2.6,0,0,0,.3-.93,1.4,1.4,0,0,0-.3-.66,1.41,1.41,0,0,0-.27.66Zm-.6-.525-.285.39c-.075.195.09.345.195.495.12-.1.3-.24.285-.435a2.911,2.911,0,0,0-.2-.45Zm1.59.6a1.275,1.275,0,0,0,.21.285,3.385,3.385,0,0,0,.24-.24.885.885,0,0,1,0-.2c-.105-.165-.225-.315-.33-.465,0,.195-.21.39-.15.615Zm-2.7.5a1.815,1.815,0,0,0,.825-.285,3,3,0,0,0,0-.36,3,3,0,0,0-.78.645Zm3.315-.63a.4.4,0,0,1-.1.33,2.19,2.19,0,0,0,.825.315,2.265,2.265,0,0,0-.72-.645Zm-2.07.45c-.195.165-.51.21-.6.5.135,0,.3.21.465.1a1.125,1.125,0,0,0,.54-.99,4.96,4.96,0,0,1-.4.39Zm1.17-.405a1.03,1.03,0,0,0,.69,1.05l.33-.165a.765.765,0,0,0-.36-.33,1.815,1.815,0,0,1-.66-.555Zm-5.58.285a1.258,1.258,0,0,0,0,.255,1.23,1.23,0,0,0,.555.645c.15.1.39.165.48,0a.45.45,0,0,0-.12-.405.96.96,0,0,0-.84-.465Zm9.4.735.09.255c.4,0,.675-.315.945-.57,0-.165,0-.45-.18-.435a1.26,1.26,0,0,0-.855.75Zm-6-.12h.405l.18-.315.315-.135-.165-.12a1.575,1.575,0,0,0-.7.555Zm2.82-.45a.8.8,0,0,1,.495.465h.33a1.006,1.006,0,0,0-.09-.18c-.225-.135-.48-.525-.735-.27ZM82,17.04a1.155,1.155,0,0,1,.135.705l-.315.27h.285l.285-.24a2,2,0,0,0,.285.21,1.965,1.965,0,0,0,.42.675,2.565,2.565,0,0,0,.84.66.645.645,0,0,0,.15-.135,3.225,3.225,0,0,1-1.215-1.245c-.105-.105-.24-.21-.24-.375s.225-.54.24-.84a.87.87,0,0,0-.135-.435,5.536,5.536,0,0,1-.345.87,8.654,8.654,0,0,1-.33-.87.75.75,0,0,0,0,.75ZM77.01,16.5c0,.555-.39,1.035-.315,1.6a3.861,3.861,0,0,0,.72,1.4h.75c-.1-.285-.51-.1-.69-.3a.93.93,0,0,1-.105-.66.69.69,0,0,1,.975-.435.975.975,0,0,1,.4.69,2.7,2.7,0,0,0,.12-.315.8.8,0,0,0-.285-.465.87.87,0,0,0-1.32.24,1.1,1.1,0,0,1,.63-.9,1.5,1.5,0,0,1-.885-.84Zm2.46.45.345.135a1.935,1.935,0,0,0,.81-.585,1.725,1.725,0,0,0-1.155.45Zm4.5-.45a1.575,1.575,0,0,0,.75.57l.375-.105C84.84,16.605,84.36,16.575,83.97,16.5Zm2.715.765a1.065,1.065,0,0,1,.675.84.945.945,0,0,0-.795-.375.9.9,0,0,0-.84.69c-.18-.33-.33-.66-.525-.96s-.255-.09-.39-.135v.255c-.15-.09-.42-.195-.45,0a2.355,2.355,0,0,1,1.5,1.845h.285l-.18.12v.09c-.21.315.255.51.51.465a1.1,1.1,0,0,0-.39-.435.368.368,0,0,0,.39-.285H86.19c.285-.195.645-.18.945-.33-.135-.1-.255-.24-.435-.225a2.01,2.01,0,0,0-.54.21.24.24,0,0,1-.255-.3A.8.8,0,0,1,86.52,18a.705.705,0,0,1,.855.72.8.8,0,0,1-.225.495l-.6.105s0,.12.09.15a1.86,1.86,0,0,0,.645,0c.24-.45.675-.8.72-1.335a12.751,12.751,0,0,0-.3-1.62,1.5,1.5,0,0,1-.93.78Zm-6-.4a1.29,1.29,0,0,0-.39.51l.09.27a.435.435,0,0,0,.525-.12l-.375-.09a.5.5,0,0,1,.45-.48v-.075Zm2.775,0a3.315,3.315,0,0,1,.4.18c.09.09.09.225.15.33l-.36.075.09.15c.15,0,.36.09.45-.09a.66.66,0,0,0-.36-.675.8.8,0,0,0-.375,0Zm.51,0,.33.42.36-.165a1.29,1.29,0,0,0-.69-.255Zm-4.065.255.315.165.345-.42a1.035,1.035,0,0,0-.66.255Zm1.215.36a1.5,1.5,0,0,0-.465.5c.5,0,.69-.5,1.02-.765a1.065,1.065,0,0,1-.24.51c-.225.255-.6.36-.645.735a1.35,1.35,0,0,0,1.05-1.02,2.264,2.264,0,0,0-.135-.57C81.495,17.04,81.36,17.325,81.12,17.475Zm1.695-.615a1.5,1.5,0,0,0-.135.495,1.365,1.365,0,0,0,1.08,1.095c-.135-.54-.9-.63-.87-1.245.3.285.51.78.99.75a1.5,1.5,0,0,0-.495-.495c-.24-.15-.33-.45-.57-.6ZM79.29,17.3c.18,0,.48-.09.57.15h.24a1.17,1.17,0,0,1,.15.225.8.8,0,0,0,0-.18c-.195-.3-.6-.33-.9-.435a1.664,1.664,0,0,0-.105.24Zm5.205,0a.3.3,0,0,0-.27.39.51.51,0,0,1,.45-.225v-.12h.51c0-.09,0-.24-.195-.21a2.3,2.3,0,0,0-.57.18Zm-5.025.075a6.7,6.7,0,0,0-.75,1.365,3.8,3.8,0,0,1-.195.33c-.255-.075-.48-.315-.78-.225s-.33.1-.18.24.555.15.81.3h-.27c0,.21.24.24.39.3a.615.615,0,0,0-.345.435c.225,0,.645-.15.48-.465v-.09l-.075-.06h.27A3,3,0,0,1,79.62,18a2.07,2.07,0,0,1,.69-.375.345.345,0,0,0-.48,0V17.4h-.315Zm1.65,1.92a2.61,2.61,0,0,0,.825-.39.81.81,0,0,0,.72,0,2.745,2.745,0,0,0,.795.375,3.8,3.8,0,0,0-.54-.555A4.064,4.064,0,0,1,82.3,17.9,5.52,5.52,0,0,1,81.12,19.29Zm.6-1.155a3.3,3.3,0,0,1-1.05.99.885.885,0,0,0,0,.21,3.375,3.375,0,0,0,1.35-1.29c-.12,0-.27,0-.33.09Zm-2.055,0v.675l.225-.12c.42.57.81,1.17,1.23,1.74a2.312,2.312,0,0,0,.12-.285c-.375-.555-.765-1.08-1.125-1.635l.18-.135-.63-.24Zm4.665.24.18.15L82.815,21l-.9-1.65-.9,1.38-.21-.1V21.3l.63-.24-.18-.165c.18-.36.45-.66.645-1.02.315.54.6,1.08.9,1.62.69-.93,1.32-1.89,2-2.835l.21.15v-.7l-.63.255ZM82,19.05a2.656,2.656,0,0,0,.255.36c.195,0,.24-.27.36-.36a4.2,4.2,0,0,1-.615,0ZM78.72,19.6V19.8a4.71,4.71,0,0,0,1.635-.3l-.15-.165a7.29,7.29,0,0,1-1.5.27Zm5.625-.285v.195a4.41,4.41,0,0,0,1.5.27.9.9,0,0,0,.09-.165,8.04,8.04,0,0,1-1.59-.3Zm-1.875.675a.24.24,0,0,0,.1.345c.09-.135.15-.27.24-.405s.225.3.345.45c0-.075.15-.135.15-.24a4.691,4.691,0,0,0-.5-.78C82.7,19.575,82.575,19.785,82.47,19.995Zm-5.07-.42a2.039,2.039,0,0,0,.135.345c.225-.1.555-.15.615-.45a1.5,1.5,0,0,0-.75.1Zm9.165-.075a.84.84,0,0,0,.66.42,2.487,2.487,0,0,0,.09-.315,1.575,1.575,0,0,0-.75-.1Zm-8.82.6h.42l.225-.45c-.27,0-.66.1-.645.435Zm8.565-.42a2.16,2.16,0,0,0,.345.48c.12,0,.36,0,.3-.225a.675.675,0,0,0-.645-.255Zm-4.92,1.1c.165.255.345.495.51.735a4.89,4.89,0,0,0,.36-.6c0-.12,0-.255,0-.36a4.817,4.817,0,0,0-.285.465l-.33-.45-.18.21Zm2.07.18-.18.12.645.255v-.675l-.225.12-.135-.225a.36.36,0,0,0-.1.45Z" transform="translate(36.03 1.5)"/><path class="c" d="M72.06,24V3H92.64V24ZM82.245,5.49v.18H82.1v.105a.225.225,0,0,1,.135.21h.24a.21.21,0,0,1,.18-.225l-.18-.105v-.15Zm0,.63a1.5,1.5,0,0,0,.18.75c.1-.27.36-.585.1-.84Zm.27.99h.18a9.251,9.251,0,0,1,.18-1.1c-.285.285-.27.72-.36,1.08Zm-7.8-.96a2.745,2.745,0,0,0,0,1.665,3.48,3.48,0,0,0,.645.96A4.185,4.185,0,0,0,77.1,10.1a2.205,2.205,0,0,1-.375-.75,3.945,3.945,0,0,1-1.5-1.755,11.265,11.265,0,0,1,1.5,1.695,1.38,1.38,0,0,0-.09-.495,9,9,0,0,0-1.92-2.625ZM81.9,6a10.789,10.789,0,0,0,.21,1.14l.135-.09A1.635,1.635,0,0,0,81.9,6Zm6.18,2.79a.855.855,0,0,0,0,.465,12.285,12.285,0,0,1,1.5-1.71A3.96,3.96,0,0,1,88.08,9.3a2.1,2.1,0,0,1-.435.78A4.815,4.815,0,0,0,89.9,8.13a2.49,2.49,0,0,0,.225-2.04,9,9,0,0,0-1.98,2.7ZM81.51,6.285a2.88,2.88,0,0,0,.27.93h.255a3.105,3.105,0,0,0-.18-.975l-.345.075Zm1.35-.075a2.175,2.175,0,0,0-.165.93l.225.09a3.96,3.96,0,0,0,.3-.93Zm-4.02.8a1.532,1.532,0,0,0,.765-.375.615.615,0,0,0-.765.375Zm1.5-.24h-.195l.195.135a.48.48,0,0,1,0,.135c.135,0,.165-.165.27-.21h0a.87.87,0,0,1-.255-.27.63.63,0,0,0-.09.21Zm3.96-.21a.36.36,0,0,1-.24.285l.195.1V7.17a.315.315,0,0,0,.165-.255h.105V6.81c-.09-.09-.18-.165-.255-.255Zm.63.405c.09.3.42.6.225.93a.362.362,0,0,0,.33-.3c.015-.18-.3-.525-.3-.825h0c.21.135.4.33.675.27a2.235,2.235,0,0,0-.2.735,2.265,2.265,0,0,0,.135.7,1.71,1.71,0,0,0,.12-.78c0-.225.165-.42.21-.645l-.315-.09a.765.765,0,0,0-.735-.315,2.908,2.908,0,0,0-.225.36Zm-5.625.645c0,.165.195.21.315.3l-.15-.255a4.08,4.08,0,0,0,.285-.7,1.665,1.665,0,0,0-.135-.285c-.1.315-.4.585-.375.945Zm-.72-.6a4.591,4.591,0,0,0,.195.645,1.185,1.185,0,0,0,.12.75,1.5,1.5,0,0,0,.09-.9,3,3,0,0,1-.18-.63l-.255.1Zm1.695.225a1.26,1.26,0,0,0,.12.4.69.69,0,0,0,.225-.435c-.105,0-.27-.09-.345,0Zm3.87,0a1.254,1.254,0,0,0,.15.435.66.66,0,0,0,.18-.51h-.33Zm-2.31,0c.09.18.315.15.48.165v.24h.15V7.5a.78.78,0,0,0,.48-.135,1.7,1.7,0,0,0-1.125,0Zm1.965,0a.6.6,0,0,0,.45.6,2.55,2.55,0,0,0-.135-.585Zm.735,0a2.325,2.325,0,0,0-.12.54h.225c.09-.165.165-.33.24-.495Zm-4.65,0c.105.225.18.54.465.57a2.386,2.386,0,0,0-.135-.585Zm.75,0a2.671,2.671,0,0,0-.1.585c.27,0,.375-.36.45-.6Zm.66.735a1.59,1.59,0,0,0,.585-.135,1.65,1.65,0,0,0,.3-.345A.8.8,0,0,0,81.3,7.965ZM82.575,7.5a.87.87,0,0,0,.885.51.93.93,0,0,0-.885-.51Zm7.4.93c-.45.435-.9.87-1.365,1.275-.15.12-.165.345-.225.51A11.04,11.04,0,0,1,90.27,8.88a4.74,4.74,0,0,1-1.8,1.335,1.215,1.215,0,0,0-.36.315,3.105,3.105,0,0,0,1.245-.39,4.725,4.725,0,0,0,1.5-1.065,1.965,1.965,0,0,0,.36-1.5,4.5,4.5,0,0,0-1.2.84Zm-16.29.24a2.22,2.22,0,0,0,.78.885,5,5,0,0,0,2.115.945c-.12-.315-.465-.39-.735-.555A3.915,3.915,0,0,1,74.46,8.8a12.989,12.989,0,0,1,1.9,1.365.975.975,0,0,0-.315-.585,12.36,12.36,0,0,0-2.475-2.04,2.16,2.16,0,0,0,.09,1.065Zm4.605-.7h.42a2.235,2.235,0,0,1,0-.315,2.31,2.31,0,0,0-.39.375Zm7.77-.345a1.816,1.816,0,0,0,0,.285h.4a.96.96,0,0,0-.39-.345Zm-5.895.225a.465.465,0,0,0,0,.15,1.89,1.89,0,0,0,.645,0,3.33,3.33,0,0,0-.66-.09Zm3.78,0a1.29,1.29,0,0,0,.675,0,.66.66,0,0,1,0-.15,4.5,4.5,0,0,0-.645,0Zm-4.185.12a.885.885,0,0,0,.255.48V7.98Zm.24,0a1,1,0,0,0,.3.705c.09.09.225,0,.33,0l.33.15a2.729,2.729,0,0,1,.4-.225h0a1.92,1.92,0,0,0,.375.225,1.5,1.5,0,0,0,.435-.1,2.235,2.235,0,0,1-.54-.255l.195-.18H81.7l.15-.18a4.77,4.77,0,0,1-1.845,0Zm3,0a.555.555,0,0,1,0,.315.9.9,0,0,0,.12.12,1.4,1.4,0,0,1-.51.27,1.08,1.08,0,0,0,.375.105.99.99,0,0,0,.42-.24v.15h.15a.36.36,0,0,1,0,.12l.255.09c.165,0,.345-.24.5,0a.885.885,0,0,0,.465-.81,4.05,4.05,0,0,1-1.8,0Zm1.74.51a.69.69,0,0,0,.315-.495C84.765,7.98,84.81,8.3,84.735,8.475Zm-5.6-.225a.6.6,0,0,0,0,.51.195.195,0,0,0,.3,0h0V8.52h.15a.87.87,0,0,0,0,.21,2.6,2.6,0,0,1,.465.105A2.447,2.447,0,0,0,80.34,8.7a3.7,3.7,0,0,1-.69-.465c-.12-.165-.315,0-.465,0Zm6,0a4.245,4.245,0,0,1-.675.48l.285.15a2.115,2.115,0,0,0,.48-.255h.03V8.94h.3a.75.75,0,0,0,.18-.36l-.09-.225c-.15,0-.33-.165-.45,0ZM87.39,9c-.465.435-.39,1.155-.72,1.665a2.67,2.67,0,0,0,1.14-1.02,1.7,1.7,0,0,0,.105-.945,1.23,1.23,0,0,0-.525.3Zm-10.5-.3a1.38,1.38,0,0,0,.12,1.005,2.73,2.73,0,0,0,1.08.945,6.224,6.224,0,0,1-.33-1.02A1.35,1.35,0,0,0,76.89,8.7Zm4.5,0c.075.39.36.7.435,1.095a1.02,1.02,0,0,0,0-.63A1.065,1.065,0,0,0,81.36,8.7Zm1.59.495a1,1,0,0,0,0,.555A8.071,8.071,0,0,0,83.4,8.7a1.035,1.035,0,0,0-.45.495Zm-3.09-.15V9.51a.885.885,0,0,1,.675-.465l-.255-.3a.915.915,0,0,0-.45.3ZM81.06,9h-.195a3.09,3.09,0,0,1,.63.69V9.48l-.39-.645a1.126,1.126,0,0,0-.09.2Zm.6-.12a.84.84,0,0,0,.63.57,1.2,1.2,0,0,0-.345-.555Zm1.83,0c-.105.27-.33.48-.3.795A4.906,4.906,0,0,1,83.85,9h-.135l-.225-.105Zm0,.7c.195-.165.39-.33.6-.48a1.035,1.035,0,0,1,.705.465,1.38,1.38,0,0,0,0-.435,1.5,1.5,0,0,0-.45-.315l-.12.09a.765.765,0,0,0-.795.675Zm-3.165-.69a4.651,4.651,0,0,0,.765.66A1.29,1.29,0,0,0,80.97,9a2.535,2.535,0,0,0-.54-.18ZM82.65,9a1.41,1.41,0,0,0-.225.45.9.9,0,0,0,.645-.585A.5.5,0,0,0,82.65,9Zm-2.22.255c.105.12.315.18.375.345a3.961,3.961,0,0,0,.255.7,3.569,3.569,0,0,0,.09-.555c-.195-.225-.39-.555-.72-.495Zm3.105.51a3.613,3.613,0,0,0,.1.555,2.73,2.73,0,0,0,.33-.69c0-.21.255-.285.405-.4-.36-.075-.54.315-.765.51Zm-1.29-.315c0,.1-.21.225-.165.375a1.5,1.5,0,0,0,.3.51,2.205,2.205,0,0,0,.285-.6A.39.39,0,0,0,82.245,9.45ZM85.9,10.5c-.225.18-.555.345-.525.7s.36.765.36,1.2a1.35,1.35,0,0,1-1.26.135c0,.195-.18.375-.27.555h.3v.495a1.155,1.155,0,0,0,.48-.33.885.885,0,0,0,.435.27,3.672,3.672,0,0,0,.12-.435.93.93,0,0,0,.645.33,1.08,1.08,0,0,0,0-.72,1.845,1.845,0,0,0,.645,0,1.08,1.08,0,0,0-.315-.57.87.87,0,0,0,.57-.36c0-.255-.33-.24-.51-.285a.885.885,0,0,0,.39-.57,1.365,1.365,0,0,0-.81.09,2.355,2.355,0,0,0,.495-.51,1.83,1.83,0,0,0,.225-1.155,3.585,3.585,0,0,1-.975,1.1ZM77.85,9.39a2.265,2.265,0,0,0,.105,1,2.415,2.415,0,0,0,.525.645,1.32,1.32,0,0,0-.8-.075,1.185,1.185,0,0,0,.405.645,1.185,1.185,0,0,0-.555.21.93.93,0,0,0,.645.435.735.735,0,0,0-.3.585h.63l-.105.18a1,1,0,0,0,0,.3l.09.21a1.1,1.1,0,0,0,.615-.345c0,.15,0,.4.21.435a1.38,1.38,0,0,0,.33-.27.96.96,0,0,0,.51.315v-.51h.33c-.1-.2-.21-.375-.3-.57a1.5,1.5,0,0,1-.975,0,.289.289,0,0,1-.255-.27,5.235,5.235,0,0,1,.345-1.035.585.585,0,0,0-.285-.585,3.54,3.54,0,0,1-1.2-1.29Zm3.51,1.41a1.845,1.845,0,0,0,.315-.585,1.245,1.245,0,0,0-.15-.51,1.065,1.065,0,0,0-.165,1.1Zm-8.565-.975a2.49,2.49,0,0,0,1.275,1c.885.33,1.845.42,2.73.765a1.35,1.35,0,0,1-.315-.45A6.225,6.225,0,0,1,74.64,10.5a7.11,7.11,0,0,1,1.74.465c.165.09.345,0,.51-.09-.6-.27-1.215-.48-1.83-.69a6.21,6.21,0,0,0-2.265-.39Zm9.765.78c.165.15.255.36.435.48s0,.21,0,.315a2.085,2.085,0,0,0-.315-.405,2.464,2.464,0,0,0,0,.345c0,.15.21.285.15.465s-.09.195,0,.21a.975.975,0,0,0,.315-.45c0,.195.18.39.27.585a1.591,1.591,0,0,0,.165-.315,2.655,2.655,0,0,1-.36-.915c.18.255.21.6.435.84s.375.465.66.375a.57.57,0,0,0,.255-.855c-.12.15-.24.4-.48.315a1.5,1.5,0,0,1-.765-.8l-.255.09a2.19,2.19,0,0,0-.225-1.14,1.14,1.14,0,0,0-.255.855Zm.48-.4a1.5,1.5,0,0,0,.315.585A1.185,1.185,0,0,0,83.22,9.69a.915.915,0,0,0-.18.51Zm6.915,0a18.081,18.081,0,0,0-2.145.78,1.935,1.935,0,0,0,.42.12,7.725,7.725,0,0,1,1.86-.6,6,6,0,0,1-1.8.6,5.1,5.1,0,0,0-.345.45c.885-.33,1.83-.435,2.73-.765A2.385,2.385,0,0,0,91.9,9.78a5.775,5.775,0,0,0-1.95.315Zm-8.175.96a5.2,5.2,0,0,0,.39-.66,1.605,1.605,0,0,0-.255-.81c-.135.435-.435.93-.135,1.365ZM76.335,9.9c.165.39.36.855.78,1a1.215,1.215,0,0,0,.855-.1,3.63,3.63,0,0,0-1.6-.9Zm10.5.9a1.125,1.125,0,0,0,.825.09,1.6,1.6,0,0,0,.765-.99,3.435,3.435,0,0,0-1.59.9Zm-4.65.09a.708.708,0,0,0,.21.405c.12-.12.27-.27.24-.465a3.1,3.1,0,0,0-.27-.33c-.09.135-.24.255-.225.435Zm-1.665.21v.09a.435.435,0,0,0,.5,0,.705.705,0,0,0,.2-.69.945.945,0,0,1-.69.585Zm3-.6a1.08,1.08,0,0,0,.15.75c.165,0,.54.12.525-.15a1.035,1.035,0,0,1-.675-.6Zm-3,1.1c-.18,0-.255-.195-.345-.33h-.09c0,.24-.075.525.12.69a.405.405,0,0,0,.555,0,2,2,0,0,0,.69-1.275c-.285.3-.495.75-.93.825Zm.57.21c.09,0,.135.36.255.225a1.29,1.29,0,0,0,.195-1.245,2.6,2.6,0,0,1-.45,1.02Zm-4.5-.81a.567.567,0,0,0,.4.54,1.275,1.275,0,0,0,.915,0,2.475,2.475,0,0,1-.27-.48,6.075,6.075,0,0,0-1.05,0Zm5.07.6c0,.27.24.405.39.57a.78.78,0,0,1,0-.81,3,3,0,0,0,0-.39c-.135.2-.36.36-.36.63Zm5.415-.54a2.249,2.249,0,0,1-.285.48,1.065,1.065,0,0,0,1.395-.45c-.345-.21-.735,0-1.11,0Zm-14.25.165a4.125,4.125,0,0,0,1.29.63,6.66,6.66,0,0,0,2.04.15c.12,0,.135-.135.21-.195a6.84,6.84,0,0,1-1.74-.225,3.63,3.63,0,0,1,1.335,0c.225,0,.465.15.705,0a4.2,4.2,0,0,0-1.035-.345,7.365,7.365,0,0,0-2.805-.09Zm15.225.405a.375.375,0,0,0,.315,0,4.5,4.5,0,0,1,1.74-.12,6.84,6.84,0,0,1-1.74.225.24.24,0,0,0,.285.195,10.635,10.635,0,0,0,1.5,0,4.5,4.5,0,0,0,1.71-.735,7.5,7.5,0,0,0-3.855.405Zm-5.835-.315c-.105.165-.24.375-.135.585s.21.39.39.255a.615.615,0,0,0,0-.855l-.135.075h-.15Zm-6,.735a1.4,1.4,0,0,0,1.41.1s0-.12,0-.15a.825.825,0,0,0-1.365,0Zm10.995-.3c0,.135-.165.255-.24.375l.435.15a3,3,0,0,0-.735,0,1.245,1.245,0,0,0,.525.585,1.035,1.035,0,0,0,.915,0,1.755,1.755,0,0,0-.225-.405,1.38,1.38,0,0,0-.48-.21A1.5,1.5,0,0,0,88.47,12a1.41,1.41,0,0,0-.42-.315,1.38,1.38,0,0,0-.78,0Zm-5.655.12a1.335,1.335,0,0,0-.27.57c0,.255.21.42.345.615a3.225,3.225,0,0,0,.285-.555.645.645,0,0,0-.36-.63Zm-.825.345a1.62,1.62,0,0,0,.195.87,1.17,1.17,0,0,0,.3-.645,1.11,1.11,0,0,0-.18-.54,3.119,3.119,0,0,0-.315.315Zm2.01,0a1.23,1.23,0,0,0,0,.405,2.624,2.624,0,0,1,.27.435,1.68,1.68,0,0,0,.36-.555,1.5,1.5,0,0,0-.285-.645,1.5,1.5,0,0,0-.33.36Zm.93.885a1.5,1.5,0,0,0,.225-.9l-.285-.3a.915.915,0,0,0,0,1.2Zm-10.5-.33a4.965,4.965,0,0,0,1.335.1,11.52,11.52,0,0,0,2.145-.285l.21-.24a1.38,1.38,0,0,0-.5,0,4.05,4.05,0,0,1-1.5.135,3.66,3.66,0,0,1,.78-.18,2.9,2.9,0,0,0,.825-.135,4.71,4.71,0,0,0-1.215,0,3.375,3.375,0,0,0-2.025.6Zm15.15-.555a6.4,6.4,0,0,1,1.5.255,4.35,4.35,0,0,1-1.5-.12,1.1,1.1,0,0,0-.54,0c.24.315.66.3,1.02.375a6.48,6.48,0,0,0,2.685,0,4.275,4.275,0,0,0-1.335-.525,7.448,7.448,0,0,1-1.29-.075c-.195,0-.45-.1-.6.075Zm-8.1,0c.09.255.105.57.345.72s0,.135.15.195H80.28a5.1,5.1,0,0,1-.1.51l-.3-.09c.285.345.255.825.465,1.2.12-.3.255-.585.39-.885a.75.75,0,0,0,0-.75h.24a1.275,1.275,0,0,0-.285-.45v-.48a1.5,1.5,0,0,1-.51-.075Zm-3.1.15a.96.96,0,0,0-.555.6,1.1,1.1,0,0,0,1.065-.135,1.965,1.965,0,0,0,.345-.51,1.95,1.95,0,0,0-.885,0Zm4.92.135a1.4,1.4,0,0,0,.315.675c.15-.21.375-.435.315-.72l-.33-.18A2.234,2.234,0,0,0,82.035,12.495Zm1.935-.255V12.7l.195.21a3.51,3.51,0,0,0,.285-.69Zm-8.61.675a2.16,2.16,0,0,0-1.575,1.155,2.64,2.64,0,0,0,1.5-.27,14.159,14.159,0,0,1,1.5-.675l-.27-.12a3.96,3.96,0,0,1-1.41.39,7.935,7.935,0,0,1,1.5-.645,8.445,8.445,0,0,0-1.215.165Zm7.11.36a1.5,1.5,0,0,0,.195.75.9.9,0,0,0,.33-.48,1,1,0,0,0-.21-.765,2.325,2.325,0,0,0-.315.495Zm.975-.495a2.1,2.1,0,0,0-.33.48,1.335,1.335,0,0,0,.24.735,1.725,1.725,0,0,0,.45-.72,6,6,0,0,0-.36-.495Zm4.695,0a7.83,7.83,0,0,1,1.5.645,3.885,3.885,0,0,1-1.395-.39l-.345.1a12,12,0,0,1,1.5.63,2.775,2.775,0,0,0,1.5.33,2.055,2.055,0,0,0-1.26-1.08A8.61,8.61,0,0,0,88.14,12.78Zm-10.98.45c.1.09.195.24.345.24a.945.945,0,0,0,.915-.555,2.085,2.085,0,0,1-.615,0,3.915,3.915,0,0,0-.645.36Zm3.855,0a1.71,1.71,0,0,0,.42.735,1.875,1.875,0,0,0,.255-.585c0-.27-.21-.45-.345-.645l-.375.525Zm.78.075a.93.93,0,0,0,.33.705,1.365,1.365,0,0,0,.21-.63.885.885,0,0,0-.3-.585C81.855,12.885,81.825,13.125,81.795,13.305Zm2.025-.12.4-.24-.255-.18a1.71,1.71,0,0,0-.195.45Zm2.535-.33a1.08,1.08,0,0,0,1.05.555l.24-.24a7.155,7.155,0,0,0-.675-.345,1.575,1.575,0,0,1-.645,0Zm-2.19.195-.195.21c-.12.555.3.975.45,1.5h.12a3.09,3.09,0,0,1,.345-1.05H84.6l-.09-.465L84.2,13.11Zm-8.385.6a2.085,2.085,0,0,0-1.08,1.32,1.71,1.71,0,0,0,1-.285,11.7,11.7,0,0,0,1.035-.9,1.71,1.71,0,0,0,.5-.54,6.8,6.8,0,0,1-1.5.9,2.055,2.055,0,0,1,.57-.57,7.771,7.771,0,0,0,.855-.465,10.094,10.094,0,0,0-1.41.54Zm11.82-.54c.27.21.6.3.87.48a2.07,2.07,0,0,1,.585.555,3.57,3.57,0,0,1-.99-.555,1.23,1.23,0,0,0-.525-.3c.45.435.915.855,1.38,1.275a1.725,1.725,0,0,0,1.185.4,2.115,2.115,0,0,0-1.08-1.32,9.6,9.6,0,0,0-1.5-.54Zm-9.93.525v.285a.84.84,0,0,0,.795-.375,1.564,1.564,0,0,0-.12-.375,1.38,1.38,0,0,0-.69.465Zm8.76-.465c0,.165-.18.36,0,.495a.765.765,0,0,0,.72.255,1.155,1.155,0,0,0-.18-.42,1.335,1.335,0,0,0-.615-.36Zm-7.92.405a1.5,1.5,0,0,0-.465.69c.48,0,1.11-.345.99-.9a5.474,5.474,0,0,0-.525.21Zm7.275-.21a3.271,3.271,0,0,0,0,.375,1.065,1.065,0,0,0,.975.525,1.6,1.6,0,0,0-.51-.75l-.45-.15Zm-8.52.135a3.21,3.21,0,0,0-1.5,2.16,1.29,1.29,0,0,0,.615-.195c.42-.24.615-.72.945-1.08s.39-.33.315-.6a5.2,5.2,0,0,1-1.185.96,2.025,2.025,0,0,1,.42-.525c.27-.255.645-.375.885-.66h-.42Zm2.31-.09a1.845,1.845,0,0,0,.225,1.41.735.735,0,0,0,.525.3,3.724,3.724,0,0,0-.225-.735A1.511,1.511,0,0,0,79.575,13.41Zm5.46,0a6.39,6.39,0,0,0-.645,1.665h.3a1.5,1.5,0,0,0,.465-1.5l-.12-.09ZM79.2,14.79a1.035,1.035,0,0,0,.255-1.11h-.21l-.1-.18a1.02,1.02,0,0,0,0,1.275Zm7.845-1.29a2.25,2.25,0,0,0,.645.5,2.505,2.505,0,0,1,.57.555v.135a5.535,5.535,0,0,1-1.125-.93v.3a9.51,9.51,0,0,1,.765.975,1.335,1.335,0,0,0,1.05.585,2.775,2.775,0,0,0-.24-.78,4.68,4.68,0,0,0-1.335-1.38h-.42Zm-1.785.12a2.115,2.115,0,0,0,0,.75,2.22,2.22,0,0,0,.24.405,1.4,1.4,0,0,0,.285-.555,1.17,1.17,0,0,0-.135-.675h-.375Zm-4.41.81.225.33A1.125,1.125,0,0,0,81.3,14.3a1.02,1.02,0,0,0-.285-.66A1.215,1.215,0,0,0,80.85,14.43Zm.54-.15a.9.9,0,0,0,.33.57c.1-.21.285-.45.225-.705a3.721,3.721,0,0,0-.255-.48c-.12.195-.315.375-.3.615Zm1.365,0a1.23,1.23,0,0,0,.255.63c.12-.165.315-.33.315-.555a1.312,1.312,0,0,0-.3-.615,1.23,1.23,0,0,0-.27.54Zm.66.075c0,.1.1.21.075.33h-.12a.585.585,0,0,0,0,.825l.135.1a1.17,1.17,0,0,0,.105-.78.855.855,0,0,0,.285-.435,1.29,1.29,0,0,0-.18-.69c-.135.195-.33.4-.285.66ZM82.35,13.86a3.164,3.164,0,0,0-.27.495,1.167,1.167,0,0,0,.285.615,2.879,2.879,0,0,0,.27-.465,1.262,1.262,0,0,0-.285-.645Zm-4.68.27a2.91,2.91,0,0,0-.945,1.92,1.8,1.8,0,0,0,.825-.495c.285-.345.435-.8.72-1.155h-.3a3.24,3.24,0,0,1-.795,1c.09-.585.585-.93.885-1.38a.467.467,0,0,0-.375.1Zm9-.09c.345.42.825.8.9,1.365a4.335,4.335,0,0,1-.81-.99h-.255l.555.975a1.635,1.635,0,0,0,.96.7,2.85,2.85,0,0,0-1.05-2.07Zm-7.965.3a3.135,3.135,0,0,1-.345,1.23,4.86,4.86,0,0,1,.225-1.305,2.535,2.535,0,0,0-.57,1.065,1.635,1.635,0,0,0,0,.93,1.125,1.125,0,0,0,.72-.855,6.839,6.839,0,0,0,.12-1.35c0,.09-.18.15-.18.285Zm7.17-.255a5.866,5.866,0,0,0,.2,1.5,1.29,1.29,0,0,0,.63.66,1.5,1.5,0,0,0,0-1.095,2.31,2.31,0,0,0-.54-.93,5.836,5.836,0,0,1,.255,1.335,3,3,0,0,1-.36-1.23.3.3,0,0,0-.195-.27Zm-6.885.495a2.55,2.55,0,0,0,.21,1.74,4.5,4.5,0,0,0,.3-1.665l-.18.165a1.935,1.935,0,0,1-.12.825,1.5,1.5,0,0,1,0-.735.666.666,0,0,0-.15-.33Zm6.63.18a1.755,1.755,0,0,1,0,.885c-.15-.33,0-.765-.255-1a3.87,3.87,0,0,0,.3,1.7,2.805,2.805,0,0,0,.21-1.785l-.18.21Zm-6,0a3.48,3.48,0,0,0,.36,1.365h.18a2.415,2.415,0,0,0,0-.93L79.9,15a2.175,2.175,0,0,1,0,.54,1.83,1.83,0,0,1-.195-.69l-.075-.165H79.53Zm1.5.345a1.866,1.866,0,0,0,.15.585,1.29,1.29,0,0,0,.3-.585,2.581,2.581,0,0,0-.165-.435c-.12.135-.27.255-.285.435Zm.855-.36a1.5,1.5,0,0,0-.315.57,1.89,1.89,0,0,0,.225.675,1.3,1.3,0,0,0,.36-.735C82.245,15.06,82.245,14.82,81.975,14.745Zm2.835.945a3.435,3.435,0,0,1,0-.555l-.18.1a1.83,1.83,0,0,0,0,1.02,2.385,2.385,0,0,0,.45-1.59c-.195.315-.18.7-.345,1.02Zm-2.34-.525a1.275,1.275,0,0,0,.33.735,1.29,1.29,0,0,0,.225-.735,3.466,3.466,0,0,0-.27-.525.51.51,0,0,0-.285.525Zm-.435.765a2.55,2.55,0,0,0,.27.93,2.6,2.6,0,0,0,.3-.93,1.4,1.4,0,0,0-.3-.66,1.41,1.41,0,0,0-.27.66Zm-.6-.525-.285.39c-.075.195.09.345.195.495.12-.1.3-.24.285-.435a2.911,2.911,0,0,0-.2-.45Zm1.59.6a1.275,1.275,0,0,0,.21.285,3.385,3.385,0,0,0,.24-.24.885.885,0,0,1,0-.2c-.105-.165-.225-.315-.33-.465,0,.195-.21.39-.15.615Zm-2.7.5a1.815,1.815,0,0,0,.825-.285,3,3,0,0,0,0-.36,3,3,0,0,0-.78.645Zm3.315-.63a.4.4,0,0,1-.1.33,2.19,2.19,0,0,0,.825.315,2.265,2.265,0,0,0-.72-.645Zm-2.07.45c-.195.165-.51.21-.6.5.135,0,.3.21.465.1a1.125,1.125,0,0,0,.54-.99,4.96,4.96,0,0,1-.4.39Zm1.17-.405a1.03,1.03,0,0,0,.69,1.05l.33-.165a.765.765,0,0,0-.36-.33,1.815,1.815,0,0,1-.66-.555Zm-5.58.285a1.258,1.258,0,0,0,0,.255,1.23,1.23,0,0,0,.555.645c.15.1.39.165.48,0a.45.45,0,0,0-.12-.405.96.96,0,0,0-.84-.465Zm9.4.735.09.255c.4,0,.675-.315.945-.57,0-.165,0-.45-.18-.435a1.26,1.26,0,0,0-.855.75Zm-6-.12h.405l.18-.315.315-.135-.165-.12a1.575,1.575,0,0,0-.7.555Zm2.82-.45a.8.8,0,0,1,.495.465h.33a1.006,1.006,0,0,0-.09-.18c-.225-.135-.48-.525-.735-.27ZM82,17.04a1.155,1.155,0,0,1,.135.705l-.315.27h.285l.285-.24a2,2,0,0,0,.285.21,1.965,1.965,0,0,0,.42.675,2.565,2.565,0,0,0,.84.66.645.645,0,0,0,.15-.135,3.225,3.225,0,0,1-1.215-1.245c-.105-.105-.24-.21-.24-.375s.225-.54.24-.84a.87.87,0,0,0-.135-.435,5.536,5.536,0,0,1-.345.87,8.654,8.654,0,0,1-.33-.87.75.75,0,0,0,0,.75ZM77.01,16.5c0,.555-.39,1.035-.315,1.6a3.861,3.861,0,0,0,.72,1.4h.75c-.1-.285-.51-.1-.69-.3a.93.93,0,0,1-.105-.66.69.69,0,0,1,.975-.435.975.975,0,0,1,.4.69,2.7,2.7,0,0,0,.12-.315.8.8,0,0,0-.285-.465.87.87,0,0,0-1.32.24,1.1,1.1,0,0,1,.63-.9,1.5,1.5,0,0,1-.885-.84Zm2.46.45.345.135a1.935,1.935,0,0,0,.81-.585,1.725,1.725,0,0,0-1.155.45Zm4.5-.45a1.575,1.575,0,0,0,.75.57l.375-.105C84.84,16.605,84.36,16.575,83.97,16.5Zm2.715.765a1.065,1.065,0,0,1,.675.84.945.945,0,0,0-.795-.375.9.9,0,0,0-.84.69c-.18-.33-.33-.66-.525-.96s-.255-.09-.39-.135v.255c-.15-.09-.42-.195-.45,0a2.355,2.355,0,0,1,1.5,1.845h.285l-.18.12v.09c-.21.315.255.51.51.465a1.1,1.1,0,0,0-.39-.435.368.368,0,0,0,.39-.285H86.19c.285-.195.645-.18.945-.33-.135-.1-.255-.24-.435-.225a2.01,2.01,0,0,0-.54.21.24.24,0,0,1-.255-.3A.8.8,0,0,1,86.52,18a.705.705,0,0,1,.855.72.8.8,0,0,1-.225.495l-.6.105s0,.12.09.15a1.86,1.86,0,0,0,.645,0c.24-.45.675-.8.72-1.335a12.751,12.751,0,0,0-.3-1.62,1.5,1.5,0,0,1-.93.78Zm-6-.4a1.29,1.29,0,0,0-.39.51l.09.27a.435.435,0,0,0,.525-.12l-.375-.09a.5.5,0,0,1,.45-.48v-.075Zm2.775,0a3.315,3.315,0,0,1,.4.18c.09.09.09.225.15.33l-.36.075.09.15c.15,0,.36.09.45-.09a.66.66,0,0,0-.36-.675.8.8,0,0,0-.375,0Zm.51,0,.33.42.36-.165a1.29,1.29,0,0,0-.69-.255Zm-4.065.255.315.165.345-.42a1.035,1.035,0,0,0-.66.255Zm1.215.36a1.5,1.5,0,0,0-.465.5c.5,0,.69-.5,1.02-.765a1.065,1.065,0,0,1-.24.51c-.225.255-.6.36-.645.735a1.35,1.35,0,0,0,1.05-1.02,2.264,2.264,0,0,0-.135-.57C81.495,17.04,81.36,17.325,81.12,17.475Zm1.695-.615a1.5,1.5,0,0,0-.135.495,1.365,1.365,0,0,0,1.08,1.095c-.135-.54-.9-.63-.87-1.245.3.285.51.78.99.75a1.5,1.5,0,0,0-.495-.495c-.24-.15-.33-.45-.57-.6ZM79.29,17.3c.18,0,.48-.09.57.15h.24a1.17,1.17,0,0,1,.15.225.8.8,0,0,0,0-.18c-.195-.3-.6-.33-.9-.435a1.664,1.664,0,0,0-.105.24Zm5.205,0a.3.3,0,0,0-.27.39.51.51,0,0,1,.45-.225v-.12h.51c0-.09,0-.24-.195-.21a2.3,2.3,0,0,0-.57.18Zm-5.025.075a6.7,6.7,0,0,0-.75,1.365,3.8,3.8,0,0,1-.195.33c-.255-.075-.48-.315-.78-.225s-.33.1-.18.24.555.15.81.3h-.27c0,.21.24.24.39.3a.615.615,0,0,0-.345.435c.225,0,.645-.15.48-.465v-.09l-.075-.06h.27A3,3,0,0,1,79.62,18a2.07,2.07,0,0,1,.69-.375.345.345,0,0,0-.48,0V17.4h-.315Zm1.65,1.92a2.61,2.61,0,0,0,.825-.39.81.81,0,0,0,.72,0,2.745,2.745,0,0,0,.795.375,3.8,3.8,0,0,0-.54-.555A4.064,4.064,0,0,1,82.3,17.9,5.52,5.52,0,0,1,81.12,19.29Zm.6-1.155a3.3,3.3,0,0,1-1.05.99.885.885,0,0,0,0,.21,3.375,3.375,0,0,0,1.35-1.29c-.12,0-.27,0-.33.09Zm-2.055,0v.675l.225-.12c.42.57.81,1.17,1.23,1.74a2.312,2.312,0,0,0,.12-.285c-.375-.555-.765-1.08-1.125-1.635l.18-.135-.63-.24Zm4.665.24.18.15L82.815,21l-.9-1.65-.9,1.38-.21-.1V21.3l.63-.24-.18-.165c.18-.36.45-.66.645-1.02.315.54.6,1.08.9,1.62.69-.93,1.32-1.89,2-2.835l.21.15v-.7l-.63.255ZM82,19.05a2.656,2.656,0,0,0,.255.36c.195,0,.24-.27.36-.36a4.2,4.2,0,0,1-.615,0ZM78.72,19.6V19.8a4.71,4.71,0,0,0,1.635-.3l-.15-.165a7.29,7.29,0,0,1-1.5.27Zm5.625-.285v.195a4.41,4.41,0,0,0,1.5.27.9.9,0,0,0,.09-.165,8.04,8.04,0,0,1-1.59-.3Zm-1.875.675a.24.24,0,0,0,.1.345c.09-.135.15-.27.24-.405s.225.3.345.45c0-.075.15-.135.15-.24a4.691,4.691,0,0,0-.5-.78C82.7,19.575,82.575,19.785,82.47,19.995Zm-5.07-.42a2.039,2.039,0,0,0,.135.345c.225-.1.555-.15.615-.45a1.5,1.5,0,0,0-.75.1Zm9.165-.075a.84.84,0,0,0,.66.42,2.487,2.487,0,0,0,.09-.315,1.575,1.575,0,0,0-.75-.1Zm-8.82.6h.42l.225-.45c-.27,0-.66.1-.645.435Zm8.565-.42a2.16,2.16,0,0,0,.345.48c.12,0,.36,0,.3-.225a.675.675,0,0,0-.645-.255Zm-4.92,1.1c.165.255.345.495.51.735a4.89,4.89,0,0,0,.36-.6c0-.12,0-.255,0-.36a4.817,4.817,0,0,0-.285.465l-.33-.45-.18.21Zm2.07.18-.18.12.645.255v-.675l-.225.12-.135-.225a.36.36,0,0,0-.1.405ZM80.28,8.325a.54.54,0,0,1,.105.15l.255-.18h-.36Zm3.825,0,.24.18v-.18Z" transform="translate(36.03 1.5)"/><path class="c" d="M17.232,9.19a5.265,5.265,0,0,0-1.695-3,3,3,0,0,0-2.355-.51,3.315,3.315,0,0,0-2.16,2.01,10.98,10.98,0,0,0-.87,4.62,12.945,12.945,0,0,0,.645,4.38,4.29,4.29,0,0,0,1.29,1.95,2.9,2.9,0,0,0,2.5.465,3.405,3.405,0,0,0,2.055-1.845,9.525,9.525,0,0,0,.915-3.6A14.445,14.445,0,0,0,17.232,9.19Zm-1.815,4.2a8.415,8.415,0,0,1-.585,2.865,1.32,1.32,0,0,1-.795.825.87.87,0,0,1-.855-.225,3.24,3.24,0,0,1-.72-1.665,14.2,14.2,0,0,1-.27-3.66,9.2,9.2,0,0,1,.525-2.79c.195-.435.51-.885.975-.93a1.125,1.125,0,0,1,1.08.57,5.76,5.76,0,0,1,.6,2.25,19.83,19.83,0,0,1,.045,2.685Z" transform="translate(5.073 2.81)"/><path class="c" d="M59.97,10.55c1.65-1.695,3.285-3.435,4.95-5.13,0,.9,0,1.815.09,2.715.12,2.88.225,5.76.33,8.64a16.467,16.467,0,0,0,.1,2.265h-2.19c-.075-2.835-.2-5.67-.285-8.505L60.33,13.3a2.415,2.415,0,0,0-.36.42V19.04H57.84V6.05h2.115v4.5Z" transform="translate(28.92 2.71)"/><path class="c" d="M70.61,6.385c.33-.3.6-.66.945-.945.18,4.5.345,9,.525,13.59H69.92l-.315-8.52c-.93,1.005-1.89,1.995-2.82,3-.09.09-.195.18-.18.315V19.03H64.49V6.04h2.115v4.5c.48-.45.915-.96,1.395-1.5l2.61-2.73Z" transform="translate(32.245 2.72)"/><path class="c" d="M47.639,8.33a4.5,4.5,0,0,0-1.59-2.175,3,3,0,0,0-2.205-.405,2.55,2.55,0,0,0-1.035.495,4.5,4.5,0,0,0-1.35,2.01,11.49,11.49,0,0,0-.645,3.9,12.675,12.675,0,0,0,.63,4.5,4.065,4.065,0,0,0,1.5,2.1,3,3,0,0,0,2.685.15,3.8,3.8,0,0,0,1.74-1.935,11.715,11.715,0,0,0,.855-5.04,11.3,11.3,0,0,0-.585-3.6Zm-1.83,6.825a3.7,3.7,0,0,1-.585,1.5.945.945,0,0,1-1.08.345c-.4-.135-.615-.57-.795-.96a10.5,10.5,0,0,1-.525-3.615,13.05,13.05,0,0,1,.21-2.535,4.815,4.815,0,0,1,.54-1.5,1.2,1.2,0,0,1,.525-.54,1.065,1.065,0,0,1,1.17.315,2.76,2.76,0,0,1,.5,1.035,9.975,9.975,0,0,1,.3,2.325,14.01,14.01,0,0,1-.255,3.63Z" transform="translate(20.401 2.845)"/><path class="c" d="M48.154,7.842a5.505,5.505,0,0,1,3.9-2.145,8.865,8.865,0,0,1,1.26,0V7.962a5.16,5.16,0,0,0-2.07.42,3.735,3.735,0,0,0-1.875,2.28,6.96,6.96,0,0,0-.18,2.67,4.335,4.335,0,0,0,1.5,2.865,4.065,4.065,0,0,0,2.625.765v2.31a6.615,6.615,0,0,1-3.735-.975,5.835,5.835,0,0,1-2.01-2.325,7.5,7.5,0,0,1-.735-3,7.98,7.98,0,0,1,1.29-5.22Z" transform="translate(23.396 2.838)"/><path class="c" d="M54.315,6.975a6.33,6.33,0,0,1,4.32-1.32V7.92a4.86,4.86,0,0,0-2.22.54,3.975,3.975,0,0,0-1.815,3,5.88,5.88,0,0,0,.525,3.66,3.69,3.69,0,0,0,2.16,1.77,4.68,4.68,0,0,0,1.5.165v2.31a6.39,6.39,0,0,1-4.05-1.185,6.075,6.075,0,0,1-2.265-3.345,10.2,10.2,0,0,1-.12-4.365A6,6,0,0,1,54.315,6.975Z" transform="translate(26.085 2.82)"/><path class="c" d="M4.22,5.84h6.9V18.83H9.005V8.21c0-.09,0-.27-.135-.225H6.335V18.83H4.22Z" transform="translate(2.11 2.92)"/><path class="c" d="M16.115,5.84h2.1V9.41a1.02,1.02,0,0,0,.96.945h1.5v-4.5H22.76v12.99H20.735v-6.3h-1.62a3,3,0,0,1-2.175-.9,2.805,2.805,0,0,1-.84-2.01V5.855Z" transform="translate(8.05 2.92)"/><path class="c" d="M21.67,5.84h5.7V7.985h-1.8V18.83H23.44V7.985H21.67Z" transform="translate(10.835 2.92)"/><path class="c" d="M33.675,13.28c-.15-1.5-.345-3.09-.45-4.65a3.255,3.255,0,0,0-.84-1.95,3.09,3.09,0,0,0-2.13-.84H26.9l-.4,12.99h2.13c0-2.1.105-4.215.195-6.33h2.73c.18,2.115.39,4.215.57,6.33H34.26C34.08,16.985,33.87,15.08,33.675,13.28Zm-4.815-3V7.91A4.35,4.35,0,0,1,30.255,8a1.17,1.17,0,0,1,.675.7,8.145,8.145,0,0,1,.315,1.5Z" transform="translate(13.245 2.92)"/><path class="c" d="M41.845,10.25a5.715,5.715,0,0,0-1.26-3.315A3.2,3.2,0,0,0,38.11,5.84H35.83V18.83h2.175V15.155a2.055,2.055,0,0,0,2.115.33,3,3,0,0,0,1.32-1.665,9.525,9.525,0,0,0,.4-3.57Zm-2.46,2.61c-.135.315-.42.645-.765.51a1.05,1.05,0,0,1-.45-.585,3.39,3.39,0,0,1-.165-1.35V7.805a1.2,1.2,0,0,1,.975.48A4.215,4.215,0,0,1,39.6,10.46a5.4,5.4,0,0,1-.21,2.4Z" transform="translate(17.915 2.92)"/></svg>