<svg xmlns="http://www.w3.org/2000/svg" width="155.1" height="150.4" viewBox="0 0 155.1 150.4"><defs><style>.a{fill:#fff;}</style></defs><path class="a" d="M15.5,55l-.4,1.7L6.8,54.6,5.7,58.8,14,60.9l-.4,1.7L4,60.1l1.9-7.6Zm-.7-10.8A5.415,5.415,0,0,1,17,45.7a3.477,3.477,0,0,1,1,2,4.2,4.2,0,0,1-1.7,4,4.05,4.05,0,0,1-2.1.7,5.338,5.338,0,0,1-2.5-.5l-.5-.2A5.415,5.415,0,0,1,9,50.2a3.811,3.811,0,0,1-1-2,4.2,4.2,0,0,1,1.7-4,4.05,4.05,0,0,1,2.1-.7,7.512,7.512,0,0,1,2.6.5Zm-1.1,1.4a4.624,4.624,0,0,0-2.6-.4,2.2,2.2,0,0,0-1.6,2.7c.1.2.1.4.2.6a4.469,4.469,0,0,0,2,1.6l.5.2a4.624,4.624,0,0,0,2.6.4A2.2,2.2,0,0,0,16.4,48a1.421,1.421,0,0,0-.2-.6,4.741,4.741,0,0,0-2.1-1.6Zm2.1-10.8-1.6,2.7,7.4,4.3-.9,1.5L13.3,39l-1.5,2.7L10.6,41l4-6.8Zm11-.4-3-2.3-1.2,1.5,1.8,3.8-1.1,1.5-2-4.3a3.016,3.016,0,0,1-4.1-1.3,2.016,2.016,0,0,1-.3-1.1,4.109,4.109,0,0,1,.9-2.6l2.1-2.7,7.9,6ZM19.2,33a1.575,1.575,0,0,0,1.3.4,1.742,1.742,0,0,0,1.2-.8l1-1.3-2.8-2.1-1,1.3a2.389,2.389,0,0,0-.5,1.4A2.836,2.836,0,0,0,19.2,33Zm15.4-6.9-1.2,1.2-3.1-3.1-3.2,3.1,3.1,3.1L29,31.6l-7-7.1,1.2-1.2,2.9,2.9,3.2-3.1-2.9-2.9L27.6,19Zm.3-12.7,1.4-1,5.9,8-1.4,1-4.2-5.7.7,8.3-1.4,1L30,17l1.4-1,4.2,5.7ZM45,21.3H44a4.869,4.869,0,0,0-.1-1.2,3.552,3.552,0,0,0-.4-.9l-.7-1.1,1.3-.8.6,1a2.3,2.3,0,0,1,.4,1.4A2.786,2.786,0,0,1,45,21.3Zm7.4-17,3.8,9.2-1.6.7-1.5-3.6a7.814,7.814,0,0,1-2,1.1,4.541,4.541,0,0,1-2.8.3,3.187,3.187,0,0,1-1.8-1.8L45.3,7.3l1.6-.7,1.2,2.9a1.673,1.673,0,0,0,.9,1.1,2,2,0,0,0,1.5-.2,12.81,12.81,0,0,0,2-1.1L50.7,5ZM62.5,2.9l-3,.8L61.7,12l-1.7.4L57.8,4.1l-3,.8-.4-1.3,7.6-2ZM72.7,5.4A5.65,5.65,0,0,1,72.5,8a3.865,3.865,0,0,1-1.2,1.9,4.176,4.176,0,0,1-4.3.5,3.53,3.53,0,0,1-1.7-1.5,5.266,5.266,0,0,1-.8-2.4l-.1-.6a5.65,5.65,0,0,1,.2-2.6,3.865,3.865,0,0,1,1.2-1.9A3.981,3.981,0,0,1,67.9.5a4.086,4.086,0,0,1,2.2.3,3.53,3.53,0,0,1,1.7,1.5,5.659,5.659,0,0,1,.8,2.5ZM71,5.1a5.007,5.007,0,0,0-.9-2.4,2.116,2.116,0,0,0-3.1,0,2.181,2.181,0,0,0-.4.5,3.658,3.658,0,0,0-.3,2.5l.1.6a4.286,4.286,0,0,0,1,2.4,2.28,2.28,0,0,0,1.9.7,2.087,2.087,0,0,0,1.6-1.1,3.872,3.872,0,0,0,.3-2.6ZM81.2,1.5l-4.6-.1V3.8h2a4.058,4.058,0,0,1,1.9.4,2.544,2.544,0,0,1,1.2,1.1,2.934,2.934,0,0,1,.4,1.6,2.574,2.574,0,0,1-1,2.2,3.525,3.525,0,0,1-2.6.8l-3.8-.1.2-10,6.3.1ZM76.5,5.3l-.1,3.4h2a1.872,1.872,0,0,0,1.4-.5,1.9,1.9,0,0,0,.5-1.3,1.457,1.457,0,0,0-.5-1.2,2.106,2.106,0,0,0-1.3-.5Zm9.5-1,2,.3a4,4,0,0,1,1.8.7,2.209,2.209,0,0,1,1,1.3A2.966,2.966,0,0,1,91,8.2a3.168,3.168,0,0,1-1.3,2.1,3.645,3.645,0,0,1-2.7.4l-3.8-.6L84.8.3l1.7.3Zm-.3,1.4L85.1,9l2,.3a2.2,2.2,0,0,0,1.4-.2,1.855,1.855,0,0,0,.7-1.2,1.314,1.314,0,0,0-.3-1.2A2.134,2.134,0,0,0,87.7,6Zm7.5,6-1.7-.3,1.6-9.8,1.7.3ZM106.3,13a3.721,3.721,0,0,1-2,1.9,4.164,4.164,0,0,1-2.9-.2A3.716,3.716,0,0,1,99,11.4,6.375,6.375,0,0,1,99.4,9l.3-.9A5.957,5.957,0,0,1,101.1,6,3.521,3.521,0,0,1,103,5a4.219,4.219,0,0,1,2.2.3,3.748,3.748,0,0,1,2.1,1.8,3.892,3.892,0,0,1,.2,2.8l-1.6-.6a2.479,2.479,0,0,0,0-1.7,2.335,2.335,0,0,0-1.2-1,2.126,2.126,0,0,0-1.9.1,4.26,4.26,0,0,0-1.5,2l-.3.8a4.289,4.289,0,0,0-.4,2.5,1.706,1.706,0,0,0,1.3,1.4,2.22,2.22,0,0,0,1.6.1,2.779,2.779,0,0,0,1.2-1.2Zm3.2,1.2-1.8,3.2-1.5-.8,4.9-8.7,3.3,1.9a3.917,3.917,0,0,1,1.9,2.1,2.808,2.808,0,0,1-.3,2.5,2.817,2.817,0,0,1-2,1.5,4.17,4.17,0,0,1-2.7-.6Zm.7-1.2,1.8,1a1.735,1.735,0,0,0,1.4.3,1.3,1.3,0,0,0,1-.9,1.7,1.7,0,0,0,.2-1.4,2.012,2.012,0,0,0-.9-1.1l-1.9-1Zm8.4,8.6-3.1-2.3-2,1.4L112,19.6l8.9-5.9,1.3.9-2.8,10.3-1.5-1.1Zm-1.9-3.1,2.3,1.7,1.3-4.2Zm3.2,7.1,6.9-7.2,2.5,2.4a4.254,4.254,0,0,1,1.4,2.3,2.456,2.456,0,0,1-.8,2.1,2.384,2.384,0,0,1-1.1.6,3.329,3.329,0,0,1-1.4-.1,1.883,1.883,0,0,1,.3,1.5,2.666,2.666,0,0,1-.7,1.4,2.428,2.428,0,0,1-2.1.9,4.237,4.237,0,0,1-2.4-1.2Zm4.4-2-2.1,2.3,1.4,1.3a2.281,2.281,0,0,0,1.2.6,1.494,1.494,0,0,0,1.5-1.6,1.606,1.606,0,0,0-.5-1.1Zm.8-.9,1.2,1.2a2.281,2.281,0,0,0,1.2.6,1.16,1.16,0,0,0,1-.4,1.19,1.19,0,0,0,.4-1.1,2.589,2.589,0,0,0-.7-1.1L127,20.7Zm5.8,15.1-1.1-1.3,3.5-2.7-2.8-3.5L127,33l-1.1-1.4,7.8-6.2,1.1,1.4-3.2,2.6,2.8,3.5,3.2-2.6,1.1,1.3Zm12.7,1.7.9,1.5-8.6,5-.9-1.5,6.1-3.5-8.3-.2-.9-1.5,8.6-5,.9,1.5-6.1,3.5Zm3.5,11.3-1.2-2.9L138,51.1l-.7-1.6,7.9-3.2L144,43.5l1.3-.5,3,7.3Zm-1.2,4.3.5,2a4.084,4.084,0,0,1,.1,1.9,2.628,2.628,0,0,1-.7,1.5,2.851,2.851,0,0,1-1.4.8A2.891,2.891,0,0,1,142,61a3.621,3.621,0,0,1-1.5-2.3l-1-3.7,9.6-2.5.4,1.7Zm-1.4.4-3.3.9.5,2a1.71,1.71,0,0,0,2.1,1.4,1.589,1.589,0,0,0,1-.8,2.2,2.2,0,0,0,.1-1.4Zm-5,39.5.4-1.7,8.3,2.1,1.1-4.2L141,89.1l.4-1.7,9.6,2.5-1.9,7.6Zm.7,10.8a5.415,5.415,0,0,1-2.2-1.5,3.477,3.477,0,0,1-1-2,4.2,4.2,0,0,1,1.7-4,4.05,4.05,0,0,1,2.1-.7,5.338,5.338,0,0,1,2.5.5l.5.2a5.415,5.415,0,0,1,2.2,1.5,3.811,3.811,0,0,1,1,2,4.2,4.2,0,0,1-1.7,4,4.05,4.05,0,0,1-2.1.7,7.512,7.512,0,0,1-2.6-.5Zm1.2-1.3a4.624,4.624,0,0,0,2.6.4,2.2,2.2,0,0,0,1.6-2.7c-.1-.2-.1-.4-.2-.6a4.469,4.469,0,0,0-2-1.6l-.5-.2a4.624,4.624,0,0,0-2.6-.4,1.828,1.828,0,0,0-1.5,1.3,2.043,2.043,0,0,0,.1,2,4.741,4.741,0,0,0,2.1,1.6Zm-2.2,10.8,1.6-2.7-7.4-4.3.9-1.5,7.4,4.3,1.5-2.7,1.2.7-4,6.8Zm-10.9.4,3,2.3,1.2-1.5-1.8-3.8,1.1-1.5,2,4.3a3.016,3.016,0,0,1,4.1,1.3,2.016,2.016,0,0,1,.3,1.1,4.109,4.109,0,0,1-.9,2.6l-2.1,2.7-7.9-6Zm7.5,1.4a1.575,1.575,0,0,0-1.3-.4,1.742,1.742,0,0,0-1.2.8l-1,1.3,2.8,2.1,1-1.3a2.389,2.389,0,0,0,.5-1.4A1.548,1.548,0,0,0,135.8,117.1ZM120.5,124l1.2-1.2,3.1,3.1,3.2-3.1-3.1-3.1,1.2-1.2,7,7.1-1.2,1.2-2.9-2.9-3.2,3.1,2.9,2.9-1.2,1.2Zm-.3,12.7-1.4,1-5.9-8,1.4-1,4.2,5.7-.7-8.3,1.4-1,5.9,8-1.4,1-4.2-5.7Zm-10.1-8h1a4.869,4.869,0,0,0,.1,1.2,3.552,3.552,0,0,0,.4.9l.7,1.1-1.3.8-.6-1a2.3,2.3,0,0,1-.4-1.4A2.187,2.187,0,0,1,110.1,128.7Zm-7.5,17.1-3.8-9.2,1.6-.7,1.5,3.6a7.815,7.815,0,0,1,2-1.1,4.541,4.541,0,0,1,2.8-.3,3.187,3.187,0,0,1,1.8,1.8l1.2,2.9-1.6.7-1.2-2.9a1.673,1.673,0,0,0-.9-1.1,2,2,0,0,0-1.5.2,12.81,12.81,0,0,0-2,1.1l1.8,4.3Zm-10,1.4,3-.8-2.2-8.3,1.7-.4,2.2,8.3,3-.8.4,1.3-7.6,2Zm-10.3-2.5a5.65,5.65,0,0,1,.2-2.6,3.865,3.865,0,0,1,1.2-1.9,3.97,3.97,0,0,1,4.3-.5,3.53,3.53,0,0,1,1.7,1.5,5.266,5.266,0,0,1,.8,2.4l.1.6a5.65,5.65,0,0,1-.2,2.6,3.865,3.865,0,0,1-1.2,1.9,4.436,4.436,0,0,1-4.3.6,3.53,3.53,0,0,1-1.7-1.5,5.659,5.659,0,0,1-.8-2.5Zm1.8.3a5.007,5.007,0,0,0,.9,2.4,2.116,2.116,0,0,0,3.1,0,2.182,2.182,0,0,0,.4-.5,3.658,3.658,0,0,0,.3-2.5l-.1-.6a4.286,4.286,0,0,0-1-2.4,2.28,2.28,0,0,0-1.9-.7,2.087,2.087,0,0,0-1.6,1.1,3.872,3.872,0,0,0-.3,2.6Zm-10.2,3.5,4.6.1v-2.4h-2a4.058,4.058,0,0,1-1.9-.4,2.544,2.544,0,0,1-1.2-1.1,2.934,2.934,0,0,1-.4-1.6,2.574,2.574,0,0,1,1-2.2,3.525,3.525,0,0,1,2.6-.8l3.8.1-.2,10-6.3-.1Zm4.6-3.7.1-3.4h-2a1.872,1.872,0,0,0-1.4.5,1.9,1.9,0,0,0-.5,1.3,1.457,1.457,0,0,0,.5,1.2,2.106,2.106,0,0,0,1.3.5Zm-16.6-6.5,1.7.3L62,148.4l-1.7-.3Zm7.2,7.5-2-.3a4,4,0,0,1-1.8-.7,2.209,2.209,0,0,1-1-1.3,2.966,2.966,0,0,1-.2-1.6,3.168,3.168,0,0,1,1.3-2.1,3.645,3.645,0,0,1,2.7-.4l3.8.6-1.6,9.8-1.7-.3Zm.2-1.4.6-3.3-2-.3a2.2,2.2,0,0,0-1.4.2,1.855,1.855,0,0,0-.7,1.2,1.592,1.592,0,0,0,.3,1.3,2.134,2.134,0,0,0,1.2.7Zm-20.5-7.3a3.721,3.721,0,0,1,2-1.9,4.164,4.164,0,0,1,2.9.2,3.716,3.716,0,0,1,2.4,3.3,6.375,6.375,0,0,1-.4,2.4l-.3.9a5.957,5.957,0,0,1-1.4,2.1,3.521,3.521,0,0,1-1.9,1,4.219,4.219,0,0,1-2.2-.3,3.748,3.748,0,0,1-2.1-1.8,3.892,3.892,0,0,1-.2-2.8l1.6.6a2.479,2.479,0,0,0,0,1.7,2.335,2.335,0,0,0,1.2,1,2.126,2.126,0,0,0,1.9-.1,4.26,4.26,0,0,0,1.5-2l.3-.8a4.289,4.289,0,0,0,.4-2.5,1.706,1.706,0,0,0-1.3-1.4,2.22,2.22,0,0,0-1.6-.1,2.779,2.779,0,0,0-1.2,1.2Zm-3.3-1.2,1.8-3.2,1.5.8-4.9,8.7-3.3-1.9a3.917,3.917,0,0,1-1.9-2.1,3.192,3.192,0,0,1,2.3-4,4.17,4.17,0,0,1,2.7.6Zm-.7,1.2-1.8-1a1.735,1.735,0,0,0-1.4-.3,1.3,1.3,0,0,0-1,.9,1.7,1.7,0,0,0-.2,1.4,2.012,2.012,0,0,0,.9,1.1l1.9,1Zm-8.3-8.7,3.1,2.3,2-1.4,1.5,1.1-8.9,5.8-1.3-.9L35.7,125l1.5,1.1Zm1.9,3.1-2.3-1.7L34.8,134Zm-3.2-7.1-6.9,7.2-2.5-2.4a4.254,4.254,0,0,1-1.4-2.3,2.456,2.456,0,0,1,.8-2.1,2.384,2.384,0,0,1,1.1-.6,3.329,3.329,0,0,1,1.4.1,1.883,1.883,0,0,1-.3-1.5,2.666,2.666,0,0,1,.7-1.4,2.428,2.428,0,0,1,2.1-.9,4.237,4.237,0,0,1,2.4,1.2Zm-5.3,3-1.2-1.2a2.281,2.281,0,0,0-1.2-.6,1.159,1.159,0,0,0-1,.4,1.19,1.19,0,0,0-.4,1.1,2.589,2.589,0,0,0,.7,1.1l1.2,1.2Zm.9-.9,2.1-2.3-1.4-1.3a2.281,2.281,0,0,0-1.2-.6,1.494,1.494,0,0,0-1.5,1.6,1.606,1.606,0,0,0,.5,1.1Zm-6.7-14.2,1.1,1.3-3.5,2.7,2.8,3.5,3.5-2.7,1.1,1.4-7.8,6.2-1.1-1.4,3.2-2.6-2.8-3.5-3.2,2.6-1.1-1.3Zm-12.6-1.7-.9-1.5,8.6-5,.9,1.5L14,109.1l8.3.2.9,1.5-8.6,5-.9-1.5,6.1-3.5ZM8,99.3l1.2,2.9L17.1,99l.7,1.6-7.9,3.2,1.2,2.8-1.3.5-3-7.3Zm1.2-4.4-.5-2A4.084,4.084,0,0,1,8.6,91a2.628,2.628,0,0,1,.7-1.5,2.851,2.851,0,0,1,1.4-.8,2.891,2.891,0,0,1,2.4.3,3.621,3.621,0,0,1,1.5,2.3l1,3.7L6,97.5l-.4-1.7Zm1.3-.3,3.3-.9-.5-2a1.991,1.991,0,0,0-.8-1.2,2,2,0,0,0-1.3-.2,1.589,1.589,0,0,0-1,.8,2.2,2.2,0,0,0-.1,1.4ZM7.1,68l7.1,7.1L7.1,82.2,0,75.1ZM148,68l7.1,7.1L148,82.2l-7.1-7.1Z" transform="translate(0 0.2)"/></svg>