<svg xmlns="http://www.w3.org/2000/svg" width="135" height="30" viewBox="0 0 135 30"><defs><style>.a{fill:#fff;}.b{fill:#1ab248;fill-rule:evenodd;}</style></defs><rect class="a" width="135" height="30"/><path class="b" d="M54.64,25h5.865l2.52-7.08,2.655-2.16,2.055,6.39C68.38,24.13,69.04,25,70.465,25h4.5L70.3,12.445,81.43,2.5H74.245L67.48,9.58c-.795.825-1.59,1.635-2.385,2.6h0L68.4,2.5h-5.85Z" transform="translate(27.32 1.25)"/><path class="b" d="M60.645,2.5H65.76l-1.2,3.75c-.39,1.17-1.35,1.725-3.48,1.725H48.225l1.215-3.75C49.815,3.055,50.79,2.5,52.9,2.5ZM49.92,11.035H62.79L61.575,14.74c-.39,1.17-1.35,1.725-3.48,1.725H45.24l1.2-3.7c.375-1.17,1.35-1.725,3.465-1.725Zm9.735,8.52H46.8c-2.13,0-3.09.555-3.48,1.725L42.12,25H54.975c2.115,0,3.09-.555,3.465-1.725Z" transform="translate(21.06 1.25)"/><path class="b" d="M40.915,7.915h3.12c2.685,0,2.07,3.24.705,6.4-1.185,2.79-3.315,5.235-5.835,5.235h-5.22c-2.085,0-3,.555-3.465,1.725L28.93,25h7.6c3.33,0,6-.255,9.255-3s7.305-10.5,6.63-15c-.525-3.45-2.445-4.5-7.08-4.5H36.88L31.945,16.45h3.09c1.86,0,2.79,0,3.78-2.565Z" transform="translate(14.465 1.25)"/><path class="b" d="M32.184,7.948h-2.37c-4.74,0-8.8,11.61-3.195,11.61h3.645c2.07,0,3.615.735,3,2.715L32.214,25h-6.93c-3.975,0-6.54-1.935-7.5-4.815-1-3.12.4-9.615,4.5-13.785a13.365,13.365,0,0,1,9.93-3.9h7.8L38.8,5.908a2.88,2.88,0,0,1-3.315,2.04Z" transform="translate(8.736 1.247)"/></svg>