<svg xmlns="http://www.w3.org/2000/svg" width="17.708" height="18.001" viewBox="0 0 17.708 18.001"><defs><style>.a{fill:#242424;}</style></defs><g transform="translate(0)"><path class="a" d="M15.962,16.224a1,1,0,0,1-1.418.014l-.014-.014L11.594,13.24A7.933,7.933,0,0,1,.919,12.583,8.339,8.339,0,0,1,.919.937a8.013,8.013,0,0,1,11.461,0,8.254,8.254,0,0,1,.646,10.847l2.935,2.985a1.039,1.039,0,0,1,0,1.454ZM10.947,2.392a6.007,6.007,0,0,0-8.6,0,6.254,6.254,0,0,0,0,8.736,6.008,6.008,0,0,0,8.594,0,6.245,6.245,0,0,0,0-8.736Z" transform="translate(1.451 1.475)"/></g></svg>