<svg xmlns="http://www.w3.org/2000/svg" width="80" height="80.6" viewBox="0 0 80 80.6"><defs><style>.a{fill:#ee8d10;}.b{fill:#1b1b1b;}.c{fill:none;}</style></defs><path class="a" d="M50,55.7a4.5,4.5,0,1,1,4.5-4.5A4.613,4.613,0,0,1,50,55.7ZM46.8,1.1l-15,8.6H51.7ZM2.7,26.5,14.6,47.1V19.7Zm30.5,53,14.9-8.6H28.3ZM77.3,54,65.4,33.5V60.9Z"/><path class="b" d="M57.7,18.3H22.3V16.7H57.7Zm0,6.1H22.3V26H57.7Zm0,7.8H22.3v1.6H57.7Zm0,7.7H22.3v1.6H57.7ZM40,47.6H22.3v1.6H40Zm5.5,3.6A4.5,4.5,0,1,1,50,55.7,4.546,4.546,0,0,1,45.5,51.2Zm1.6,0A2.9,2.9,0,1,0,50,48.3,2.9,2.9,0,0,0,47.1,51.2Zm8.8,4.9,4.9,8.4-5.7-.8L53,69l-3-5.1L47.1,69,45,63.7l-5.7.8,4.9-8.4a7.556,7.556,0,0,1-1.8-4.9,7.7,7.7,0,1,1,15.4,0A8.751,8.751,0,0,1,55.9,56.1ZM50,57.3a6.1,6.1,0,1,0-6.1-6.1A6.124,6.124,0,0,0,50,57.3Zm4.7-.1a7.7,7.7,0,0,1-9.4,0l-3,5.2,3.7-.5,1.4,3.4,2.7-4.7,2.7,4.7,1.4-3.4,3.7.5Zm23.7-2.9-12.2,7V71.6H48.4L33,80.6l-5.2-8.9h-14V47.3L1.6,26.2l12.2-7V8.9H31.6L47,0l5.2,8.9h14V33.2ZM13.8,21.1l-10,5.8,10,17.3Zm21-12.2H50.4L46.5,2.2ZM45.2,71.7H29.6l3.9,6.7ZM64.6,10.5H15.4V70.1H64.7V10.5Zm1.6,49,10-5.8-10-17.3Z"/><rect class="c" width="80" height="80.6"/></svg>