<svg xmlns="http://www.w3.org/2000/svg" width="47.96" height="30" viewBox="0 0 47.96 30"><defs><style>.a{fill:#e21836;}.b{fill:#00447c;}.c{fill:#007b84;}.d{fill:#fefefe;}</style></defs><g transform="translate(0 -0.001)"><path class="a" d="M9.392,0h11.97a2.333,2.333,0,0,1,2.321,3.039L18.11,26.967A4.068,4.068,0,0,1,14.372,30H2.4a2.332,2.332,0,0,1-2.32-3.034L5.657,3.039A4.057,4.057,0,0,1,9.392,0" transform="translate(0 0)"/><path class="b" d="M67.867,0H81.633c1.671,0,.917,1.362.524,3.039L76.585,26.967C76.194,28.637,76.316,30,74.642,30H60.876a2.326,2.326,0,0,1-2.317-3.034L64.131,3.039A4.065,4.065,0,0,1,67.867,0" transform="translate(-47.5 0)"/><path class="c" d="M138.3,0h11.97a2.33,2.33,0,0,1,2.32,3.039l-5.572,23.928A4.069,4.069,0,0,1,143.282,30H131.317A2.329,2.329,0,0,1,129,26.967L134.57,3.039A4.056,4.056,0,0,1,138.3,0" transform="translate(-104.718 0)"/><path class="d" d="M35.84,40.673a12.862,12.862,0,0,1-1.711-.027c-.045.212-.875,4.044-.878,4.047a2.806,2.806,0,0,1-.751,1.685,1.338,1.338,0,0,1-.883.308A.817.817,0,0,1,30.7,45.9l-.01-.177s.166-1.038.166-1.044.872-3.492,1.028-3.953a.337.337,0,0,0,.013-.053,12.813,12.813,0,0,1-2.018-.027c-.011.038-.053.254-.053.254l-.89,3.936-.076.334-.148,1.092a1.606,1.606,0,0,0,.19.812c.406.709,1.562.815,2.217.815a4.3,4.3,0,0,0,2.169-.506,3.213,3.213,0,0,0,1.387-2.167l.1-.391s.9-3.627,1.051-4.1A.165.165,0,0,1,35.84,40.673ZM38.9,43.6a2.372,2.372,0,0,0-.968.227c-.129.066-.251.143-.38.219l.116-.419-.064-.071c-.754.153-.922.173-1.618.271l-.058.039a20.593,20.593,0,0,1-.452,2.491c-.114.486-.233.976-.351,1.46l.032.062c.713-.038.93-.038,1.55-.027l.05-.055c.079-.4.089-.5.263-1.315.082-.387.253-1.239.337-1.542a1.156,1.156,0,0,1,.454-.142c.348,0,.305.3.292.424-.015.2-.142.865-.271,1.434l-.087.367c-.06.271-.127.535-.187.8l.026.054c.7-.038.918-.038,1.518-.027l.071-.055c.109-.63.14-.8.333-1.717l.1-.422c.188-.825.283-1.244.14-1.584A.819.819,0,0,0,38.9,43.6Zm3.414.864c-.374.072-.612.12-.849.151s-.464.072-.825.122l-.029.026-.026.021c-.038.269-.064.5-.114.775s-.107.6-.213,1.066a4.188,4.188,0,0,1-.171.6,5.2,5.2,0,0,0-.188.593l.022.032.018.029c.338-.016.558-.027.785-.029s.462,0,.825,0l.032-.026.034-.029c.053-.313.06-.4.092-.551s.087-.391.221-1c.064-.285.134-.569.2-.859s.14-.575.209-.859l-.01-.034Zm.008-1.165a1.37,1.37,0,0,0-1.337.14c-.4.271-.446.656-.107.86a1.366,1.366,0,0,0,1.33-.142C42.6,43.878,42.652,43.5,42.317,43.3Zm2.054,4.642a2.553,2.553,0,0,0,1.922-.751,3.407,3.407,0,0,0,.66-1.413,1.8,1.8,0,0,0-.16-1.621,1.768,1.768,0,0,0-1.442-.53,2.647,2.647,0,0,0-1.811.627,2.968,2.968,0,0,0-.8,1.564c-.13.567-.279,1.587.659,1.966A2.747,2.747,0,0,0,44.371,47.94Zm-.054-2.082c.158-.7.346-1.289.823-1.289.374,0,.4.438.235,1.141a3.142,3.142,0,0,1-.351.984.58.58,0,0,1-.45.293c-.05,0-.349,0-.353-.443A3.03,3.03,0,0,1,44.317,45.858ZM48.67,47.85l.054-.055c.076-.4.089-.5.257-1.315.084-.387.259-1.239.341-1.542a1.14,1.14,0,0,1,.456-.143c.345,0,.3.3.289.424a13.8,13.8,0,0,1-.271,1.434l-.082.367c-.063.271-.131.535-.191.8l.026.054c.706-.038.912-.038,1.516-.027l.073-.055c.106-.631.135-.8.333-1.716l.094-.422c.189-.825.285-1.243.145-1.584a.828.828,0,0,0-.846-.474,2.36,2.36,0,0,0-.968.227c-.126.066-.253.142-.377.219l.108-.419-.058-.071c-.753.153-.925.173-1.621.271l-.053.039a21.326,21.326,0,0,1-.453,2.491c-.114.486-.233.976-.351,1.46l.032.062C47.838,47.84,48.051,47.84,48.67,47.85Zm5.184.027c.044-.216.308-1.5.31-1.5s.224-.942.238-.976a.557.557,0,0,1,.141-.137h.1a4.823,4.823,0,0,0,2.954-.638,3.148,3.148,0,0,0,1.174-1.869,2.822,2.822,0,0,0,.081-.651,1.367,1.367,0,0,0-.235-.831c-.442-.619-1.323-.63-2.34-.635l-.5,0c-1.3.016-1.824.011-2.038-.015-.018.095-.052.263-.052.263s-.466,2.161-.466,2.164L52.055,47.87C53.191,47.856,53.657,47.856,53.853,47.877Zm.864-3.839s.5-2.156.493-2.148l.016-.111.007-.084.2.02,1.046.09a.852.852,0,0,1,.454,1.084,1.576,1.576,0,0,1-.817,1.078,2.582,2.582,0,0,1-1.149.179H54.7ZM57.8,45.9c-.131.558-.282,1.578.652,1.942a1.822,1.822,0,0,0,.835.151,1.379,1.379,0,0,0,.8-.366l-.067.255.042.055c.671-.028.88-.028,1.607-.023l.066-.05c.106-.624.206-1.231.482-2.425.135-.572.269-1.139.407-1.709l-.022-.063c-.751.139-.952.169-1.674.271l-.055.045c-.007.058-.015.114-.022.17a1.032,1.032,0,0,0-.526-.433,2.011,2.011,0,0,0-1.724.627A2.927,2.927,0,0,0,57.8,45.9Zm1.577.034c.161-.688.346-1.271.824-1.271.3,0,.462.279.429.755-.026.119-.053.244-.086.385-.048.2-.1.407-.15.61a1.488,1.488,0,0,1-.177.357.827.827,0,0,1-.585.283c-.048,0-.343,0-.353-.435A2.985,2.985,0,0,1,59.381,45.932Zm8.237-2.273-.058-.066c-.743.151-.878.174-1.56.267l-.05.05c0,.008,0,.021-.008.032l0-.011c-.508,1.173-.493.92-.907,1.843,0-.042,0-.068,0-.113l-.1-2-.065-.066c-.779.151-.8.174-1.516.267l-.056.05a.546.546,0,0,0-.013.079l0,.01a10.076,10.076,0,0,1,.158,1.082c.042.356.1.713.14,1.065.071.588.111.877.2,1.775-.485.8-.6,1.1-1.068,1.808l0,.007-.329.521a.249.249,0,0,1-.12.109.5.5,0,0,1-.216.031h-.182l-.271.9.93.016a1.146,1.146,0,0,0,1.074-.6l.585-1h-.009l.062-.071C64.626,48.792,67.618,43.659,67.618,43.659ZM57.8,55.5h-.395l1.46-4.829h.484l.154-.5.015.553c-.018.342.251.645.958.595H61.3l.281-.93h-.307c-.177,0-.259-.045-.249-.14l-.015-.563H59.494v0a21.217,21.217,0,0,0-2.246.126,2.645,2.645,0,0,0-.735.364l.148-.5H55.245l-.3.988-1.48,4.9h-.287L52.9,56.5h2.82l-.094.308h1.389l.092-.308h.39Zm-1.157-3.848a6.315,6.315,0,0,0-.648.253l.375-1.234H57.5l-.271.9A3.657,3.657,0,0,0,56.647,51.652Zm.022,1.763s-.353.044-.586.1a5.724,5.724,0,0,0-.659.288l.388-1.284h1.13Zm-.63,2.1H54.91l.327-1.084h1.125Zm2.717-3h1.626l-.234.757H58.5l-.247.827h1.442L58.6,55.638a.448.448,0,0,1-.221.185.647.647,0,0,1-.293.084h-.4l-.275.906H58.46a1.272,1.272,0,0,0,1.1-.572l.749-1.025.161,1.041a.489.489,0,0,0,.269.353.97.97,0,0,0,.366.156c.164.007.282.013.361.013h.514l.309-1.014h-.2a.849.849,0,0,1-.351-.056.549.549,0,0,1-.052-.217l-.163-1.043h-.668l.293-.349h1.645l.253-.827H61.521l.237-.757h1.518l.282-.933H59.032ZM45.019,55.722l.38-1.263h1.56l.285-.939H45.682l.238-.777h1.526l.283-.91H43.911l-.277.91H44.5l-.231.777H43.4l-.288.955h.867l-.506,1.671a.4.4,0,0,0,.1.408.418.418,0,0,0,.279.2,1.682,1.682,0,0,0,.4.055h1.759l.313-1.041-.78.107C45.391,55.88,44.974,55.862,45.019,55.722Zm.179-6.045-.4.715a.83.83,0,0,1-.229.3.759.759,0,0,1-.353.053h-.206l-.276.914h.685a1.553,1.553,0,0,0,.7-.181c.13-.069.164-.03.264-.127l.231-.2h2.139l.284-.952H46.479l.273-.52Zm3.158,6.064c-.036-.053-.01-.145.046-.338l.585-1.935h2.08c.3,0,.522-.008.664-.018a1.361,1.361,0,0,0,.5-.169.934.934,0,0,0,.364-.335,2.853,2.853,0,0,0,.359-.814l.735-2.449-2.159.013a6.841,6.841,0,0,0-.957.206,3.915,3.915,0,0,0-.717.458l.195-.671H48.718L46.851,55.88a3.831,3.831,0,0,0-.121.52c0,.113.142.225.237.309a.85.85,0,0,0,.435.084c.167.013.4.02.731.02h1.025l.315-1.062-.917.087A.242.242,0,0,1,48.356,55.741Zm1.008-3.58h2.185l-.139.435a1.565,1.565,0,0,0-.289,0H49.229ZM49.8,50.7H52l-.159.524s-1.038-.01-1.2.02a2.458,2.458,0,0,0-1.159.518Zm1.657,3.353a.233.233,0,0,1-.087.135.434.434,0,0,1-.223.039h-.311l.018-.53H49.561l-.053,2.592c0,.187.016.3.153.382a2.6,2.6,0,0,0,1.126.122H51.6l.293-.97-.706.039-.235.014a.268.268,0,0,1-.1-.06c-.03-.029-.08-.011-.072-.2l.005-.664.741-.031a.96.96,0,0,0,.717-.254.8.8,0,0,0,.237-.44l.124-.588H51.589Z" transform="translate(-23.321 -33.004)"/></g></svg>