<svg xmlns="http://www.w3.org/2000/svg" width="43.3" height="14" viewBox="0 0 43.3 14"><defs><style>.a{fill:#01549a;}.b{fill:#f7a707;}</style></defs><path class="a" d="M15.2,13.8,17.4.2h3.5L18.7,13.8Z"/><path class="a" d="M31.4.6A8.533,8.533,0,0,0,28.3,0c-3.5,0-5.9,1.8-5.9,4.5,0,2,1.7,3,3.1,3.7,1.3.7,1.8,1.1,1.8,1.7,0,.9-1.1,1.3-2.1,1.3a7.535,7.535,0,0,1-3.3-.7l-.4-.2-.5,3a10.361,10.361,0,0,0,3.9.7c3.7,0,6.1-1.8,6.1-4.6,0-1.6-.9-2.7-2.9-3.7-1.2-.6-2-1-2-1.7s.6-1.2,2-1.2a7.512,7.512,0,0,1,2.6.5l.3.2Z"/><path class="a" d="M36.1,9l1.4-3.8s.3-.8.5-1.3l.2,1.2s.7,3.2.8,3.9ZM40.4.3H37.7a1.675,1.675,0,0,0-1.8,1.1L30.7,13.8h3.7s.6-1.7.7-2h4.5l.4,2h3.3Z"/><path class="a" d="M12.3.3,8.9,9.5,8.5,7.6A10.736,10.736,0,0,0,3.7,1.9L6.8,13.8h3.7L16,.3Z"/><path class="b" d="M5.7.2H0V.5C4.4,1.6,7.3,4.3,8.5,7.6L7.3,1.4A1.712,1.712,0,0,0,5.7.2Z"/></svg>